<?xml version="1.0" encoding="utf-8"?>
<!-- Generator: Adobe Illustrator 15.0.2, SVG Export Plug-In  -->
<!DOCTYPE svg PUBLIC "-//W3C//DTD SVG 1.1//EN" "http://www.w3.org/Graphics/SVG/1.1/DTD/svg11.dtd" [
	<!ENTITY ns_flows "http://ns.adobe.com/Flows/1.0/">
]>
<svg version="1.1"
	 xmlns="http://www.w3.org/2000/svg" xmlns:xlink="http://www.w3.org/1999/xlink" xmlns:a="http://ns.adobe.com/AdobeSVGViewerExtensions/3.0/"
	 x="0px" y="0px" width="193px" height="60px" viewBox="-0.14 -0.208 193 60"
	 overflow="visible" enable-background="new -0.14 -0.208 193 60" xml:space="preserve">
<defs>
</defs>
<path fill="#FFFFFF" d="M93.565,33.537c-0.111,0.138-0.457,0.147-0.633,0.16c-0.43,0.036-1.137,0.056-1.131,0.66
	c0.002,0.367,0.309,0.518,0.645,0.518c0.562,0,0.92-0.34,1.025-0.844l0.105-0.484L93.565,33.537 M92.377,35.171
	c-0.525,0-0.924-0.236-0.93-0.799c-0.004-0.61,0.477-0.804,0.99-0.892c0.367-0.058,0.693-0.029,0.916-0.085
	c0.227-0.055,0.342-0.185,0.338-0.562c-0.002-0.342-0.342-0.414-0.611-0.414c-0.447,0-0.83,0.166-0.896,0.646h-0.352
	c0.088-0.652,0.588-0.943,1.207-0.943c0.391,0,1,0.136,1.004,0.643c0.004,0.28-0.115,0.716-0.17,0.973
	c-0.121,0.646-0.182,0.797-0.18,0.969c0.002,0.102,0.102,0.118,0.188,0.118c0.049,0,0.088-0.006,0.137-0.013l-0.047,0.281
	c-0.078,0.018-0.195,0.027-0.289,0.027c-0.195,0-0.303-0.123-0.309-0.312c0-0.051,0.004-0.106,0.008-0.156l-0.01-0.012
	C93.174,34.975,92.78,35.171,92.377,35.171"/>
<path fill="#FFFFFF" d="M98.668,32.419c-0.766,0-1.186,0.843-1.178,1.518c0.006,0.556,0.287,0.938,0.873,0.938
	c0.77,0,1.17-0.881,1.164-1.551C99.522,32.789,99.233,32.419,98.668,32.419 M98.297,35.171c-0.738,0-1.152-0.479-1.158-1.201
	c-0.01-0.943,0.562-1.848,1.59-1.848c0.67,0,1.143,0.42,1.148,1.129C99.889,34.222,99.366,35.171,98.297,35.171"/>
<path fill="#FFFFFF" d="M85.356,5.073l1.039-5.072h3.098C87.913,1.603,86.532,3.299,85.356,5.073"/>
<path fill="#FFFFFF" d="M94.862,29.037h-5.066c-1.137-1.288-2.033-2.738-2.666-4.33c-0.73-1.839-1.104-3.83-1.104-5.914
	c0-2.711,0.619-5.466,1.838-8.187c1.268-2.83,3.127-5.48,5.525-7.878C94.391,1.726,95.452,0.814,96.565,0h4.898
	c-0.158,0.074-0.316,0.147-0.475,0.226C98.868,1.262,96.92,2.66,95.2,4.381c-1.803,1.804-3.25,3.783-4.297,5.883
	c-1.014,2.033-1.629,4.121-1.826,6.205c-0.398,4.223,0.961,8.127,3.824,10.992C93.497,28.056,94.153,28.583,94.862,29.037"/>
<path fill="#FFFFFF" d="M88.542,29.037h-4.299c-0.473-0.795-0.883-1.625-1.227-2.49c-0.562-1.405-0.947-2.882-1.154-4.412
	l2.914-14.228c1.426-2.642,3.299-5.132,5.59-7.422C90.53,0.322,90.694,0.16,90.86,0h4.129c-0.789,0.635-1.551,1.319-2.281,2.049
	c-2.48,2.482-4.404,5.228-5.719,8.165c-1.277,2.842-1.924,5.73-1.924,8.58c0,2.205,0.395,4.317,1.172,6.268
	C86.809,26.499,87.581,27.831,88.542,29.037"/>
<path fill="#FFFFFF" d="M106.575,20.943l0.309-1.518c0.814-0.35,1.582-0.864,2.23-1.514c1.07-1.071,1.719-2.4,1.826-3.747
	c0.107-1.356-0.33-2.602-1.236-3.508c-0.264-0.261-0.562-0.483-0.889-0.661l0.334-1.622c0.652,0.245,1.236,0.617,1.73,1.109
	c1.033,1.035,1.58,2.344,1.58,3.787c0,1.876-0.949,3.855-2.67,5.578C108.823,19.816,107.709,20.519,106.575,20.943"/>
<path fill="#FFFFFF" d="M107.127,18.231l1.482-7.235c0.146,0.101,0.285,0.214,0.414,0.342c0.703,0.703,1.043,1.682,0.957,2.75
	c-0.088,1.121-0.637,2.236-1.547,3.144C108.042,17.625,107.598,17.961,107.127,18.231"/>
<path fill="#FFFFFF" d="M105.983,23.819l0.367-1.783c1.498-0.451,2.924-1.312,4.119-2.507c1.904-1.904,2.951-4.126,2.951-6.259
	c0-1.704-0.645-3.248-1.863-4.466c-0.617-0.618-1.373-1.083-2.215-1.376l0.379-1.845c1.219,0.308,2.305,0.912,3.176,1.786
	c3.346,3.346,2.711,9.022-1.473,13.206C109.813,22.186,107.913,23.308,105.983,23.819"/>
<path fill="#FFFFFF" d="M84.042,32.419c-0.809,0-1.219,0.892-1.211,1.596c0.004,0.49,0.252,0.859,0.783,0.859
	c0.809,0,1.246-0.913,1.238-1.623C84.848,32.749,84.555,32.419,84.042,32.419 M83.583,35.171c-0.738,0-1.098-0.475-1.104-1.178
	c-0.01-0.883,0.59-1.871,1.555-1.871c0.453,0,0.811,0.173,0.943,0.626h0.012l0.328-1.646h0.354l-0.816,3.984h-0.34l0.125-0.521
	h-0.014C84.383,34.946,84.09,35.171,83.583,35.171"/>
<path fill="#FFFFFF" d="M83.133,29.037h-2.686l0.914-4.456c0.203,0.792,0.457,1.564,0.762,2.323
	C82.415,27.638,82.752,28.35,83.133,29.037"/>
<path fill="#FFFFFF" d="M86.526,35.171c-0.5,0-0.871-0.226-0.877-0.777c0-0.088,0.016-0.205,0.041-0.338l0.379-1.848h0.352
	l-0.385,1.857c-0.02,0.09-0.037,0.195-0.035,0.291c0.002,0.379,0.295,0.518,0.607,0.518c0.508,0,0.967-0.459,1.115-1.19l0.305-1.476
	h0.352l-0.594,2.878h-0.322l0.096-0.523h-0.012C87.333,34.901,86.956,35.171,86.526,35.171"/>
<polygon fill="#FFFFFF" points="81.959,35.086 79.235,35.086 80.045,31.103 82.719,31.103 82.649,31.426 80.362,31.426 
	80.069,32.864 82.206,32.864 82.135,33.189 80.004,33.189 79.684,34.764 82.028,34.764 "/>
<path fill="#FFFFFF" d="M96.825,6.749h-2.479c0.477-0.578,0.988-1.143,1.533-1.688c2.445-2.443,5.301-4.143,8.203-5.06h2.703
	l-0.312,1.527c-3.354,0.488-6.619,2.185-9.25,4.812C97.088,6.476,96.956,6.613,96.825,6.749"/>
<path fill="#FFFFFF" d="M105.377,26.779l0.395-1.919c2.248-0.496,4.475-1.749,6.334-3.606c4.57-4.572,5.203-10.833,1.473-14.565
	c-1.01-1.01-2.26-1.702-3.666-2.05l0.436-2.128c1.893,0.332,3.615,1.167,4.975,2.527c1.826,1.824,2.809,4.069,2.898,6.574
	c0.004,0.126,0.006,0.254,0.006,0.381c0,0.538-0.039,1.088-0.121,1.646c-0.447,3.085-2.105,6.195-4.668,8.757
	C111.176,24.656,108.29,26.207,105.377,26.779"/>
<path fill="#FFFFFF" d="M100.77,17.743h-1.711c-0.135-0.481-0.201-0.992-0.201-1.526c0-1.823,0.822-3.739,2.266-5.321h1.773
	c-0.205,0.162-0.402,0.338-0.588,0.527c-1.281,1.283-1.988,2.83-1.988,4.363C100.321,16.486,100.477,17.152,100.77,17.743"/>
<path fill="#FFFFFF" d="M105.407,6.749h-2.824c0.982-0.548,2.016-0.946,3.064-1.178L105.407,6.749"/>
<path fill="#FFFFFF" d="M118.764,8.962c-0.014-0.049-0.027-0.097-0.041-0.144c-0.508-1.666-1.424-3.165-2.721-4.462
	c-1.141-1.143-2.529-1.973-4.121-2.466c-0.438-0.134-0.885-0.241-1.338-0.323L110.864,0h2.809c1.523,0.563,2.914,1.427,4.088,2.602
	c1.215,1.214,2.133,2.606,2.74,4.147h-1.283L118.764,8.962"/>
<path fill="#FFFFFF" d="M124.799,6.749h-3.271c-0.65-1.805-1.689-3.427-3.088-4.828c-0.752-0.752-1.594-1.394-2.518-1.921h5.242
	C122.95,1.919,124.176,4.218,124.799,6.749"/>
<path fill="#FFFFFF" d="M100.803,6.749H98.18c2.406-2.301,5.277-3.726,8.086-4.213l-0.41,2.014
	C104.086,4.869,102.356,5.625,100.803,6.749"/>
<path fill="#FFFFFF" d="M101.881,23.938c-1.252-0.29-2.391-0.896-3.359-1.791h3.709h0.025l-0.002,0.007L101.881,23.938"/>
<path fill="#FFFFFF" d="M95.344,17.743h-2.176c-0.004-0.136-0.01-0.273-0.01-0.411c0-2.171,0.617-4.363,1.777-6.437h2.057
	c-1.102,1.841-1.703,3.863-1.703,5.843C95.29,17.079,95.309,17.414,95.344,17.743"/>
<path fill="#FFFFFF" d="M101.264,26.903c-2.076-0.312-3.9-1.212-5.344-2.654c-0.623-0.625-1.148-1.331-1.568-2.102h2.84
	c0.137,0.163,0.277,0.316,0.428,0.467c1.152,1.15,2.533,1.918,4.066,2.265L101.264,26.903"/>
<path fill="#FFFFFF" d="M100.821,29.037h-3.922c-1.256-0.553-2.371-1.309-3.316-2.255c-2.66-2.66-3.92-6.291-3.549-10.224
	c0.307-3.24,1.713-6.518,4.018-9.439l-0.77,3.775h0.562c-1.076,2.077-1.645,4.267-1.645,6.438c0,0.137,0.004,0.272,0.008,0.411
	H91.87l-0.881,4.406h2.283c0.496,1.028,1.156,1.969,1.969,2.779c1.578,1.581,3.57,2.571,5.828,2.919L100.821,29.037"/>
<path fill="#FFFFFF" d="M98.071,17.743h-1.76c-0.039-0.326-0.059-0.661-0.059-1.004c0-1.984,0.664-4.022,1.875-5.843h1.738
	c-0.51,0.649-0.928,1.339-1.248,2.061c-0.479,1.077-0.721,2.174-0.721,3.26C97.897,16.741,97.956,17.252,98.071,17.743"/>
<path fill="#FFFFFF" d="M108.143,29.037h-3.227l0.254-1.244c3.229-0.546,6.453-2.224,8.947-4.719c0.885-0.883,1.664-1.83,2.334-2.82
	l-0.801,3.904c-0.1,0.103-0.199,0.207-0.303,0.308C113.303,26.512,110.799,28.081,108.143,29.037"/>
<path fill="#FFFFFF" d="M112.817,35.121c-0.26,0-0.531-0.067-0.535-0.414c0-0.061,0.012-0.168,0.039-0.295l0.377-1.909h-0.52
	l0.064-0.294h0.52l0.176-0.869h0.352l-0.178,0.869h0.576l-0.053,0.294h-0.584l-0.379,1.845c-0.029,0.138-0.037,0.188-0.035,0.277
	c0,0.102,0.049,0.2,0.186,0.2c0.139,0,0.271-0.009,0.412-0.034l-0.059,0.308C113.059,35.108,112.934,35.121,112.817,35.121"/>
<path fill="#FFFFFF" d="M114.651,29.037h-4.062c1.697-0.839,3.299-1.919,4.719-3.205L114.651,29.037"/>
<path fill="#FFFFFF" d="M107.983,35.086h-0.352l0.592-2.878h0.318l-0.139,0.662h0.012c0.215-0.409,0.516-0.703,1.023-0.703h0.012
	c0.061,0,0.127,0,0.191,0.006l-0.076,0.351c-0.068,0-0.133-0.004-0.203-0.004c-0.627,0.011-0.959,0.519-1.068,1.062L107.983,35.086"
	/>
<path fill="#FFFFFF" d="M110.59,35.171c-0.555,0-1.121-0.303-1.094-1.021h0.354c-0.004,0.556,0.414,0.724,0.818,0.724
	c0.312,0,0.725-0.162,0.723-0.529c-0.006-0.374-0.402-0.493-0.781-0.637c-0.387-0.15-0.775-0.324-0.779-0.8
	c-0.006-0.558,0.596-0.786,1.057-0.786c0.605,0,1.045,0.263,1.037,0.927h-0.354c0.027-0.44-0.283-0.63-0.68-0.63
	c-0.305,0-0.713,0.096-0.709,0.489c0.004,0.269,0.289,0.402,0.615,0.532c0.396,0.155,0.938,0.316,0.945,0.847
	C111.747,34.935,111.135,35.171,110.59,35.171"/>
<path fill="#FFFFFF" d="M119.471,18.842h-2.154c0.896-1.636,1.492-3.352,1.742-5.064c0.086-0.605,0.129-1.201,0.129-1.785h2.16
	c-0.02,0.379-0.049,0.761-0.096,1.148C121.018,15.06,120.409,16.989,119.471,18.842"/>
<path fill="#FFFFFF" d="M129.295,6.749h-3.508c-0.576-2.495-1.703-4.785-3.342-6.749h4.533c0.449,0.776,0.84,1.584,1.172,2.425
	C128.696,3.802,129.077,5.249,129.295,6.749"/>
<path fill="#FFFFFF" d="M129.885,4.733c-0.219-0.909-0.498-1.797-0.84-2.66c-0.283-0.712-0.604-1.405-0.963-2.073h2.77
	L129.885,4.733"/>
<path fill="#FFFFFF" d="M126.766,18.842h-2.215c0.824-1.992,1.359-4.04,1.576-6.088c0.025-0.254,0.047-0.509,0.062-0.761h1.957
	L126.766,18.842"/>
<polygon fill="#FFFFFF" points="107.723,31.665 107.37,31.665 107.489,31.103 107.84,31.103 "/>
<path fill="#FFFFFF" d="M123.506,18.842h-2.967c0.869-1.82,1.436-3.707,1.668-5.584c0.051-0.426,0.084-0.845,0.102-1.264h2.92
	c-0.018,0.219-0.035,0.44-0.059,0.66C124.952,14.735,124.385,16.82,123.506,18.842"/>
<path fill="#FFFFFF" d="M95.125,35.121c-0.262,0-0.529-0.066-0.531-0.414c-0.002-0.062,0.008-0.166,0.033-0.295l0.381-1.909h-0.521
	l0.064-0.294h0.52l0.176-0.869h0.352l-0.176,0.869h0.574l-0.051,0.294h-0.588l-0.377,1.847c-0.029,0.135-0.039,0.186-0.037,0.275
	c0.002,0.102,0.053,0.2,0.186,0.2c0.141,0,0.273-0.011,0.414-0.034l-0.061,0.307C95.366,35.111,95.245,35.121,95.125,35.121"/>
<polygon fill="#FFFFFF" points="96.364,35.086 96.014,35.086 96.604,32.208 96.958,32.208 "/>
<polygon fill="#FFFFFF" points="97.069,31.665 96.717,31.665 96.833,31.103 97.186,31.103 "/>
<path fill="#FFFFFF" d="M89.715,35.171c-0.713,0-1.115-0.479-1.121-1.189c-0.01-0.898,0.559-1.859,1.545-1.859
	c0.625,0,1.102,0.313,1.086,0.981h-0.35c0.021-0.427-0.287-0.685-0.701-0.685c-0.842,0-1.234,0.812-1.227,1.562
	c0.004,0.511,0.264,0.893,0.811,0.893c0.463,0,0.795-0.304,0.941-0.719h0.352C90.844,34.812,90.413,35.171,89.715,35.171"/>
<polygon fill="#FFFFFF" points="104.071,35.086 103.694,35.086 104.506,31.103 107.055,31.103 106.993,31.426 104.823,31.426 
	104.528,32.864 106.454,32.864 106.395,33.189 104.459,33.189 "/>
<polygon fill="#FFFFFF" points="107.018,35.086 106.667,35.086 107.258,32.208 107.612,32.208 "/>
<path fill="#FFFFFF" d="M102.915,17.743h-1.029c-0.395-0.551-0.602-1.219-0.602-1.957c0-1.277,0.604-2.585,1.703-3.683
	c0.387-0.388,0.812-0.713,1.262-0.972L102.915,17.743"/>
<path fill="#FFFFFF" d="M102.374,35.086h-0.35l0.383-1.858c0.02-0.088,0.037-0.194,0.037-0.289
	c-0.004-0.381-0.295-0.519-0.607-0.519c-0.508,0-0.967,0.456-1.115,1.188l-0.303,1.478h-0.354l0.592-2.878h0.324l-0.094,0.523h0.008
	c0.215-0.342,0.592-0.609,1.021-0.609c0.5,0,0.871,0.226,0.875,0.775c0.002,0.09-0.01,0.206-0.037,0.343L102.374,35.086"/>
<text transform="matrix(1 0 0 1 0 57.7358)" fill="#FFFFFF" font-family="'Roboto-Medium'" font-size="7.5455" letter-spacing="1">EXCLUSIVELY FOR EF LANGUAGE STUDENTS</text>
</svg>
