<!DOCTYPE svg PUBLIC "-//W3C//DTD SVG 1.1//EN" "http://www.w3.org/Graphics/SVG/1.1/DTD/svg11.dtd" [
	<!ENTITY ns_flows "http://ns.adobe.com/Flows/1.0/">
]>
<svg xmlns="http://www.w3.org/2000/svg" width="98" height="116" viewBox="-0.479 -0.248 98 116" overflow="visible" enable-background="new -0.479 -0.248 98 116">
  <path fill="#262262" d="M21.577 112.663c-2.216-.335-3.693-2.038-4.39-5.064-.245-1.067-.447-2.107-.643-3.112-.53-2.722-1.03-5.295-2.297-7.927-1.957-4.066-4.517-7.917-8.304-12.486-4.6-5.552-6.505-11.08-5.66-16.43.514-3.275 2.642-7.735 6.09-9.788l.93 1.565c-2.81 1.675-4.756 5.547-5.222 8.507-.757 4.812 1.013 9.854 5.266 14.985 3.884 4.687 6.52 8.652 8.543 12.86 1.367 2.843 1.89 5.525 2.44 8.366.195.99.393 2.016.633 3.052.52 2.256 1.463 3.457 2.886 3.672l-.273 1.8z"/>
  <path fill="none" stroke="#2D8299" stroke-width=".174" stroke-miterlimit="10" d="M21.577 112.663c-2.216-.335-3.693-2.038-4.39-5.064-.245-1.067-.447-2.107-.643-3.112-.53-2.722-1.03-5.295-2.297-7.927-1.957-4.066-4.517-7.917-8.304-12.486-4.6-5.552-6.505-11.08-5.66-16.43.514-3.275 2.642-7.735 6.09-9.788l.93 1.565c-2.81 1.675-4.756 5.547-5.222 8.507-.757 4.812 1.013 9.854 5.266 14.985 3.884 4.687 6.52 8.652 8.543 12.86 1.367 2.843 1.89 5.525 2.44 8.366.195.99.393 2.016.633 3.052.52 2.256 1.463 3.457 2.886 3.672l-.273 1.8z"/>
  <path fill="#262262" d="M11 52.883S5.528 57.35 5.376 57.48c-.152.133.006 1.065.397 1.588s1.01 1.298 1.335 1.298l6.584-3.58"/>
  <path fill="none" stroke="#2D8299" stroke-width=".174" stroke-miterlimit="10" d="M11 52.883S5.528 57.35 5.376 57.48c-.152.133.006 1.065.397 1.588s1.01 1.298 1.335 1.298l6.584-3.58"/>
  <path fill="#262262" d="M55.7 78.937s-5.614-26.41-6.676-32.026c-.76-2.275-7.706-11.62-6.946-18.75.76-7.137.387-9.99 1.276-10.902.89-.91 4.078-3.186 5.29-1.82 0 0 1.216-.912 2.582-1.52 1.346-.596 4.1-1.99 5.164-.252-.273-.902-.21-2.292.397-3.065.42-.534 1.135-1.142 1.718-1.52 1.086-.71 2.678-1.162 3.98-1.016.967.11 1.404 1.102 1.988 1.833-.606-.76 0-5.828.412-7.514.326-1.33 2.408-1.925 3.65-2.115 1.182-.182 3.122-.283 3.807.9 1.03 1.787 1.336 3.92 2.305 5.744.55 1.027.87 2.11 1.32 3.18 1.16 2.75 2.336 5.497 3.504 8.247.82 1.934 1.723 3.864 2.417 5.848.758 2.177.453 3.392 0 5.062-.457 1.67-1.367 5.01-1.975 5.768-1.068 1.337-3.025 2.298-4.405 3.273-2.07 1.47-4.1 3.006-6.07 4.604-.397.32-.802.59-.777 1.08.034.64.472 1.4.637 2.04.1.39.255.772.39 1.15.36 1.026.75 2.043 1.148 3.056 1.1 2.805 2.274 5.582 3.48 8.342 2.082 4.765 4.15 9.544 6.562 14.153 2.58 4.932 9.425 21.933 12.027 26.846.32.605 4.687 10.9 4.396 11.64-.108.275-.906.603-1.188.77-1.208.714-2.453 1.346-3.707 1.97-2.156 1.07-4.664.632-7.06 1.04-1.663.285-5.75-.203-7.407.01-2.137.272-3.832.11-5.95.082-2.563-.035-4.17-1.94-6.677-.755l-1.06.5-8.55-35.88z"/>
  <path fill="#00BAC6" d="M55.7 78.937s.223.84.62 2.455c.39 1.616.97 4.003 1.72 7.087l6.29 26.173.463-.22c.2-.088.386-.2.603-.27.428-.15.853-.32 1.32-.32.922-.072 1.83.222 2.684.53.86.31 1.748.542 2.674.576.94.02 1.895.042 2.857.064l1.45-.022 1.46-.127c.997-.052 2.01-.075 3.02-.016 1.013.03 2.032.076 3.06.073.51-.034 1.018-.048 1.536-.098.524-.08 1.05-.132 1.58-.16 1.06-.064 2.126-.075 3.178-.233 1.062-.143 2.05-.524 3.003-1.087l2.934-1.563c.254-.134.504-.25.73-.393.104-.07.23-.157.265-.226.02-.082.02-.17-.014-.312-.103-.53-.298-1.072-.474-1.606-.754-2.14-1.626-4.288-2.527-6.46-.456-1.078-.91-2.188-1.407-3.25-.51-1.084-1.02-2.176-1.54-3.275-4.055-8.828-7.822-18.362-12.618-27.927-1.205-2.39-2.262-4.875-3.37-7.364-1.126-2.48-2.15-5.036-3.226-7.59-1.08-2.55-2.143-5.154-3.006-7.824-.13-.322-.255-.656-.368-1.005-.043-.18-.072-.37-.105-.557-.01-.21.054-.435.17-.606.25-.334.547-.524.82-.744l.846-.643 3.405-2.58 1.593-1.206c.55-.376 1.115-.744 1.668-1.097 1.116-.688 2.216-1.467 2.944-2.47.567-1.133.914-2.426 1.29-3.664.33-1.255.774-2.504.9-3.76.11-1.258-.187-2.505-.68-3.69-.47-1.19-.927-2.382-1.45-3.55l-2.977-6.982C76 10.7 75.154 8.376 74.12 6.138c-.503-1.143-.827-2.326-1.255-3.456-.26-.527-.476-1.125-.792-1.58-.33-.435-.898-.645-1.467-.73-1.157-.125-2.364.045-3.47.403-.542.194-1.097.414-1.512.79-.438.365-.618.856-.71 1.454-.215 1.148-.357 2.31-.457 3.463-.046.577-.08 1.153-.082 1.726.004.55.008 1.193.22 1.59l-.25.2c-.34-.432-.605-.896-.954-1.26-.35-.37-.77-.586-1.308-.516-1.02-.05-2.047.254-2.95.698-.913.436-1.687 1.163-2.31 1.91-.26.398-.38.89-.42 1.38-.022.245-.016.49.004.736l.012.09.035.186.075.38.175.737c-.25-.338-.5-.672-.785-.972-.158-.153-.28-.202-.447-.267-.31-.123-.663-.14-1.008-.108-.696.055-1.377.3-2.034.562-.658.268-1.31.572-1.914.923l-.922.504c-.156.08-.292.19-.438.285l-.216.147-.115.078c-.067.037-.137.113-.203.12l-.27-.233c-.053-.056-.136-.07-.202-.11-.136-.07-.3-.088-.457-.103-.322-.028-.654.06-.975.146-.64.21-1.244.538-1.812.904-.555.37-1.132.785-1.54 1.258-.342.512-.402 1.218-.476 1.866-.207 2.66-.31 5.28-.576 7.81-.162 1.27-.188 2.496-.06 3.72.18 1.21.432 2.395.814 3.524 1.455 4.566 3.947 8.342 5.872 12.033.248.48.29 1.025.407 1.508.103.498.206.99.306 1.48l.59 2.862c.387 1.866.754 3.646 1.104 5.338 1.393 6.764 2.488 12.093 3.236 15.73l.844 4.16c.192.944.277 1.434.277 1.434s-.117-.483-.32-1.423c-.2-.94-.5-2.334-.89-4.15L51.17 57.65l-1.12-5.335-.603-2.86-.31-1.48c-.124-.503-.158-1.005-.395-1.457-1.915-3.648-4.438-7.45-5.914-12.047-.387-1.14-.646-2.34-.832-3.57-.135-1.234-.106-2.524.053-3.775.26-2.528.357-5.13.56-7.812.084-.663.114-1.37.527-2.007.478-.553 1.033-.936 1.612-1.33.582-.377 1.2-.717 1.88-.94.347-.093.7-.19 1.08-.16.185.015.383.038.557.125.085.048.185.072.257.14l.13.113.336-.228c.15-.097.29-.21.447-.294l.94-.515c.627-.362 1.27-.664 1.94-.937.672-.268 1.37-.525 2.123-.587.373-.033.77-.018 1.14.126.177.058.38.177.5.28.024.02.038.036.05.054l-.025-.175c-.02-.263-.028-.526-.006-.79.044-.524.167-1.06.47-1.526.677-.823 1.458-1.548 2.425-2.018.95-.468 2.008-.785 3.1-.736.53-.088 1.173.195 1.527.61.387.407.654.878.976 1.282l-.248.2c-.332-.63-.266-1.203-.29-1.79 0-.585.036-1.168.08-1.75.1-1.167.24-2.333.46-3.5.072-.564.313-1.245.814-1.64.473-.423 1.053-.65 1.622-.855 1.157-.373 2.378-.55 3.62-.42.607.09 1.27.32 1.682.856.24.253.294.55.45.822.13.28.27.557.392.84.435 1.147.763 2.335 1.252 3.442 1.03 2.233 1.89 4.58 2.9 6.867.985 2.307 1.98 4.635 2.98 6.982.52 1.162.982 2.364 1.457 3.564.493 1.182.818 2.518.698 3.843-.062.665-.22 1.3-.39 1.934l-.522 1.888c-.382 1.255-.71 2.52-1.32 3.74-.812 1.124-1.937 1.89-3.057 2.59-.563.357-1.108.714-1.655 1.087L73.937 39.7l-3.395 2.572-.845.64c-.277.218-.58.43-.75.67-.08.12-.116.25-.112.392l.094.48c.104.322.225.65.357.98.87 2.687 1.92 5.26 3 7.815 1.075 2.552 2.095 5.102 3.22 7.582 1.106 2.487 2.162 4.973 3.362 7.356 4.786 9.56 8.564 19.136 12.598 27.938 1.023 2.18 2.066 4.357 2.943 6.544.9 2.177 1.77 4.324 2.526 6.48.178.545.37 1.074.484 1.652.03.12.06.346-.02.51-.113.175-.24.236-.365.326-.25.156-.508.276-.75.402l-2.938 1.562c-.94.555-2.013.974-3.094 1.11-1.08.162-2.154.168-3.2.23-.526.027-1.046.08-1.556.155-.52.05-1.054.064-1.576.098-1.038.002-2.063-.048-3.07-.08-1.016-.06-2.003-.04-2.98.01-.496.04-.99.083-1.48.124-.488.005-.978.012-1.462.02-.965-.025-1.918-.05-2.86-.073-.962-.036-1.888-.282-2.748-.597-.858-.312-1.724-.59-2.59-.524-.437-.003-.84.16-1.242.302-.204.062-.4.178-.597.264l-.717.336c-2.655-11.238-4.786-20.258-6.255-26.47l-1.662-7.1c-.374-1.62-.555-2.47-.555-2.47"/>
  <path fill="#99FFE3" d="M48.533 45.852s1.358.157 2.575 0l5.83 17.122-4.03.917 2.298 9.267s2.508.415 3.967-.053c1.387-.445 13.557 41.123 13.557 41.123h-8.614l-8.068-34.23-1.362-6.465-5.66-26.62-.493-1.06"/>
  <path fill="#92D3CD" d="M63.27 15.994c0-5.888 6.317-10.17 12.206-10.17s10.896 4.778 10.66 10.662c-.265 6.67-5.996 11.037-11.88 11.22-9.112.278-10.987-5.824-10.987-11.712"/>
  <path fill="none" stroke="#2D8299" stroke-width=".174" stroke-miterlimit="10" d="M63.27 15.994c0-5.888 6.317-10.17 12.206-10.17s10.896 4.778 10.66 10.662c-.265 6.67-5.996 11.037-11.88 11.22-9.112.278-10.987-5.824-10.987-11.712z"/>
  <path fill="#262262" d="M86.044 16.545c.005-.09.007-.18.008-.27l-.125-.212c.018-.333.045-.776.045-1.108l.02.034c-.055-.498-.145-.983-.268-1.45.028.302.064.664.075.947l-.37-.41c-.027-.33-.057-.774-.1-1.1l.344.38c-.026-.1-.058-.2-.09-.298l-.29-.323c-.06-.277-.13-.637-.205-.932-.125-.26-.26-.514-.405-.76.023.066.05.132.067.192l-.493-.375c-.108-.29-.245-.677-.368-.962-.148-.183-.3-.365-.46-.536.026.05.057.102.08.15l-.58-.31c-.118-.206-.26-.47-.395-.696-.216-.183-.44-.36-.672-.53l-.524-.187-.248-.32c-.163-.094-.327-.187-.493-.277.136.164.28.34.39.49l-.73-.194c-.17-.213-.395-.506-.584-.707l.145.033c-.22-.097-.45-.188-.68-.27.006.006.016.012.02.018l-.777-.124c-.07-.063-.153-.134-.24-.208-.155-.042-.314-.08-.473-.116.113.093.226.188.317.272L77.16 6.3c-.13-.104-.285-.24-.437-.357-.147-.022-.298-.038-.445-.053.162.122.34.258.473.376l-.86-.056c-.146-.114-.33-.26-.498-.382-.14-.004-.277-.006-.416-.006.168.117.356.25.498.366l-.883-.03c-.13-.09-.286-.207-.435-.308-.128.008-.252.017-.377.03.138.088.283.183.395.27l-.888-.01c-.078-.05-.166-.11-.257-.166-.108.017-.215.036-.322.056.06.038.12.074.168.108l-.71.006c-.144.033-.282.067-.42.104.147.123.34.275.47.407l-.867-.034c-.066-.053-.145-.12-.224-.186-.087.028-.174.056-.26.086l.104.087-.308-.01c-.068.024-.136.05-.203.077l.603.028c.115.146.276.335.375.49l-.836-.076c-.09-.114-.195-.26-.3-.38-.083.035-.164.07-.246.108.068.08.137.16.188.235l-.57-.06c-.13.062-.26.125-.385.193.056.113.117.235.154.337l-.548-.116c-.117.068-.23.14-.345.21.03.117.058.237.073.34l-.383-.138c-.037.026-.074.053-.112.078l.51.192c.01.192.025.45.022.643l-.616-.27c0-.15 0-.336-.008-.5l-.23.167c.003.074.003.148.003.212l-.16-.09-.103.08.255.148c-.023.205-.05.477-.084.68l-.513-.34.035-.232c-.09.076-.177.15-.26.23l.003.004c-.054.212-.12.497-.183.707l-.272-.273c-.033.036-.067.07-.1.107l.324.33c-.08.236-.18.55-.264.783l-.418-.456c.05-.137.11-.3.17-.457-.14.154-.273.315-.4.477-.104.232-.227.528-.33.752l-.1-.173c-.034.05-.07.096-.102.146l.12.205-.067.143-.338.704-.17-.3c-.033.06-.065.12-.1.18l.176.31c-.136.266-.312.62-.45.887l-.15-.28-.09.222.14.255-.477.912-.02-.04c-.072.28-.13.564-.18.85.016.017.03.032.05.05l.206-.397.458.626c-.042.09-.094.19-.145.293l.225.24c.047-.098.094-.193.134-.28l.563.6c-.04.092-.09.19-.138.296l.244.28c.055-.115.105-.228.15-.33l.658.565c-.063.147-.138.316-.213.485.085.108.173.22.263.332l.25-.58.74.534-.366.873c.092.126.184.253.276.386l.426-1.036.81.498c-.13.33-.308.77-.44 1.1l-.728-.464c.124.175.247.354.37.537l.26.167c-.017.048-.037.097-.057.147.096.153.188.31.278.464.055-.137.105-.27.152-.387l.87.484-.42 1.093c.09.202.176.402.255.604l.05-.134.916.462c-.118.326-.278.76-.395 1.09l-.09-.048c.102.337.19.664.266.98.06-.174.122-.346.172-.493l.94.416c-.112.302-.26.707-.368 1.01l-.594-.255c.02.09.04.18.055.268l.466.198c-.087.255-.203.585-.293.854.04.283.064.532.084.735.044.02.088.044.13.064l.123-.38.91.312c-.04.126-.09.274-.142.423.14.048.28.092.42.136.052-.15.102-.302.148-.43l.89.254-.146.396c.14.03.28.055.424.078.046-.13.094-.257.137-.367l.854.2c-.034.083-.07.176-.107.272.14.01.282.015.425.02l.082-.206.805.154-.02.04c.122-.007.243-.013.366-.022.158-.014.314-.033.47-.055l-.364-.06.363-.794.754.146c-.095.19-.21.428-.31.636.14-.025.282-.054.422-.084l.242-.485.678.118-.08.152c.23-.07.455-.15.68-.234l-.187-.03c.134-.247.31-.573.44-.82l.578.123.027.006c-.08.145-.178.314-.27.48.145-.065.29-.134.435-.205l.123-.21.205.043c.088-.046.174-.095.26-.145l-.358-.084c.146-.26.346-.612.492-.877l.525.147-.387.655c.156-.096.31-.195.463-.297l.173-.287.167.056.21-.16-.262-.09c.162-.28.378-.65.536-.932l.44.17c-.1.166-.22.365-.334.558.182-.148.36-.3.53-.458.002-.005.005-.008.007-.01h.004c.062-.055.124-.113.187-.172l-.067-.036c.166-.292.39-.68.553-.976l.297.193c.275-.314.537-.64.78-.98.013-.028.03-.058.043-.083l.01.012.135-.195-.032-.04c.145-.313.345-.728.482-1.042l.12.164c.04-.07.076-.14.114-.21l-.133-.188.358-.897.068-.186.184.274.096-.224-.193-.293c.108-.33.258-.77.354-1.105l.212.336.068-.242-.21-.338c.08-.335.193-.783.265-1.12l.194.328c.016-.086.03-.17.043-.254l-.192-.32c.05-.335.124-.782.16-1.12l.14.237zM69.878 10.4l.793.287c-.046.277-.104.647-.16.923l-.796-.325c.05-.265.123-.62.164-.886m-.227-1.274l-.708-.253c-.006-.2-.006-.466-.024-.664l.71.21c.01.213.026.493.023.706m14.225 4.054l.583.357c0 .347.008.808-.007 1.156l-.575-.353c0-.348.013-.813 0-1.16m.56 1.77c-.037.353-.08.826-.133 1.177l-.565-.335c.038-.36.098-.834.123-1.192l.575.35zm-.174 1.436c-.07.357-.16.834-.24 1.19l-.56-.317c.073-.362.178-.844.238-1.205l.563.33zM68.645 13.7l-.06.172-.312.857-.728-.465.312-.833.062-.168.726.435zm-.65-.653c.096-.286.228-.668.317-.957l.723.396c-.093.297-.215.694-.313.99l-.725-.43zm.923 1.01l.06-.175.8.406-.06.182-.307.89-.804-.436.31-.867zm3.45-5.017l.91.163c.01.262.032.61.03.872l-.912-.2c-.005-.25-.007-.586-.028-.835m-.018-.176c-.042-.22-.087-.518-.146-.737l.895.127c.048.23.122.535.154.77l-.905-.16zm.04 1.203l.912.207c-.02.285-.04.666-.07.95l-.91-.24c.023-.275.057-.64.068-.917m1.034 2.75l.943.268c-.07.334-.164.78-.243 1.112l-.943-.295c.075-.327.178-.76.244-1.086m8.34-.555l.753.28c0 .344.012.8-.002 1.144l-.757-.293c.003-.338.014-.79.005-1.13m1.573 3.606l.044.02c-.068.365-.152.85-.232 1.215l-.043-.02-.62-.286c.07-.368.172-.857.227-1.227l.624.3zm-.587-.567c.035-.36.09-.842.113-1.203l.628.304.047.025c-.03.36-.07.838-.12 1.196l-.043-.02-.625-.3zm.334 2.067c-.097.364-.223.85-.332 1.213l-.04-.018-.617-.265c.1-.37.24-.862.328-1.232l.62.28.04.022zM82.5 13.94c-.033.36-.07.84-.114 1.2l-.762-.303c.038-.356.096-.83.12-1.188l.756.29zm-.153 1.467c-.063.37-.145.866-.222 1.236l-.76-.3c.067-.372.164-.866.22-1.24l.762.304zm-5.83-4.477l.94.197c-.01.32-.017.742-.04 1.06l-.952-.215c.016-.313.048-.73.052-1.042m-.073-1.174l.932.173c.027.29.07.68.08.975l-.94-.195c-.02-.286-.037-.67-.072-.954m1.2 4.176l.942.244c-.073.364-.168.85-.25 1.213l-.946-.26c.078-.36.186-.837.254-1.198m.744 3.105c.1-.376.237-.877.332-1.252l.906.266c-.1.38-.227.888-.334 1.267l-.904-.28zm.824.56l-.064.22-.328 1.054-.898-.295.322-1.045.064-.215.904.283zm-.582-3.68l-.937-.24c.05-.343.118-.8.153-1.143l.926.23c-.04.345-.087.808-.142 1.153m-.36 1.74c-.1.375-.226.873-.33 1.245l-.94-.285c.1-.367.234-.854.326-1.223l.943.264zm-.414 1.52l-.062.214-.32 1.04-.93-.303.316-1.025.06-.212.936.286zm-4.695 1.72l.95.357c-.13.36-.3.842-.43 1.203l-.95-.37c.13-.356.303-.83.43-1.19m-.345-.428l-.938-.378c.123-.35.286-.815.405-1.166l.938.357c-.12.355-.282.83-.405 1.186m1.74.946l.946.335c-.128.368-.3.855-.43 1.22l-.944-.345c.13-.364.303-.846.43-1.21m.09-.265c.124-.365.292-.852.41-1.217l.95.317c-.124.37-.287.863-.412 1.232l-.947-.332zm1.812-.75l.93.305c-.125.376-.29.876-.418 1.25l-.927-.317c.125-.372.294-.866.415-1.24m.09-1.917l-.955-.29c.096-.36.23-.835.318-1.196l.96.273c-.096.365-.22.85-.323 1.214m-.077.27l-.062.21-.315 1.02-.95-.314.313-1.006.06-.206.954.297zm-1.326-.703l-.955-.306c.094-.347.224-.81.31-1.16l.96.285c-.094.356-.216.83-.316 1.182m-.08.264l-.06.206-.31.998-.95-.33.307-.983.062-.2.953.31zm-.454 1.47c-.123.362-.283.847-.408 1.21l-.95-.355c.12-.358.285-.834.405-1.192l.953.337zm-1-1.73l-.305.974-.938-.352.307-.957.062-.196.936.33-.06.2zm-1.357-.494l-.308.948-.908-.378.306-.928.06-.19.91.354-.06.194zm-.39 1.2c-.123.35-.283.813-.406 1.16l-.908-.405c.12-.34.285-.794.402-1.136l.91.383zm-.076 1.592l.937.38c-.13.355-.298.83-.43 1.184l-.935-.396c.127-.35.3-.815.427-1.168m.85 2l.95.37c-.13.357-.302.83-.432 1.183l-.95-.38.433-1.17m1.393.54l.945.346c-.136.353-.31.82-.444 1.174l-.932-.34c.13-.354.305-.826.433-1.18m1.385.5l.912.308c-.14.347-.32.81-.462 1.154l-.898-.293c.136-.352.318-.816.448-1.17m.102-.262c.13-.366.307-.854.436-1.22l.922.315c-.135.365-.31.85-.448 1.213l-.91-.308zm1.795-.757l.875.284c-.14.36-.324.84-.47 1.195l-.858-.273c.135-.363.32-.845.452-1.206m.098-.27c.126-.373.3-.872.422-1.248l.894.294c-.133.373-.303.87-.44 1.24l-.876-.285zm1.74-.815l.83.27c-.136.366-.318.86-.46 1.227l-.816-.26c.135-.372.318-.865.447-1.237m.094-.276l.335-1.054.063-.22.85.28-.064.218-.35 1.046-.836-.27zm.484-1.556c.1-.38.238-.886.33-1.268l.845.284c-.095.38-.22.89-.326 1.267l-.85-.283zm1.1.916l.065-.214.76.274-.067.213-.35 1.023-.76-.256.352-1.04zm.15-.494c.1-.378.238-.88.326-1.26l.76.298c-.098.372-.22.87-.327 1.243l-.76-.28zm.385-4.622l-.828-.262c.006-.334.022-.78.012-1.113l.822.25c0 .336.006.787-.007 1.124m-.823-1.608c-.027-.315-.06-.73-.105-1.04l.812.232c.036.316.09.736.11 1.053l-.817-.244zm-.02 1.598l.827.266c-.035.356-.072.828-.12 1.184l-.833-.274c.04-.352.1-.822.127-1.176m.668 1.715c-.067.37-.15.866-.228 1.235l-.84-.284c.07-.367.172-.858.233-1.226l.835.275zm-1.07-2.09l-.887-.242c.01-.326.03-.763.025-1.09l.876.225c0 .332.003.773-.013 1.106m-.87-1.563c-.027-.305-.053-.712-.098-1.014l.868.206c.033.31.084.72.104 1.03l-.876-.223zm.852 1.814c-.04.35-.083.82-.134 1.17l-.89-.253c.042-.348.106-.81.14-1.16l.883.244zm-.17 1.434c-.073.366-.16.857-.24 1.224l-.903-.265c.076-.365.184-.85.248-1.218l.894.26zm-1.136-2.037l-.926-.226c.013-.32.038-.746.036-1.066l.917.21c-.005.323-.007.758-.026 1.083m-.897-1.52c-.023-.294-.045-.69-.084-.985l.908.187c.03.3.078.702.093 1.003l-.916-.205zm-.113-1.192c-.06-.27-.13-.63-.205-.895l.895.16c.064.274.162.638.21.917l-.9-.182zm-.265-1.082c-.094-.24-.212-.564-.323-.8l.885.13c.102.245.247.57.332.824l-.895-.154zm-.175 1l-.93-.168c-.055-.26-.12-.605-.19-.86l.92.143c.06.265.152.615.2.885m-.905 2.488l.953.22c-.045.34-.1.794-.158 1.133l-.963-.238c.05-.333.127-.78.168-1.114m.748 1.61c-.075.354-.172.83-.256 1.182l-.96-.264c.077-.35.184-.814.25-1.163l.966.244zm-1.177-1.95l-.963-.21c.023-.304.062-.71.068-1.013l.953.192c-.017.31-.03.722-.057 1.03m.06-1.247l-.95-.188c-.018-.277-.028-.646-.06-.922l.943.165c.023.282.06.66.066.945m-1.034-1.3c-.05-.25-.107-.58-.175-.825l.93.132c.06.254.143.592.186.85l-.94-.158zm-.017 2.566l.966.218c-.05.33-.11.775-.17 1.103l-.96-.246c.05-.322.122-.752.163-1.075m.75 1.57c-.072.345-.167.805-.247 1.15l-.96-.28c.075-.338.18-.786.247-1.125l.96.255zm-1.09-3.11l-.948-.19c-.008-.263-.01-.62-.036-.882l.934.16c.016.273.047.638.05.91m-1.006-1.255c-.046-.235-.098-.55-.16-.78l.92.125c.054.243.132.566.17.81l-.93-.155zm.054 1.272l.947.194c-.02.3-.04.698-.072.998l-.945-.227c.023-.288.058-.674.07-.965m.848 1.42c-.048.32-.106.745-.164 1.062l-.944-.263c.05-.31.12-.72.162-1.032l.946.233zm-.514 2.66c-.092.345-.213.806-.313 1.15l-.94-.327c.095-.336.224-.786.312-1.125l.94.302zm-1.303-.684l-.91-.314c.074-.315.175-.73.242-1.043l.91.287c-.07.322-.164.75-.243 1.07m-.06.24c-.094.335-.214.783-.31 1.115l-.91-.35c.093-.325.222-.76.31-1.086l.91.32zm-1.248-.702l-.86-.34c.073-.3.177-.697.24-1l.86.31c-.07.308-.163.723-.24 1.03m-.06.233c-.093.32-.21.752-.31 1.074l-.862-.376c.094-.314.223-.73.31-1.047l.862.35zm-.387 1.313l-.06.19-.306.918-.862-.404.306-.9.06-.183.86.38zm-1.31.942l.862.41c-.123.34-.283.79-.406 1.128l-.863-.434c.123-.333.287-.773.407-1.105m.765 1.976l.907.41c-.13.347-.3.81-.43 1.158l-.908-.426.43-1.14m.803 2.01l.938.4-.43 1.165-.938-.41c.128-.346.304-.807.43-1.154m.85 2.004l.95.382c-.13.338-.3.792-.43 1.13l-.938-.373c.124-.34.292-.798.42-1.14m.867 1.918l.915.317c-.125.312-.293.73-.42 1.04l-.908-.302c.12-.317.29-.738.414-1.055m.092-.24c.13-.337.304-.79.43-1.128l.93.336c-.132.333-.307.78-.44 1.112l-.92-.32zm1.797-.643l.893.288c-.137.328-.317.767-.457 1.092l-.883-.274c.135-.333.314-.775.446-1.106m1.317.42l.845.254c-.142.32-.328.747-.472 1.066l-.834-.237c.137-.323.323-.757.46-1.084m.102-.245c.14-.344.33-.803.465-1.15l.862.272c-.144.34-.332.795-.478 1.134l-.85-.255zm1.734-.753l.8.242c-.15.332-.347.778-.497 1.11l-.786-.227c.143-.336.34-.786.482-1.125m.107-.256c.14-.357.335-.83.473-1.188l.813.256c-.146.354-.337.825-.487 1.177l-.8-.244zm1.676-.81l.738.24c-.152.347-.352.81-.506 1.155l-.727-.223c.15-.35.35-.818.496-1.17m.105-.262c.14-.366.334-.854.468-1.223l.756.253c-.145.362-.333.85-.48 1.21l-.743-.24zm1.584-.843l.62.235.04.017c-.147.354-.336.826-.49 1.18l-.035-.015-.623-.217c.147-.36.347-.84.487-1.2m.1-.267l.352-1.016.067-.21.617.26.038.02-.065.205-.353.997-.037-.016-.618-.24zm1.318-.597l.067-.207.553.286-.068.2-.352.97-.552-.264.352-.987zm.15-.47c.103-.362.243-.844.335-1.207l.556.312c-.1.356-.228.83-.337 1.185l-.553-.29zm.49-4.567l-.05-.024-.624-.302c.002-.345.012-.803 0-1.146l.625.29.048.024c.004.348.013.812 0 1.157m-.062-1.427l-.622-.29c-.035-.323-.07-.758-.12-1.08l.622.276.05.025c.038.327.097.763.12 1.093l-.05-.024zm-.16-1.327l-.62-.275c-.07-.302-.157-.707-.24-1.006l.616.26.052.024c.075.305.185.71.24 1.02l-.05-.025zm-.825.888l-.752-.276c-.028-.32-.065-.745-.112-1.062l.748.263c.037.322.095.752.117 1.075m-.904-1.563c-.068-.295-.15-.692-.234-.982l.743.244c.073.298.18.695.237.997l-.748-.26zm-.3-1.19c-.105-.27-.236-.635-.356-.897l.74.222c.108.274.263.637.357.915l-.74-.24zm-.324.094c.073.29.177.678.232.973l-.812-.228c-.064-.287-.145-.673-.227-.955l.806.21zm-.87-.41c-.102-.263-.23-.614-.348-.87l.8.186c.108.267.26.616.353.888l-.804-.205zm-.125 1.05l-.862-.203c-.06-.277-.137-.65-.217-.925l.858.18c.07.285.173.66.223.948m-1.14-1.323c-.098-.252-.222-.59-.335-.836l.848.157c.104.257.254.596.344.857l-.858-.177zm-.423-1.007c-.133-.223-.303-.524-.453-.737l.842.125c.14.227.336.527.46.762l-.85-.15zm-.42-.066l-.884-.126c-.13-.21-.294-.496-.438-.697l.875.1c.137.215.327.498.447.724m-1.232-.017c.1.233.24.545.32.786l-.917-.137c-.09-.23-.202-.538-.312-.76l.91.11zm-.987-.267c-.125-.2-.285-.468-.426-.656l.898.077c.132.203.314.472.432.684l-.904-.104zm-.35.105c.095.224.228.52.307.75l-.927-.128c-.086-.215-.192-.508-.295-.72l.916.098zm-.99-.242c-.122-.183-.275-.435-.41-.61l.9.06c.128.19.308.44.42.64l-.91-.09zm-.35.102c.09.21.22.49.294.706l-.92-.12c-.08-.202-.18-.478-.28-.672l.907.087zm-.98-.223c-.114-.17-.262-.4-.394-.56l.895.047c.123.175.295.407.402.592l-.903-.08zm-.336.095c.088.198.21.457.278.66l-.894-.12c-.076-.188-.17-.444-.264-.626l.88.087zm-.477 3.757l.91.25c-.045.304-.103.713-.16 1.016l-.91-.282c.052-.294.12-.687.16-.984m-.297-1.41l-.86-.218c-.008-.234-.008-.547-.027-.78l.858.177c.01.246.032.572.03.82m-.906-1.16c-.038-.205-.08-.48-.133-.684l.848.13c.047.216.113.504.143.723l-.858-.17zm.04 1.124l.86.224c-.02.272-.04.632-.07.9l-.858-.26c.022-.258.057-.604.07-.863m.763 1.33c-.047.293-.105.682-.16.972l-.86-.303c.052-.28.12-.655.16-.936l.86.267zm-1.2-.585l-.793-.28c.02-.244.06-.567.07-.81l.792.24c-.018.256-.04.596-.068.85m-.232 1.327c-.07.295-.162.69-.242.983l-.8-.365c.076-.285.18-.664.244-.95l.798.33zm-.304 1.203c-.092.31-.21.725-.308 1.034l-.803-.4c.097-.303.226-.702.314-1.004l.798.37zm-1.067-.747l-.722-.39c.076-.27.18-.63.247-.902l.72.354c-.073.28-.166.658-.245.938m-1.01-.56l-.632-.416c.077-.254.183-.595.252-.85l.628.376c-.074.266-.17.624-.248.89m-.064.198c-.094.285-.218.662-.317.944l-.637-.453c.098-.274.23-.636.324-.91l.63.42zm-.394 1.16l-.06.164-.315.82-.642-.49.317-.796.062-.16.64.46zm-.95-.505l-.32.783-.544-.52.326-.756.063-.152.538.485-.06.16zm-.407.994c-.128.293-.298.683-.428.976l-.554-.558c.13-.283.305-.66.434-.946l.547.528zm.25.215l.644.5c-.126.304-.29.712-.418 1.016l-.65-.528c.128-.296.298-.692.423-.99m.938.71l.73.47c-.124.317-.285.74-.41 1.057l-.735-.497c.125-.31.293-.72.415-1.03m1.064.67l.803.44c-.123.325-.283.765-.408 1.093l-.803-.465c.122-.32.29-.746.408-1.067m.673 1.974l.864.44c-.13.338-.3.792-.432 1.132l-.864-.46c.13-.334.303-.778.43-1.112m.74 2.023l.91.43-.433 1.146-.912-.443c.13-.34.306-.792.435-1.132m.804 2.023l.936.412c-.126.343-.293.8-.42 1.14l-.94-.423c.127-.338.295-.79.424-1.13m.866 1.984l.94.374c-.124.317-.287.744-.41 1.063l-.93-.357c.118-.323.278-.754.4-1.08m.875 1.815l.91.3c-.12.286-.27.67-.388.96l-.9-.282.378-.978m1.332.43l.873.248c-.12.28-.28.652-.398.932l-.86-.23c.112-.287.27-.666.385-.95m.093-.22c.127-.31.297-.723.426-1.032l.88.27c-.133.306-.305.712-.436 1.016l-.87-.254zm1.723-.642l.832.232-.447.988-.823-.213c.133-.3.307-.702.44-1.007m1.227.338l.77.202-.46.957-.765-.18c.137-.293.318-.685.454-.98m.1-.22l.48-1.06.783.223c-.145.313-.338.73-.485 1.04l-.777-.203zm1.636-.733l.714.2c-.152.304-.35.71-.505 1.01l-.7-.178c.145-.31.344-.722.49-1.033m.11-.235c.15-.33.354-.77.502-1.104l.722.22c-.15.328-.354.763-.51 1.09l-.713-.206zm1.572-.776l.606.194.034.01c-.158.32-.367.747-.527 1.063l-.03-.01-.6-.178c.156-.326.364-.755.517-1.08m.114-.246c.152-.345.362-.803.512-1.148l.62.212.036.013c-.158.34-.363.794-.524 1.133l-.034-.012-.61-.2zm1.48-.808l.553.226c-.16.33-.368.772-.53 1.1l-.553-.202c.158-.34.374-.785.53-1.124m.11-.252c.147-.35.347-.813.485-1.166l.553.26c-.146.34-.334.8-.484 1.14l-.552-.234zm1.295-.77l.44.27c-.144.33-.33.773-.483 1.1l-.44-.242c.147-.34.346-.788.482-1.127m.1-.25l.352-.96.068-.197.443.3-.068.194-.354.94-.442-.276zm.503-1.415c.106-.353.247-.82.34-1.174l.45.326c-.104.347-.232.812-.344 1.153l-.445-.305zm.406-1.432c.076-.353.184-.824.248-1.178l.45.347c-.07.348-.163.815-.25 1.162l-.447-.33zm.29-1.436c.042-.352.105-.818.135-1.17l.466.366c-.04.348-.09.81-.144 1.155l-.456-.35zm.152-1.427c.008-.346.023-.805.016-1.15l.477.384c-.006.34-.004.795-.025 1.137l-.468-.37zm.38-2.12c.032.332.085.773.103 1.108l-.48-.386c-.03-.335-.066-.782-.116-1.115l.49.393zm-.283-1.298c.073.317.18.737.24 1.057l-.49-.39c-.07-.313-.157-.735-.243-1.046l.492.378zm-.374 1.825l-.585-.354c-.032-.33-.07-.774-.118-1.1l.586.343c.037.333.095.775.118 1.11m-.16-1.347l-.585-.343c-.07-.31-.155-.724-.242-1.027l.586.33c.075.31.184.722.243 1.04m-.68-2.226c.112.29.27.67.368.964l-.584-.325c-.106-.286-.243-.67-.368-.95l.584.31zm-.905-.457c.113.28.27.653.368.94l-.054-.023-.62-.257c-.104-.28-.236-.653-.36-.925l.61.24.056.025zm-.64-1.074l.057.024c.148.255.353.59.488.854l-.055-.024-.61-.235c-.14-.252-.324-.592-.484-.835l.603.218zm-.953-.33c.145.247.348.573.478.826l-.736-.22c-.14-.242-.32-.57-.476-.804l.733.198zm-.64.51l-.8-.183c-.137-.232-.31-.548-.464-.772l.792.16c.144.237.344.55.472.796m-1.168-1.658c.176.208.418.48.58.697l-.79-.155c-.168-.203-.387-.478-.57-.672l.78.13zm-1.18-.183c.175.196.41.452.57.658l-.838-.12c-.168-.19-.38-.452-.56-.63l.83.093zm-1.236-.132c.168.185.4.425.553.62l-.874-.092c-.16-.18-.37-.422-.545-.59l.866.063zm-1.283-.085c.166.17.392.394.54.575l-.895-.07c-.156-.164-.36-.39-.53-.543l.885.038zm-1.302-.05c.16.156.38.36.524.528l-.9-.052c-.153-.15-.35-.356-.515-.493l.89.017zm-2.183-.026H73c.152.144.367.325.508.48l-.892-.038c-.148-.136-.34-.323-.5-.443m.194.53c.12.164.287.373.39.545l-.878-.077c-.112-.154-.252-.365-.38-.506l.868.04zm-.805.554c.08.18.198.42.262.61l-.85-.124c-.072-.173-.16-.408-.25-.573l.838.087zm-.733 2.153l-.793-.235c-.007-.217-.007-.507-.028-.722l.792.193c.01.23.03.536.028.764m-.044-.92l-.79-.186c-.038-.187-.08-.438-.13-.622l.787.142c.04.198.104.464.133.666m-.42-1.357c.076.163.188.38.246.553l-.787-.13c-.068-.158-.15-.37-.236-.517l.778.093zm-.827.48c.042.184.104.424.13.607l-.707-.202c-.036-.17-.076-.396-.126-.562l.704.158zm-.543 1.36l.71.26c-.02.24-.042.557-.072.794l-.714-.3c.024-.227.062-.53.077-.755m-.104.928l.713.31c-.046.263-.105.612-.16.872l-.72-.347c.052-.25.125-.583.167-.835m-.8-1.327l.616.28c-.022.223-.046.52-.077.74l-.62-.322c.026-.21.066-.487.08-.697m-.11.862l.623.33c-.05.246-.11.575-.167.817l-.628-.37c.052-.233.126-.544.172-.778m-.756-.495l.517.35c-.052.23-.116.536-.174.765l-.52-.39c.052-.217.13-.506.178-.725m-.228.892l.522.396c-.075.25-.174.587-.256.836l-.528-.435c.08-.24.19-.558.262-.798m-.327.98l.53.442c-.098.268-.225.628-.325.895l-.536-.477c.1-.26.237-.6.33-.86M66 10.217l.415.463c-.1.254-.23.593-.335.846l-.423-.5c.1-.242.242-.564.342-.808m-.493 1.135l.066-.143.428.51-.063.148-.328.746-.437-.543.334-.717zm-.428.91l.438.55c-.133.28-.305.654-.438.932l-.447-.584c.134-.268.315-.627.446-.897m-.56 2.645l-.46-.622.475-.924.447.59-.463.956m.772.844l-.562-.593c.14-.29.324-.677.46-.968l.557.564c-.138.3-.318.7-.455.996m.914.805l-.657-.56.45-1.01.652.536c-.135.31-.31.724-.446 1.034m1.038.763l-.74-.53c.134-.312.312-.732.443-1.046l.735.504c-.13.322-.304.75-.438 1.072m.336.22l.438-1.08.808.47-.433 1.105-.813-.495zm.646 2.058c.13-.333.31-.775.438-1.106l.868.462c-.133.338-.307.788-.436 1.124l-.87-.48zm.75 2.05l.424-1.113.914.446-.424 1.126-.914-.46zm.855 1.995c.118-.328.274-.765.394-1.092l.942.426c-.12.325-.278.76-.397 1.086l-.94-.42zm1.287.828l.93.354-.376.985-.92-.338.367-1m.15 2.443l-.914-.316.32-.916.922.333c-.1.268-.232.626-.328.898m1.317.388l-.894-.256c.1-.268.23-.623.332-.89l.898.275c-.1.262-.237.61-.336.87m1.27.316L73 27.412c.1-.258.236-.602.34-.86l.862.228c-.103.25-.245.585-.348.838m1.208.246l-.807-.16.352-.827.813.183c-.108.24-.252.563-.358.804m.442-.992l-.812-.187c.12-.275.28-.646.402-.92l.82.21-.41.897m1.14.236l-.754-.152c.127-.266.29-.622.416-.89l.76.177c-.128.258-.297.604-.422.865m1.037.19l-.68-.122c.13-.256.3-.598.43-.855l.687.15-.436.83m.537-1.025l-.69-.152c.14-.284.328-.662.467-.947l.7.175c-.144.277-.333.65-.477.925m.936.207l-.026-.007-.582-.127c.146-.274.337-.64.48-.914l.59.15.026.007c-.145.27-.338.625-.487.892m.6-1.095l-.027-.01-.59-.152c.15-.302.356-.7.506-1l.598.172.03.01c-.155.294-.36.686-.516.98m.822.23l-.528-.15c.157-.29.368-.677.522-.97l.536.175c-.16.282-.37.66-.53.946m.65-1.164l-.54-.18c.16-.314.376-.732.534-1.05l.55.2c-.164.307-.378.72-.544 1.03m.695.266l-.44-.177c.166-.305.39-.71.55-1.018l.444.2c-.164.3-.382.698-.553.995m.672-1.22l-.442-.208c.16-.325.375-.755.53-1.084l.44.238c-.16.316-.364.74-.528 1.054m.534.335l-.328-.223c.157-.31.373-.723.526-1.037l.328.252c-.158.303-.363.71-.526 1.008m.64-1.234l-.33-.256c.145-.326.345-.758.482-1.086l.33.286c-.144.318-.333.744-.483 1.057m.94-2.198l-.356.906-.33-.292.353-.928.067-.192.332.317-.067.19zm.155-.434l-.332-.322c.103-.342.25-.797.345-1.142l.338.345c-.104.335-.236.783-.35 1.118m.42-1.366l-.34-.347c.076-.347.188-.806.254-1.153l.345.37c-.077.337-.174.792-.26 1.13m.306-1.378l-.347-.372c.045-.345.114-.804.147-1.148l.356.39c-.045.34-.1.79-.157 1.13m.18-1.378l-.358-.395c.01-.337.035-.79.03-1.127l.368.407c-.01.335-.017.78-.04 1.116"/>
  <path fill="#fff" d="M65.198 11.592l.02-.022s-.096-.255-.02.022"/>
  <path fill="none" stroke="#2D8299" stroke-width=".174" stroke-miterlimit="10" d="M65.198 11.592l.02-.022s-.096-.255-.02.022z"/>
  <path fill="#262262" d="M70.274 27.2s-.586-8.14-6.244-9.808c-5.66-1.67-16.902 9.126-16.902 9.126s-21.25 14.19-22.084 14.723c-.328.21-.375.745-.257 1.417l-.06-.1s-13.22 9.258-13.573 9.56c-.355.305-.152 1.722.76 2.935.91 1.215 1.618 1.873 2.377 1.873l14.183-8.006c.34.252.63.39.82.366.607-.078 40.98-22.085 40.98-22.085"/>
  <path fill="none" stroke="#2D8299" stroke-width=".174" stroke-miterlimit="10" d="M70.274 27.2s-.586-8.14-6.244-9.808c-5.66-1.67-16.902 9.126-16.902 9.126s-21.25 14.19-22.084 14.723c-.328.21-.375.745-.257 1.417l-.06-.1s-13.22 9.258-13.573 9.56c-.355.305-.152 1.722.76 2.935.91 1.215 1.618 1.873 2.377 1.873l14.183-8.006c.34.252.63.39.82.366.607-.078 40.98-22.085 40.98-22.085z"/>
  <path fill="#99FFE3" d="M47.67 32.382L25.88 45.662l.462.834-14.425 8.556s-1.405-2.413-.76-2.934l10.707-7.554 2.572-1.802.35-1.152 19.012-12.63s1.305 2.36 3.875 3.402"/>
  <path fill="none" stroke="#2D8299" stroke-width=".174" stroke-miterlimit="10" d="M70.274 27.2s-.586-8.14-6.244-9.808c-5.66-1.67-16.902 9.126-16.902 9.126s-21.25 14.19-22.084 14.723c-.328.21-.375.745-.257 1.417l-.06-.1s-13.22 9.258-13.573 9.56c-.355.305-.152 1.722.76 2.935.91 1.215 1.618 1.873 2.377 1.873l14.183-8.006c.34.252.63.39.82.366.607-.078 40.98-22.085 40.98-22.085zM24.82 42.64s.848 4.338 3.688 6.265"/>
  <path fill="#262262" d="M65.68 14.454c-.588-1.868-.808-2.6-.878-3.98l-5.784 7.563c-1.01-1.417-1.98-3.76-2.556-4.14 0 0-6.293 3.596-6.88 3.085-.758-.656-1.18-2.02-3.49-1.06l-2.53 4.704c.05.15 4.705 7.033 4.705 7.033s3.39 6.465 5.564 6.673c1.317.055 3.19-.756 3.24-1.413.025-.33-.534-1.622-1.226-3.056.09.185 2.592 3.967 4.21 5.03 1.62 1.062 5.21-1.184 5.16-2.514-.024-.706-.65-1.93-1.46-3.36-.163-.29-.336-.59-.512-.894 0 0 1.055 1.413 2.398 1.61 1.345.197 3.225-.56 3.727-2.028s-2.47-9.41-3.686-13.254"/>
  <path fill="#99FFE3" d="M42.27 29.587c-.124-2.43.246-4.686.33-7.044.027-.786.08-1.58.217-2.354.35-1.96.93-2.72 2.718-3.492 1.26-.545 2.94-1.148 3.39.674-.79.426-1.703.574-2.485.998-1.684.917.974 4.784 1.628 5.88.74 1.235 1.667 2.43 2.056 3.848.207.763.677 1.95.584 2.74-.637-1.21-1.46-2.345-2.118-3.546-.684-1.25-1.3-2.8-2.492-3.692-.443 1.06-.188 2.763-.59 3.878l-3.238 2.11zM63.832 18.24c-.847.24-1.77.434-2.22.98-.646.78-.19 1.827-.584 2.722-.762-1.78-1.502-3.573-2.336-5.322-.613-1.29-1.764-2.88-1.627-4.377.104-1.154 1.035-2.177 2.074-2.57.84-.32 2.17-.892 3.08-.7 1.25.262 1.362 1.802 1.763 2.78.576 1.41 2.205 3.948 1.54 5.47-.245.56-.938.806-1.69 1.018M55.665 14.903c-.967.852-2.447 1.383-3.57 2-.697.38-1.004.755-1.6.175-1.812-1.77 4.698-4.633 5.17-2.175"/>
  <path fill="none" stroke="#2D8299" stroke-width=".174" stroke-miterlimit="10" d="M43.586 20.596c.05.153 4.705 7.034 4.705 7.034s3.39 6.467 5.567 6.674c1.315.056 2.823-.754 2.874-1.41.05-.66-1.86-5.162-2.873-6.933-1.013-1.77-3.49-8.347-4.25-9.006-.76-.658-1.177-2.02-3.49-1.062M55.87 29.837c.088.183 2.59 3.966 4.21 5.028 1.11.73 4.288.02 4.354-1.596.05-1.264-.545-2.42-.983-3.566-.628-1.646-1.138-3.202-1.952-4.77-1.52-2.92-3.946-10.358-5.01-11.066M62.344 26.82c.534 1.255 1.9 2.68 3.323 2.89 1.345.197 3.226-.562 3.727-2.03.502-1.466-2.337-9.294-3.55-13.138-1.216-3.847-.86-2.885-.86-2.885"/>
  <path fill="#6EEBDC" d="M69.53 8.5l.87-.318 4.41 12.068-.87.318z"/>
  <path fill="none" stroke="#2D8299" stroke-width=".174" stroke-miterlimit="10" d="M69.53 8.5l.87-.318 4.41 12.068-.87.318z"/>
  <path fill="#6EEBDC" d="M70.283 8.23l.653-.24 4.424 12.063-.653.24z"/>
  <path fill="none" stroke="#2D8299" stroke-width=".174" stroke-miterlimit="10" d="M70.283 8.23l.653-.24 4.424 12.063-.653.24z"/>
  <path fill="#262262" d="M65.24 5.52c.05.152.708.71.91.81.203.1.912 3.137 1.82 3.897.913.757 4.81.707 5.77-.254.962-.962.86-1.197.812-1.838-.053-.64-.578-2.91-.578-2.91"/>
  <path fill="none" stroke="#2D8299" stroke-width=".174" stroke-miterlimit="10" d="M65.24 5.52c.05.152.708.71.91.81.203.1.912 3.137 1.82 3.897.913.757 4.81.707 5.77-.254.962-.962.86-1.197.812-1.838-.053-.64-.578-2.91-.578-2.91"/>
  <path fill="#99FFE3" d="M65.866 4.006c-.02 1.61 1.3 5.947-1.14 6.02-.108-2.125-.87-6.2.65-7.768C66.513 1.078 68.755.02 70.38.666c.837.33 1.155 1.192 1.608 1.95-2.26.11-4.99-.315-4.386 2.91.144.77.646 1.93 1.015 2.54.045-.584-.12-1.235.266-1.69-.024.752.423 1.44.792 2.04-.51.35-.886.852-.912 1.475.02-.52-1.25-2.388-1.517-2.974-.4-.884-1.392-1.93-1.38-2.91"/>
  <path fill="#262262" d="M71.263 30.317s.978-1.69 1.736-2.905c0 0-3.174-4.978-2.97-8.51.1-1.253 1.92-3.548 3.842-3.75 1.112.605 4.682 5.395 7.766 8.38.455 1.318.662 2.333.662 2.333"/>
  <path fill="none" stroke="#2D8299" stroke-width=".174" stroke-miterlimit="10" d="M71.263 30.317s.978-1.69 1.736-2.905c0 0-3.174-4.978-2.97-8.51.1-1.253 1.92-3.548 3.842-3.75 1.112.605 4.682 5.395 7.766 8.38.455 1.318.662 2.333.662 2.333"/>
  <path fill="#2D8299" d="M25.538 41.846c.014.134-.08.254-.213.27-.135.014-.255-.082-.27-.216l-.027-.25c-.015-.134.08-.254.214-.27.133-.014.253.082.268.216l.028.25zM30.014 38.8c-.175.117-.38.116-.46-.002-.078-.116-.003-.31.17-.426l.33-.22c.173-.12.38-.12.46 0 .078.117 0 .308-.172.426l-.328.222zM27.305 40.414c-.113.075-.245.075-.297 0-.052-.076-.002-.2.11-.275l.21-.146c.114-.074.247-.074.298 0 .052.077 0 .2-.11.276l-.21.144z"/>
  <path fill="#6EEBDC" d="M22.387 44.657s-.21-.987-.152-1.33c.038-.112 2.107-.15 2.107-.15l.15.397s-.89.627-1.232.835c-.34.207-.704.455-.873.247"/>
  <path fill="none" stroke="#2D8299" stroke-width=".174" stroke-miterlimit="10" d="M22.387 44.657s-.21-.987-.152-1.33c.038-.112 2.107-.15 2.107-.15l.15.397s-.89.627-1.232.835c-.34.207-.704.455-.873.247zM22.266 43.956s-.012-.23.235-.248c.247-.02 1.928-.088 1.928-.088"/>
  <path fill="#2D8299" d="M62.772 51.68l-.446-2.294-2.304 3.44-3.5-2.343.46 2.278-2.716-1.816 1.176 5.932.55-.11-.913-4.602 2.058 1.376.576 2.885.55-.108-.467-2.335 2.83 1.894 1.85-2.742.44 2.254.56-.112-.557-2.807 1.42-2.143.915 4.604.55-.108-1.177-5.933-1.856 2.79zm-2.296 3.417l-2.832-1.894-.302-1.496 2.837 1.896 1.847-2.766.3 1.51-1.85 2.75z"/>
  <path fill="none" stroke="#2D8299" stroke-width=".174" stroke-miterlimit="10" d="M45.76 24.014c-1.154 0-1.784-.115-2.655-.91M71.384 29.935c-.543 1.192-1.14 3.872.305 4.705M72.704 26.973c.73.712 1.19 1.78 2.125 2.276M54.262 40.253c.265-1.49.353-4.752 2.05-5.464"/>
  <path fill="#6EEBDC" d="M68.946 43.29c-.455.4-.98.66-1.518.91"/>
  <path fill="none" stroke="#00BAC6" stroke-width=".174" stroke-miterlimit="10" d="M68.946 43.29c-.455.4-.98.66-1.518.91"/>
  <path fill="none" stroke="#2D8299" stroke-width=".174" stroke-miterlimit="10" d="M66.403 6.708c-.443-.548-1.076-2.22-.984-2.958M53.427 32.817c-.795-.508-1.566-2.284-.957-3.128.312-.438 1.065-.556 1.545-.435 1.06.27 1.728 1.527 1.992 2.5M60.18 33.024c-.665-1.166-1.458-3.234.38-3.813 1.58-.495 2.596 1.282 3.113 2.525M65.114 28.718c-.44-.597-.94-1.822-1.06-2.574-.135-.867.283-1.493.983-1.98 1.938-1.342 2.562 1.148 3.264 2.355"/>
  <path fill="#DAFAD0" d="M52.175 70.42c4.63 1.79 14.38-.406 20.785-4.653 1.2-.793 3.665-2.83 3.346-4.496-.363-1.02-.724-2.04-1.084-3.063-.183-.512-.32-1.074-.555-1.566-.25-.526-.44-.453-1.03-.524l.38 1.426s-4.437 7.308-17.2 8.097c-3.416.09-4.046-.266-4.046-.266l-.173-1.762s-1.568 1.013-1.62 2.333l1.198 4.476z"/>
  <path fill="#fff" d="M57.51 65.66l1.444 5.152s2.72-.173 4.92-.926c.233 0-1.216-3.355-1.793-4.977 0-.06-3.067.866-4.57.75"/>
  <path fill="none" stroke="#2D8299" stroke-width=".174" stroke-miterlimit="10" d="M73.655 22.307c-.63-.498-1.318-1.437-1.198-2.29.12-.87.716-1.606 1.357-2.164.35-.305.72-.877 1.247-.707.425.136 1.064 1.116 1.268 1.482.183.333.283.724.474 1.06M68.757 7.924c-1.082-1.246-.05-2.704 1.29-3.04 1.096-.273 3 .534 3.037 1.9"/>
  <path fill="#FF345C" d="M51.333 63.656c4.502 1.215 13.31-2.146 18.776-7.136 1.023-.935 3.08-3.253 2.596-4.87-.45-.97-.9-1.94-1.354-2.91-.225-.486-.417-1.028-.69-1.488-.295-.494-.464-.397-1.02-.397l.516 1.37s-3.29 7.792-15.054 10.12c-3.165.504-3.79.23-3.79.23l-.36-1.73s-1.34 1.195-1.238 2.51l1.617 4.3z"/>
  <path fill="none" stroke="#2D8299" stroke-width=".174" stroke-miterlimit="10" d="M55.944 58.093s6.556-1.04 11.722-6.337c2.3-2.604 2.604-4.125 2.604-4.125M51.82 58.66s-1.647 0-1.345-.523"/>
  <path fill="#262262" d="M72.352 59.083c-.197-.12-.272-.323-.224-.497.072-.16.27-.288.494-.238.217.047.375.28.276.52-.077.245-.358.332-.546.215"/>
  <path fill="none" stroke="#262262" stroke-width=".176" stroke-miterlimit="10" d="M72.352 59.083c-.197-.12-.272-.323-.224-.497.072-.16.27-.288.494-.238.217.047.375.28.276.52-.077.245-.358.332-.546.215z"/>
  <path fill="#262262" d="M71.55 59.94c-.134-.184-.11-.432.034-.556.134-.125.374-.115.546.02.184.146.188.416.002.59-.187.16-.45.128-.582-.054"/>
  <path fill="none" stroke="#262262" stroke-width=".176" stroke-miterlimit="10" d="M71.55 59.94c-.134-.184-.11-.432.034-.556.134-.125.374-.115.546.02.184.146.188.416.002.59-.187.16-.45.128-.582-.054z"/>
  <path fill="#262262" d="M70.478 60.712c-.135-.182-.095-.443.09-.584.182-.135.434-.076.562.108.13.188.078.438-.1.567-.17.133-.418.092-.552-.09"/>
  <path fill="none" stroke="#262262" stroke-width=".176" stroke-miterlimit="10" d="M70.478 60.712c-.135-.182-.095-.443.09-.584.182-.135.434-.076.562.108.13.188.078.438-.1.567-.17.133-.418.092-.552-.09z"/>
  <path fill="#262262" d="M69.507 61.423c-.12-.19-.084-.44.083-.558.165-.11.43-.086.567.094.14.18.12.428-.08.563-.194.138-.45.093-.57-.1"/>
  <path fill="none" stroke="#262262" stroke-width=".176" stroke-miterlimit="10" d="M69.507 61.423c-.12-.19-.084-.44.083-.558.165-.11.43-.086.567.094.14.18.12.428-.08.563-.194.138-.45.093-.57-.1z"/>
  <path fill="#262262" d="M68.405 62.154c-.12-.19-.062-.447.13-.57.192-.125.44-.065.55.133.11.197.05.453-.13.57-.184.12-.43.06-.55-.133"/>
  <path fill="none" stroke="#262262" stroke-width=".176" stroke-miterlimit="10" d="M68.405 62.154c-.12-.19-.062-.447.13-.57.192-.125.44-.065.55.133.11.197.05.453-.13.57-.184.12-.43.06-.55-.133z"/>
  <path fill="#262262" d="M67.392 62.813c-.125-.188-.09-.433.104-.558.193-.124.45-.07.572.118s.074.44-.108.558c-.183.118-.443.072-.568-.117"/>
  <path fill="none" stroke="#262262" stroke-width=".176" stroke-miterlimit="10" d="M67.392 62.813c-.125-.188-.09-.433.104-.558.193-.124.45-.07.572.118s.074.44-.108.558c-.183.118-.443.072-.568-.117z"/>
  <path fill="#262262" d="M66.29 63.538c-.116-.194-.063-.45.12-.568.18-.118.426-.062.55.128.123.19.07.444-.12.568-.19.125-.436.067-.55-.128"/>
  <path fill="none" stroke="#262262" stroke-width=".176" stroke-miterlimit="10" d="M66.29 63.538c-.116-.194-.063-.45.12-.568.18-.118.426-.062.55.128.123.19.07.444-.12.568-.19.125-.436.067-.55-.128z"/>
  <path fill="#262262" d="M65.226 64.1c-.104-.202-.03-.442.164-.538s.443-.014.557.184c.11.195.04.436-.164.536-.204.1-.454.018-.557-.183"/>
  <path fill="none" stroke="#262262" stroke-width=".176" stroke-miterlimit="10" d="M65.226 64.1c-.104-.202-.03-.442.164-.538s.443-.014.557.184c.11.195.04.436-.164.536-.204.1-.454.018-.557-.183z"/>
  <path fill="#262262" d="M64.042 64.68c-.093-.206-.01-.45.186-.547.195-.097.434-.01.535.193.1.203.017.448-.187.548-.202.1-.442.014-.534-.193"/>
  <path fill="none" stroke="#262262" stroke-width=".176" stroke-miterlimit="10" d="M64.042 64.68c-.093-.206-.01-.45.186-.547.195-.097.434-.01.535.193.1.203.017.448-.187.548-.202.1-.442.014-.534-.193z"/>
  <path fill="#262262" d="M62.935 65.16c-.088-.21.007-.447.21-.53.207-.084.444.017.535.224.09.208-.005.445-.212.53-.206.083-.446-.017-.533-.225"/>
  <path fill="none" stroke="#262262" stroke-width=".176" stroke-miterlimit="10" d="M62.935 65.16c-.088-.21.007-.447.21-.53.207-.084.444.017.535.224.09.208-.005.445-.212.53-.206.083-.446-.017-.533-.225z"/>
  <path fill="#262262" d="M61.712 65.66c-.086-.21.01-.448.215-.53.205-.085.44.016.53.225s-.01.447-.217.53c-.207.086-.444-.016-.528-.226"/>
  <ellipse transform="matrix(-.925 .379 -.379 -.925 144.36 102.603)" fill="none" stroke="#262262" stroke-width=".176" stroke-miterlimit="10" cx="62.084" cy="65.506" rx=".402" ry=".409"/>
  <path fill="#262262" d="M60.592 66.11c-.08-.212.02-.45.223-.53.204-.082.44.022.524.23.085.21-.017.448-.224.53-.21.084-.442-.02-.524-.23"/>
  <ellipse transform="matrix(-.929 .37 -.37 -.929 142.024 104.652)" fill="none" stroke="#262262" stroke-width=".176" stroke-miterlimit="10" cx="60.965" cy="65.96" rx=".402" ry=".41"/>
  <path fill="#262262" d="M59.347 66.538c-.058-.212.057-.443.258-.513.2-.068.427.05.504.262.075.213-.038.445-.257.52-.217.073-.444-.045-.506-.27"/>
  <path fill="none" stroke="#262262" stroke-width=".176" stroke-miterlimit="10" d="M59.347 66.538c-.058-.212.057-.443.258-.513.2-.068.427.05.504.262.075.213-.038.445-.257.52-.217.073-.444-.045-.506-.27z"/>
  <path fill="#262262" d="M58.172 66.757c-.024-.234.127-.398.328-.453.2-.045.405.098.458.318.05.22-.094.44-.323.488-.228.06-.44-.137-.463-.353"/>
  <path fill="none" stroke="#262262" stroke-width=".176" stroke-miterlimit="10" d="M58.172 66.757c-.024-.234.127-.398.328-.453.2-.045.405.098.458.318.05.22-.094.44-.323.488-.228.06-.44-.137-.463-.353z"/>
  <path fill="#262262" d="M56.858 66.826c0-.227.18-.413.4-.417.217-.01.387.156.4.384.014.225-.172.428-.398.435-.22.002-.402-.178-.402-.404"/>
  <path fill="none" stroke="#262262" stroke-width=".176" stroke-miterlimit="10" d="M56.858 66.826c0-.227.18-.413.4-.417.217-.01.387.156.4.384.014.225-.172.428-.398.435-.22.002-.402-.178-.402-.404z"/>
  <path fill="#262262" d="M55.66 66.787c.03-.224.218-.396.415-.38.193.022.377.203.38.427 0 .23-.175.416-.417.39-.24-.016-.41-.213-.38-.437"/>
  <path fill="none" stroke="#262262" stroke-width=".176" stroke-miterlimit="10" d="M55.66 66.787c.03-.224.218-.396.415-.38.193.022.377.203.38.427 0 .23-.175.416-.417.39-.24-.016-.41-.213-.38-.437z"/>
  <path fill="#262262" d="M54.38 66.518c.07-.213.29-.34.49-.283.203.054.33.27.282.49-.047.224-.27.36-.495.302-.222-.065-.347-.29-.277-.51"/>
  <path fill="none" stroke="#262262" stroke-width=".176" stroke-miterlimit="10" d="M54.38 66.518c.07-.213.29-.34.49-.283.203.054.33.27.282.49-.047.224-.27.36-.495.302-.222-.065-.347-.29-.277-.51z"/>
  <path fill="#262262" d="M53.298 66.04c.147-.182.338-.253.52-.177.164.087.27.31.186.524-.078.207-.32.327-.543.214-.227-.097-.305-.39-.162-.56"/>
  <path fill="none" stroke="#262262" stroke-width=".176" stroke-miterlimit="10" d="M53.298 66.04c.147-.182.338-.253.52-.177.164.087.27.31.186.524-.078.207-.32.327-.543.214-.227-.097-.305-.39-.162-.56z"/>
  <path fill="none" stroke="#2D8299" stroke-width=".18" stroke-miterlimit="10" d="M53.803 65.545s9.726 1.273 17.142-4.82c2.756-2.29 3.262-3.758 3.262-3.758"/>
  <path fill="#fff" d="M52.466 65.308c-.184.115-.492-.083-.494-.412-.004-.316.228-.493.446-.44.214.052.36.25.362.412-.004.156-.11.323-.314.44"/>
  <path fill="none" stroke="#2D8299" stroke-width=".174" stroke-miterlimit="10" d="M52.466 65.308c-.184.115-.492-.083-.494-.412-.004-.316.228-.493.446-.44.214.052.36.25.362.412-.004.156-.11.323-.314.44z"/>
  <path fill="#fff" d="M53.516 65.99c-.06.212-.286.363-.56.248-.274-.114-.375-.42-.215-.59.15-.158.367-.224.53-.157.163.074.305.282.246.5"/>
  <path fill="none" stroke="#2D8299" stroke-width=".174" stroke-miterlimit="10" d="M53.516 65.99c-.06.212-.286.363-.56.248-.274-.114-.375-.42-.215-.59.15-.158.367-.224.53-.157.163.074.305.282.246.5z"/>
  <path fill="#fff" d="M54.868 66.228c-.02.223-.23.38-.473.35-.243-.02-.402-.243-.355-.466.043-.216.25-.354.47-.335.216.025.377.227.358.45"/>
  <path fill="none" stroke="#2D8299" stroke-width=".174" stroke-miterlimit="10" d="M54.868 66.228c-.02.223-.23.38-.473.35-.243-.02-.402-.243-.355-.466.043-.216.25-.354.47-.335.216.025.377.227.358.45z"/>
  <path fill="#fff" d="M56.12 66.257c.014.226-.174.424-.418.412-.242-.005-.43-.19-.418-.414.012-.224.198-.4.418-.397.217.01.403.177.418.397"/>
  <path fill="none" stroke="#2D8299" stroke-width=".174" stroke-miterlimit="10" d="M56.12 66.257c.014.226-.174.424-.418.412-.242-.005-.43-.19-.418-.414.012-.224.198-.4.418-.397.217.01.403.177.418.397z"/>
  <path fill="#fff" d="M57.476 66.07c.04.22-.117.435-.347.478-.227.055-.45-.117-.474-.338-.025-.225.13-.41.35-.462.222-.043.432.1.47.32"/>
  <path fill="none" stroke="#2D8299" stroke-width=".174" stroke-miterlimit="10" d="M57.476 66.07c.04.22-.117.435-.347.478-.227.055-.45-.117-.474-.338-.025-.225.13-.41.35-.462.222-.043.432.1.47.32z"/>
  <path fill="#fff" d="M58.702 65.826c.05.218-.098.432-.328.48-.23.044-.448-.098-.49-.317-.04-.222.107-.435.328-.48.22-.044.44.097.49.316"/>
  <path fill="none" stroke="#2D8299" stroke-width=".174" stroke-miterlimit="10" d="M58.702 65.826c.05.218-.098.432-.328.48-.23.044-.448-.098-.49-.317-.04-.222.107-.435.328-.48.22-.044.44.097.49.316z"/>
  <path fill="#fff" d="M60.026 65.496c.06.215-.072.443-.295.51-.223.072-.45-.062-.505-.284-.052-.213.084-.43.3-.5.218-.065.442.058.5.274"/>
  <path fill="none" stroke="#2D8299" stroke-width=".174" stroke-miterlimit="10" d="M60.026 65.496c.06.215-.072.443-.295.51-.223.072-.45-.062-.505-.284-.052-.213.084-.43.3-.5.218-.065.442.058.5.274z"/>
  <path fill="#fff" d="M61.224 65.14c.068.212-.057.438-.28.505-.224.067-.456-.054-.518-.27-.062-.214.063-.44.28-.505.218-.064.448.056.518.27"/>
  <path fill="none" stroke="#2D8299" stroke-width=".174" stroke-miterlimit="10" d="M61.224 65.14c.068.212-.057.438-.28.505-.224.067-.456-.054-.518-.27-.062-.214.063-.44.28-.505.218-.064.448.056.518.27z"/>
  <path fill="#fff" d="M62.515 64.695c.077.21-.037.447-.254.53-.217.08-.45-.022-.523-.238-.07-.208.043-.447.256-.527.21-.08.445.025.522.235"/>
  <path fill="none" stroke="#2D8299" stroke-width=".174" stroke-miterlimit="10" d="M62.515 64.695c.077.21-.037.447-.254.53-.217.08-.45-.022-.523-.238-.07-.208.043-.447.256-.527.21-.08.445.025.522.235z"/>
  <path fill="#fff" d="M63.683 64.254c.083.207-.025.442-.243.524-.217.082-.457-.02-.535-.23-.077-.21.03-.445.243-.525.21-.08.452.023.535.23"/>
  <path fill="none" stroke="#2D8299" stroke-width=".174" stroke-miterlimit="10" d="M63.683 64.254c.083.207-.025.442-.243.524-.217.082-.457-.02-.535-.23-.077-.21.03-.445.243-.525.21-.08.452.023.535.23z"/>
  <path fill="#fff" d="M64.944 63.73c.088.205-.014.446-.226.54s-.453 0-.538-.208.016-.45.225-.54.45.002.54.207"/>
  <path fill="none" stroke="#2D8299" stroke-width=".174" stroke-miterlimit="10" d="M64.944 63.73c.088.205-.014.446-.226.54s-.453 0-.538-.208.016-.45.225-.54.45.002.54.207z"/>
  <path fill="#fff" d="M66.087 63.23c.092.204-.006.444-.218.537s-.457 0-.546-.204.01-.445.218-.537c.21-.09.452 0 .545.205"/>
  <ellipse transform="matrix(.917 -.399 .399 .917 -19.844 31.496)" fill="none" stroke="#2D8299" stroke-width=".174" stroke-miterlimit="10" cx="65.706" cy="63.397" rx=".416" ry=".405"/>
  <path fill="#fff" d="M67.304 62.606c.107.196.025.448-.184.562s-.455.04-.55-.162c-.094-.203-.01-.455.185-.562s.44-.034.55.162"/>
  <path fill="none" stroke="#2D8299" stroke-width=".174" stroke-miterlimit="10" d="M67.304 62.606c.107.196.025.448-.184.562s-.455.04-.55-.162c-.094-.203-.01-.455.185-.562s.44-.034.55.162z"/>
  <path fill="#fff" d="M68.396 61.998c.128.192.064.444-.146.555-.21.114-.47.05-.58-.146-.11-.194-.04-.438.154-.545.197-.102.45-.044.572.136"/>
  <path fill="none" stroke="#2D8299" stroke-width=".174" stroke-miterlimit="10" d="M68.396 61.998c.128.192.064.444-.146.555-.21.114-.47.05-.58-.146-.11-.194-.04-.438.154-.545.197-.102.45-.044.572.136z"/>
  <path fill="#fff" d="M69.487 61.17c.143.172.104.43-.086.573-.19.145-.448.112-.577-.07s-.09-.44.086-.574c.178-.135.436-.103.577.07"/>
  <path fill="none" stroke="#2D8299" stroke-width=".174" stroke-miterlimit="10" d="M69.487 61.17c.143.172.104.43-.086.573-.19.145-.448.112-.577-.07s-.09-.44.086-.574c.178-.135.436-.103.577.07z"/>
  <path fill="#fff" d="M70.425 60.345c.154.162.143.427-.027.59-.166.17-.428.157-.576-.018-.143-.165-.125-.422.033-.583.16-.156.416-.152.57.01"/>
  <path fill="none" stroke="#2D8299" stroke-width=".174" stroke-miterlimit="10" d="M70.425 60.345c.154.162.143.427-.027.59-.166.17-.428.157-.576-.018-.143-.165-.125-.422.033-.583.16-.156.416-.152.57.01z"/>
  <path fill="#fff" d="M71.4 59.384c.165.154.17.417-.003.578-.168.165-.433.17-.59.01-.156-.16-.152-.417.008-.573.164-.154.422-.166.584-.016"/>
  <path fill="none" stroke="#2D8299" stroke-width=".174" stroke-miterlimit="10" d="M71.4 59.384c.165.154.17.417-.003.578-.168.165-.433.17-.59.01-.156-.16-.152-.417.008-.573.164-.154.422-.166.584-.016z"/>
  <path fill="#fff" d="M72.233 58.457c.166.15.176.41.02.583-.154.172-.412.188-.576.036-.165-.152-.174-.413-.02-.583.15-.17.408-.186.576-.036"/>
  <path fill="none" stroke="#2D8299" stroke-width=".174" stroke-miterlimit="10" d="M72.233 58.457c.166.15.176.41.02.583-.154.172-.412.188-.576.036-.165-.152-.174-.413-.02-.583.15-.17.408-.186.576-.036z"/>
  <path fill="#fff" d="M73.127 57.42c.18.136.205.404.046.588-.154.188-.416.195-.583.05-.17-.147-.173-.404-.035-.574.143-.166.393-.197.572-.064"/>
  <path fill="none" stroke="#2D8299" stroke-width=".174" stroke-miterlimit="10" d="M73.127 57.42c.18.136.205.404.046.588-.154.188-.416.195-.583.05-.17-.147-.173-.404-.035-.574.143-.166.393-.197.572-.064z"/>
  <path fill="#fff" d="M73.79 56.353c.205.087.277.345.157.574-.128.22-.393.28-.575.154-.187-.127-.234-.374-.127-.555.094-.183.338-.26.545-.172"/>
  <path fill="none" stroke="#2D8299" stroke-width=".174" stroke-miterlimit="10" d="M73.79 56.353c.205.087.277.345.157.574-.128.22-.393.28-.575.154-.187-.127-.234-.374-.127-.555.094-.183.338-.26.545-.172z"/>
  <path fill="#fff" d="M73.99 54.988c.215-.06.423.138.442.442-.03.287-.254.467-.47.408-.217-.06-.366-.257-.34-.437-.02-.167.152-.353.368-.412"/>
  <path fill="none" stroke="#2D8299" stroke-width=".174" stroke-miterlimit="10" d="M73.99 54.988c.215-.06.423.138.442.442-.03.287-.254.467-.47.408-.217-.06-.366-.257-.34-.437-.02-.167.152-.353.368-.412z"/>
  <path fill="#fff" d="M73.025 54.327c.036-.22.217-.383.48-.344.196.032.358.146.408.278.054.132.007.24-.087.316-.183.104-.378.2-.455.205-.2-.03-.382-.23-.345-.453"/>
  <path fill="none" stroke="#2D8299" stroke-width=".174" stroke-miterlimit="10" d="M73.025 54.327c.036-.22.217-.383.48-.344.196.032.358.146.408.278.054.132.007.24-.087.316-.183.104-.378.2-.455.205-.2-.03-.382-.23-.345-.453z"/>
  <path fill="#262262" d="M54.833 72.24c-.16.154-.426.163-.58-.024-.157-.176-.137-.454.057-.582.185-.122.425-.108.562.046.127.154.127.4-.04.56"/>
  <path fill="none" stroke="#262262" stroke-width=".176" stroke-miterlimit="10" d="M54.833 72.24c-.16.154-.426.163-.58-.024-.157-.176-.137-.454.057-.582.185-.122.425-.108.562.046.127.154.127.4-.04.56z"/>
  <path fill="#262262" d="M55.71 73.052c-.14.175-.402.198-.576.047-.168-.157-.176-.416-.018-.578.156-.162.41-.178.563-.033.16.136.174.386.03.562"/>
  <path fill="none" stroke="#262262" stroke-width=".176" stroke-miterlimit="10" d="M55.71 73.052c-.14.175-.402.198-.576.047-.168-.157-.176-.416-.018-.578.156-.162.41-.178.563-.033.16.136.174.386.03.562z"/>
  <path fill="#262262" d="M56.828 73.76c-.015.23-.388.325-.58.185-.233-.13-.26-.396-.132-.577.134-.186.378-.22.54-.133.17.115.19.29.172.525"/>
  <path fill="none" stroke="#262262" stroke-width=".176" stroke-miterlimit="10" d="M56.828 73.76c-.015.23-.388.325-.58.185-.233-.13-.26-.396-.132-.577.134-.186.378-.22.54-.133.17.115.19.29.172.525z"/>
  <path fill="#262262" d="M58.022 73.833c-.006.226-.19.402-.412.395-.222-.01-.393-.198-.382-.425.01-.226.194-.402.412-.395.216.01.387.2.382.425"/>
  <path fill="none" stroke="#262262" stroke-width=".176" stroke-miterlimit="10" d="M58.022 73.833c-.006.226-.19.402-.412.395-.222-.01-.393-.198-.382-.425.01-.226.194-.402.412-.395.216.01.387.2.382.425z"/>
  <path fill="#262262" d="M59.33 73.83c.007.23-.17.414-.396.42-.225.004-.405-.177-.402-.402.004-.227.18-.412.395-.418.214-.005.393.175.402.4"/>
  <path fill="none" stroke="#262262" stroke-width=".176" stroke-miterlimit="10" d="M59.33 73.83c.007.23-.17.414-.396.42-.225.004-.405-.177-.402-.402.004-.227.18-.412.395-.418.214-.005.393.175.402.4z"/>
  <path fill="#262262" d="M60.52 73.743c.026.225-.135.43-.362.458-.228.037-.42-.152-.43-.377-.014-.227.152-.404.36-.438.21-.027.402.133.43.358"/>
  <path fill="none" stroke="#262262" stroke-width=".176" stroke-miterlimit="10" d="M60.52 73.743c.026.225-.135.43-.362.458-.228.037-.42-.152-.43-.377-.014-.227.152-.404.36-.438.21-.027.402.133.43.358z"/>
  <path fill="#262262" d="M61.806 73.514c.057.22-.08.447-.305.508-.224.048-.438-.123-.473-.343-.036-.228.108-.417.312-.46.2-.057.41.075.466.294"/>
  <path fill="none" stroke="#262262" stroke-width=".176" stroke-miterlimit="10" d="M61.806 73.514c.057.22-.08.447-.305.508-.224.048-.438-.123-.473-.343-.036-.228.108-.417.312-.46.2-.057.41.075.466.294z"/>
  <path fill="#262262" d="M62.952 73.172c.082.21-.018.464-.244.518-.225.062-.455-.064-.518-.28-.062-.22.05-.44.253-.496.204-.045.425.047.51.258"/>
  <path fill="none" stroke="#262262" stroke-width=".176" stroke-miterlimit="10" d="M62.952 73.172c.082.21-.018.464-.244.518-.225.062-.455-.064-.518-.28-.062-.22.05-.44.253-.496.204-.045.425.047.51.258z"/>
  <path fill="#262262" d="M64.15 72.642c.106.206.022.445-.188.536-.21.092-.453-.003-.542-.21-.088-.21-.003-.446.19-.53.195-.083.437.01.54.204"/>
  <path fill="none" stroke="#262262" stroke-width=".176" stroke-miterlimit="10" d="M64.15 72.642c.106.206.022.445-.188.536-.21.092-.453-.003-.542-.21-.088-.21-.003-.446.19-.53.195-.083.437.01.54.204z"/>
  <path fill="#262262" d="M65.184 72.043c.123.188.062.437-.135.55-.2.116-.447.048-.557-.15-.108-.198-.048-.445.135-.552.184-.105.432-.037.556.153"/>
  <path fill="none" stroke="#262262" stroke-width=".176" stroke-miterlimit="10" d="M65.184 72.043c.123.188.062.437-.135.55-.2.116-.447.048-.557-.15-.108-.198-.048-.445.135-.552.184-.105.432-.037.556.153z"/>
  <path fill="#262262" d="M66.26 71.305c.134.184.09.437-.093.562-.184.127-.435.077-.56-.11s-.084-.44.093-.563.43-.072.56.11"/>
  <path fill="none" stroke="#262262" stroke-width=".176" stroke-miterlimit="10" d="M66.26 71.305c.134.184.09.437-.093.562-.184.127-.435.077-.56-.11s-.084-.44.093-.563.43-.072.56.11z"/>
  <path fill="#262262" d="M67.226 70.61c.133.184.096.437-.082.564s-.43.083-.56-.1-.096-.438.082-.566c.178-.128.43-.083.56.1"/>
  <ellipse transform="matrix(.81 -.586 .586 .81 -28.825 52.658)" fill="none" stroke="#262262" stroke-width=".176" stroke-miterlimit="10" cx="66.904" cy="70.841" rx=".397" ry=".41"/>
  <path fill="#262262" d="M68.23 69.768c.158.156.165.43-.015.584-.186.15-.445.127-.583-.054-.137-.18-.12-.43.04-.56.155-.132.395-.132.56.03"/>
  <path fill="none" stroke="#262262" stroke-width=".176" stroke-miterlimit="10" d="M68.23 69.768c.158.156.165.43-.015.584-.186.15-.445.127-.583-.054-.137-.18-.12-.43.04-.56.155-.132.395-.132.56.03z"/>
  <path fill="#262262" d="M69.02 68.868c.187.14.21.392.063.57-.147.18-.4.2-.57.046-.165-.15-.194-.407-.06-.568.132-.162.39-.18.568-.048"/>
  <path fill="none" stroke="#262262" stroke-width=".176" stroke-miterlimit="10" d="M69.02 68.868c.187.14.21.392.063.57-.147.18-.4.2-.57.046-.165-.15-.194-.407-.06-.568.132-.162.39-.18.568-.048z"/>
  <path fill="#262262" d="M69.755 67.786c.193.118.25.37.13.56-.118.193-.384.235-.567.106-.187-.133-.23-.372-.12-.555.115-.18.364-.23.557-.11"/>
  <path fill="none" stroke="#262262" stroke-width=".176" stroke-miterlimit="10" d="M69.755 67.786c.193.118.25.37.13.56-.118.193-.384.235-.567.106-.187-.133-.23-.372-.12-.555.115-.18.364-.23.557-.11z"/>
  <path fill="#262262" d="M70.354 66.754c.196.108.275.356.162.55s-.36.257-.557.14c-.195-.115-.265-.36-.157-.544.11-.187.352-.256.55-.146"/>
  <path fill="none" stroke="#262262" stroke-width=".176" stroke-miterlimit="10" d="M70.354 66.754c.196.108.275.356.162.55s-.36.257-.557.14c-.195-.115-.265-.36-.157-.544.11-.187.352-.256.55-.146z"/>
  <path fill="#262262" d="M70.968 65.603c.203.107.285.354.18.546-.103.193-.348.264-.55.156-.197-.106-.275-.35-.173-.543.105-.19.346-.263.543-.16"/>
  <path fill="none" stroke="#262262" stroke-width=".176" stroke-miterlimit="10" d="M70.968 65.603c.203.107.285.354.18.546-.103.193-.348.264-.55.156-.197-.106-.275-.35-.173-.543.105-.19.346-.263.543-.16z"/>
  <path fill="#262262" d="M71.456 64.515c.205.096.297.34.205.542-.09.204-.33.286-.53.184-.2-.103-.293-.345-.205-.542.088-.197.324-.28.53-.183"/>
  <path fill="none" stroke="#262262" stroke-width=".176" stroke-miterlimit="10" d="M71.456 64.515c.205.096.297.34.205.542-.09.204-.33.286-.53.184-.2-.103-.293-.345-.205-.542.088-.197.324-.28.53-.183z"/>
  <path fill="#262262" d="M71.99 63.323c.208.086.305.32.214.524-.092.204-.334.294-.54.2-.206-.092-.302-.326-.214-.523.088-.196.33-.286.54-.2"/>
  <path fill="none" stroke="#262262" stroke-width=".176" stroke-miterlimit="10" d="M71.99 63.323c.208.086.305.32.214.524-.092.204-.334.294-.54.2-.206-.092-.302-.326-.214-.523.088-.196.33-.286.54-.2z"/>
  <path fill="#262262" d="M72.435 62.218c.21.08.322.312.248.52-.066.21-.324.305-.53.222-.214-.085-.302-.306-.234-.514.07-.205.302-.308.515-.228"/>
  <path fill="none" stroke="#262262" stroke-width=".176" stroke-miterlimit="10" d="M72.435 62.218c.21.08.322.312.248.52-.066.21-.324.305-.53.222-.214-.085-.302-.306-.234-.514.07-.205.302-.308.515-.228z"/>
  <path fill="#262262" d="M72.872 60.99c.213.077.325.31.252.516-.074.207-.307.312-.52.232s-.323-.31-.25-.515c.075-.206.305-.31.518-.232"/>
  <path fill="none" stroke="#262262" stroke-width=".176" stroke-miterlimit="10" d="M72.872 60.99c.213.077.325.31.252.516-.074.207-.307.312-.52.232s-.323-.31-.25-.515c.075-.206.305-.31.518-.232z"/>
  <path fill="#262262" d="M73.272 59.87c.215.074.327.303.254.51-.074.207-.308.313-.52.237-.214-.077-.327-.306-.254-.51.075-.206.307-.313.52-.238"/>
  <ellipse transform="matrix(.336 -.942 .942 .336 -8.161 108.913)" fill="none" stroke="#262262" stroke-width=".176" stroke-miterlimit="10" cx="73.139" cy="60.243" rx=".397" ry=".411"/>
  <path fill="#262262" d="M73.507 58.578c.223.02.385.212.365.442-.01.22-.25.398-.47.348-.222-.05-.354-.226-.345-.442.018-.21.22-.374.45-.348"/>
  <path fill="none" stroke="#262262" stroke-width=".176" stroke-miterlimit="10" d="M73.507 58.578c.223.02.385.212.365.442-.01.22-.25.398-.47.348-.222-.05-.354-.226-.345-.442.018-.21.22-.374.45-.348z"/>
  <path fill="#262262" d="M73.795 57.44c.212.08.333.298.27.485-.077.187-.273.308-.495.267-.224-.042-.38-.27-.293-.49.073-.224.306-.34.518-.26"/>
  <path fill="none" stroke="#262262" stroke-width=".176" stroke-miterlimit="10" d="M73.795 57.44c.212.08.333.298.27.485-.077.187-.273.308-.495.267-.224-.042-.38-.27-.293-.49.073-.224.306-.34.518-.26z"/>
  <path fill="#fff" d="M54.604 71.56c-.052.22-.29.358-.545.252-.267-.116-.37-.424-.198-.588.16-.152.37-.232.518-.166.16.067.275.283.224.502"/>
  <path fill="none" stroke="#2D8299" stroke-width=".176" stroke-miterlimit="10" d="M54.604 71.56c-.052.22-.29.358-.545.252-.267-.116-.37-.424-.198-.588.16-.152.37-.232.518-.166.16.067.275.283.224.502z"/>
  <path fill="#fff" d="M55.794 71.73c-.016.223-.21.397-.44.37-.232-.02-.395-.237-.355-.46s.23-.373.438-.354c.208.025.37.214.356.443"/>
  <path fill="none" stroke="#2D8299" stroke-width=".176" stroke-miterlimit="10" d="M55.794 71.73c-.016.223-.21.397-.44.37-.232-.02-.395-.237-.355-.46s.23-.373.438-.354c.208.025.37.214.356.443z"/>
  <path fill="#fff" d="M57.103 71.753c.004.226-.178.408-.403.407-.228-.002-.404-.187-.395-.413.01-.226.192-.408.405-.406.213.002.39.187.393.413"/>
  <path fill="none" stroke="#2D8299" stroke-width=".176" stroke-miterlimit="10" d="M57.103 71.753c.004.226-.178.408-.403.407-.228-.002-.404-.187-.395-.413.01-.226.192-.408.405-.406.213.002.39.187.393.413z"/>
  <path fill="#fff" d="M58.296 71.692c.022.225-.145.425-.37.445-.228.024-.417-.15-.425-.38-.006-.223.16-.414.373-.44.212-.018.402.15.423.375"/>
  <path fill="none" stroke="#2D8299" stroke-width=".176" stroke-miterlimit="10" d="M58.296 71.692c.022.225-.145.425-.37.445-.228.024-.417-.15-.425-.38-.006-.223.16-.414.373-.44.212-.018.402.15.423.375z"/>
  <path fill="#fff" d="M59.593 71.513c.043.223-.104.438-.328.483-.222.053-.432-.135-.457-.353-.03-.23.123-.406.33-.457.21-.04.414.106.455.327"/>
  <path fill="none" stroke="#2D8299" stroke-width=".176" stroke-miterlimit="10" d="M59.593 71.513c.043.223-.104.438-.328.483-.222.053-.432-.135-.457-.353-.03-.23.123-.406.33-.457.21-.04.414.106.455.327z"/>
  <path fill="#fff" d="M60.76 71.25c.06.212-.063.46-.286.505s-.443-.1-.49-.32c-.046-.222.086-.435.295-.476.206-.042.417.067.48.29"/>
  <path fill="none" stroke="#2D8299" stroke-width=".176" stroke-miterlimit="10" d="M60.76 71.25c.06.212-.063.46-.286.505s-.443-.1-.49-.32c-.046-.222.086-.435.295-.476.206-.042.417.067.48.29z"/>
  <path fill="#fff" d="M62.007 70.85c.082.216-.023.454-.244.517-.217.067-.446-.053-.514-.27-.067-.216.044-.442.246-.506.205-.055.433.052.51.26"/>
  <path fill="none" stroke="#2D8299" stroke-width=".176" stroke-miterlimit="10" d="M62.007 70.85c.082.216-.023.454-.244.517-.217.067-.446-.053-.514-.27-.067-.216.044-.442.246-.506.205-.055.433.052.51.26z"/>
  <path fill="#fff" d="M63.097 70.362c.092.207-.002.45-.207.54s-.438-.004-.52-.215.01-.454.207-.542.43.01.52.217"/>
  <path fill="none" stroke="#2D8299" stroke-width=".176" stroke-miterlimit="10" d="M63.097 70.362c.092.207-.002.45-.207.54s-.438-.004-.52-.215.01-.454.207-.542.43.01.52.217z"/>
  <path fill="#fff" d="M64.292 69.83c.102.2.02.438-.188.53-.203.092-.446 0-.54-.207-.094-.206-.01-.444.187-.53.198-.09.44.002.542.206"/>
  <path fill="none" stroke="#2D8299" stroke-width=".176" stroke-miterlimit="10" d="M64.292 69.83c.102.2.02.438-.188.53-.203.092-.446 0-.54-.207-.094-.206-.01-.444.187-.53.198-.09.44.002.542.206z"/>
  <path fill="#fff" d="M65.34 69.258c.11.196.048.45-.145.568-.188.12-.433.046-.54-.16-.102-.196-.033-.442.148-.56.184-.11.425-.044.536.152"/>
  <path fill="none" stroke="#2D8299" stroke-width=".176" stroke-miterlimit="10" d="M65.34 69.258c.11.196.048.45-.145.568-.188.12-.433.046-.54-.16-.102-.196-.033-.442.148-.56.184-.11.425-.044.536.152z"/>
  <path fill="#fff" d="M66.454 68.574c.123.19.068.438-.123.556s-.438.056-.555-.14c-.114-.194-.06-.443.123-.556.183-.113.433-.05.556.14"/>
  <path fill="none" stroke="#2D8299" stroke-width=".176" stroke-miterlimit="10" d="M66.454 68.574c.123.19.068.438-.123.556s-.438.056-.555-.14c-.114-.194-.06-.443.123-.556.183-.113.433-.05.556.14z"/>
  <path fill="#fff" d="M67.462 67.93c.143.182.1.455-.096.562-.19.117-.447.06-.572-.128s-.078-.433.105-.545c.19-.107.424-.064.562.11"/>
  <path fill="none" stroke="#2D8299" stroke-width=".176" stroke-miterlimit="10" d="M67.462 67.93c.143.182.1.455-.096.562-.19.117-.447.06-.572-.128s-.078-.433.105-.545c.19-.107.424-.064.562.11z"/>
  <path fill="#fff" d="M68.354 66.96c.19.12.254.393.084.582-.162.193-.418.222-.582.052-.15-.156-.184-.415-.06-.562.134-.14.365-.19.558-.07"/>
  <path fill="none" stroke="#2D8299" stroke-width=".176" stroke-miterlimit="10" d="M68.354 66.96c.19.12.254.393.084.582-.162.193-.418.222-.582.052-.15-.156-.184-.415-.06-.562.134-.14.365-.19.558-.07z"/>
  <path fill="#fff" d="M68.886 65.885c.205.09.32.32.217.534-.1.213-.342.3-.543.194-.2-.104-.293-.343-.205-.53.09-.184.32-.29.53-.2"/>
  <path fill="none" stroke="#2D8299" stroke-width=".176" stroke-miterlimit="10" d="M68.886 65.885c.205.09.32.32.217.534-.1.213-.342.3-.543.194-.2-.104-.293-.343-.205-.53.09-.184.32-.29.53-.2z"/>
  <path fill="#fff" d="M69.415 64.7c.198.107.284.34.193.52-.083.193-.318.28-.527.194-.208-.087-.307-.326-.218-.534.104-.208.354-.29.553-.18"/>
  <path fill="none" stroke="#2D8299" stroke-width=".176" stroke-miterlimit="10" d="M69.415 64.7c.198.107.284.34.193.52-.083.193-.318.28-.527.194-.208-.087-.307-.326-.218-.534.104-.208.354-.29.553-.18z"/>
  <path fill="#fff" d="M70.052 63.705c.187.13.213.397.105.564-.107.164-.355.203-.55.088-.194-.116-.246-.37-.115-.567.13-.196.376-.215.56-.085"/>
  <path fill="none" stroke="#2D8299" stroke-width=".176" stroke-miterlimit="10" d="M70.052 63.705c.187.13.213.397.105.564-.107.164-.355.203-.55.088-.194-.116-.246-.37-.115-.567.13-.196.376-.215.56-.085z"/>
  <path fill="#fff" d="M70.812 62.64c.188.127.234.376.104.558-.13.182-.383.223-.567.09-.185-.132-.23-.382-.105-.558s.38-.216.567-.09"/>
  <path fill="none" stroke="#2D8299" stroke-width=".176" stroke-miterlimit="10" d="M70.812 62.64c.188.127.234.376.104.558-.13.182-.383.223-.567.09-.185-.132-.23-.382-.105-.558s.38-.216.567-.09z"/>
  <path fill="#fff" d="M71.45 61.63c.193.118.254.367.135.557-.12.19-.368.243-.558.12-.188-.126-.25-.375-.135-.558.115-.183.365-.237.558-.12"/>
  <path fill="none" stroke="#2D8299" stroke-width=".176" stroke-miterlimit="10" d="M71.45 61.63c.193.118.254.367.135.557-.12.19-.368.243-.558.12-.188-.126-.25-.375-.135-.558.115-.183.365-.237.558-.12z"/>
  <path fill="#fff" d="M72.097 60.495c.2.104.277.352.172.552-.105.2-.35.268-.548.15-.19-.112-.268-.36-.168-.55.1-.19.343-.258.543-.152"/>
  <path fill="none" stroke="#2D8299" stroke-width=".176" stroke-miterlimit="10" d="M72.097 60.495c.2.104.277.352.172.552-.105.2-.35.268-.548.15-.19-.112-.268-.36-.168-.55.1-.19.343-.258.543-.152z"/>
  <path fill="#fff" d="M72.632 59.426c.202.09.314.343.206.54-.104.2-.353.278-.556.176-.2-.104-.283-.34-.184-.53.106-.188.322-.28.534-.186"/>
  <path fill="none" stroke="#2D8299" stroke-width=".176" stroke-miterlimit="10" d="M72.632 59.426c.202.09.314.343.206.54-.104.2-.353.278-.556.176-.2-.104-.283-.34-.184-.53.106-.188.322-.28.534-.186z"/>
  <path fill="#fff" d="M73.13 58.214c.213.074.317.306.23.516-.085.21-.325.31-.534.222-.21-.087-.312-.317-.23-.515.08-.197.32-.297.534-.223"/>
  <path fill="none" stroke="#2D8299" stroke-width=".176" stroke-miterlimit="10" d="M73.13 58.214c.213.074.317.306.23.516-.085.21-.325.31-.534.222-.21-.087-.312-.317-.23-.515.08-.197.32-.297.534-.223z"/>
  <path fill="#fff" d="M73.56 57.104c.21.078.318.314.237.52-.08.206-.315.302-.526.22s-.314-.315-.235-.52c.08-.2.312-.3.525-.22"/>
  <path fill="none" stroke="#2D8299" stroke-width=".176" stroke-miterlimit="10" d="M73.56 57.104c.21.078.318.314.237.52-.08.206-.315.302-.526.22s-.314-.315-.235-.52c.08-.2.312-.3.525-.22z"/>
  <path fill="#fff" d="M73.948 55.85c.223.045.36.274.295.5-.065.227-.297.344-.513.272-.213-.074-.333-.296-.274-.495.057-.2.27-.322.492-.277"/>
  <path fill="none" stroke="#2D8299" stroke-width=".176" stroke-miterlimit="10" d="M73.948 55.85c.223.045.36.274.295.5-.065.227-.297.344-.513.272-.213-.074-.333-.296-.274-.495.057-.2.27-.322.492-.277z"/>
  <path fill="#fff" d="M73.962 54.64c.215-.086.473.105.48.39.014.28-.208.45-.425.423-.23-.028-.382-.215-.395-.387-.002-.17.133-.34.34-.425"/>
  <path fill="none" stroke="#2D8299" stroke-width=".176" stroke-miterlimit="10" d="M73.962 54.64c.215-.086.473.105.48.39.014.28-.208.45-.425.423-.23-.028-.382-.215-.395-.387-.002-.17.133-.34.34-.425z"/>
  <path fill="#FF345C" d="M56.72 57.978s-.312-.62-.768-.57c-.457.052-2.63.432-3.338.432-.71 0-.888.936-.734 1.492.15.557.555 3.997 1.644 4.2 1.087.202 3.415-.103 3.415-.558 0-.454-1.334-5.217-.886-5.263 0 0-.11-.008.11.383"/>
  <path fill="none" stroke="#2D8299" stroke-width=".174" stroke-miterlimit="10" d="M56.72 57.978s-.312-.62-.768-.57c-.457.052-2.63.432-3.338.432-.71 0-.888.936-.734 1.492.15.557.555 3.997 1.644 4.2 1.087.202 3.415-.103 3.415-.558 0-.454-1.334-5.217-.886-5.263 0 0-.11-.008.11.383"/>
  <path fill="#fff" d="M53.677 59.387h-.018l-.087.012c-.028.005-.057.013-.084.02l-.4.074c-.032.003-.06.005-.09.01s-.055.015-.083.02l-.017.005c-.666.197-1.058 1.08-.884 2.035.178.956.857 1.64 1.553 1.585v.01l.774-.147v-.006c.666-.198 1.06-1.08.883-2.035-.177-.956-.857-1.638-1.55-1.585"/>
  <path fill="none" stroke="#2D8299" stroke-width=".174" stroke-miterlimit="10" d="M53.677 59.387h-.018l-.087.012c-.028.005-.057.013-.084.02l-.4.074c-.032.003-.06.005-.09.01s-.055.015-.083.02l-.017.005c-.666.197-1.058 1.08-.884 2.035.178.956.857 1.64 1.553 1.585v.01l.774-.147v-.006c.666-.198 1.06-1.08.883-2.035-.177-.956-.857-1.638-1.55-1.585z"/>
  <path fill="#fff" d="M54.517 61.103c.168.9-.228 1.727-.88 1.847-.653.12-1.315-.512-1.48-1.41-.167-.898.227-1.726.88-1.846.65-.12 1.314.512 1.48 1.41"/>
  <ellipse transform="matrix(.983 -.182 .182 .983 -10.262 10.722)" fill="none" stroke="#2D8299" stroke-width=".174" stroke-miterlimit="10" cx="53.336" cy="61.321" rx="1.2" ry="1.656"/>
  <path fill="#2D8299" d="M59.07 67.925l-.002-.407.237-.05c-.095.15-.17.3-.234.457M60.19 69.602l-.387.083c-.107-.08-.2-.178-.274-.287-.088-.13-.148-.275-.184-.436-.043-.207-.04-.428.007-.657.05-.235.15-.47.294-.692.06-.094.127-.18.2-.26l.374-.08c-.01.007-.02.016-.033.024-.144.113-.27.253-.374.412-.108.166-.188.342-.233.52-.044.172-.056.342-.038.505.04.33.207.605.475.777.053.036.113.066.174.09M59.708 69.706l-.328.07c-.05-.054-.096-.11-.135-.172-.065-.098-.12-.204-.162-.316l-.01-1.138c.066-.225.168-.445.307-.66l.03-.043.315-.068c-.05.06-.098.125-.143.192-.147.23-.25.473-.303.72-.053.238-.053.47-.007.687.035.17.1.322.193.46.067.1.15.188.242.266M60.956 68.79l-.002-.12c.057-.04.106-.093.146-.15.062-.103.092-.214.077-.32s-.068-.192-.153-.246c-.023-.016-.05-.027-.077-.037l-.002-.13c.056.01.105.027.15.057.097.063.16.152.183.265.032.142-.008.31-.11.47-.06.087-.132.16-.212.21M60.952 68.574l-.004-.58.035.02c.067.044.11.114.12.196.013.088-.012.182-.067.266-.023.037-.053.07-.084.098M60.956 69.02v-.143c.107-.058.202-.148.272-.26.115-.177.16-.363.124-.526-.027-.13-.102-.236-.216-.31-.058-.037-.122-.06-.192-.068v-.147c.098.004.19.032.27.083.312.2.355.646.105 1.036-.096.148-.223.266-.364.336M59.295 69.793l-.205.044-.003-.355c.027.058.06.112.096.165.033.052.07.1.112.146M59.976 67.864l-.188.042c.026-.052.056-.104.09-.155.145-.226.337-.402.544-.52l.207-.044v.12c-.25.094-.47.277-.628.52-.01.012-.02.026-.026.038M60.96 69.257l-.002-.155c.164-.073.314-.207.426-.38.273-.424.22-.913-.13-1.137-.09-.062-.197-.094-.31-.098l-.002-.17c.15-.005.295.03.42.112.17.108.283.264.332.454 0 .01.005.02.006.03.01.04.015.083.02.128.016.242-.062.508-.214.746-.138.21-.333.377-.546.47M60.458 68.64l-.13.028c-.02-.035-.032-.072-.04-.114-.03-.138.002-.3.086-.443l.135-.028c-.015.017-.026.032-.036.05-.078.12-.107.25-.083.366.013.053.035.103.068.142M60.633 67.723l-.216.047c.066-.06.138-.105.216-.14v.093M61.69 67.673l-.004-.01c-.067-.118-.162-.22-.282-.298-.106-.066-.228-.108-.354-.12-.037-.003-.073-.004-.108-.003v-.124l.213-.05c.126.02.247.064.356.135.113.073.206.164.276.27l-.096.022v.178M62.116 67.406l-.25.053c-.08-.128-.186-.235-.314-.318-.07-.046-.146-.08-.225-.107l.4-.085c.17.117.3.27.39.456M60.28 67.798l-.2.043c.145-.214.343-.37.548-.453l.004.16c-.132.055-.25.14-.35.25M60.646 69.096c-.102-.002-.197-.03-.287-.082l.284-.06.002.142M60.044 68.73l-.168.035-.007-.03c-.035-.166-.025-.345.03-.522l.157-.033c-.057.157-.067.323-.035.476.005.023.013.05.022.074M60.647 69.333c-.164.01-.32-.028-.453-.115-.06-.038-.11-.082-.154-.135l.216-.046.04.028c.11.068.227.105.35.107v.16M60.648 69.503l-.3.065c-.105-.02-.204-.062-.29-.12-.248-.16-.406-.416-.44-.723-.03-.253.023-.526.153-.788l.003.3.043-.008c-.048.176-.056.353-.02.52 0 .01.003.02.007.03l-.027.006.006.352.174-.038c.055.07.122.132.197.18.146.097.314.138.494.13v.093M60.252 68.683l-.135.03c-.007-.023-.015-.05-.02-.075-.03-.153-.016-.32.047-.478l.135-.03c-.03.06-.052.12-.064.18-.02.09-.02.178 0 .262.006.04.02.078.036.11M61.208 69.383l-.248.054v-.1c.24-.096.456-.276.607-.508.054-.083.098-.17.132-.256l.002.313c-.006.01-.012.02-.018.027-.122.193-.288.353-.476.47M61.706 69.277l-.31.066c.114-.092.22-.2.308-.322l.002.257M61.907 68.417l-.164.036c.04-.14.06-.28.05-.415-.005-.048-.01-.095-.02-.14l.165-.035c.006.03.008.06.012.09.014.15-.002.308-.043.464M62.46 67.332l-.27.057c-.084-.182-.207-.34-.363-.462l.346-.074c.046.052.09.107.128.168.066.095.12.198.16.31M62.474 67.168c-.033-.067-.068-.13-.108-.19-.034-.05-.07-.098-.108-.143l.213-.046.004.378M62.466 68.297l-.17.036c.03-.166.037-.33.02-.49 0-.02-.004-.04-.01-.06l.15-.03.01.544M62.216 68.352l-.227.05c.036-.155.048-.308.034-.456-.002-.033-.008-.066-.013-.1l.225-.047.006.052c.02.162.01.33-.024.5M60.622 68.604l-.078.018c-.04-.035-.067-.083-.077-.14-.022-.1.003-.207.067-.31.025-.036.05-.067.082-.094l.006.526"/>
</svg>
