<?xml version="1.0" encoding="utf-8"?>
<!-- Generator: Adobe Illustrator 15.0.2, SVG Export Plug-In  -->
<!DOCTYPE svg PUBLIC "-//W3C//DTD SVG 1.1//EN" "http://www.w3.org/Graphics/SVG/1.1/DTD/svg11.dtd" [
	<!ENTITY ns_flows "http://ns.adobe.com/Flows/1.0/">
]>
<svg version="1.1"
	 xmlns="http://www.w3.org/2000/svg" xmlns:xlink="http://www.w3.org/1999/xlink" xmlns:a="http://ns.adobe.com/AdobeSVGViewerExtensions/3.0/"
	 x="0px" y="0px" width="524px" height="650px" viewBox="-0.805 -0.111 524 650"
	 overflow="visible" enable-background="new -0.805 -0.111 524 650" xml:space="preserve">
<defs>
</defs>
<path fill="#6EEBDC" stroke="#00BAC6" stroke-miterlimit="10" d="M124.264,648.911c-12.764-1.927-21.27-11.739-25.278-29.164
	c-1.417-6.15-2.58-12.136-3.708-17.924c-3.051-15.68-5.934-30.489-13.228-45.646c-11.272-23.426-26.022-45.605-47.825-71.918
	C7.732,452.287-3.238,420.452,1.619,389.637c2.973-18.865,15.219-44.554,35.078-56.375l5.365,9.015
	c-16.199,9.642-27.395,31.945-30.082,48.994c-4.367,27.71,5.834,56.744,30.322,86.297c22.368,26.995,37.543,49.837,49.199,74.062
	c7.881,16.373,10.888,31.828,14.072,48.189c1.11,5.703,2.258,11.6,3.633,17.576c2.99,12.99,8.428,19.907,16.623,21.145
	L124.264,648.911z"/>
<path fill="#2D8299" d="M63.357,304.631c0,0-31.527,25.732-32.403,26.484c-0.878,0.751,0.03,6.133,2.284,9.138
	c2.253,3.005,5.813,7.472,7.691,7.472l37.924-20.615"/>
<g>
	<path fill="#6EEBDC" d="M320.797,454.682c0,0-32.344-152.104-38.462-184.447c-4.371-13.113-44.371-66.915-40-108
		c4.371-41.085,2.23-57.527,7.351-62.771c5.12-5.245,23.479-18.357,30.471-10.49c0,0,6.993-5.244,14.861-8.741
		c7.746-3.443,23.622-11.462,29.74-1.464c-1.574-5.187-1.213-13.196,2.286-17.647c2.421-3.08,6.536-6.58,9.889-8.765
		c6.263-4.08,15.429-6.683,22.937-5.84c5.562,0.625,8.086,6.347,11.448,10.551c-3.495-4.371,0-33.57,2.374-43.271
		c1.871-7.651,13.87-11.088,21.008-12.184c6.811-1.045,17.988-1.631,21.936,5.193c5.943,10.275,7.692,22.573,13.277,33.069
		c3.148,5.916,4.999,12.159,7.595,18.312c6.686,15.849,13.459,31.662,20.178,47.497c4.729,11.146,9.923,22.256,13.913,33.698
		c4.371,12.532,2.621,19.525,0,29.141c-2.622,9.616-7.868,28.847-11.364,33.219c-6.161,7.699-17.429,13.227-25.368,18.856
		c-11.924,8.455-23.614,17.302-34.971,26.502c-2.277,1.844-4.612,3.396-4.469,6.218c0.188,3.681,2.716,8.057,3.667,11.75
		c0.576,2.239,1.47,4.442,2.237,6.621c2.084,5.911,4.328,11.768,6.617,17.603c6.338,16.154,13.1,32.144,20.049,48.043
		c11.99,27.439,23.896,54.959,37.785,81.508c14.856,28.404,33.896,54.273,48.888,82.578c1.841,3.477,8.414,13.586,6.74,17.834
		c-0.628,1.596-5.212,3.488-6.841,4.449c-6.955,4.105-14.123,7.746-21.356,11.341c-12.41,6.169-24.478,12.534-38.277,14.896
		c-9.565,1.638-19.135,0.897-28.68,2.118c-12.304,1.572-23.577,8.336-34.61,13.551c-14.438,6.825-21.453,13.961-35.891,20.785
		c-2.03,0.959-4.062,1.92-6.092,2.879L320.797,454.682z"/>
	<g>
		<path fill="#00BAC6" d="M320.797,454.682c0.104-0.022,2.872,12.396,7.908,35.42l21.365,98.346l5.271-2.504
			c1.986-0.939,3.961-1.947,5.925-3.025c3.931-2.151,7.785-4.613,11.694-7.174c3.91-2.56,7.921-5.172,12.187-7.529
			c2.129-1.181,4.323-2.304,6.559-3.358c2.217-1.057,4.434-2.17,6.675-3.291c4.48-2.24,9.06-4.525,13.912-6.438
			c4.837-1.91,10.008-3.421,15.39-3.947c5.349-0.586,10.781-0.625,16.236-0.889c2.729-0.131,5.465-0.326,8.194-0.677
			c2.727-0.351,5.447-0.886,8.152-1.57c10.861-2.723,21.2-7.996,31.778-13.296c5.302-2.642,10.648-5.329,15.948-8.237
			c1.326-0.726,2.646-1.469,3.964-2.224l1.971-1.147c0.685-0.412,1.397-0.759,2.072-1.104c1.351-0.69,2.731-1.377,3.849-2.229
			c0.268-0.211,0.524-0.44,0.676-0.647c0.042-0.052,0.066-0.098,0.095-0.142c0.014-0.035,0.034-0.066,0.06-0.149
			c0.051-0.136,0.086-0.284,0.115-0.437c0.112-0.616,0.073-1.32-0.046-2.025c-0.53-2.855-1.928-5.675-3.351-8.404
			c-0.728-1.369-1.499-2.725-2.283-4.09c-0.392-0.685-0.787-1.365-1.173-2.084l-1.118-2.085c-2.999-5.559-6.186-11.092-9.495-16.627
			c-6.619-11.073-13.742-22.147-20.804-33.558c-7.067-11.398-14.03-23.198-20.291-35.604c-6.33-12.362-12.359-25.119-18.268-38.149
			c-5.909-13.032-11.699-26.336-17.587-39.805c-5.889-13.475-11.697-27.201-17.293-41.208c-2.792-7.005-5.558-14.071-8.136-21.267
			l-1.939-5.398c-0.315-0.919-0.612-1.855-0.864-2.815c-0.225-0.871-0.531-1.748-0.861-2.628c-0.661-1.764-1.433-3.538-2.043-5.433
			c-0.301-0.949-0.564-1.931-0.707-2.968c-0.159-0.979-0.152-2.295,0.352-3.358c0.476-1.082,1.234-1.908,1.985-2.603
			c0.759-0.698,1.542-1.291,2.28-1.888l4.527-3.637c3.038-2.412,6.098-4.811,9.188-7.187c6.182-4.75,12.476-9.418,18.876-14.001
			c6.336-4.762,13.397-8.488,19.698-13.128c1.576-1.16,3.104-2.378,4.534-3.692c0.717-0.655,1.41-1.332,2.064-2.041
			c0.333-0.349,0.646-0.715,0.959-1.08l0.459-0.555c0.128-0.166,0.258-0.34,0.38-0.531c0.983-1.545,1.75-3.394,2.477-5.21
			c0.72-1.833,1.378-3.706,2.009-5.592c2.504-7.555,4.62-15.304,6.732-23.077c1.043-3.876,1.979-7.755,2.165-11.687
			c0.2-3.928-0.364-7.873-1.439-11.709c-0.67-2.438-1.559-4.845-2.45-7.26c-0.896-2.407-1.834-4.797-2.801-7.175
			c-1.938-4.753-3.986-9.456-6.031-14.154c-4.108-9.402-8.026-18.81-12.02-28.132l-11.816-27.85
			c-1.977-4.664-3.535-9.423-5.492-13.938c-0.492-1.127-1.006-2.241-1.551-3.335c-0.547-1.069-1.156-2.206-1.693-3.344
			c-1.085-2.282-2.015-4.617-2.869-6.961c-1.705-4.691-3.107-9.426-4.794-14.002c-0.846-2.286-1.756-4.535-2.81-6.701
			c-0.525-1.082-1.087-2.148-1.682-3.182c-0.552-0.946-1.288-1.773-2.166-2.447c-1.76-1.356-4.005-2.099-6.295-2.491
			c-2.304-0.388-4.686-0.445-7.055-0.326c-4.745,0.265-9.48,1.122-13.941,2.634c-2.223,0.763-4.384,1.699-6.326,2.922
			c-1.932,1.217-3.668,2.756-4.673,4.664c-0.248,0.475-0.449,0.97-0.6,1.478c-0.138,0.498-0.274,1.116-0.397,1.677
			c-0.249,1.149-0.473,2.31-0.681,3.473c-0.415,2.327-0.774,4.666-1.097,7.004c-0.639,4.679-1.142,9.362-1.46,14.029
			c-0.157,2.333-0.264,4.664-0.284,6.98c-0.011,1.158,0.007,2.313,0.058,3.458c0.03,0.582,0.06,1.119,0.117,1.73
			c0.063,0.583,0.115,1.127,0.228,1.746l0.086,0.462l0.042,0.231c0.01,0.042,0.01,0.07,0.026,0.122l0.072,0.188l0.582,1.507
			c-0.461,0.399-0.63,0.566-0.726,0.676c-0.044,0.056-0.071,0.098-0.045,0.099c0.013,0.001,0.029-0.001,0.063-0.017
			c0.037-0.017-0.057,0.029-0.078,0.041c-0.166,0.088-0.346,0.185-0.724,0.44c-0.762-0.952-1.621-2.189-2.45-3.374l-0.94-1.319
			l-0.653-0.869c-0.883-1.137-1.831-2.192-2.917-3c-1.079-0.817-2.306-1.346-3.61-1.517c-1.382-0.172-2.831-0.208-4.253-0.149
			c-5.712,0.286-11.377,1.963-16.347,4.677c-2.467,1.364-4.757,3.103-6.912,4.953c-1.075,0.929-2.104,1.907-3.071,2.925
			c-0.479,0.512-0.949,1.032-1.381,1.572c-0.438,0.53-0.795,1.06-1.123,1.65c-1.293,2.351-1.867,5.125-2.022,7.865
			c-0.072,1.376-0.029,2.759,0.127,4.121c0.083,0.67,0.191,1.348,0.354,2.085c0.102,0.395,0.179,0.749,0.299,1.177l0.371,1.307
			l0.753,2.64l0.588,2.109l-3.354-5.163l-0.661-0.965c-0.196-0.238-0.38-0.434-0.571-0.652c-0.188-0.234-0.378-0.365-0.566-0.543
			l-0.283-0.252l-0.148-0.112c-0.743-0.572-1.593-0.995-2.489-1.304c-1.807-0.602-3.802-0.687-5.77-0.5
			c-3.962,0.398-7.834,1.749-11.573,3.27c-1.875,0.769-3.721,1.605-5.579,2.443c-1.873,0.818-3.653,1.671-5.423,2.627
			c-1.764,0.948-3.489,1.961-5.18,3.023c-0.845,0.531-1.681,1.075-2.506,1.63l-1.229,0.842l-0.607,0.429l-1.129,0.83
			c-0.096,0.078-0.193,0.178-0.271,0.031l-0.246-0.253l-0.496-0.501l-0.242-0.238c-0.041-0.036-0.078-0.077-0.122-0.109
			l-0.256-0.205c-0.349-0.261-0.724-0.485-1.121-0.671c-0.798-0.363-1.679-0.571-2.59-0.636c-1.827-0.134-3.727,0.217-5.554,0.769
			c-3.669,1.129-7.125,2.994-10.376,5.07c-1.625,1.046-3.202,2.165-4.717,3.346c-1.49,1.173-3.025,2.448-4.223,3.749
			c-1.089,1.302-1.665,3.107-2.075,4.916c-0.404,1.825-0.648,3.71-0.848,5.596c-0.728,7.57-1,15.158-1.516,22.614
			c-0.481,7.464-1.065,14.829-1.77,22.083l-0.548,5.42c-0.202,1.811-0.366,3.551-0.429,5.332c-0.136,3.542,0.035,7.074,0.419,10.559
			c0.777,6.974,2.401,13.747,4.433,20.27c4.103,13.056,9.774,25.142,15.715,36.531c2.981,5.696,6.061,11.217,9.127,16.62
			c3.046,5.418,6.165,10.656,8.858,16.058c0.33,0.68,0.651,1.364,0.948,2.065c0.149,0.349,0.292,0.704,0.426,1.064l0.206,0.589
			l0.11,0.588l0.834,4.338l1.687,8.54l3.339,16.534l6.33,30.845C311.462,409.132,321.014,454.636,320.797,454.682
			c-0.182,0.038-10.104-45.386-26.602-123.535l-6.444-30.826l-3.394-16.528l-1.715-8.541l-0.848-4.343l-0.097-0.504l-0.164-0.46
			c-0.126-0.335-0.262-0.67-0.405-1.005c-0.286-0.669-0.602-1.335-0.927-2c-2.662-5.303-5.805-10.552-8.865-15.959
			c-3.084-5.399-6.187-10.928-9.194-16.638c-5.992-11.418-11.727-23.556-15.903-36.739c-2.068-6.588-3.73-13.447-4.538-20.551
			c-0.399-3.55-0.582-7.159-0.449-10.792c0.059-1.808,0.23-3.657,0.426-5.438l0.536-5.408c0.689-7.237,1.258-14.583,1.725-22.034
			c0.503-7.453,0.758-15,1.483-22.683c0.201-1.921,0.446-3.853,0.871-5.792c0.443-1.917,1.024-3.938,2.428-5.647
			c1.426-1.554,2.909-2.756,4.471-4c1.557-1.217,3.17-2.366,4.84-3.444c3.342-2.139,6.887-4.072,10.806-5.289
			c1.957-0.59,4.033-0.998,6.193-0.847c1.074,0.075,2.169,0.322,3.191,0.787c0.509,0.236,0.996,0.526,1.448,0.864l0.331,0.264
			l0.188,0.167c0.03,0.019,0.042,0.062,0.067,0.049l0.709-0.504l1.253-0.862c0.841-0.567,1.69-1.122,2.551-1.664
			c1.719-1.084,3.477-2.119,5.279-3.091c1.792-0.973,3.675-1.876,5.531-2.689c1.851-0.838,3.722-1.688,5.632-2.474
			c3.818-1.554,7.799-2.971,12.084-3.412c2.131-0.202,4.37-0.131,6.519,0.579c1.065,0.363,2.102,0.877,3.011,1.574l0.178,0.134
			l0.027,0.023l0.049,0.047c0.031,0.033,0.06,0.068,0.085,0.104c0.057,0.103-0.004-0.049-0.005-0.084
			c-0.014-0.063-0.022-0.113-0.032-0.187c-0.17-1.47-0.217-2.95-0.141-4.43c0.169-2.947,0.76-5.946,2.241-8.663
			c0.367-0.669,0.82-1.336,1.3-1.917c0.469-0.586,0.966-1.138,1.472-1.68c1.02-1.075,2.088-2.092,3.202-3.057
			c2.232-1.919,4.591-3.72,7.224-5.182c5.245-2.865,11.106-4.611,17.17-4.927c1.521-0.063,3.033-0.032,4.585,0.16
			c1.631,0.208,3.207,0.897,4.487,1.871c1.297,0.965,2.344,2.148,3.283,3.352l0.688,0.912l0.36,0.497l0.066,0.093l0.062,0.083
			c0.029,0.04-0.025-0.042-0.023-0.062l-0.02-0.085l-0.011-0.082c-0.053-0.551-0.09-1.181-0.12-1.766
			c-0.054-1.19-0.072-2.377-0.062-3.562c0.019-2.369,0.126-4.732,0.282-7.094c0.318-4.723,0.822-9.441,1.464-14.163
			c0.323-2.36,0.684-4.721,1.104-7.082c0.21-1.181,0.436-2.361,0.691-3.544c0.134-0.604,0.25-1.153,0.429-1.807
			c0.188-0.637,0.439-1.253,0.744-1.837c1.243-2.348,3.248-4.072,5.35-5.404c2.122-1.336,4.406-2.32,6.733-3.122
			c4.665-1.583,9.532-2.464,14.471-2.745c2.472-0.125,4.98-0.072,7.482,0.347c2.483,0.428,5.027,1.231,7.164,2.868
			c1.062,0.812,1.983,1.842,2.664,3.011c0.628,1.087,1.208,2.189,1.754,3.312c1.093,2.243,2.026,4.552,2.889,6.878
			c1.718,4.656,3.122,9.394,4.804,14.008c0.841,2.306,1.75,4.583,2.799,6.787c0.523,1.107,1.09,2.161,1.677,3.306
			c0.564,1.132,1.094,2.279,1.599,3.436c2.006,4.63,3.564,9.387,5.504,13.954l11.821,27.841c3.995,9.319,7.919,18.736,12.018,28.115
			c2.046,4.697,4.101,9.414,6.051,14.198c0.973,2.393,1.919,4.802,2.824,7.232c0.895,2.425,1.8,4.873,2.503,7.424
			c1.117,3.981,1.723,8.171,1.509,12.341c-0.2,4.175-1.183,8.207-2.231,12.107c-2.118,7.792-4.237,15.554-6.77,23.191
			c-0.64,1.908-1.307,3.808-2.046,5.69c-0.76,1.882-1.511,3.748-2.666,5.573c-0.146,0.228-0.312,0.456-0.489,0.683l-0.493,0.596
			c-0.334,0.39-0.67,0.781-1.023,1.151c-0.695,0.753-1.427,1.467-2.177,2.152c-1.499,1.375-3.082,2.635-4.699,3.826
			c-6.49,4.768-13.479,8.44-19.725,13.139c-6.384,4.568-12.661,9.22-18.827,13.955c-3.083,2.367-6.135,4.758-9.165,7.162
			l-4.521,3.628c-1.507,1.217-3.084,2.341-3.699,3.745c-0.313,0.706-0.336,1.394-0.206,2.307c0.119,0.87,0.351,1.754,0.631,2.635
			c0.565,1.767,1.323,3.518,2.008,5.341c0.341,0.913,0.669,1.846,0.923,2.829c0.232,0.891,0.514,1.779,0.818,2.667l1.928,5.377
			c2.56,7.158,5.316,14.211,8.098,21.207c5.577,13.985,11.367,27.696,17.239,41.164c5.876,13.473,11.652,26.777,17.54,39.797
			c5.887,13.019,11.89,25.755,18.187,38.091c6.225,12.368,13.13,24.106,20.175,35.504c7.034,11.402,14.146,22.496,20.767,33.611
			c3.311,5.557,6.5,11.116,9.505,16.707l1.12,2.096c0.358,0.674,0.754,1.357,1.143,2.04c0.782,1.367,1.563,2.742,2.302,4.142
			c0.739,1.398,1.443,2.819,2.062,4.288c0.611,1.472,1.164,2.982,1.444,4.624c0.133,0.821,0.199,1.685,0.036,2.594
			c-0.044,0.227-0.1,0.456-0.183,0.683c-0.032,0.102-0.094,0.246-0.164,0.384c-0.071,0.122-0.146,0.242-0.224,0.342
			c-0.312,0.412-0.647,0.689-0.982,0.956c-1.345,1.014-2.746,1.686-4.119,2.391c-0.69,0.351-1.356,0.673-1.983,1.05l-1.989,1.152
			c-1.328,0.759-2.659,1.505-3.995,2.232c-5.338,2.915-10.712,5.603-16.02,8.233c-10.575,5.269-21.031,10.587-32.114,13.34
			c-2.758,0.691-5.541,1.232-8.33,1.584c-2.787,0.352-5.563,0.542-8.312,0.667c-5.498,0.252-10.898,0.278-16.154,0.841
			c-5.246,0.5-10.264,1.95-15.04,3.819c-4.781,1.869-9.335,4.123-13.82,6.35c-2.243,1.114-4.471,2.225-6.706,3.282
			c-2.225,1.042-4.387,2.14-6.498,3.303c-4.226,2.316-8.211,4.894-12.132,7.442c-3.92,2.55-7.818,5.021-11.799,7.181
			c-1.987,1.083-3.99,2.097-5.998,3.037l-6.586,3.099l-21.146-99.87C323.26,467.166,320.692,454.704,320.797,454.682z"/>
	</g>
</g>
<path fill="#99FFE3" d="M279.514,264.14c0,0,7.821,0.905,14.821,0l33.582,98.61l-23.216,5.275l12.494,53.363
	c0,0,15.188,2.389,23.594-0.306c7.986-2.56,59.873,179.095,46.046,128.151l0,0l-37.973,36.654l-66.527-315.654L279.514,264.14"/>
<path fill="#92D3CD" stroke="#2D8299" stroke-miterlimit="10" d="M364.375,92.179c0-33.911,36.389-58.566,70.301-58.566
	c33.911,0,62.754,27.517,61.4,61.401c-1.532,38.41-34.534,63.561-68.43,64.606C375.167,161.237,364.375,126.089,364.375,92.179z"/>
<path fill="none" stroke="#2D8299" stroke-miterlimit="10" d="M495.547,95.358c0.021-0.522,0.037-1.043,0.043-1.568l-0.722-1.211
	c0.095-1.917,0.253-4.47,0.258-6.382l0.114,0.193c-0.315-2.859-0.842-5.645-1.549-8.351c0.166,1.75,0.375,3.834,0.438,5.466
	l-2.126-2.362c-0.157-1.905-0.32-4.457-0.578-6.345l1.985,2.198c-0.16-0.578-0.337-1.149-0.519-1.718l-1.675-1.854
	c-0.34-1.596-0.751-3.664-1.179-5.367c-0.715-1.496-1.481-2.962-2.325-4.383c0.14,0.382,0.275,0.762,0.385,1.111l-2.84-2.165
	c-0.621-1.664-1.4-3.899-2.119-5.537c-0.848-1.056-1.721-2.093-2.643-3.09c0.16,0.294,0.32,0.592,0.456,0.865l-3.35-1.772
	c-0.666-1.194-1.478-2.711-2.253-4.016c-1.246-1.062-2.539-2.084-3.877-3.05l-3.018-1.079c-0.433-0.554-0.932-1.193-1.438-1.839
	c-0.932-0.558-1.879-1.094-2.844-1.608c0.793,0.946,1.627,1.953,2.256,2.82l-4.19-1.115c-0.995-1.229-2.288-2.905-3.37-4.07
	l0.824,0.196c-1.281-0.561-2.59-1.078-3.916-1.562c0.038,0.036,0.083,0.076,0.119,0.111l-4.475-0.716
	c-0.421-0.361-0.894-0.775-1.377-1.196c-0.904-0.241-1.816-0.469-2.736-0.674c0.656,0.538,1.303,1.082,1.832,1.573l-4.753-0.506
	c-0.752-0.613-1.649-1.372-2.52-2.065c-0.854-0.12-1.715-0.214-2.575-0.304c0.938,0.709,1.957,1.486,2.728,2.171l-4.965-0.323
	c-0.845-0.654-1.894-1.496-2.863-2.199c-0.799-0.026-1.599-0.043-2.403-0.042c0.97,0.682,2.059,1.447,2.874,2.122l-5.087-0.175
	c-0.746-0.529-1.647-1.194-2.51-1.782c-0.729,0.048-1.449,0.101-2.168,0.169c0.799,0.516,1.631,1.061,2.275,1.562l-5.116-0.06
	c-0.447-0.287-0.956-0.623-1.475-0.957c-0.624,0.098-1.241,0.212-1.859,0.327c0.347,0.212,0.68,0.423,0.974,0.627l-4.094,0.023
	c-0.818,0.189-1.625,0.392-2.427,0.608c0.851,0.704,1.963,1.577,2.712,2.336l-4.988-0.187c-0.391-0.323-0.836-0.706-1.293-1.082
	c-0.498,0.165-1.004,0.319-1.492,0.494c0.209,0.172,0.413,0.342,0.594,0.506l-1.771-0.064c-0.388,0.146-0.777,0.295-1.163,0.448
	l3.472,0.161c0.664,0.838,1.592,1.927,2.161,2.826l-4.816-0.45c-0.508-0.654-1.128-1.501-1.729-2.185
	c-0.477,0.197-0.94,0.416-1.41,0.622c0.396,0.458,0.788,0.93,1.077,1.36l-3.278-0.351c-0.747,0.362-1.494,0.727-2.224,1.115
	c0.33,0.653,0.672,1.35,0.892,1.945l-3.165-0.668c-0.67,0.391-1.328,0.799-1.98,1.213c0.166,0.669,0.331,1.365,0.424,1.954
	l-2.211-0.793c-0.215,0.146-0.424,0.299-0.639,0.448l2.934,1.098c0.045,1.114,0.142,2.602,0.119,3.715l-3.543-1.563
	c-0.012-0.854-0.008-1.931-0.058-2.866c-0.439,0.314-0.882,0.628-1.314,0.953c0.01,0.433,0.017,0.857,0.005,1.23l-0.917-0.521
	c-0.197,0.154-0.396,0.305-0.591,0.461l1.465,0.857c-0.137,1.176-0.291,2.747-0.479,3.913l-2.963-1.957
	c0.06-0.407,0.131-0.867,0.203-1.337c-0.504,0.435-1.012,0.87-1.504,1.32l0.03,0.026c-0.31,1.225-0.702,2.862-1.052,4.072
	l-1.57-1.568c-0.195,0.202-0.387,0.407-0.579,0.611l1.867,1.901c-0.45,1.353-1.034,3.161-1.521,4.503l-2.397-2.622
	c0.288-0.786,0.642-1.727,0.976-2.637c-0.801,0.893-1.566,1.812-2.312,2.748c-0.579,1.342-1.304,3.039-1.891,4.327l-0.58-0.987
	c-0.195,0.283-0.396,0.562-0.587,0.849l0.69,1.181l-0.379,0.814l-1.953,4.055l-0.974-1.727c-0.19,0.344-0.385,0.685-0.565,1.032
	l1.002,1.79c-0.779,1.532-1.801,3.576-2.584,5.097l-0.875-1.604c-0.172,0.422-0.345,0.845-0.51,1.272l0.799,1.471
	c-0.828,1.573-1.921,3.678-2.751,5.247l-0.114-0.213c-0.411,1.605-0.746,3.24-1.029,4.891c0.094,0.092,0.188,0.186,0.285,0.28
	c0.421-0.804,0.832-1.593,1.191-2.287l2.642,3.609c-0.26,0.522-0.55,1.104-0.845,1.7c0.424,0.44,0.853,0.895,1.3,1.37
	c0.271-0.56,0.536-1.105,0.774-1.599l3.238,3.448c-0.242,0.525-0.514,1.107-0.791,1.708c0.463,0.527,0.932,1.067,1.411,1.625
	c0.306-0.672,0.604-1.327,0.87-1.913l3.787,3.266c-0.369,0.839-0.798,1.81-1.227,2.789c0.498,0.621,1.003,1.257,1.511,1.909
	c0.503-1.161,1.017-2.34,1.445-3.338l4.261,3.07c-0.626,1.493-1.418,3.388-2.107,5.037c0.528,0.724,1.061,1.464,1.592,2.22
	c0.756-1.833,1.73-4.178,2.463-5.965l4.666,2.869c-0.764,1.897-1.774,4.432-2.539,6.33l-4.188-2.664
	c0.704,1.008,1.413,2.033,2.129,3.095l1.5,0.96c-0.107,0.267-0.222,0.548-0.338,0.837c0.557,0.887,1.089,1.781,1.602,2.679
	c0.312-0.786,0.615-1.551,0.885-2.233l5.018,2.785c-0.732,1.886-1.701,4.392-2.434,6.295c0.521,1.163,1.014,2.322,1.473,3.479
	c0.1-0.268,0.198-0.528,0.293-0.775l5.274,2.661c-0.686,1.878-1.604,4.386-2.275,6.27l-0.549-0.281
	c0.585,1.94,1.093,3.83,1.534,5.646c0.348-0.994,0.694-1.983,0.994-2.835l5.396,2.392c-0.634,1.742-1.478,4.066-2.104,5.812
	l-3.418-1.469c0.11,0.524,0.213,1.041,0.31,1.546l2.678,1.144c-0.508,1.468-1.168,3.366-1.69,4.909
	c0.224,1.638,0.382,3.07,0.492,4.241c0.253,0.12,0.499,0.25,0.753,0.366c0.242-0.765,0.483-1.522,0.7-2.174l5.247,1.785
	c-0.246,0.73-0.536,1.585-0.822,2.438c0.802,0.278,1.612,0.532,2.426,0.776c0.289-0.857,0.585-1.721,0.846-2.454l5.124,1.452
	c-0.251,0.684-0.546,1.486-0.838,2.286c0.81,0.166,1.622,0.316,2.44,0.447c0.271-0.742,0.548-1.483,0.789-2.118l4.905,1.147
	c-0.188,0.477-0.402,1.018-0.618,1.569c0.811,0.059,1.63,0.087,2.452,0.112c0.166-0.417,0.329-0.822,0.481-1.188l4.619,0.89
	c-0.031,0.072-0.068,0.158-0.1,0.232c0.701-0.038,1.402-0.069,2.108-0.132c0.907-0.081,1.805-0.191,2.696-0.312l-2.092-0.344
	c0.628-1.371,1.462-3.2,2.094-4.569l4.33,0.849c-0.528,1.088-1.196,2.462-1.771,3.659c0.818-0.145,1.631-0.307,2.438-0.484
	c0.479-0.961,0.978-1.964,1.393-2.795l3.902,0.678c-0.145,0.271-0.3,0.567-0.461,0.871c1.324-0.403,2.621-0.862,3.912-1.348
	l-1.067-0.18c0.759-1.415,1.776-3.294,2.53-4.71l3.336,0.707l0.154,0.029c-0.467,0.824-1.021,1.808-1.564,2.762
	c0.847-0.375,1.684-0.768,2.512-1.178c0.248-0.43,0.492-0.848,0.713-1.229l1.183,0.262c0.503-0.269,0.998-0.551,1.493-0.833
	l-2.073-0.482c0.851-1.514,1.998-3.528,2.839-5.047l3.031,0.838c-0.661,1.119-1.482,2.521-2.226,3.773
	c0.899-0.544,1.788-1.11,2.665-1.697c0.351-0.579,0.692-1.146,0.994-1.651l0.955,0.312c0.412-0.296,0.811-0.61,1.219-0.916
	l-1.519-0.515c0.929-1.613,2.175-3.755,3.089-5.376l2.525,0.975c-0.574,0.957-1.258,2.104-1.92,3.21
	c1.042-0.851,2.064-1.729,3.059-2.638c0.011-0.018,0.023-0.038,0.035-0.056l0.018,0.009c0.359-0.329,0.717-0.66,1.071-0.997
	l-0.382-0.208c0.957-1.684,2.247-3.918,3.18-5.618l1.717,1.119c1.588-1.805,3.086-3.689,4.488-5.647
	c0.08-0.156,0.171-0.328,0.25-0.477l0.051,0.063c0.262-0.368,0.521-0.738,0.774-1.111l-0.186-0.237
	c0.843-1.798,1.994-4.187,2.794-6.001l0.68,0.942c0.225-0.4,0.441-0.807,0.659-1.212l-0.761-1.072l2.063-5.152l0.397-1.073
	l1.055,1.584c0.184-0.43,0.377-0.857,0.552-1.292l-1.108-1.687c0.619-1.911,1.479-4.449,2.037-6.375l1.222,1.937
	c0.136-0.461,0.26-0.927,0.39-1.393l-1.213-1.946c0.464-1.934,1.121-4.507,1.521-6.45l1.143,1.883
	c0.084-0.485,0.167-0.97,0.24-1.458l-1.109-1.84c0.288-1.934,0.71-4.511,0.925-6.451L495.547,95.358z M402.434,59.958l4.576,1.66
	c-0.273,1.595-0.609,3.725-0.93,5.311l-4.579-1.864C401.787,63.535,402.201,61.497,402.434,59.958z M401.133,52.627l-4.092-1.458
	c-0.024-1.146-0.023-2.68-0.13-3.82l4.087,1.221C401.049,49.786,401.154,51.409,401.133,52.627z M483.051,75.974l3.36,2.056
	c0.003,1.994,0.04,4.655-0.046,6.654l-3.316-2.026C483.061,80.651,483.121,77.973,483.051,75.974z M486.272,86.168
	c-0.213,2.035-0.464,4.752-0.763,6.783l-3.26-1.935c0.225-2.058,0.566-4.802,0.709-6.862L486.272,86.168z M485.268,94.442
	c-0.407,2.052-0.916,4.799-1.396,6.841l-3.208-1.817c0.416-2.08,1.016-4.851,1.36-6.938L485.268,94.442z M395.328,78.963l-0.344,1
	l-1.785,4.932l-4.196-2.676l1.802-4.789l0.352-0.97L395.328,78.963z M391.594,75.213c0.549-1.653,1.303-3.855,1.823-5.515
	l4.155,2.277c-0.538,1.712-1.24,4-1.809,5.701L391.594,75.213z M396.902,81.032l0.346-1.016l4.604,2.348l-0.343,1.04l-1.767,5.121
	l-4.618-2.503L396.902,81.032z M416.771,52.128l5.235,0.945c0.066,1.504,0.197,3.51,0.186,5.018l-5.248-1.149
	C416.904,55.499,416.888,53.567,416.771,52.128z M416.664,51.122c-0.234-1.276-0.496-2.99-0.829-4.243l5.15,0.725
	c0.285,1.327,0.712,3.083,0.896,4.425L416.664,51.122z M416.908,58.047l5.246,1.194c-0.114,1.645-0.229,3.837-0.4,5.478
	l-5.245-1.394C416.639,61.743,416.842,59.635,416.908,58.047z M422.861,73.881l5.436,1.548c-0.418,1.923-0.951,4.489-1.409,6.404
	l-5.427-1.707C421.888,78.252,422.48,75.76,422.861,73.881z M470.881,70.683l4.344,1.613c0.006,1.973,0.059,4.6-0.014,6.575
	l-4.36-1.678C470.871,75.24,470.943,72.634,470.881,70.683z M479.945,91.438l0.255,0.125c-0.394,2.098-0.878,4.897-1.343,6.986
	l-0.244-0.117l-3.568-1.641c0.402-2.122,0.979-4.944,1.307-7.072L479.945,91.438z M476.564,88.18
	c0.21-2.073,0.522-4.842,0.656-6.922l3.615,1.745l0.275,0.143c-0.191,2.068-0.414,4.829-0.691,6.896l-0.253-0.13L476.564,88.18z
	 M478.498,100.083c-0.562,2.1-1.29,4.908-1.918,6.998l-0.229-0.108l-3.558-1.522c0.582-2.128,1.385-4.96,1.897-7.101l3.567,1.617
	L478.498,100.083z M475.128,80.354c-0.186,2.072-0.403,4.836-0.664,6.902l-4.374-1.734c0.217-2.054,0.543-4.794,0.683-6.85
	L475.128,80.354z M474.256,88.798c-0.38,2.137-0.842,4.987-1.289,7.115l-4.382-1.73c0.394-2.135,0.957-4.983,1.29-7.126
	L474.256,88.798z M440.669,63.019l5.425,1.135c-0.06,1.829-0.101,4.271-0.241,6.101l-5.483-1.239
	C440.471,67.215,440.648,64.817,440.669,63.019z M440.252,56.255l5.367,0.992c0.153,1.685,0.395,3.929,0.457,5.622l-5.42-1.113
	C440.55,60.104,440.452,57.896,440.252,56.255z M447.167,80.306l5.426,1.405c-0.426,2.092-0.968,4.894-1.452,6.978l-5.438-1.489
	C446.154,85.131,446.772,82.381,447.167,80.306z M451.438,98.186c0.577-2.163,1.372-5.041,1.919-7.212l5.226,1.535
	c-0.571,2.186-1.31,5.112-1.924,7.291L451.438,98.186z M456.195,101.42l-0.373,1.253l-1.891,6.073l-5.173-1.698l1.856-6.024
	l0.365-1.238L456.195,101.42z M452.842,80.217l-5.396-1.388c0.28-1.969,0.684-4.592,0.887-6.568l5.335,1.314
	C453.435,75.568,453.154,78.229,452.842,80.217z M450.764,90.245c-0.566,2.149-1.297,5.021-1.9,7.16l-5.41-1.629
	c0.566-2.117,1.342-4.929,1.873-7.051L450.764,90.245z M448.4,98.992l-0.365,1.231l-1.841,5.989l-5.366-1.742l1.82-5.913
	l0.357-1.214L448.4,98.992z M421.341,108.904l5.468,2.049c-0.74,2.077-1.715,4.852-2.466,6.929l-5.466-2.125
	C419.616,113.7,420.611,110.966,421.341,108.904z M419.352,106.431l-5.395-2.166c0.699-2.015,1.645-4.696,2.328-6.716l5.398,2.061
	C420.985,101.655,420.066,104.389,419.352,106.431z M429.374,111.884l5.45,1.935c-0.744,2.108-1.725,4.919-2.482,7.021l-5.437-1.995
	C427.643,116.758,428.646,113.976,429.374,111.884z M429.904,110.351c0.709-2.099,1.676-4.898,2.367-7.002l5.463,1.826
	c-0.709,2.129-1.65,4.971-2.376,7.094L429.904,110.351z M440.332,106.034l5.355,1.762c-0.722,2.157-1.664,5.042-2.411,7.192
	l-5.329-1.824C438.662,111.026,439.636,108.179,440.332,106.034z M440.852,94.987l-5.504-1.685c0.556-2.061,1.318-4.803,1.837-6.872
	l5.524,1.563C442.157,90.094,441.44,92.895,440.852,94.987z M440.396,96.54l-0.354,1.205l-1.814,5.876l-5.463-1.81l1.795-5.792
	l0.349-1.188L440.396,96.54z M432.762,92.492l-5.5-1.771c0.546-2.001,1.295-4.669,1.805-6.682l5.521,1.642
	C434.044,87.726,433.339,90.456,432.762,92.492z M432.313,94.007l-0.351,1.182l-1.786,5.748l-5.468-1.907l1.77-5.658l0.346-1.156
	L432.313,94.007z M429.688,102.461c-0.704,2.091-1.629,4.882-2.35,6.967l-5.471-2.032c0.701-2.059,1.651-4.802,2.336-6.868
	L429.688,102.461z M423.939,92.504l-1.768,5.611l-5.397-2.03l1.77-5.511l0.347-1.122l5.394,1.906L423.939,92.504z M416.107,89.663
	l-1.762,5.46l-5.226-2.178l1.759-5.35l0.344-1.09l5.231,2.04L416.107,89.663z M413.863,96.574c-0.697,2.002-1.617,4.674-2.334,6.668
	l-5.225-2.327c0.7-1.963,1.643-4.577,2.328-6.545L413.863,96.574z M413.434,105.739l5.392,2.189
	c-0.738,2.043-1.712,4.771-2.464,6.813l-5.396-2.278C411.709,110.443,412.702,107.76,413.434,105.739z M418.332,117.26l5.465,2.139
	c-0.75,2.041-1.738,4.763-2.484,6.805l-5.46-2.2C416.59,121.98,417.591,119.285,418.332,117.26z M426.357,120.37l5.432,1.998
	c-0.768,2.03-1.771,4.738-2.549,6.76l-5.379-1.946C424.609,125.136,425.618,122.416,426.357,120.37z M434.332,123.265l5.24,1.765
	c-0.795,1.995-1.842,4.662-2.65,6.651l-5.17-1.691C432.527,127.974,433.573,125.289,434.332,123.265z M434.908,121.747
	c0.752-2.108,1.77-4.914,2.506-7.026l5.316,1.823c-0.775,2.096-1.786,4.894-2.581,6.976L434.908,121.747z M445.254,117.386
	l5.036,1.633c-0.81,2.065-1.866,4.822-2.696,6.881l-4.958-1.571C443.422,122.248,444.489,119.476,445.254,117.386z M445.809,115.835
	c0.734-2.16,1.738-5.029,2.44-7.193l5.145,1.69c-0.759,2.147-1.743,5.012-2.536,7.147L445.809,115.835z M455.844,111.129l4.784,1.55
	c-0.795,2.12-1.835,4.956-2.658,7.067l-4.699-1.498C454.047,116.114,455.103,113.274,455.844,111.129z M456.38,109.544l1.933-6.063
	l0.374-1.261l4.893,1.611l-0.38,1.248l-2.007,6.029L456.38,109.544z M459.166,100.593c0.578-2.19,1.373-5.108,1.891-7.311
	l4.867,1.639c-0.553,2.19-1.26,5.122-1.873,7.296L459.166,100.593z M465.5,105.858l0.383-1.237l4.369,1.588l-0.383,1.221
	l-2.021,5.896l-4.367-1.472L465.5,105.858z M466.365,103.023c0.572-2.175,1.369-5.068,1.876-7.253l4.374,1.708
	c-0.559,2.148-1.268,5.021-1.889,7.154L466.365,103.023z M468.582,76.403l-4.766-1.512c0.036-1.923,0.121-4.484,0.074-6.404
	l4.729,1.442C468.622,71.87,468.662,74.458,468.582,76.403z M463.842,67.134c-0.168-1.799-0.351-4.199-0.611-5.982l4.684,1.33
	c0.209,1.82,0.523,4.241,0.639,6.072L463.842,67.134z M463.729,76.35l4.759,1.522c-0.197,2.047-0.424,4.779-0.693,6.823
	l-4.797-1.579C463.23,81.086,463.576,78.381,463.729,76.35z M467.574,86.225c-0.384,2.136-0.861,4.987-1.307,7.113l-4.842-1.629
	c0.412-2.122,0.999-4.945,1.348-7.073L467.574,86.225z M461.402,74.184l-5.096-1.386c0.055-1.884,0.167-4.4,0.139-6.284l5.046,1.304
	C461.479,69.729,461.498,72.272,461.402,74.184z M456.396,65.185c-0.152-1.752-0.311-4.097-0.558-5.838l5.001,1.188
	c0.192,1.78,0.49,4.146,0.598,5.932L456.396,65.185z M461.299,75.63c-0.215,2.02-0.469,4.722-0.755,6.738l-5.136-1.462
	c0.251-2.002,0.623-4.668,0.799-6.676L461.299,75.63z M460.313,83.882c-0.404,2.117-0.907,4.945-1.369,7.053l-5.204-1.522
	c0.438-2.103,1.051-4.898,1.428-7.009L460.313,83.882z M453.788,72.154l-5.338-1.297c0.077-1.843,0.217-4.305,0.213-6.148
	l5.281,1.204C453.911,67.785,453.906,70.281,453.788,72.154z M448.627,63.412c-0.133-1.702-0.262-3.983-0.484-5.679l5.228,1.074
	c0.175,1.734,0.447,4.042,0.534,5.786L448.627,63.412z M447.971,56.541c-0.34-1.552-0.744-3.631-1.179-5.155l5.155,0.917
	c0.383,1.582,0.936,3.68,1.227,5.279L447.971,56.541z M446.451,50.305c-0.543-1.387-1.226-3.257-1.864-4.607l5.097,0.749
	c0.588,1.42,1.419,3.294,1.912,4.747L446.451,50.305z M445.438,56.062l-5.356-0.962c-0.313-1.492-0.686-3.49-1.098-4.954
	l5.299,0.824C444.646,52.493,445.169,54.516,445.438,56.062z M440.229,70.391l5.497,1.257c-0.261,1.96-0.579,4.578-0.915,6.528
	l-5.547-1.361C439.562,74.888,439.996,72.322,440.229,70.391z M444.543,79.648c-0.436,2.051-0.991,4.787-1.467,6.829l-5.535-1.534
	c0.444-2.008,1.053-4.677,1.443-6.691L444.543,79.648z M437.756,68.438l-5.545-1.228c0.129-1.745,0.347-4.074,0.39-5.821
	l5.486,1.104C437.996,64.275,437.923,66.656,437.756,68.438z M438.092,61.245l-5.479-1.078c-0.081-1.594-0.142-3.723-0.314-5.309
	l5.422,0.947C437.846,57.435,438.057,59.607,438.092,61.245z M432.152,53.746c-0.289-1.422-0.628-3.335-1.018-4.735l5.348,0.764
	c0.34,1.462,0.826,3.406,1.074,4.888L432.152,53.746z M432.045,68.537l5.562,1.263c-0.283,1.908-0.629,4.456-0.968,6.36
	l-5.547-1.425C431.389,72.876,431.81,70.401,432.045,68.537z M436.377,77.583c-0.422,1.988-0.963,4.644-1.43,6.624l-5.524-1.611
	c0.428-1.941,1.031-4.526,1.415-6.475L436.377,77.583z M430.082,59.671l-5.447-1.08c-0.047-1.529-0.064-3.571-0.209-5.093
	l5.374,0.929C429.9,55.999,430.072,58.095,430.082,59.671z M424.301,52.438c-0.264-1.354-0.567-3.169-0.929-4.5l5.295,0.73
	c0.316,1.396,0.772,3.25,0.993,4.665L424.301,52.438z M424.613,59.764l5.451,1.117c-0.114,1.722-0.238,4.027-0.422,5.748
	l-5.438-1.297C424.341,63.663,424.545,61.439,424.613,59.764z M429.496,67.941c-0.274,1.835-0.616,4.286-0.943,6.113l-5.437-1.51
	c0.286-1.785,0.694-4.154,0.935-5.943L429.496,67.941z M426.536,83.262c-0.54,1.987-1.237,4.641-1.806,6.618l-5.41-1.879
	c0.54-1.941,1.285-4.528,1.793-6.479L426.536,83.262z M419.027,79.324l-5.231-1.826c0.423-1.799,1.01-4.195,1.391-6l5.239,1.653
	C420.012,75.004,419.482,77.481,419.027,79.324z M418.684,80.705c-0.535,1.925-1.227,4.495-1.792,6.411l-5.228-2.01
	c0.539-1.875,1.277-4.374,1.785-6.258L418.684,80.705z M411.503,76.654l-4.953-1.957c0.423-1.722,1.012-4.015,1.391-5.748
	l4.953,1.778C412.483,72.505,411.955,74.884,411.503,76.654z M411.159,77.983c-0.533,1.856-1.223,4.338-1.786,6.189l-4.968-2.161
	c0.539-1.809,1.28-4.211,1.788-6.026L411.159,77.983z M408.933,85.556l-0.343,1.079l-1.762,5.296l-4.965-2.334l1.766-5.179
	l0.346-1.054L408.933,85.556z M401.377,90.977l4.967,2.367c-0.701,1.947-1.619,4.549-2.334,6.489l-4.976-2.496
	C399.736,95.429,400.689,92.889,401.377,90.977z M405.781,102.357l5.226,2.351c-0.74,2.004-1.715,4.678-2.463,6.679l-5.235-2.451
	C404.05,106.96,405.047,104.335,405.781,102.357z M410.42,113.94l5.397,2.298c-0.749,2.014-1.739,4.701-2.485,6.712l-5.398-2.369
	C408.676,118.591,409.677,115.937,410.42,113.94z M415.306,125.48l5.465,2.202c-0.739,1.955-1.718,4.57-2.467,6.524l-5.409-2.152
	C413.615,130.082,414.582,127.451,415.306,125.48z M420.306,136.529l5.276,1.827c-0.727,1.798-1.694,4.198-2.423,5.994l-5.24-1.738
	C418.633,140.787,419.591,138.355,420.306,136.529z M420.835,135.151c0.745-1.95,1.747-4.544,2.481-6.497l5.347,1.927
	c-0.761,1.922-1.769,4.493-2.538,6.411L420.835,135.151z M431.182,131.439l5.148,1.667c-0.79,1.887-1.834,4.405-2.627,6.288
	l-5.086-1.58C429.387,135.9,430.422,133.355,431.182,131.439z M438.766,133.863l4.873,1.458c-0.812,1.843-1.892,4.305-2.711,6.146
	l-4.814-1.363C436.908,138.232,437.98,135.74,438.766,133.863z M439.356,132.44c0.803-1.982,1.891-4.624,2.679-6.615l4.958,1.557
	c-0.825,1.961-1.909,4.582-2.749,6.534L439.356,132.44z M449.35,128.104l4.588,1.39c-0.854,1.921-1.979,4.49-2.849,6.403
	l-4.535-1.304C447.392,132.649,448.525,130.059,449.35,128.104z M449.957,126.63c0.82-2.052,1.934-4.785,2.732-6.846l4.681,1.479
	c-0.842,2.034-1.945,4.75-2.808,6.772L449.957,126.63z M459.61,121.972l4.257,1.369c-0.878,1.999-2.023,4.667-2.915,6.655
	l-4.186-1.287C457.621,126.689,458.775,124.001,459.61,121.972z M460.216,120.462c0.812-2.11,1.92-4.917,2.698-7.038l4.348,1.45
	c-0.829,2.092-1.91,4.888-2.773,6.97L460.216,120.462z M469.333,115.604l3.57,1.361l0.224,0.09
	c-0.838,2.037-1.924,4.766-2.803,6.789l-0.207-0.075l-3.58-1.243C467.379,120.452,468.529,117.693,469.333,115.604z
	 M469.917,114.071l2.019-5.848l0.382-1.206l3.558,1.5l0.225,0.104l-0.381,1.187l-2.021,5.742l-0.222-0.09L469.917,114.071z
	 M477.509,110.633l0.386-1.179l3.184,1.653l-0.391,1.155l-2.027,5.578l-3.172-1.521L477.509,110.633z M478.373,107.927
	c0.588-2.079,1.404-4.846,1.932-6.939l3.201,1.795c-0.578,2.052-1.314,4.788-1.949,6.824L478.373,107.927z M481.186,81.639
	l-0.276-0.141l-3.606-1.729c0.014-1.983,0.073-4.63,0.006-6.605l3.592,1.673l0.284,0.144
	C481.195,76.977,481.252,79.639,481.186,81.639z M480.824,73.415l-3.59-1.659c-0.191-1.87-0.4-4.374-0.686-6.229l3.576,1.591
	l0.294,0.142c0.22,1.889,0.557,4.4,0.689,6.3L480.824,73.415z M479.892,65.774l-3.568-1.577c-0.403-1.739-0.894-4.072-1.386-5.789
	l3.552,1.496l0.302,0.138c0.433,1.758,1.057,4.088,1.393,5.872L479.892,65.774z M475.146,70.896l-4.326-1.593
	c-0.182-1.836-0.382-4.29-0.652-6.113l4.307,1.516C474.69,66.562,475.021,69.03,475.146,70.896z M469.939,61.893
	c-0.391-1.7-0.863-3.98-1.348-5.653l4.281,1.404c0.428,1.719,1.038,4.001,1.371,5.746L469.939,61.893z M468.213,55.042
	c-0.6-1.557-1.357-3.65-2.049-5.169l4.25,1.282c0.64,1.576,1.529,3.661,2.074,5.268L468.213,55.042z M466.355,55.586
	c0.418,1.679,1.015,3.907,1.339,5.605l-4.677-1.309c-0.377-1.655-0.836-3.874-1.309-5.504L466.355,55.586z M461.343,53.218
	c-0.581-1.507-1.317-3.532-1.998-5.001l4.601,1.072c0.627,1.529,1.502,3.55,2.035,5.115L461.343,53.218z M460.629,59.275
	l-4.979-1.162c-0.354-1.603-0.789-3.756-1.246-5.336l4.939,1.048C459.744,55.456,460.326,57.623,460.629,59.275z M454.05,51.655
	c-0.563-1.448-1.274-3.399-1.935-4.812l4.887,0.895c0.607,1.477,1.463,3.429,1.979,4.939L454.05,51.655z M451.615,45.852
	c-0.768-1.28-1.741-3.015-2.603-4.243l4.843,0.725c0.809,1.307,1.93,3.027,2.646,4.384L451.615,45.852z M449.197,45.471l-5.096-0.72
	c-0.74-1.212-1.691-2.86-2.525-4.019l5.044,0.568C447.412,42.541,448.505,44.179,449.197,45.471z M442.106,45.368
	c0.567,1.355,1.372,3.147,1.843,4.536l-5.289-0.792c-0.518-1.32-1.162-3.1-1.779-4.383L442.106,45.368z M436.414,43.833
	c-0.717-1.138-1.632-2.689-2.441-3.775l5.17,0.439c0.762,1.174,1.816,2.716,2.485,3.94L436.414,43.833z M434.401,44.447
	c0.546,1.287,1.313,2.989,1.763,4.31l-5.336-0.727c-0.494-1.25-1.109-2.933-1.704-4.145L434.401,44.447z M428.688,43.049
	c-0.691-1.062-1.577-2.507-2.361-3.512l5.194,0.343c0.743,1.096,1.771,2.541,2.419,3.69L428.688,43.049z M426.692,43.641
	c0.519,1.211,1.257,2.816,1.681,4.062l-5.285-0.693c-0.47-1.17-1.05-2.751-1.621-3.881L426.692,43.641z M421.047,42.353
	c-0.661-0.979-1.512-2.313-2.271-3.229l5.153,0.274c0.713,1.017,1.702,2.351,2.32,3.422L421.047,42.353z M419.118,42.9
	c0.492,1.135,1.195,2.63,1.591,3.797l-5.141-0.687c-0.441-1.087-0.981-2.559-1.526-3.601L419.118,42.9z M416.361,64.539l5.246,1.433
	c-0.27,1.76-0.605,4.109-0.928,5.859l-5.243-1.617C415.726,68.512,416.134,66.248,416.361,64.539z M414.646,56.409l-4.956-1.246
	c-0.039-1.348-0.042-3.152-0.157-4.495l4.945,1.023C414.541,53.105,414.659,54.991,414.646,56.409z M409.43,49.736
	c-0.221-1.186-0.461-2.775-0.767-3.94l4.904,0.754c0.258,1.244,0.64,2.895,0.802,4.156L409.43,49.736z M409.666,56.202l4.949,1.292
	c-0.109,1.555-0.229,3.635-0.4,5.186l-4.949-1.5C409.394,59.687,409.601,57.698,409.666,56.202z M414.072,63.871
	c-0.27,1.68-0.609,3.922-0.926,5.591l-4.951-1.736c0.285-1.62,0.691-3.773,0.925-5.398L414.072,63.871z M407.155,60.492
	l-4.573-1.615c0.133-1.4,0.344-3.266,0.412-4.666l4.562,1.395C407.449,57.072,407.324,59.031,407.155,60.492z M405.826,68.136
	c-0.41,1.7-0.94,3.973-1.395,5.667l-4.602-2.102c0.428-1.64,1.018-3.824,1.404-5.477L405.826,68.136z M404.075,75.073
	c-0.53,1.787-1.219,4.175-1.779,5.958l-4.613-2.316c0.543-1.731,1.288-4.035,1.798-5.774L404.075,75.073z M397.932,70.763
	l-4.158-2.243c0.436-1.558,1.031-3.628,1.426-5.197l4.139,2.046C398.921,66.988,398.387,69.154,397.932,70.763z M392.106,67.536
	l-3.639-2.381c0.444-1.468,1.056-3.424,1.456-4.903l3.617,2.172C393.116,63.959,392.568,66.013,392.106,67.536z M391.741,68.689
	c-0.548,1.632-1.257,3.812-1.835,5.434l-3.66-2.614c0.56-1.573,1.324-3.662,1.858-5.242L391.741,68.689z M389.469,75.353
	l-0.355,0.957l-1.809,4.729l-3.698-2.836l1.832-4.578l0.358-0.928L389.469,75.353z M384.007,72.457l-1.847,4.513l-3.135-2.988
	l1.879-4.356l0.363-0.878l3.095,2.797L384.007,72.457z M381.648,78.184c-0.736,1.687-1.705,3.939-2.454,5.622l-3.188-3.214
	c0.75-1.633,1.758-3.805,2.494-5.443L381.648,78.184z M383.091,79.425l3.714,2.881c-0.722,1.761-1.672,4.109-2.408,5.86
	l-3.747-3.046C381.388,83.411,382.374,81.138,383.091,79.425z M388.504,83.505l4.201,2.708c-0.71,1.827-1.646,4.267-2.37,6.088
	l-4.229-2.863C386.828,87.658,387.8,85.289,388.504,83.505z M394.631,87.356l4.623,2.538c-0.705,1.887-1.632,4.411-2.35,6.295
	l-4.635-2.68C392.98,91.662,393.939,89.209,394.631,87.356z M398.506,98.738l4.975,2.525c-0.738,1.959-1.722,4.573-2.472,6.528
	l-4.988-2.643C396.769,103.223,397.768,100.664,398.506,98.738z M402.748,110.377l5.248,2.479c-0.753,1.982-1.744,4.625-2.496,6.606
	l-5.249-2.561C401,114.945,402.004,112.336,402.748,110.377z M407.386,122.038l5.394,2.377c-0.729,1.969-1.696,4.591-2.414,6.562
	l-5.421-2.437C405.677,126.588,406.65,123.988,407.386,122.038z M412.367,133.457l5.414,2.139c-0.711,1.839-1.65,4.295-2.355,6.131
	l-5.365-2.055C410.75,137.807,411.677,135.321,412.367,133.457z M417.418,143.905l5.225,1.72c-0.672,1.655-1.56,3.864-2.225,5.523
	l-5.184-1.616C415.887,147.845,416.758,145.596,417.418,143.905z M425.087,146.372l5.022,1.438
	c-0.692,1.609-1.608,3.751-2.293,5.363l-4.965-1.324C423.519,150.205,424.412,148.014,425.087,146.372z M425.62,145.114
	c0.732-1.784,1.714-4.165,2.449-5.952l5.069,1.562c-0.754,1.754-1.75,4.095-2.502,5.848L425.62,145.114z M435.544,141.422
	l4.79,1.337c-0.771,1.706-1.805,3.984-2.58,5.689l-4.738-1.227C433.772,145.484,434.788,143.167,435.544,141.422z M442.613,143.368
	l4.442,1.152c-0.802,1.656-1.858,3.865-2.659,5.515l-4.39-1.031C440.788,147.312,441.839,145.061,442.613,143.368z M443.199,142.084
	c0.826-1.83,1.934-4.265,2.744-6.098l4.52,1.284c-0.838,1.797-1.951,4.197-2.799,5.991L443.199,142.084z M452.611,137.869
	l4.102,1.15c-0.869,1.749-2.012,4.083-2.893,5.827l-4.041-1.039C450.629,142.028,451.771,139.657,452.611,137.869z M453.25,136.513
	c0.863-1.905,2.032-4.441,2.881-6.358l4.17,1.269c-0.882,1.878-2.041,4.388-2.945,6.26L453.25,136.513z M462.299,132.042
	l3.498,1.122l0.194,0.065c-0.912,1.831-2.114,4.279-3.04,6.101l-0.179-0.054l-3.45-1.024
	C460.215,136.389,461.423,133.912,462.299,132.042z M462.955,130.625c0.885-1.982,2.086-4.617,2.946-6.609l3.569,1.222l0.204,0.073
	c-0.899,1.958-2.087,4.574-3.018,6.521l-0.192-0.066L462.955,130.625z M471.477,125.973l3.188,1.305
	c-0.915,1.902-2.113,4.444-3.056,6.328l-3.179-1.167C469.348,130.501,470.588,127.924,471.477,125.973z M472.123,124.521
	c0.84-2.013,1.99-4.686,2.788-6.716l3.185,1.494c-0.836,1.973-1.919,4.609-2.794,6.567L472.123,124.521z M479.582,120.094
	l2.538,1.552c-0.83,1.905-1.911,4.45-2.78,6.336l-2.537-1.401C477.643,124.635,478.787,122.054,479.582,120.094z M480.154,118.651
	l2.028-5.52l0.39-1.145l2.553,1.729l-0.392,1.122l-2.036,5.404L480.154,118.651z M483.055,110.503
	c0.598-2.03,1.424-4.726,1.961-6.765l2.58,1.879c-0.588,1.994-1.339,4.662-1.98,6.641L483.055,110.503z M485.386,102.251
	c0.434-2.033,1.056-4.741,1.419-6.783l2.615,2.004c-0.424,2.007-0.954,4.688-1.447,6.685L485.386,102.251z M487.047,93.984
	c0.246-2.022,0.62-4.719,0.787-6.74l2.676,2.11c-0.24,2.001-0.516,4.667-0.83,6.66L487.047,93.984z M487.93,85.766
	c0.039-1.985,0.133-4.639,0.082-6.618l2.752,2.204c-0.033,1.966-0.027,4.584-0.146,6.549L487.93,85.766z M490.1,73.554
	c0.2,1.912,0.506,4.456,0.611,6.38l-2.766-2.219c-0.188-1.926-0.39-4.505-0.675-6.414L490.1,73.554z M488.484,66.08
	c0.434,1.824,1.054,4.244,1.389,6.091l-2.82-2.243c-0.404-1.81-0.901-4.238-1.402-6.025L488.484,66.08z M486.341,76.591
	l-3.369-2.045c-0.19-1.9-0.403-4.447-0.69-6.333l3.375,1.982C485.874,72.11,486.209,74.659,486.341,76.591z M485.424,68.824
	l-3.373-1.966c-0.404-1.778-0.899-4.162-1.399-5.912l3.366,1.893C484.453,64.632,485.082,67.01,485.424,68.824z M481.496,56.016
	c0.656,1.661,1.576,3.856,2.14,5.552l-3.367-1.875c-0.622-1.646-1.413-3.861-2.132-5.468L481.496,56.016z M476.293,53.38
	c0.65,1.62,1.561,3.765,2.114,5.417l-0.307-0.139l-3.552-1.479c-0.609-1.602-1.383-3.757-2.09-5.321l3.517,1.384L476.293,53.38z
	 M472.617,47.202l0.322,0.13c0.856,1.469,2.049,3.403,2.814,4.916l-0.314-0.135l-3.51-1.362c-0.816-1.451-1.871-3.41-2.788-4.809
	L472.617,47.202z M467.117,45.301c0.846,1.419,2.012,3.291,2.768,4.754l-4.247-1.257c-0.806-1.401-1.837-3.29-2.731-4.639
	L467.117,45.301z M463.435,48.229l-4.604-1.045c-0.783-1.343-1.789-3.16-2.668-4.45l4.562,0.917
	C461.552,45.017,462.697,46.815,463.435,48.229z M456.707,38.698c1.017,1.19,2.411,2.753,3.346,4.004l-4.539-0.886
	c-0.979-1.169-2.238-2.761-3.295-3.869L456.707,38.698z M449.93,37.635c0.992,1.129,2.359,2.606,3.271,3.794l-4.831-0.692
	c-0.953-1.101-2.182-2.606-3.219-3.642L449.93,37.635z M442.796,36.878c0.971,1.058,2.302,2.444,3.188,3.563l-5.036-0.529
	c-0.924-1.03-2.123-2.437-3.131-3.398L442.796,36.878z M435.414,36.379c0.946,0.981,2.244,2.267,3.104,3.315l-5.155-0.401
	c-0.902-0.947-2.068-2.253-3.05-3.134L435.414,36.379z M427.912,36.085c0.918,0.907,2.18,2.079,3.017,3.048l-5.194-0.299
	c-0.874-0.866-2.008-2.057-2.959-2.849L427.912,36.085z M415.33,35.941l5.08,0.016c0.891,0.818,2.121,1.872,2.932,2.756
	l-5.138-0.229C417.354,37.71,416.254,36.636,415.33,35.941z M416.445,39.008c0.693,0.931,1.652,2.146,2.248,3.133l-5.064-0.446
	c-0.64-0.888-1.452-2.104-2.188-2.922L416.445,39.008z M411.812,42.189c0.469,1.046,1.135,2.428,1.501,3.51l-4.893-0.708
	c-0.418-0.996-0.92-2.35-1.44-3.3L411.812,42.189z M407.593,54.591l-4.571-1.351c-0.032-1.252-0.039-2.918-0.152-4.164l4.561,1.121
	C407.491,51.515,407.604,53.273,407.593,54.591z M407.328,49.285l-4.556-1.069c-0.21-1.077-0.446-2.526-0.743-3.584l4.533,0.82
	C406.806,46.6,407.168,48.125,407.328,49.285z M404.914,41.466c0.442,0.953,1.074,2.213,1.414,3.204l-4.531-0.765
	c-0.394-0.896-0.871-2.115-1.367-2.967L404.914,41.466z M400.152,44.253c0.237,1.043,0.591,2.426,0.746,3.481l-4.078-1.166
	c-0.207-0.973-0.432-2.277-0.724-3.229L400.152,44.253z M397.01,52.067l4.099,1.508c-0.121,1.374-0.247,3.205-0.424,4.571
	l-4.109-1.734C396.717,55.109,396.932,53.374,397.01,52.067z M396.42,57.425l4.114,1.781c-0.272,1.507-0.616,3.521-0.938,5.018
	l-4.132-1.995C395.76,60.79,396.181,58.875,396.42,57.425z M391.818,49.778l3.549,1.617c-0.124,1.274-0.263,2.978-0.442,4.246
	l-3.571-1.85C391.501,52.588,391.732,50.986,391.818,49.778z M391.187,54.728l3.58,1.905c-0.283,1.417-0.636,3.309-0.962,4.714
	l-3.609-2.126C390.498,57.874,390.929,56.085,391.187,54.728z M386.828,51.89l2.977,2.015c-0.295,1.32-0.665,3.086-1.004,4.399
	l-3.004-2.247C386.11,54.81,386.559,53.149,386.828,51.89z M385.517,57.022l3.017,2.293c-0.438,1.445-1,3.377-1.473,4.812
	l-3.051-2.51C384.466,60.241,385.096,58.411,385.517,57.022z M383.639,62.667l3.049,2.549c-0.561,1.548-1.289,3.618-1.875,5.158
	l-3.086-2.755C382.303,66.134,383.088,64.162,383.639,62.667z M380.096,58.917l2.4,2.663c-0.573,1.46-1.326,3.413-1.926,4.865
	l-2.445-2.876C378.716,62.175,379.525,60.322,380.096,58.917z M377.264,65.458l0.383-0.831l2.463,2.926l-0.369,0.866l-1.895,4.289
	l-2.509-3.128L377.264,65.458z M374.801,70.692l2.524,3.172c-0.757,1.611-1.749,3.762-2.513,5.367l-2.572-3.362
	C373.006,74.318,374.043,72.253,374.801,70.692z M371.569,85.926l-2.636-3.579c0.816-1.596,1.912-3.723,2.727-5.323l2.584,3.402
	C373.438,82.077,372.375,84.279,371.569,85.926z M376.025,90.794l-3.24-3.42c0.795-1.671,1.867-3.898,2.656-5.571l3.198,3.25
	C377.854,86.774,376.815,89.074,376.025,90.794z M381.289,95.43l-3.783-3.238c0.776-1.745,1.822-4.064,2.596-5.809l3.752,3.084
	C383.082,91.256,382.07,93.643,381.289,95.43z M387.274,99.815l-4.266-3.047c0.762-1.806,1.796-4.213,2.547-6.024l4.239,2.903
	C389.04,95.498,388.039,97.966,387.274,99.815z M389.209,101.088c0.756-1.866,1.77-4.356,2.515-6.225l4.653,2.714
	c-0.75,1.911-1.74,4.456-2.496,6.359L389.209,101.088z M392.924,112.936c0.756-1.916,1.775-4.462,2.53-6.38l4.99,2.671
	c-0.755,1.942-1.76,4.534-2.511,6.477L392.924,112.936z M397.232,124.738c0.737-1.923,1.715-4.486,2.457-6.408l5.252,2.577
	c-0.734,1.944-1.708,4.533-2.436,6.479L397.232,124.738z M402.168,136.233c0.672-1.889,1.574-4.406,2.262-6.288l5.423,2.443
	c-0.688,1.875-1.599,4.38-2.285,6.254L402.168,136.233z M409.574,140.997l5.355,2.034c-0.652,1.702-1.518,3.969-2.16,5.673
	l-5.312-1.94C408.088,145.033,408.935,142.727,409.574,140.997z M410.437,155.066l-5.26-1.812c0.549-1.586,1.282-3.696,1.845-5.275
	l5.307,1.916C411.759,151.443,410.993,153.509,410.437,155.066z M418.016,157.31l-5.135-1.477c0.57-1.534,1.322-3.586,1.906-5.119
	l5.176,1.589C419.377,153.803,418.59,155.805,418.016,157.31z M425.336,159.118l-4.922-1.18c0.584-1.486,1.365-3.468,1.966-4.95
	l4.963,1.301C426.736,155.734,425.928,157.666,425.336,159.118z M432.283,160.542l-4.637-0.923c0.603-1.429,1.412-3.338,2.027-4.764
	l4.684,1.054C433.732,157.297,432.9,159.149,432.283,160.542z M434.842,154.831l-4.68-1.078c0.695-1.591,1.621-3.712,2.318-5.305
	l4.728,1.202C436.496,151.203,435.551,153.275,434.842,154.831z M441.396,156.186l-4.332-0.875c0.719-1.536,1.674-3.583,2.392-5.12
	l4.376,1.006C443.098,152.694,442.126,154.69,441.396,156.186z M447.373,157.291l-3.913-0.71c0.739-1.478,1.726-3.445,2.461-4.924
	l3.962,0.854C449.131,153.941,448.128,155.858,447.373,157.291z M450.461,151.393l-3.972-0.881c0.804-1.635,1.888-3.815,2.686-5.456
	l4.025,1.01C452.377,147.664,451.289,149.798,450.461,151.393z M455.855,152.576l-0.151-0.032l-3.348-0.735
	c0.831-1.577,1.942-3.678,2.764-5.259l3.389,0.86l0.163,0.042C457.826,148.988,456.709,151.045,455.855,152.576z M459.313,146.273
	l-0.171-0.046l-3.388-0.887c0.87-1.728,2.054-4.029,2.915-5.764l3.437,0.998l0.179,0.055
	C461.395,142.322,460.215,144.586,459.313,146.273z M464.047,147.601l-3.033-0.867c0.9-1.674,2.113-3.899,2.999-5.579l3.089,1
	C466.188,143.787,464.979,145.974,464.047,147.601z M467.787,140.896l-3.103-1.025c0.92-1.813,2.163-4.224,3.069-6.046l3.16,1.142
	C469.979,136.743,468.746,139.123,467.787,140.896z M471.797,142.429l-2.535-1.008c0.949-1.757,2.228-4.094,3.158-5.866l2.558,1.158
	C474.027,138.429,472.775,140.726,471.797,142.429z M475.667,135.41l-2.554-1.197c0.915-1.871,2.162-4.352,3.045-6.238l2.543,1.368
	C477.793,131.165,476.605,133.604,475.667,135.41z M478.738,137.336l-1.893-1.273c0.912-1.792,2.15-4.169,3.027-5.978l1.895,1.448
	C480.863,133.277,479.681,135.609,478.738,137.336z M482.412,130.231l-1.895-1.484c0.84-1.874,1.983-4.361,2.784-6.25l1.899,1.645
	C484.369,125.973,483.283,128.421,482.412,130.231z M487.83,117.563l-2.053,5.22l-1.903-1.682l2.043-5.338l0.392-1.111l1.918,1.825
	L487.83,117.563z M488.724,115.069l-1.923-1.856c0.604-1.97,1.443-4.59,1.995-6.575l1.948,1.983
	C490.146,110.557,489.381,113.146,488.724,115.069z M491.133,107.2l-1.952-2.006c0.446-1.988,1.081-4.632,1.464-6.631l1.99,2.124
	C492.193,102.641,491.64,105.253,491.133,107.2z M492.906,99.263l-2.002-2.146c0.266-1.981,0.668-4.621,0.855-6.605l2.051,2.246
	C493.547,94.71,493.239,97.316,492.906,99.263z M493.933,91.328l-2.058-2.267c0.067-1.951,0.195-4.559,0.176-6.509l2.113,2.349
	C494.107,86.828,494.075,89.397,493.933,91.328z"/>
<path fill="#FFFFFF" stroke="#2D8299" stroke-miterlimit="10" d="M375.479,66.832l0.111-0.135
	C375.59,66.696,375.053,65.239,375.479,66.832z"/>
<path fill="#6EEBDC" stroke="#2D8299" stroke-miterlimit="10" d="M404.724,156.72c0,0-3.376-46.87-35.968-56.486
	c-32.593-9.615-97.342,52.552-97.342,52.552s-122.381,81.734-127.189,84.793c-1.884,1.199-2.152,4.279-1.474,8.156l-0.342-0.581
	c0,0-76.128,53.324-78.169,55.072c-2.041,1.748-0.874,9.907,4.371,16.9s9.324,10.782,13.695,10.782l81.68-46.101l-0.001-0.002
	c1.952,1.445,3.63,2.239,4.716,2.104C172.197,283.474,404.724,156.72,404.724,156.72z"/>
<path fill="#99FFE3" d="M274.539,186.568l-125.503,76.481l2.657,4.801l-83.082,49.278c0,0-8.082-13.906-4.371-16.9l61.671-43.507
	l14.801-10.376l2.03-6.635l109.48-72.743C252.223,166.967,259.742,180.568,274.539,186.568z"/>
<path fill="none" stroke="#2D8299" stroke-miterlimit="10" d="M404.724,156.72c0,0-3.376-46.87-35.968-56.486
	c-32.593-9.615-97.342,52.552-97.342,52.552s-122.381,81.734-127.189,84.793c-1.884,1.199-2.152,4.279-1.474,8.156l-0.342-0.581
	c0,0-76.128,53.324-78.169,55.072c-2.041,1.748-0.874,9.907,4.371,16.9s9.324,10.782,13.695,10.782l81.68-46.101l-0.001-0.002
	c1.952,1.445,3.63,2.239,4.716,2.104C172.197,283.474,404.724,156.72,404.724,156.72z"/>
<path fill="none" stroke="#2D8299" stroke-miterlimit="10" d="M142.945,245.647c0,0,4.883,24.977,21.234,36.071"/>
<path fill="#6EEBDC" d="M378.266,83.305c-3.396-10.752-4.658-14.971-5.061-22.909l-33.312,43.543
	c-5.82-8.155-11.414-21.639-14.715-23.839c0,0-36.245,20.707-39.629,17.774c-4.371-3.788-6.783-11.636-20.106-6.12l-14.569,27.1
	c0.291,0.874,27.1,40.502,27.1,40.502s19.523,37.245,32.053,38.437c7.576,0.317,18.355-4.346,18.648-8.133
	c0.146-1.896-3.071-9.35-7.05-17.598v0c0.505,1.053,14.917,22.842,24.241,28.962c9.324,6.119,30.012-6.817,29.721-14.481
	c-0.153-4.068-3.756-11.113-8.41-19.344c-0.943-1.67-1.935-3.394-2.946-5.147l0.001,0c0,0,6.068,8.142,13.812,9.279
	s18.573-3.242,21.462-11.688C402.395,151.198,385.259,105.451,378.266,83.305z"/>
<path fill="#99FFE3" d="M243.437,170.465c-0.708-13.991,1.42-26.978,1.899-40.563c0.16-4.535,0.468-9.091,1.261-13.562
	c2.001-11.288,5.351-15.658,15.647-20.106c7.265-3.137,16.93-6.603,19.526,3.891c-4.546,2.447-9.812,3.295-14.32,5.749
	c-9.693,5.276,5.61,27.548,9.383,33.852c4.261,7.121,9.596,14.002,11.831,22.165c1.199,4.388,3.906,11.237,3.372,15.776
	c-3.676-6.959-8.417-13.49-12.2-20.413c-3.935-7.201-7.49-16.132-14.352-21.267c-2.551,6.097-1.077,15.908-3.404,22.334
	L243.437,170.465z"/>
<path fill="#99FFE3" d="M367.617,105.119c-4.871,1.368-10.184,2.488-12.787,5.642c-3.707,4.49-1.093,10.515-3.352,15.668
	c-4.394-10.253-8.656-20.576-13.456-30.648c-3.538-7.427-10.16-16.582-9.377-25.212c0.604-6.645,5.968-12.535,11.945-14.805
	c4.846-1.84,12.509-5.131,17.744-4.027c7.203,1.52,7.853,10.388,10.151,16.009c3.323,8.126,12.707,22.741,8.873,31.513
	C375.949,102.484,371.958,103.899,367.617,105.119z"/>
<path fill="#99FFE3" d="M320.586,85.899c-5.569,4.904-14.092,7.96-20.565,11.5c-4.011,2.193-5.784,4.356-9.205,1.02
	C280.368,88.226,317.87,71.737,320.586,85.899z"/>
<path fill="none" stroke="#2D8299" stroke-miterlimit="10" d="M251.019,118.694c0.292,0.874,27.099,40.503,27.099,40.503
	s19.523,37.246,32.053,38.437c7.576,0.318,16.259-4.345,16.551-8.133s-10.723-29.721-16.551-39.92
	c-5.828-10.198-20.105-48.079-24.477-51.866c-4.371-3.788-6.782-11.636-20.105-6.12"/>
<path fill="none" stroke="#2D8299" stroke-miterlimit="10" d="M321.77,171.904c0.504,1.052,14.917,22.842,24.24,28.961
	c6.396,4.196,24.698,0.122,25.069-9.188c0.289-7.273-3.141-13.931-5.663-20.542c-3.616-9.478-6.553-18.438-11.246-27.466
	c-8.742-16.817-22.729-59.65-28.848-63.73"/>
<path fill="none" stroke="#2D8299" stroke-miterlimit="10" d="M359.049,154.535c3.074,7.222,10.937,15.432,19.138,16.638
	c7.743,1.136,18.573-3.242,21.464-11.688c2.89-8.447-13.462-53.533-20.456-75.679c-6.993-22.146-4.95-16.609-4.95-16.609"/>
<rect x="412.986" y="45.874" transform="matrix(0.9393 -0.3431 0.3431 0.9393 -3.2002 147.6617)" fill="#6EEBDC" stroke="#2D8299" stroke-miterlimit="10" width="5.335" height="74"/>
<rect x="417.41" y="44.501" transform="matrix(0.9393 -0.3432 0.3432 0.9393 -2.4996 148.8755)" fill="#6EEBDC" stroke="#2D8299" stroke-miterlimit="10" width="4" height="74"/>
<path fill="#6EEBDC" stroke="#2D8299" stroke-miterlimit="10" d="M375.735,31.861c0.287,0.875,4.075,4.079,5.241,4.662
	c1.165,0.583,5.245,18.066,10.49,22.437s27.682,4.079,33.218-1.457s4.953-6.892,4.663-10.585
	c-0.292-3.693-3.322-16.762-3.322-16.762"/>
<path fill="#99FFE3" d="M379.337,23.137c-0.121,9.27,7.487,34.255-6.568,34.661c-0.62-12.226-5.009-35.69,3.734-44.729
	c6.562-6.783,19.476-12.882,28.832-9.168c4.821,1.915,6.653,6.863,9.265,11.235c-13.016,0.641-28.749-1.82-25.263,16.763
	c0.83,4.421,3.719,11.116,5.848,14.619c0.26-3.354-0.69-7.108,1.516-9.716c-0.128,4.321,2.449,8.274,4.568,11.748
	c-2.934,2.007-5.103,4.894-5.25,8.485c0.123-3.003-7.19-13.752-8.732-17.135C384.968,34.813,379.262,28.796,379.337,23.137z"/>
<path fill="#6EEBDC" stroke="#2D8299" stroke-miterlimit="10" d="M410.407,174.669c0,0,5.636-9.738,10.007-16.731
	c0,0-18.272-28.666-17.105-49.002c0.582-7.225,11.061-20.444,22.132-21.609c6.411,3.497,26.959,31.064,44.717,48.262
	c2.628,7.597,3.817,13.44,3.817,13.44"/>
<path fill="#2D8299" d="M147.076,241.068c0.086,0.766-0.467,1.457-1.234,1.542l0,0c-0.767,0.086-1.459-0.467-1.543-1.234
	l-0.161-1.444c-0.085-0.767,0.466-1.458,1.234-1.544l0,0c0.767-0.085,1.456,0.467,1.542,1.234L147.076,241.068z"/>
<path fill="#2D8299" d="M172.853,223.523c-1,0.677-2.186,0.676-2.645-0.003l0,0c-0.459-0.679-0.018-1.778,0.985-2.456l1.889-1.275
	c1.002-0.677,2.186-0.677,2.645,0.004l0,0c0.457,0.678,0.018,1.777-0.984,2.455L172.853,223.523z"/>
<path fill="#2D8299" d="M157.248,232.813c-0.645,0.437-1.41,0.436-1.705-0.002l0,0c-0.297-0.438-0.012-1.147,0.635-1.584
	l1.219-0.823c0.646-0.437,1.41-0.437,1.705,0.002l0,0c0.295,0.438,0.012,1.147-0.635,1.584L157.248,232.813z"/>
<path fill="#6EEBDC" stroke="#2D8299" stroke-miterlimit="10" d="M128.926,257.249c0,0-1.201-5.683-0.873-7.649
	c0.219-0.656,12.129-0.874,12.129-0.874l0.874,2.294c0,0-5.136,3.606-7.103,4.808C131.986,257.03,129.91,258.45,128.926,257.249z"/>
<path fill="none" stroke="#2D8299" stroke-miterlimit="10" d="M128.23,253.215c0,0-0.068-1.32,1.353-1.43
	c1.42-0.109,11.099-0.503,11.099-0.503"/>
<path fill="#2D8299" d="M361.514,297.712l-2.572-13.222l-13.254,19.813l-20.16-13.486l2.641,13.114l-15.641-10.464l6.777,34.162
	l3.166-0.628l-5.26-26.515l11.855,7.931l3.32,16.62l3.17-0.634l-2.691-13.444l16.306,10.906l10.632-15.788l2.556,12.974l3.204-0.646
	l-3.195-16.162l8.182-12.335l5.26,26.514l3.169-0.628l-6.776-34.162L361.514,297.712z M348.282,317.385l-16.312-10.91l-1.73-8.619
	l16.335,10.927l10.651-15.927l1.723,8.689L348.282,317.385z"/>
<path fill="none" stroke="#2D8299" stroke-miterlimit="10" d="M263.547,138.363c-6.648,0-10.277-0.658-15.297-5.245"/>
<path fill="none" stroke="#2D8299" stroke-miterlimit="10" d="M411.113,172.471c-3.126,6.857-6.555,22.301,1.748,27.099"/>
<path fill="none" stroke="#2D8299" stroke-miterlimit="10" d="M418.711,155.409c4.211,4.102,6.859,10.246,12.238,13.112"/>
<path fill="none" stroke="#2D8299" stroke-miterlimit="10" d="M312.5,231.898c1.524-8.59,2.033-27.373,11.802-31.469"/>
<path fill="#6EEBDC" stroke="#00BAC6" stroke-miterlimit="10" d="M397.075,249.381c-2.623,2.307-5.653,3.802-8.741,5.246"/>
<path fill="none" stroke="#2D8299" stroke-miterlimit="10" d="M382.434,38.709c-2.562-3.163-6.209-12.792-5.683-17.046"/>
<path fill="none" stroke="#2D8299" stroke-miterlimit="10" d="M307.693,189.064c-4.576-2.929-9.023-13.148-5.519-18.016
	c1.808-2.508,6.142-3.187,8.903-2.49c6.112,1.54,9.95,8.791,11.475,14.388"/>
<path fill="none" stroke="#2D8299" stroke-miterlimit="10" d="M346.593,190.262c-3.834-6.719-8.407-18.632,2.186-21.962
	c9.093-2.859,14.94,7.377,17.919,14.532"/>
<path fill="none" stroke="#2D8299" stroke-miterlimit="10" d="M375.003,165.462c-2.538-3.437-5.415-10.498-6.099-14.826
	c-0.787-4.992,1.625-8.594,5.663-11.398c11.154-7.746,14.759,6.607,18.792,13.549"/>
<path fill="#DAFAD0" d="M300.477,405.638c26.668,10.302,82.814-2.351,119.711-26.797c6.912-4.579,21.105-16.302,19.263-25.896
	c-2.083-5.884-4.157-11.77-6.239-17.654c-1.043-2.949-1.839-6.186-3.188-9.023c-1.446-3.039-2.548-2.614-5.94-3.028l2.191,8.208
	c0,0-25.551,42.094-99.057,46.63c-19.679,0.534-23.305-1.514-23.305-1.514l-1.002-10.15c0,0-9.029,5.836-9.328,13.432
	L300.477,405.638z"/>
<path fill="#FFFFFF" d="M331.197,378.223l8.332,29.666c0,0,15.666-1,28.333-5.334c1.335,0-7-19.332-10.333-28.666
	C357.529,373.555,339.863,378.889,331.197,378.223z"/>
<path fill="none" stroke="#2D8299" stroke-miterlimit="10" d="M423.842,128.893c-2.871-3.416-7.221-8.799-6.555-13.548
	c0.701-5.01,4.124-9.247,7.819-12.457c2.021-1.756,4.15-5.045,7.185-4.076c2.438,0.781,6.128,6.429,7.289,8.54
	c1.061,1.923,1.635,4.166,2.733,6.097"/>
<path fill="none" stroke="#2D8299" stroke-miterlimit="10" d="M395.982,45.702c-6.235-7.169-0.285-15.57,7.418-17.495
	c6.317-1.578,17.292,3.073,17.496,10.939"/>
<path fill="#FF345C" d="M295.639,366.67c25.934,6.996,76.64-12.361,108.132-41.096c5.901-5.383,17.753-18.737,14.956-28.038
	c-2.602-5.588-5.194-11.179-7.795-16.768c-1.303-2.802-2.408-5.917-3.982-8.571c-1.688-2.842-2.662-2.286-5.86-2.286l2.967,7.882
	c0,0-18.959,44.878-86.707,58.281c-18.212,2.914-21.812,1.32-21.812,1.32l-2.08-9.954c0,0-7.726,6.886-7.141,14.462L295.639,366.67z
	"/>
<path fill="none" stroke="#2D8299" stroke-miterlimit="10" d="M322.195,334.639c0,0,37.75-6,67.5-36.5c13.25-15,15-23.75,15-23.75"
	/>
<path fill="none" stroke="#2D8299" stroke-miterlimit="10" d="M298.445,337.889c0,0-9.5,0-7.75-3"/>
<g>
	<g>
		<g>
			<g>
				<g>
					<g>
						<path fill="#6EEBDC" stroke="#6EEBDC" stroke-width="1.0113" stroke-miterlimit="10" d="M416.716,340.358
							c-1.111-0.679-1.623-1.897-1.282-2.857c0.353-0.97,1.566-1.65,2.848-1.386c1.271,0.259,2.088,1.598,1.591,2.988
							C419.367,340.507,417.829,341.042,416.716,340.358z"/>
						<path fill="#6EEBDC" stroke="#6EEBDC" stroke-width="1.0113" stroke-miterlimit="10" d="M412.065,345.272
							c-0.773-1.055-0.603-2.477,0.209-3.2c0.807-0.707,2.127-0.666,3.157,0.139c1.028,0.801,1.072,2.424-0.016,3.383
							C414.345,346.543,412.831,346.319,412.065,345.272z"/>
					</g>
				</g>
			</g>
			<g>
				<g>
					<g>
						<path fill="#6EEBDC" stroke="#6EEBDC" stroke-width="1.0113" stroke-miterlimit="10" d="M405.843,349.681
							c-0.805-1.02-0.621-2.525,0.529-3.329c1.117-0.769,2.523-0.436,3.27,0.629c0.746,1.073,0.436,2.55-0.573,3.244
							C408.095,350.902,406.652,350.707,405.843,349.681z"/>
						<path fill="#6EEBDC" stroke="#6EEBDC" stroke-width="1.0113" stroke-miterlimit="10" d="M400.363,353.932
							c-0.722-1.088-0.542-2.479,0.411-3.227c0.962-0.748,2.433-0.589,3.253,0.427c0.818,1.013,0.683,2.49-0.365,3.306
							C402.608,355.263,401.083,355.017,400.363,353.932z"/>
					</g>
				</g>
			</g>
			<g>
				<g>
					<g>
						<path fill="#6EEBDC" stroke="#6EEBDC" stroke-width="1.0113" stroke-miterlimit="10" d="M393.878,357.915
							c-0.717-1.084-0.411-2.558,0.724-3.259c1.137-0.702,2.607-0.321,3.245,0.817c0.637,1.136,0.287,2.547-0.765,3.197
							C396.027,359.322,394.6,359.006,393.878,357.915z"/>
						<path fill="#6EEBDC" stroke="#6EEBDC" stroke-width="1.0113" stroke-miterlimit="10" d="M388.133,361.856
							c-0.743-1.069-0.503-2.527,0.556-3.264c1.058-0.737,2.526-0.462,3.259,0.617c0.731,1.078,0.48,2.528-0.563,3.256
							C390.337,363.194,388.878,362.928,388.133,361.856z"/>
					</g>
				</g>
			</g>
			<g>
				<g>
					<g>
						<path fill="#6EEBDC" stroke="#6EEBDC" stroke-width="1.0113" stroke-miterlimit="10" d="M381.801,366.055
							c-0.672-1.119-0.367-2.535,0.67-3.209c1.04-0.677,2.477-0.378,3.211,0.698c0.734,1.078,0.457,2.544-0.643,3.26
							C383.937,367.521,382.471,367.171,381.801,366.055z"/>
						<path fill="#6EEBDC" stroke="#6EEBDC" stroke-width="1.0113" stroke-miterlimit="10" d="M375.734,369.405
							c-0.589-1.168-0.158-2.562,0.936-3.151c1.098-0.581,2.49-0.167,3.139,0.966c0.646,1.13,0.247,2.58-0.912,3.195
							C377.742,371.036,376.318,370.565,375.734,369.405z"/>
					</g>
				</g>
			</g>
			<g>
				<g>
					<g>
						<path fill="#6EEBDC" stroke="#6EEBDC" stroke-width="1.0113" stroke-miterlimit="10" d="M368.861,372.652
							c-0.525-1.195-0.016-2.573,1.125-3.097c1.142-0.522,2.515-0.012,3.08,1.161c0.566,1.176,0.072,2.586-1.111,3.127
							C370.773,374.386,369.386,373.844,368.861,372.652z"/>
						<path fill="#6EEBDC" stroke="#6EEBDC" stroke-width="1.0113" stroke-miterlimit="10" d="M362.465,375.365
							c-0.495-1.208,0.062-2.572,1.229-3.063c1.171-0.485,2.526,0.074,3.044,1.273c0.517,1.194-0.029,2.585-1.222,3.08
							C364.325,377.156,362.958,376.57,362.465,375.365z"/>
					</g>
				</g>
			</g>
			<g>
				<g>
					<g>
						<path fill="#6EEBDC" stroke="#6EEBDC" stroke-width="1.0113" stroke-miterlimit="10" d="M355.402,378.22
							c-0.488-1.208,0.084-2.577,1.271-3.054c1.188-0.478,2.542,0.114,3.031,1.322s-0.082,2.578-1.271,3.056
							C357.245,380.021,355.89,379.43,355.402,378.22z"/>
						<path fill="#6EEBDC" stroke="#6EEBDC" stroke-width="1.0113" stroke-miterlimit="10" d="M348.951,380.817
							c-0.473-1.214,0.091-2.569,1.269-3.045c1.18-0.477,2.543,0.108,3.032,1.316s-0.073,2.577-1.267,3.06
							C350.789,382.631,349.424,382.033,348.951,380.817z"/>
					</g>
				</g>
			</g>
			<g>
				<g>
					<g>
						<path fill="#6EEBDC" stroke="#6EEBDC" stroke-width="1.0113" stroke-miterlimit="10" d="M341.783,383.293
							c-0.341-1.258,0.319-2.536,1.474-2.913c1.158-0.375,2.465,0.265,2.915,1.49c0.448,1.222-0.186,2.585-1.451,2.996
							C343.453,385.28,342.124,384.552,341.783,383.293z"/>
						<path fill="#6EEBDC" stroke="#6EEBDC" stroke-width="1.0113" stroke-miterlimit="10" d="M335.019,384.626
							c-0.132-1.301,0.718-2.445,1.884-2.646c1.167-0.199,2.351,0.611,2.65,1.878c0.301,1.271-0.525,2.546-1.863,2.774
							C336.351,386.861,335.148,385.919,335.019,384.626z"/>
					</g>
				</g>
			</g>
			<g>
				<g>
					<g>
						<path fill="#6EEBDC" stroke="#6EEBDC" stroke-width="1.0113" stroke-miterlimit="10" d="M327.437,384.932
							c-0.032-1.3,0.972-2.392,2.31-2.403c1.283-0.002,2.239,1.021,2.323,2.318c0.08,1.307-1.01,2.399-2.291,2.401
							C328.541,387.258,327.47,386.237,327.437,384.932z"/>
						<path fill="#6EEBDC" stroke="#6EEBDC" stroke-width="1.0113" stroke-miterlimit="10" d="M320.527,384.835
							c0.151-1.29,1.176-2.25,2.353-2.218c1.188,0.03,2.22,1.062,2.243,2.367c0.023,1.301-1.017,2.384-2.369,2.35
							C321.391,387.297,320.374,386.136,320.527,384.835z"/>
					</g>
				</g>
			</g>
			<g>
				<g>
					<g>
						<path fill="#6EEBDC" stroke="#6EEBDC" stroke-width="1.0113" stroke-miterlimit="10" d="M313.177,383.161
							c0.402-1.24,1.655-1.947,2.824-1.634c1.169,0.314,1.897,1.553,1.626,2.828c-0.271,1.275-1.56,2.077-2.85,1.729
							C313.486,385.739,312.774,384.401,313.177,383.161z"/>
						<path fill="#6EEBDC" stroke="#6EEBDC" stroke-width="1.0113" stroke-miterlimit="10" d="M306.928,380.407
							c0.799-1.032,1.987-1.475,2.978-1.014c0.994,0.475,1.548,1.792,1.097,3.02c-0.446,1.219-1.842,1.85-3.126,1.241
							c-0.635-0.301-1.095-0.855-1.27-1.464C306.427,381.579,306.546,380.936,306.928,380.407z"/>
					</g>
				</g>
			</g>
		</g>
	</g>
</g>
<path fill="none" stroke="#2D8299" stroke-width="1.0339" stroke-miterlimit="10" d="M309.862,377.555c0,0,56,7.334,98.712-27.77
	c15.875-13.174,18.791-21.633,18.791-21.633"/>
<g>
	<g>
		<g>
			<g>
				<g>
					<path fill="#FFFFFF" stroke="#2D8299" stroke-miterlimit="10" d="M302.158,376.187c-0.576,0.276-1.256,0.238-1.843-0.21
						c-0.583-0.436-1.009-1.273-1.034-2.172c-0.026-1.836,1.348-2.821,2.579-2.525c1.263,0.298,2.053,1.454,2.085,2.387
						c0.019,0.481-0.171,0.896-0.477,1.337C303.161,375.433,302.742,375.908,302.158,376.187z"/>
					<path fill="#FFFFFF" stroke="#2D8299" stroke-miterlimit="10" d="M308.187,380.155c-0.339,1.215-1.628,2.038-3.21,1.412
						c-0.761-0.309-1.347-0.929-1.571-1.587c-0.232-0.664-0.098-1.323,0.314-1.814c0.414-0.496,0.979-0.783,1.5-0.942
						c0.529-0.156,1.039-0.174,1.539,0.031C307.717,377.646,308.534,378.896,308.187,380.155z"/>
				</g>
			</g>
			<g>
				<g>
					<path fill="#FFFFFF" stroke="#2D8299" stroke-miterlimit="10" d="M315.979,381.526c-0.108,1.28-1.329,2.229-2.72,2.029
						c-1.392-0.196-2.308-1.444-2.051-2.708s1.46-2.088,2.704-1.913C315.156,379.113,316.088,380.237,315.979,381.526z"/>
					<path fill="#FFFFFF" stroke="#2D8299" stroke-miterlimit="10" d="M323.198,381.687c0.075,1.287-1.004,2.393-2.406,2.394
						c-1.403,0.003-2.481-1.104-2.411-2.387c0.07-1.291,1.148-2.276,2.407-2.28C322.047,379.413,323.124,380.399,323.198,381.687z"
						/>
				</g>
			</g>
			<g>
				<g>
					<path fill="#FFFFFF" stroke="#2D8299" stroke-miterlimit="10" d="M331.038,380.713c0.222,1.266-0.677,2.483-2.014,2.689
						c-1.322,0.211-2.605-0.688-2.737-1.97c-0.134-1.284,0.736-2.438,2.026-2.642C329.597,378.593,330.814,379.439,331.038,380.713z
						"/>
					<path fill="#FFFFFF" stroke="#2D8299" stroke-miterlimit="10" d="M338.097,379.309c0.285,1.253-0.549,2.518-1.871,2.789
						c-1.321,0.279-2.592-0.552-2.828-1.815c-0.237-1.271,0.607-2.484,1.879-2.753C336.55,377.268,337.809,378.048,338.097,379.309z
						"/>
				</g>
			</g>
			<g>
				<g>
					<path fill="#FFFFFF" stroke="#2D8299" stroke-miterlimit="10" d="M345.737,377.383c0.35,1.243-0.42,2.538-1.723,2.884
						c-1.304,0.34-2.612-0.412-2.918-1.667c-0.304-1.25,0.474-2.519,1.733-2.847C344.089,375.418,345.39,376.144,345.737,377.383z"
						/>
					<path fill="#FFFFFF" stroke="#2D8299" stroke-miterlimit="10" d="M352.627,375.311c0.399,1.228-0.315,2.553-1.6,2.952
						c-1.285,0.395-2.624-0.301-2.984-1.54c-0.359-1.236,0.363-2.537,1.609-2.92C350.897,373.416,352.229,374.087,352.627,375.311z"
						/>
				</g>
			</g>
			<g>
				<g>
					<path fill="#FFFFFF" stroke="#2D8299" stroke-miterlimit="10" d="M360.073,372.743c0.445,1.209-0.214,2.565-1.479,3.012
						c-1.266,0.445-2.63-0.191-3.043-1.413c-0.412-1.221,0.256-2.553,1.488-2.987S359.628,371.533,360.073,372.743z"/>
					<path fill="#FFFFFF" stroke="#2D8299" stroke-miterlimit="10" d="M366.788,370.171c0.479,1.196-0.137,2.569-1.384,3.055
						c-1.248,0.483-2.631-0.108-3.084-1.316c-0.453-1.205,0.172-2.561,1.393-3.033C364.933,368.401,366.308,368.975,366.788,370.171
						z"/>
				</g>
			</g>
			<g>
				<g>
					<path fill="#FFFFFF" stroke="#2D8299" stroke-miterlimit="10" d="M374.059,367.152c0.51,1.181-0.067,2.571-1.299,3.088
						c-1.229,0.521-2.63-0.037-3.118-1.228c-0.49-1.194,0.099-2.561,1.306-3.073C372.157,365.433,373.547,365.966,374.059,367.152z"
						/>
					<path fill="#FFFFFF" stroke="#2D8299" stroke-miterlimit="10" d="M380.634,364.25c0.53,1.173-0.02,2.572-1.237,3.111
						c-1.216,0.543-2.626,0.017-3.141-1.163c-0.517-1.184,0.043-2.563,1.243-3.1C378.7,362.565,380.102,363.074,380.634,364.25z"/>
				</g>
			</g>
			<g>
				<g>
					<path fill="#FFFFFF" stroke="#2D8299" stroke-miterlimit="10" d="M387.734,360.821c0.613,1.133,0.132,2.579-1.092,3.19
						c-1.223,0.611-2.666,0.127-3.206-1.041c-0.542-1.172-0.03-2.558,1.12-3.133S387.12,359.687,387.734,360.821z"/>
					<path fill="#FFFFFF" stroke="#2D8299" stroke-miterlimit="10" d="M393.933,357.142c0.714,1.071,0.363,2.559-0.809,3.277
						c-1.17,0.721-2.654,0.359-3.288-0.761c-0.636-1.124-0.243-2.544,0.847-3.216C391.774,355.773,393.217,356.067,393.933,357.142z
						"/>
				</g>
			</g>
			<g>
				<g>
					<path fill="#FFFFFF" stroke="#2D8299" stroke-miterlimit="10" d="M400.296,352.469c0.819,0.993,0.625,2.508-0.467,3.343
						c-1.09,0.837-2.605,0.63-3.35-0.42c-0.747-1.054-0.503-2.504,0.512-3.285C398.009,351.328,399.476,351.473,400.296,352.469z"/>
					<path fill="#FFFFFF" stroke="#2D8299" stroke-miterlimit="10" d="M405.69,347.692c0.893,0.928,0.824,2.445-0.186,3.363
						c-1.009,0.919-2.532,0.848-3.368-0.131c-0.839-0.981-0.726-2.452,0.227-3.32C403.316,346.738,404.796,346.762,405.69,347.692z"
						/>
				</g>
			</g>
			<g>
				<g>
					<path fill="#FFFFFF" stroke="#2D8299" stroke-miterlimit="10" d="M411.219,342.073c0.942,0.877,0.968,2.386,0.033,3.357
						c-0.935,0.973-2.448,1.013-3.359,0.101s-0.907-2.395-0.006-3.333C408.789,341.26,410.273,341.194,411.219,342.073z"/>
					<path fill="#FFFFFF" stroke="#2D8299" stroke-miterlimit="10" d="M416.046,336.746c0.966,0.854,1.033,2.354,0.143,3.347
						s-2.396,1.09-3.345,0.219c-0.951-0.871-1.004-2.358-0.129-3.336C413.592,335.999,415.08,335.892,416.046,336.746z"/>
				</g>
			</g>
			<g>
				<g>
					<path fill="#FFFFFF" stroke="#2D8299" stroke-miterlimit="10" d="M421.173,330.754c1.029,0.775,1.167,2.319,0.263,3.382
						c-0.912,1.064-2.377,1.136-3.354,0.301c-0.979-0.843-1.024-2.361-0.203-3.32C418.697,330.153,420.144,329.978,421.173,330.754z
						"/>
					<path fill="#FFFFFF" stroke="#2D8299" stroke-miterlimit="10" d="M424.976,324.59c1.188,0.499,1.657,2.042,0.923,3.319
						c-0.729,1.273-2.254,1.626-3.309,0.892c-1.062-0.737-1.342-2.158-0.742-3.208C422.449,324.549,423.786,324.089,424.976,324.59z
						"/>
				</g>
			</g>
			<g>
				<g>
					<path fill="#FFFFFF" stroke="#2D8299" stroke-miterlimit="10" d="M426.126,316.734c0.625-0.145,1.269,0.014,1.764,0.482
						c0.494,0.459,0.822,1.229,0.789,2.062c-0.069,1.712-1.444,2.69-2.676,2.352c-1.25-0.339-2.017-1.492-1.988-2.515
						c0.021-0.53,0.243-1.002,0.608-1.431C424.989,317.262,425.496,316.88,426.126,316.734z"/>
					<path fill="#FFFFFF" stroke="#2D8299" stroke-miterlimit="10" d="M420.561,312.953c0.194-1.263,1.256-2.215,2.762-1.989
						c0.757,0.137,1.501,0.52,2.186,1.373c0.071,0.098,0.179,0.241,0.243,0.361c0.082,0.129,0.252,0.38,0.308,0.555
						c-0.005,0.044-0.022,0.074-0.035,0.11l-0.021,0.053l-0.011,0.026l-0.002,0.003l-0.001,0.002
						c-0.072-0.109,0.099,0.15,0.081,0.124v0.001l-0.004,0.006l-0.006,0.014c-0.036,0.071-0.076,0.139-0.119,0.203
						c-0.174,0.259-0.409,0.468-0.691,0.623c-0.283,0.155-0.586,0.242-0.884,0.283l-0.223,0.021l-0.014,0.001l-0.007,0h-0.001
						c-0.01-0.015,0.084,0.126,0.044,0.067h-0.002l-0.004,0l-0.028,0.003l-0.057,0.005c-0.036,0.004-0.077,0.002-0.111,0.009
						c-0.039,0.073,0,0.188-0.025,0.241c-0.038,0.048-0.045,0.103-0.087,0.143c-0.239,0.337-0.71,0.466-1.284,0.377
						C421.408,315.393,420.365,314.238,420.561,312.953z"/>
				</g>
			</g>
		</g>
	</g>
</g>
<g>
	<g>
		<g>
			<g>
				<g>
					<g>
						<path fill="#6EEBDC" stroke="#6EEBDC" stroke-width="1.0113" stroke-miterlimit="10" d="M318.509,419.382
							c-0.509,1.191-2.01,1.724-3.373,0.942c-0.673-0.387-1.152-1.037-1.309-1.706c-0.164-0.672,0.017-1.332,0.473-1.794
							c0.458-0.467,1.042-0.715,1.593-0.827c0.556-0.105,1.102-0.049,1.608,0.244C318.497,416.817,319.023,418.179,318.509,419.382z
							"/>
						<path fill="#6EEBDC" stroke="#6EEBDC" stroke-width="1.0113" stroke-miterlimit="10" d="M325.44,421.66
							c-0.283,1.271-1.654,2.044-3.022,1.638c-1.368-0.403-2.097-1.797-1.645-3.018c0.454-1.224,1.774-1.863,2.983-1.508
							C324.965,419.132,325.724,420.387,325.44,421.66z"/>
					</g>
				</g>
			</g>
			<g>
				<g>
					<g>
						<path fill="#6EEBDC" stroke="#6EEBDC" stroke-width="1.0113" stroke-miterlimit="10" d="M333.354,422.571
							c-0.13,1.297-1.289,2.242-2.578,2.144c-0.646-0.05-1.212-0.35-1.614-0.801c-0.383-0.447-0.695-1.061-0.62-1.71
							c0.099-1.29,1.214-2.302,2.593-2.194C332.496,420.114,333.483,421.274,333.354,422.571z"/>
						<path fill="#6EEBDC" stroke="#6EEBDC" stroke-width="1.0113" stroke-miterlimit="10" d="M340.552,423.356
							c-0.137,1.297-1.34,2.229-2.667,2.077c-1.325-0.15-2.273-1.317-2.134-2.613c0.14-1.297,1.34-2.227,2.664-2.075
							C339.738,420.896,340.688,422.061,340.552,423.356z"/>
					</g>
				</g>
			</g>
			<g>
				<g>
					<g>
						<path fill="#6EEBDC" stroke="#6EEBDC" stroke-width="1.0113" stroke-miterlimit="10" d="M348.493,423.919
							c-0.008,1.302-1.164,2.347-2.557,2.268c-1.391-0.078-2.404-1.23-2.289-2.527c0.116-1.3,1.265-2.256,2.55-2.185
							C347.48,421.549,348.502,422.613,348.493,423.919z"/>
						<path fill="#6EEBDC" stroke="#6EEBDC" stroke-width="1.0113" stroke-miterlimit="10" d="M355.771,423.42
							c0.231,1.283-0.749,2.526-2.189,2.665c-1.438,0.14-2.624-0.89-2.657-2.189c-0.034-1.306,0.962-2.386,2.203-2.508
							C354.366,421.27,355.54,422.137,355.771,423.42z"/>
					</g>
				</g>
			</g>
			<g>
				<g>
					<g>
						<path fill="#6EEBDC" stroke="#6EEBDC" stroke-width="1.0113" stroke-miterlimit="10" d="M363.439,421.184
							c0.479,1.21-0.139,2.602-1.492,3.086c-1.384,0.483-2.795-0.245-3.112-1.51c-0.318-1.264,0.392-2.537,1.553-2.944
							C361.567,419.394,362.956,419.971,363.439,421.184z"/>
						<path fill="#6EEBDC" stroke="#6EEBDC" stroke-width="1.0113" stroke-miterlimit="10" d="M370.046,418.133
							c0.617,1.146,0.12,2.611-1.138,3.22c-1.257,0.609-2.716,0.089-3.231-1.105c-0.518-1.199,0.021-2.581,1.176-3.143
							C368.008,416.546,369.427,416.983,370.046,418.133z"/>
					</g>
				</g>
			</g>
			<g>
				<g>
					<g>
						<path fill="#6EEBDC" stroke="#6EEBDC" stroke-width="1.0113" stroke-miterlimit="10" d="M376.87,414.029
							c0.726,1.08,0.395,2.579-0.774,3.315c-1.169,0.738-2.676,0.392-3.329-0.735c-0.655-1.129-0.281-2.565,0.813-3.258
							C374.677,412.661,376.143,412.945,376.87,414.029z"/>
						<path fill="#6EEBDC" stroke="#6EEBDC" stroke-width="1.0113" stroke-miterlimit="10" d="M382.812,409.863
							c0.765,1.055,0.506,2.548-0.592,3.332c-1.1,0.785-2.608,0.545-3.349-0.528s-0.465-2.547,0.608-3.314
							C380.555,408.585,382.047,408.807,382.812,409.863z"/>
					</g>
				</g>
			</g>
			<g>
				<g>
					<g>
						<path fill="#6EEBDC" stroke="#6EEBDC" stroke-width="1.0113" stroke-miterlimit="10" d="M389.242,405.193
							c0.832,1.006,0.466,2.607-0.584,3.349c-1.074,0.772-2.568,0.554-3.334-0.501c-0.766-1.056-0.51-2.547,0.579-3.33
							C387.018,403.922,388.41,404.188,389.242,405.193z"/>
						<path fill="#6EEBDC" stroke="#6EEBDC" stroke-width="1.0113" stroke-miterlimit="10" d="M394.301,399.915
							c1.053,0.763,1.215,2.335,0.248,3.45c-0.967,1.119-2.58,1.176-3.464,0.22c-0.888-0.957-0.89-2.396-0.094-3.321
							C391.794,399.342,393.243,399.147,394.301,399.915z"/>
					</g>
				</g>
			</g>
			<g>
				<g>
					<g>
						<path fill="#6EEBDC" stroke="#6EEBDC" stroke-width="1.0113" stroke-miterlimit="10" d="M398.444,393.095
							c1.162,0.587,1.603,2.067,0.913,3.294c-0.688,1.229-2.2,1.641-3.295,0.939c-1.101-0.705-1.442-2.136-0.821-3.248
							C395.867,392.968,397.28,392.506,398.444,393.095z"/>
						<path fill="#6EEBDC" stroke="#6EEBDC" stroke-width="1.0113" stroke-miterlimit="10" d="M401.535,386.524
							c1.188,0.53,1.716,1.951,1.152,3.184c-0.563,1.235-1.995,1.782-3.169,1.215s-1.669-1.979-1.123-3.175
							C398.942,386.551,400.343,385.992,401.535,386.524z"/>
					</g>
				</g>
			</g>
			<g>
				<g>
					<g>
						<path fill="#6EEBDC" stroke="#6EEBDC" stroke-width="1.0113" stroke-miterlimit="10" d="M404.836,379.324
							c1.167,0.583,1.65,1.985,1.104,3.167c-0.55,1.183-1.95,1.732-3.14,1.199c-1.189-0.532-1.712-1.958-1.14-3.188
							C402.23,379.271,403.67,378.742,404.836,379.324z"/>
						<path fill="#6EEBDC" stroke="#6EEBDC" stroke-width="1.0113" stroke-miterlimit="10" d="M408.226,372.94
							c1.144,0.627,1.551,2.078,0.922,3.241c-0.63,1.163-2.064,1.614-3.216,1.004c-1.152-0.61-1.574-2.068-0.936-3.249
							C405.635,372.757,407.083,372.313,408.226,372.94z"/>
					</g>
				</g>
			</g>
			<g>
				<g>
					<g>
						<path fill="#6EEBDC" stroke="#6EEBDC" stroke-width="1.0113" stroke-miterlimit="10" d="M412.051,365.989
							c1.145,0.625,1.549,2.086,0.903,3.256c-0.645,1.17-2.092,1.605-3.233,0.977c-1.142-0.63-1.543-2.088-0.899-3.254
							C409.463,365.803,410.906,365.365,412.051,365.989z"/>
						<path fill="#6EEBDC" stroke="#6EEBDC" stroke-width="1.0113" stroke-miterlimit="10" d="M415.466,359.592
							c1.159,0.595,1.597,2.055,0.965,3.247c-0.632,1.193-2.08,1.648-3.226,1.028c-1.147-0.621-1.563-2.068-0.945-3.236
							C412.878,359.465,414.305,358.997,415.466,359.592z"/>
					</g>
				</g>
			</g>
			<g>
				<g>
					<g>
						<path fill="#6EEBDC" stroke="#6EEBDC" stroke-width="1.0113" stroke-miterlimit="10" d="M418.933,352.438
							c1.191,0.529,1.704,1.974,1.12,3.206c-0.583,1.234-2.02,1.752-3.187,1.173c-1.168-0.581-1.64-2.004-1.08-3.188
							C416.347,352.445,417.741,351.907,418.933,352.438z"/>
						<path fill="#6EEBDC" stroke="#6EEBDC" stroke-width="1.0113" stroke-miterlimit="10" d="M421.687,345.713
							c1.225,0.443,1.836,1.854,1.328,3.133c-0.505,1.28-1.916,1.886-3.113,1.373c-1.198-0.514-1.751-1.901-1.273-3.111
							C419.107,345.899,420.459,345.27,421.687,345.713z"/>
					</g>
				</g>
			</g>
			<g>
				<g>
					<g>
						<path fill="#6EEBDC" stroke="#6EEBDC" stroke-width="1.0113" stroke-miterlimit="10" d="M423.268,337.893
							c1.287,0.145,2.274,1.198,2.137,2.654c-0.074,0.728-0.443,1.393-0.958,1.791c-0.514,0.403-1.158,0.543-1.791,0.389
							c-0.633-0.155-1.142-0.552-1.485-1.024c-0.341-0.477-0.522-1.031-0.459-1.646
							C420.828,338.824,421.964,337.748,423.268,337.893z"/>
						<path fill="#6EEBDC" stroke="#6EEBDC" stroke-width="1.0113" stroke-miterlimit="10" d="M424.883,330.944
							c1.22,0.465,1.848,1.776,1.519,2.919c-0.326,1.134-1.53,1.878-2.814,1.668c-1.289-0.211-2.123-1.569-1.722-2.969
							C422.268,331.173,423.668,330.48,424.883,330.944z"/>
					</g>
				</g>
			</g>
		</g>
	</g>
</g>
<g>
	<g>
		<g>
			<g>
				<g>
					<path fill="#FFFFFF" stroke="#2D8299" stroke-width="1.0113" stroke-miterlimit="10" d="M314.46,412.212
						c-0.298,1.258-1.654,2.061-3.134,1.457c-0.727-0.299-1.3-0.916-1.517-1.584c-0.227-0.672-0.067-1.341,0.373-1.817
						c0.442-0.48,1.004-0.763,1.503-0.942c0.506-0.173,0.982-0.209,1.46-0.01C314.077,409.705,314.763,410.939,314.46,412.212z"/>
					<path fill="#FFFFFF" stroke="#2D8299" stroke-width="1.0113" stroke-miterlimit="10" d="M321.312,413.172
						c-0.08,1.3-1.208,2.291-2.542,2.151c-1.338-0.14-2.265-1.366-2.04-2.649c0.226-1.284,1.343-2.168,2.537-2.044
						C320.464,410.757,321.393,411.869,321.312,413.172z"/>
				</g>
			</g>
			<g>
				<g>
					<path fill="#FFFFFF" stroke="#2D8299" stroke-width="1.0113" stroke-miterlimit="10" d="M328.854,413.399
						c0.019,1.303-1.028,2.375-2.335,2.353c-1.307-0.021-2.317-1.123-2.26-2.423c0.058-1.305,1.104-2.315,2.335-2.296
						C327.823,411.055,328.835,412.095,328.854,413.399z"/>
					<path fill="#FFFFFF" stroke="#2D8299" stroke-width="1.0113" stroke-miterlimit="10" d="M335.738,413.061
						c0.124,1.296-0.835,2.448-2.145,2.529c-1.309,0.084-2.403-0.939-2.443-2.242c-0.04-1.304,0.923-2.389,2.148-2.468
						C334.523,410.804,335.613,411.761,335.738,413.061z"/>
				</g>
			</g>
			<g>
				<g>
					<path fill="#FFFFFF" stroke="#2D8299" stroke-width="1.0113" stroke-miterlimit="10" d="M343.218,412.028
						c0.245,1.278-0.603,2.515-1.9,2.72s-2.484-0.716-2.643-2.009c-0.158-1.295,0.701-2.462,1.911-2.653
						C341.796,409.896,342.972,410.746,343.218,412.028z"/>
					<path fill="#FFFFFF" stroke="#2D8299" stroke-width="1.0113" stroke-miterlimit="10" d="M349.934,410.472
						c0.354,1.254-0.383,2.561-1.658,2.873c-1.275,0.316-2.536-0.497-2.806-1.771c-0.27-1.277,0.485-2.516,1.675-2.811
						C348.335,408.472,349.579,409.217,349.934,410.472z"/>
				</g>
			</g>
			<g>
				<g>
					<path fill="#FFFFFF" stroke="#2D8299" stroke-width="1.0113" stroke-miterlimit="10" d="M357.109,408.129
						c0.461,1.22-0.148,2.584-1.39,3.011c-1.238,0.43-2.567-0.263-2.954-1.507c-0.387-1.246,0.251-2.55,1.411-2.953
						C355.338,406.281,356.648,406.91,357.109,408.129z"/>
					<path fill="#FFFFFF" stroke="#2D8299" stroke-width="1.0113" stroke-miterlimit="10" d="M363.492,405.551
						c0.523,1.195-0.014,2.585-1.21,3.076c-1.193,0.503-2.56-0.111-3.031-1.319c-0.476-1.221,0.082-2.559,1.226-3.04
						C361.625,403.796,362.97,404.358,363.492,405.551z"/>
				</g>
			</g>
			<g>
				<g>
					<path fill="#FFFFFF" stroke="#2D8299" stroke-width="1.0113" stroke-miterlimit="10" d="M370.321,402.358
						c0.586,1.159,0.13,2.581-1.037,3.138c-1.165,0.562-2.557,0.04-3.1-1.148c-0.54-1.183-0.063-2.565,1.055-3.104
						C368.359,400.709,369.731,401.19,370.321,402.358z"/>
					<path fill="#FFFFFF" stroke="#2D8299" stroke-width="1.0113" stroke-miterlimit="10" d="M376.396,399.12
						c0.645,1.129,0.257,2.568-0.879,3.186c-1.138,0.615-2.551,0.168-3.153-0.992c-0.598-1.153-0.193-2.562,0.898-3.153
						C374.353,397.567,375.749,397.984,376.396,399.12z"/>
				</g>
			</g>
			<g>
				<g>
					<path fill="#FFFFFF" stroke="#2D8299" stroke-width="1.0113" stroke-miterlimit="10" d="M382.851,395.225
						c0.711,1.098,0.398,2.547-0.7,3.231c-1.101,0.679-2.542,0.304-3.203-0.816c-0.665-1.125-0.335-2.546,0.721-3.197
						C380.722,393.786,382.145,394.134,382.851,395.225z"/>
					<path fill="#FFFFFF" stroke="#2D8299" stroke-width="1.0113" stroke-miterlimit="10" d="M388.542,391.336
						c0.805,1.039,0.517,2.551-0.529,3.274c-1.062,0.744-2.525,0.438-3.243-0.644c-0.725-1.091-0.465-2.52,0.55-3.231
						C386.352,390.021,387.746,390.315,388.542,391.336z"/>
				</g>
			</g>
			<g>
				<g>
					<path fill="#FFFFFF" stroke="#2D8299" stroke-width="1.0113" stroke-miterlimit="10" d="M393.689,385.746
						c1.111,0.675,1.408,2.223,0.499,3.364c-0.91,1.142-2.494,1.205-3.396,0.265c-0.903-0.94-0.986-2.333-0.295-3.205
						C391.194,385.301,392.574,385.065,393.689,385.746z"/>
					<path fill="#FFFFFF" stroke="#2D8299" stroke-width="1.0113" stroke-miterlimit="10" d="M396.723,379.527
						c1.205,0.488,1.805,1.847,1.267,3.072c-0.54,1.233-2.001,1.749-3.149,1.134c-1.15-0.615-1.648-1.94-1.168-3.039
						C394.158,379.59,395.512,379.037,396.723,379.527z"/>
				</g>
			</g>
			<g>
				<g>
					<path fill="#FFFFFF" stroke="#2D8299" stroke-width="1.0113" stroke-miterlimit="10" d="M399.727,372.671
						c1.149,0.619,1.641,1.942,1.153,3.021c-0.492,1.081-1.845,1.607-3.052,1.112c-1.205-0.494-1.79-1.864-1.243-3.069
						C397.134,372.524,398.58,372.054,399.727,372.671z"/>
					<path fill="#FFFFFF" stroke="#2D8299" stroke-width="1.0113" stroke-miterlimit="10" d="M403.456,366.979
						c0.522,0.388,0.845,0.947,0.935,1.537c0.091,0.593-0.059,1.225-0.381,1.672c-0.664,0.921-2.046,1.178-3.168,0.511
						c-1.119-0.664-1.463-2.154-0.665-3.263C400.979,366.34,402.396,366.228,403.456,366.979z"/>
				</g>
			</g>
			<g>
				<g>
					<path fill="#FFFFFF" stroke="#2D8299" stroke-width="1.0113" stroke-miterlimit="10" d="M407.819,360.836
						c1.081,0.729,1.372,2.186,0.634,3.24c-0.735,1.057-2.203,1.284-3.26,0.522c-1.058-0.763-1.321-2.201-0.609-3.224
						C405.298,360.354,406.738,360.107,407.819,360.836z"/>
					<path fill="#FFFFFF" stroke="#2D8299" stroke-width="1.0113" stroke-miterlimit="10" d="M411.553,355.055
						c1.112,0.677,1.47,2.122,0.776,3.211c-0.691,1.091-2.149,1.382-3.237,0.663s-1.412-2.144-0.746-3.193
						C409.013,354.688,410.438,354.376,411.553,355.055z"/>
				</g>
			</g>
			<g>
				<g>
					<path fill="#FFFFFF" stroke="#2D8299" stroke-width="1.0113" stroke-miterlimit="10" d="M415.305,348.514
						c1.152,0.61,1.593,2.035,0.959,3.166c-0.631,1.132-2.074,1.503-3.197,0.843c-1.125-0.66-1.525-2.062-0.922-3.145
						C412.75,348.297,414.152,347.904,415.305,348.514z"/>
					<path fill="#FFFFFF" stroke="#2D8299" stroke-width="1.0113" stroke-miterlimit="10" d="M418.356,342.339
						c1.188,0.533,1.72,1.931,1.153,3.104c-0.563,1.174-1.984,1.631-3.145,1.036s-1.643-1.969-1.108-3.082
						C415.794,342.285,417.166,341.806,418.356,342.339z"/>
				</g>
			</g>
			<g>
				<g>
					<path fill="#FFFFFF" stroke="#2D8299" stroke-width="1.0113" stroke-miterlimit="10" d="M421.188,335.343
						c1.23,0.43,1.875,1.783,1.402,3.005c-0.471,1.224-1.856,1.79-3.057,1.284c-1.202-0.507-1.786-1.837-1.346-2.983
						C418.632,335.503,419.958,334.913,421.188,335.343z"/>
					<path fill="#FFFFFF" stroke="#2D8299" stroke-width="1.0113" stroke-miterlimit="10" d="M423.642,328.936
						c1.223,0.454,1.84,1.812,1.371,3.003c-0.468,1.187-1.818,1.736-3.033,1.268c-1.218-0.469-1.82-1.823-1.359-2.992
						C421.078,329.049,422.42,328.482,423.642,328.936z"/>
				</g>
			</g>
			<g>
				<g>
					<path fill="#FFFFFF" stroke="#2D8299" stroke-width="1.0113" stroke-miterlimit="10" d="M425.89,321.714
						c1.277,0.258,2.076,1.584,1.7,2.889c-0.373,1.301-1.723,1.972-2.954,1.551c-1.236-0.421-1.912-1.7-1.583-2.849
						C423.383,322.161,424.611,321.455,425.89,321.714z"/>
					<path fill="#FFFFFF" stroke="#2D8299" stroke-width="1.0113" stroke-miterlimit="10" d="M425.987,314.746
						c0.614-0.212,1.278-0.116,1.816,0.311c0.533,0.418,0.908,1.147,0.938,1.934c0.055,1.602-1.181,2.611-2.462,2.436
						c-1.297-0.175-2.209-1.236-2.253-2.241c-0.021-0.515,0.179-0.968,0.521-1.395C424.89,315.374,425.371,314.958,425.987,314.746z
						"/>
				</g>
			</g>
		</g>
	</g>
</g>
<path fill="#FF345C" stroke="#2D8299" stroke-miterlimit="10" d="M326.66,333.977c0,0-1.804-3.57-4.425-3.279
	c-2.623,0.291-15.152,2.477-19.232,2.477c-4.079,0-5.099,5.391-4.224,8.596c0.874,3.205,3.204,23.02,9.469,24.186
	c6.266,1.165,19.669-0.584,19.669-3.205c0-2.623-7.678-30.051-5.099-30.305c0,0-0.623-0.057,0.627,2.193"/>
<path fill="#FFFFFF" stroke="#2D8299" stroke-miterlimit="10" d="M309.129,342.089l-0.001-0.007l-0.097,0.018
	c-0.166,0.016-0.331,0.026-0.495,0.057c-0.165,0.03-0.323,0.08-0.482,0.124l-2.318,0.427c-0.163,0.017-0.329,0.026-0.494,0.057
	c-0.166,0.031-0.322,0.08-0.482,0.125l-0.099,0.018l0.004,0.006c-3.842,1.137-6.103,6.21-5.086,11.718
	c1.016,5.507,4.936,9.44,8.931,9.131l0.008,0.04l4.466-0.822l-0.007-0.041c3.842-1.137,6.1-6.21,5.084-11.717
	C317.043,345.713,313.125,341.779,309.129,342.089z"/>
<ellipse transform="matrix(0.9834 -0.1814 0.1814 0.9834 -58.9688 61.5676)" fill="#FFFFFF" stroke="#2D8299" stroke-miterlimit="10" cx="307.171" cy="353.229" rx="6.916" ry="9.533"/>
<path fill="#2D8299" d="M340.201,391.254l-0.02-2.332l1.363-0.293C341,389.484,340.552,390.361,340.201,391.254"/>
<path fill="#2D8299" d="M346.653,400.914l-2.231,0.479c-0.623-0.459-1.154-1.014-1.584-1.655c-0.496-0.741-0.849-1.583-1.045-2.501
	c-0.256-1.195-0.244-2.467,0.035-3.781c0.292-1.366,0.861-2.709,1.691-3.992c0.348-0.537,0.729-1.039,1.143-1.502l2.157-0.463
	c-0.063,0.047-0.126,0.095-0.188,0.145c-0.836,0.656-1.562,1.456-2.158,2.377c-0.623,0.965-1.074,1.974-1.337,2.998
	c-0.255,0.991-0.328,1.969-0.219,2.906c0.224,1.898,1.192,3.49,2.724,4.48C345.96,400.611,346.299,400.781,346.653,400.914"/>
<path fill="#2D8299" d="M343.869,401.512l-1.895,0.406c-0.283-0.307-0.542-0.633-0.775-0.982c-0.38-0.565-0.689-1.179-0.926-1.834
	l-0.061-6.544c0.38-1.299,0.97-2.572,1.762-3.798c0.058-0.088,0.115-0.174,0.174-0.26l1.818-0.391
	c-0.289,0.354-0.56,0.727-0.812,1.118c-0.857,1.327-1.445,2.72-1.748,4.138c-0.294,1.373-0.305,2.707-0.037,3.962
	c0.209,0.972,0.582,1.864,1.109,2.651C342.865,400.557,343.332,401.07,343.869,401.512"/>
<path fill="#2D8299" d="M351.049,396.242l-0.007-0.697c0.326-0.231,0.616-0.531,0.841-0.879c0.369-0.572,0.529-1.219,0.449-1.822
	c-0.08-0.607-0.391-1.115-0.876-1.43c-0.14-0.089-0.292-0.159-0.454-0.207l-0.006-0.746c0.311,0.047,0.604,0.155,0.867,0.326
	c0.553,0.357,0.918,0.883,1.054,1.519c0.177,0.826-0.054,1.788-0.649,2.71C351.934,395.533,351.51,395.948,351.049,396.242"/>
<path fill="#2D8299" d="M351.037,394.995l-0.03-3.327c0.073,0.029,0.146,0.066,0.214,0.111c0.377,0.242,0.619,0.642,0.682,1.121
	c0.067,0.502-0.068,1.045-0.384,1.53C351.383,394.642,351.219,394.832,351.037,394.995"/>
<path fill="#2D8299" d="M351.06,397.565l-0.007-0.821c0.619-0.339,1.166-0.854,1.578-1.493c0.66-1.019,0.912-2.097,0.711-3.036
	c-0.162-0.75-0.592-1.37-1.244-1.792c-0.33-0.214-0.707-0.347-1.105-0.397l-0.008-0.848c0.566,0.02,1.102,0.184,1.568,0.486
	c1.79,1.158,2.047,3.719,0.598,5.957C352.594,396.483,351.863,397.158,351.06,397.565"/>
<path fill="#2D8299" d="M341.486,402.021l-1.184,0.254l-0.018-2.049c0.164,0.328,0.35,0.646,0.555,0.951
	C341.037,401.475,341.253,401.755,341.486,402.021"/>
<path fill="#2D8299" d="M345.412,390.909l-1.092,0.233c0.156-0.299,0.328-0.596,0.518-0.888c0.846-1.308,1.943-2.326,3.135-3.005
	l1.191-0.254l0.006,0.701c-1.431,0.531-2.709,1.588-3.62,2.994C345.504,390.764,345.459,390.838,345.412,390.909"/>
<path fill="#2D8299" d="M351.073,398.927l-0.007-0.884c0.942-0.43,1.807-1.192,2.449-2.187c1.582-2.446,1.27-5.265-0.727-6.557
	c-0.541-0.349-1.158-0.536-1.809-0.557l-0.01-0.979c0.865-0.031,1.703,0.173,2.431,0.645c0.978,0.631,1.622,1.527,1.897,2.623
	c0.014,0.055,0.027,0.111,0.039,0.166c0.051,0.237,0.086,0.484,0.102,0.737c0.096,1.401-0.342,2.929-1.229,4.299
	C353.428,397.443,352.303,398.399,351.073,398.927"/>
<path fill="#2D8299" d="M348.189,395.381l-0.753,0.161c-0.106-0.198-0.183-0.418-0.233-0.653c-0.174-0.803,0.009-1.726,0.496-2.559
	l0.781-0.167c-0.075,0.091-0.146,0.187-0.209,0.287c-0.445,0.687-0.609,1.435-0.465,2.11
	C347.873,394.869,348.006,395.148,348.189,395.381"/>
<path fill="#2D8299" d="M349.194,390.098l-1.244,0.268c0.38-0.334,0.798-0.607,1.238-0.809L349.194,390.098"/>
<path fill="#2D8299" d="M355.288,389.812c-0.011-0.021-0.021-0.041-0.032-0.061c-0.381-0.686-0.926-1.259-1.619-1.708
	c-0.611-0.396-1.301-0.63-2.05-0.698c-0.204-0.018-0.411-0.022-0.619-0.016l-0.007-0.721l1.238-0.265
	c0.723,0.104,1.418,0.354,2.045,0.759c0.65,0.422,1.188,0.948,1.6,1.569l-0.564,0.121L355.288,389.812"/>
<path fill="#2D8299" d="M357.738,388.268l-1.441,0.309c-0.457-0.734-1.068-1.351-1.816-1.836c-0.404-0.26-0.834-0.464-1.291-0.607
	l2.311-0.496C356.467,386.314,357.225,387.211,357.738,388.268"/>
<path fill="#2D8299" d="M347.166,390.533l-1.156,0.248c0.844-1.241,1.974-2.14,3.164-2.62l0.011,0.927
	C348.436,389.396,347.744,389.892,347.166,390.533"/>
<path fill="#2D8299" d="M349.266,398.005c-0.58-0.009-1.139-0.169-1.65-0.472l1.634-0.351l0.013-0.002l-0.001,0.003L349.266,398.005
	"/>
<path fill="#2D8299" d="M345.799,395.893l-0.958,0.205c-0.015-0.059-0.03-0.119-0.044-0.18c-0.204-0.956-0.141-1.98,0.177-3.003
	l0.905-0.194c-0.312,0.915-0.385,1.863-0.199,2.735C345.712,395.605,345.752,395.752,345.799,395.893"/>
<path fill="#2D8299" d="M349.272,399.369c-0.944,0.06-1.833-0.166-2.604-0.664c-0.334-0.217-0.633-0.479-0.891-0.778l1.252-0.268
	c0.075,0.058,0.152,0.112,0.232,0.165c0.615,0.397,1.298,0.605,2.006,0.613L349.272,399.369"/>
<path fill="#2D8299" d="M349.279,400.352l-1.729,0.371c-0.605-0.125-1.168-0.354-1.674-0.682c-1.424-0.92-2.322-2.4-2.529-4.168
	c-0.171-1.457,0.139-3.034,0.879-4.539l0.017,1.736l0.248-0.053c-0.278,1.017-0.321,2.035-0.115,2.992
	c0.012,0.06,0.026,0.119,0.042,0.18l-0.15,0.031l0.029,2.025l1.006-0.216c0.315,0.405,0.695,0.758,1.13,1.038
	c0.845,0.547,1.815,0.796,2.843,0.735L349.279,400.352"/>
<path fill="#2D8299" d="M347,395.635l-0.774,0.167c-0.048-0.14-0.089-0.286-0.12-0.437c-0.188-0.874-0.088-1.836,0.273-2.752
	l0.766-0.164c-0.164,0.334-0.282,0.678-0.355,1.026c-0.109,0.52-0.111,1.025-0.01,1.503C346.828,395.211,346.904,395.43,347,395.635
	"/>
<path fill="#2D8299" d="M352.505,399.66l-1.422,0.305l-0.007-0.572c1.373-0.545,2.633-1.589,3.498-2.924
	c0.306-0.473,0.561-0.964,0.762-1.464l0.016,1.796c-0.035,0.055-0.068,0.11-0.104,0.164
	C354.541,398.061,353.586,398.988,352.505,399.66"/>
<path fill="#2D8299" d="M355.372,399.045l-1.79,0.384c0.668-0.53,1.272-1.157,1.776-1.857L355.372,399.045"/>
<path fill="#2D8299" d="M356.533,394.099l-0.949,0.203c0.24-0.805,0.34-1.617,0.289-2.396c-0.019-0.275-0.057-0.541-0.111-0.799
	l0.951-0.203c0.027,0.168,0.051,0.34,0.066,0.514C356.857,392.286,356.771,393.193,356.533,394.099"/>
<path fill="#2D8299" d="M359.719,387.842l-1.545,0.332c-0.49-1.046-1.202-1.947-2.111-2.658l1.999-0.428
	c0.271,0.299,0.519,0.618,0.745,0.957C359.177,386.601,359.48,387.202,359.719,387.842"/>
<path fill="#2D8299" d="M359.789,386.898c-0.184-0.381-0.39-0.744-0.621-1.092c-0.192-0.288-0.399-0.563-0.621-0.823l1.221-0.262
	L359.789,386.898"/>
<path fill="#2D8299" d="M359.747,393.409l-0.977,0.209c0.177-0.955,0.218-1.908,0.12-2.831c-0.014-0.114-0.027-0.229-0.045-0.341
	l0.862-0.185L359.747,393.409"/>
<path fill="#2D8299" d="M358.311,393.717l-1.307,0.281c0.211-0.885,0.283-1.77,0.208-2.619c-0.019-0.192-0.043-0.38-0.075-0.566
	l1.285-0.275c0.014,0.098,0.027,0.197,0.037,0.297C358.561,391.771,358.508,392.743,358.311,393.717"/>
<path fill="#2D8299" d="M349.135,395.178l-0.453,0.098c-0.227-0.205-0.381-0.48-0.451-0.806c-0.121-0.562,0.022-1.196,0.402-1.783
	c0.135-0.208,0.291-0.392,0.465-0.548L349.135,395.178"/>
</svg>
