<?xml version="1.0" encoding="utf-8"?>
<!-- Generator: Adobe Illustrator 15.0.2, SVG Export Plug-In  -->
<!DOCTYPE svg PUBLIC "-//W3C//DTD SVG 1.1//EN" "http://www.w3.org/Graphics/SVG/1.1/DTD/svg11.dtd" [
	<!ENTITY ns_flows "http://ns.adobe.com/Flows/1.0/">
]>
<svg version="1.1"
	 xmlns="http://www.w3.org/2000/svg" xmlns:xlink="http://www.w3.org/1999/xlink" xmlns:a="http://ns.adobe.com/AdobeSVGViewerExtensions/3.0/"
	 x="0px" y="0px" width="8px" height="28px" viewBox="-0.905 -0.863 8 28"
	 overflow="visible" enable-background="new -0.905 -0.863 8 28" xml:space="preserve">
<defs>
</defs>
<path fill="#262262" d="M3.733,2.147c0.095-0.122,0.126-0.19,0.283-0.208c0.118-0.014,0.238-0.024,0.298,0.088
	c0.041,0.077,0.045,0.229,0.069,0.317C4.409,2.441,4.448,2.55,4.477,2.653c0.025,0.095,0.041,0.192,0.089,0.281
	c0.056,0.102,0.142,0.168,0.164,0.283c0.024,0.12-0.015,0.253-0.015,0.372C4.713,3.707,4.753,3.824,4.786,3.932
	c0.072,0.238,0.263,0.438,0.326,0.67c0.061,0.218,0.037,0.484,0.049,0.714c0.024,0.5,0.062,0.987-0.041,1.475
	C4.979,7.448,5.202,8.276,5.219,8.949c0.028,1.113,0.306,2.273,0.463,3.392c0.127,0.91,0.354,1.857,0.439,2.76
	c0.149,1.588-0.043,3.21-0.188,4.727c-0.18,1.891,1.17,4.504-0.688,5.936c-2.728,2.101-2.682-3.611-2.873-4.984
	c-0.322-2.318-0.625-4.627-0.378-7.005c0.095-0.921,0.285-1.846,0.438-2.76c0.125-0.736,0.261-1.487,0.187-2.236
	C2.592,8.535,2.61,8.263,2.525,8.04C2.435,7.803,2.25,7.517,2.097,7.308C1.94,7.095,1.754,6.867,1.532,6.724
	C1.346,6.603,1.118,6.484,1.056,6.267C0.992,6.042,1.047,5.756,1.015,5.52C0.998,5.386,0.941,5.233,0.893,5.107
	C0.842,4.975,0.727,4.946,0.669,4.839c-0.109-0.2,0.014-0.43,0.07-0.627C0.799,4.008,0.744,3.85,0.933,3.7
	c0.221-0.172,0.662,0.038,0.926,0.052c0.257,0.017,0.505,0.075,0.757,0.015c0.388-0.09,0.829-0.234,1.047-0.575
	c0.101-0.157,0.17-0.236,0.159-0.434C3.813,2.562,3.719,2.419,3.778,2.221"/>
<path fill="none" stroke="#00BAC6" stroke-width="0.201" stroke-miterlimit="10" d="M3.733,2.147
	c0.095-0.122,0.126-0.19,0.283-0.208c0.118-0.014,0.238-0.024,0.298,0.088c0.041,0.077,0.045,0.229,0.069,0.317
	C4.409,2.441,4.448,2.55,4.477,2.653c0.025,0.095,0.041,0.192,0.089,0.281c0.056,0.102,0.142,0.168,0.164,0.283
	c0.024,0.12-0.015,0.253-0.015,0.372C4.713,3.707,4.753,3.824,4.786,3.932c0.072,0.238,0.263,0.438,0.326,0.67
	c0.061,0.218,0.037,0.484,0.049,0.714c0.024,0.5,0.062,0.987-0.041,1.475C4.979,7.448,5.202,8.276,5.219,8.949
	c0.028,1.113,0.306,2.273,0.463,3.392c0.127,0.91,0.354,1.857,0.439,2.76c0.149,1.588-0.043,3.21-0.188,4.727
	c-0.18,1.891,1.17,4.504-0.688,5.936c-2.728,2.101-2.682-3.611-2.873-4.984c-0.322-2.318-0.625-4.627-0.378-7.005
	c0.095-0.921,0.285-1.846,0.438-2.76c0.125-0.736,0.261-1.487,0.187-2.236C2.592,8.535,2.61,8.263,2.525,8.04
	C2.435,7.803,2.25,7.517,2.097,7.308C1.94,7.095,1.754,6.867,1.532,6.724C1.346,6.603,1.118,6.484,1.056,6.267
	C0.992,6.042,1.047,5.756,1.015,5.52C0.998,5.386,0.941,5.233,0.893,5.107C0.842,4.975,0.727,4.946,0.669,4.839
	c-0.109-0.2,0.014-0.43,0.07-0.627C0.799,4.008,0.744,3.85,0.933,3.7c0.221-0.172,0.662,0.038,0.926,0.052
	c0.257,0.017,0.505,0.075,0.757,0.015c0.388-0.09,0.829-0.234,1.047-0.575c0.101-0.157,0.17-0.236,0.159-0.434
	C3.813,2.562,3.719,2.419,3.778,2.221"/>
<path fill="#262262" d="M0.461,4.006C0.393,3.952,0.277,3.884,0.224,3.813C-0.047,3.471,0.196,3.01,0.309,2.649
	c0.075-0.234,0.278-0.385,0.462-0.564c0.073-0.073,0.175-0.236,0.266-0.283c0.166-0.086,0.207,0.662,0.178,0.762
	C1.151,2.777,0.958,2.866,0.87,3.059C0.729,3.377,0.573,3.649,0.476,3.992"/>
<path fill="none" stroke="#00BAC6" stroke-width="0.201" stroke-miterlimit="10" d="M0.461,4.006
	C0.393,3.952,0.277,3.884,0.224,3.813C-0.047,3.471,0.196,3.01,0.309,2.649c0.075-0.234,0.278-0.385,0.462-0.564
	c0.073-0.073,0.175-0.236,0.266-0.283c0.166-0.086,0.207,0.662,0.178,0.762C1.151,2.777,0.958,2.866,0.87,3.059
	C0.729,3.377,0.573,3.649,0.476,3.992"/>
<path fill="#99FFE3" d="M3.581,0.709C3.556,0.481,3.35,0.273,3.122,0.247L1.269,0.032C1.042,0.006,0.874,0.171,0.896,0.398
	l0.512,5.338c0.022,0.228,0.227,0.42,0.456,0.428L3.77,6.225c0.228,0.007,0.395-0.174,0.372-0.401L3.581,0.709z"/>
<path fill="none" stroke="#40ABA4" stroke-width="0.059" stroke-miterlimit="10" d="M3.581,0.709
	C3.556,0.481,3.35,0.273,3.122,0.247L1.269,0.032C1.042,0.006,0.874,0.171,0.896,0.398l0.512,5.338
	c0.022,0.228,0.227,0.42,0.456,0.428L3.77,6.225c0.228,0.007,0.395-0.174,0.372-0.401L3.581,0.709z"/>
<polygon fill="#FFFFFF" points="3.485,0.793 1.321,0.557 1.788,5.553 3.998,5.686 "/>
<polygon fill="none" stroke="#6BB1CD" stroke-width="0.058" stroke-miterlimit="10" points="3.485,0.793 1.321,0.557 1.788,5.553 
	3.998,5.686 "/>
<path fill="#262262" d="M0.625,4.794c0.033-0.206-0.187-0.463-0.209-0.669C0.391,3.895,0.594,3.69,0.7,3.501
	c0.1-0.18,0.229-0.456,0.404-0.562c0.192-0.116,0.46-0.122,0.669-0.208C1.945,2.66,2.048,2.614,2.097,2.832
	c0.044,0.191-0.121,0.319-0.268,0.431c-0.128,0.098-0.322,0.15-0.42,0.265C1.307,3.645,1.3,3.829,1.207,3.945
	C1.205,3.922,1.213,3.91,1.219,3.887"/>
<path fill="none" stroke="#00BAC6" stroke-width="0.201" stroke-miterlimit="10" d="M0.625,4.794
	c0.033-0.206-0.187-0.463-0.209-0.669C0.391,3.895,0.594,3.69,0.7,3.501c0.1-0.18,0.229-0.456,0.404-0.562
	c0.192-0.116,0.46-0.122,0.669-0.208C1.945,2.66,2.048,2.614,2.097,2.832c0.044,0.191-0.121,0.319-0.268,0.431
	c-0.128,0.098-0.322,0.15-0.42,0.265C1.307,3.645,1.3,3.829,1.207,3.945C1.205,3.922,1.213,3.91,1.219,3.887"/>
<path fill="#262262" d="M1.027,6.312c0.118-0.117-0.154-0.572-0.228-0.699C0.66,5.372,0.53,5.271,0.595,4.973
	c0.059-0.279,0.398-0.406,0.606-0.584c0.092-0.078,0.126-0.133,0.256-0.126c0.11,0.005,0.264,0.061,0.373,0.086
	c0.21,0.047,0.412,0.013,0.621,0.046c0.09,0.28-0.248,0.468-0.487,0.515C1.896,4.924,1.822,4.9,1.754,4.914
	C1.649,4.932,1.709,4.911,1.632,4.987c-0.098,0.101-0.164,0.21-0.289,0.284C1.357,5.271,1.37,5.27,1.383,5.271"/>
<path fill="none" stroke="#00BAC6" stroke-width="0.201" stroke-miterlimit="10" d="M1.027,6.312
	c0.118-0.117-0.154-0.572-0.228-0.699C0.66,5.372,0.53,5.271,0.595,4.973c0.059-0.279,0.398-0.406,0.606-0.584
	c0.092-0.078,0.126-0.133,0.256-0.126c0.11,0.005,0.264,0.061,0.373,0.086c0.21,0.047,0.412,0.013,0.621,0.046
	c0.09,0.28-0.248,0.468-0.487,0.515C1.896,4.924,1.822,4.9,1.754,4.914C1.649,4.932,1.709,4.911,1.632,4.987
	c-0.098,0.101-0.164,0.21-0.289,0.284C1.357,5.271,1.37,5.27,1.383,5.271"/>
<path fill="none" stroke="#2BBBAE" stroke-width="0.072" stroke-miterlimit="10" d="M2.141,6.766c-0.092,0.092-0.503,0.112-0.557,0"
	/>
<path fill="none" stroke="#2BBBAE" stroke-width="0.072" stroke-miterlimit="10" d="M3.567,6.231
	c0.091,0.23-0.115,0.532,0.119,0.733"/>
</svg>
