<?xml version="1.0" encoding="utf-8"?>
<!-- Generator: Adobe Illustrator 15.0.2, SVG Export Plug-In  -->
<!DOCTYPE svg PUBLIC "-//W3C//DTD SVG 1.1//EN" "http://www.w3.org/Graphics/SVG/1.1/DTD/svg11.dtd" [
	<!ENTITY ns_flows "http://ns.adobe.com/Flows/1.0/">
]>
<svg version="1.1"
	 xmlns="http://www.w3.org/2000/svg" xmlns:xlink="http://www.w3.org/1999/xlink" xmlns:a="http://ns.adobe.com/AdobeSVGViewerExtensions/3.0/"
	 x="0px" y="0px" width="28px" height="76px" viewBox="-0.766 -0.552 28 76"
	 overflow="visible" enable-background="new -0.766 -0.552 28 76" xml:space="preserve">
<defs>
</defs>
<path fill="#99FFE3" stroke="#40ABA4" stroke-width="0.5132" stroke-miterlimit="10" d="M16.309,9.639
	c-0.974-1.732-2.588-3.138-4.657-3.207c-1.66-0.056-3.79-0.56-3.909,1.673c-0.058,1.029,0.925,4.617-1.272,4.153
	c-0.727-0.153-0.563-1.454-1.709-0.871c-0.494,0.251-0.557,0.86-0.643,1.338c-0.201,1.115,0.202,2.346,0.257,3.433
	c0.052,1.028,0.464,3.245-0.977,2.354c-0.755-0.468-0.736-1.986-1.974-1.07c-1.273,0.942-0.521,2.348-0.117,3.455
	c0.523,1.439,0.756,2.994,1.015,4.5c0.15,0.869,0.922,1.883,1,2.724c0.222,2.367-1.515,4.571-1.756,6.926
	c-0.427,4.158,1.701,7.608,1.904,11.657c0.121,2.43,0.193,5.072,0.397,7.566c0.394,4.764,0.709,9.531,1.124,14.293
	c0.258,2.963,0.476,6.236,4.208,5.842c1.524-0.16,3.019-0.779,4.451-1.289c1.497-0.531,3.947-0.931,4.834-2.402
	c0.816-1.357,0.111-3.235-0.177-4.653c-0.834-4.12-1.383-8.289-2.062-12.436c-0.65-3.966-1.842-8.011-1.478-12.061
	c0.227-2.517,1.586-3.924,2.662-6.037c0.5-0.983,0.563-2.436,0.963-3.561c0.504-1.419,0.906-2.788,0.994-4.289
	c0.162-2.813,0.562-5.932,0.157-8.696C19.129,16.145,17.713,12.138,16.309,9.639z"/>
<g>
	<path fill="#99FFE3" d="M13.411,29.942c-0.664,1.102-2.108,1.46-3.21,0.796l-8.814-5.31c-1.102-0.664-1.46-2.108-0.796-3.21
		L13.141,1.386c0.664-1.102,2.108-1.46,3.21-0.796l8.814,5.311c1.102,0.664,1.46,2.108,0.796,3.21L13.411,29.942z"/>
	<path fill="none" stroke="#40ABA4" stroke-width="0.5132" stroke-miterlimit="10" d="M13.411,29.942
		c-0.664,1.102-2.108,1.46-3.21,0.796l-8.814-5.31c-1.102-0.664-1.46-2.108-0.796-3.21L13.141,1.386
		c0.664-1.102,2.108-1.46,3.21-0.796l8.814,5.311c1.102,0.664,1.46,2.108,0.796,3.21L13.411,29.942z"/>
</g>
<rect x="6.611" y="3.738" transform="matrix(0.8565 0.5161 -0.5161 0.8565 9.9893 -4.6043)" fill="#FFFFFF" stroke="#40ABA4" stroke-width="0.6098" stroke-miterlimit="10" width="13.329" height="23.854"/>
<path fill="#99FFE3" stroke="#40ABA4" stroke-width="0.5132" stroke-miterlimit="10" d="M8.611,34.12
	c0.635-0.741,0.956-1.853,1.661-2.591c0.679-0.714,1.734-1.154,2.57-1.612c0.889-0.486,1.759-0.926,2.601-1.411
	c1.148-0.664,1.233-0.81,1.501-2.091c0.251-1.201,0.884-2.269,1.101-3.447c0.244-1.318,0.483-2.388,1.052-3.632
	c0.372-0.817,1.54-2.909,2.878-2.025c1.091,0.721-0.261,4.117-0.151,5.265c0.104,1.072,0.503,1.78,0.292,2.848
	c-0.21,1.06-0.502,1.757-0.545,2.922c-0.038,1.03,0.005,2.186-0.356,3.111c-0.396,1.014-1.308,1.93-1.922,2.819
	c-1.084,1.569-2.795,2.737-3.724,4.366c-0.504,0.882-0.538,1.773-0.541,2.791"/>
</svg>
