<?xml version="1.0" encoding="utf-8"?>
<!-- Generator: Adobe Illustrator 15.0.2, SVG Export Plug-In  -->
<!DOCTYPE svg PUBLIC "-//W3C//DTD SVG 1.1//EN" "http://www.w3.org/Graphics/SVG/1.1/DTD/svg11.dtd" [
	<!ENTITY ns_flows "http://ns.adobe.com/Flows/1.0/">
]>
<svg version="1.1"
	 xmlns="http://www.w3.org/2000/svg" xmlns:xlink="http://www.w3.org/1999/xlink" xmlns:a="http://ns.adobe.com/AdobeSVGViewerExtensions/3.0/"
	 x="0px" y="0px" width="42px" height="109px" viewBox="-0.153 -0.777 42 109"
	 overflow="visible" enable-background="new -0.153 -0.777 42 109" xml:space="preserve">
<defs>
</defs>
<path fill="#99FFE3" stroke="#40ABA4" stroke-width="0.4683" stroke-miterlimit="10" d="M12.738,16.903
	c-0.744-0.961-0.996-1.5-2.225-1.639c-0.934-0.105-1.885-0.181-2.348,0.697c-0.316,0.6-0.355,1.807-0.549,2.496
	c-0.213,0.761-0.518,1.612-0.73,2.43c-0.195,0.749-0.323,1.515-0.706,2.215c-0.432,0.79-1.101,1.32-1.287,2.231
	c-0.194,0.948,0.11,1.986,0.116,2.927c0.006,0.923-0.291,1.844-0.557,2.693c-0.586,1.878-2.073,3.449-2.578,5.269
	c-0.478,1.722-0.285,3.808-0.377,5.62C1.299,45.782,1.002,49.623,1.82,53.46c1.103,5.179-0.635,11.697-0.777,16.994
	c-0.259,9.651-1.15,19.537-0.668,29.179c0.182,3.626,0.893,4.963,4.613,6.329c2.545,0.935,5.968,1.042,8.675,1.163
	c2.618,0.117,6.323,0.534,8.811-0.243c3.583-1.121,3.149-2.773,2.565-5.688c-0.948-4.734-1.239-9.67-2.055-14.484
	c-0.979-5.794-2.053-11.719-1.459-17.613c0.191-1.904,0.054-4.047,0.723-5.803c0.711-1.871,2.17-4.119,3.375-5.764
	c1.232-1.682,2.699-3.461,4.439-4.594c1.465-0.955,3.265-1.891,3.747-3.601c0.503-1.784,0.069-4.027,0.323-5.88
	c0.143-1.055,0.58-2.26,0.967-3.252c0.406-1.039,1.303-1.267,1.76-2.107c0.861-1.585-0.107-3.385-0.555-4.933
	c-0.467-1.615-0.029-2.858-1.527-4.031c-1.734-1.357-5.209,0.299-7.293,0.417c-2.014,0.114-3.965,0.579-5.957,0.111
	c-3.047-0.716-6.516-1.854-8.23-4.531c-0.795-1.241-1.348-1.859-1.262-3.424c0.084-1.535,0.812-2.666,0.352-4.215"/>
<path fill="#99FFE3" stroke="#40ABA4" stroke-width="0.4683" stroke-miterlimit="10" d="M38.496,31.538
	c0.533-0.421,1.447-0.968,1.879-1.516c2.124-2.695,0.209-6.325-0.683-9.165c-0.581-1.851-2.18-3.028-3.624-4.446
	c-0.586-0.576-1.387-1.856-2.109-2.23c-1.309-0.677-1.625,5.219-1.394,6.002c0.495,1.676,2.026,2.377,2.704,3.893
	c1.123,2.51,2.34,4.651,3.109,7.345"/>
<g>
	<path fill="#99FFE3" d="M13.937,5.577c0.196-1.792,1.822-3.428,3.613-3.635l14.58-1.686c1.791-0.207,3.116,1.092,2.944,2.887
		L31.045,45.16c-0.172,1.795-1.787,3.31-3.59,3.366l-15.004,0.472c-1.803,0.057-3.117-1.363-2.921-3.156L13.937,5.577z"/>
	<path fill="none" stroke="#40ABA4" stroke-width="0.4683" stroke-miterlimit="10" d="M13.937,5.577
		c0.196-1.792,1.822-3.428,3.613-3.635l14.58-1.686c1.791-0.207,3.116,1.092,2.944,2.887L31.045,45.16
		c-0.172,1.795-1.787,3.31-3.59,3.366l-15.004,0.472c-1.803,0.057-3.117-1.363-2.921-3.156L13.937,5.577z"/>
</g>
<polygon fill="#FFFFFF" stroke="#6BB1CD" stroke-width="0.4583" stroke-miterlimit="10" points="14.688,6.249 31.729,4.375 
	28.061,43.715 10.652,44.769 "/>
<path fill="#99FFE3" stroke="#40ABA4" stroke-width="0.4683" stroke-miterlimit="10" d="M37.208,37.744
	c-0.271-1.624,1.467-3.647,1.646-5.269c0.198-1.813-1.4-3.436-2.234-4.917c-0.791-1.407-1.814-3.596-3.185-4.42
	c-1.515-0.912-3.62-0.959-5.269-1.639c-1.354-0.559-2.154-0.914-2.546,0.793c-0.347,1.51,0.941,2.514,2.104,3.396
	c1.012,0.767,2.537,1.187,3.307,2.079c0.803,0.928,0.869,2.381,1.586,3.294c0.032-0.184-0.043-0.278-0.093-0.459"/>
<path fill="#99FFE3" stroke="#40ABA4" stroke-width="0.4683" stroke-miterlimit="10" d="M34.047,49.686
	c-0.939-0.926,1.205-4.508,1.782-5.503c1.097-1.892,2.116-2.687,1.612-5.035c-0.473-2.205-3.139-3.204-4.777-4.595
	c-0.723-0.614-0.992-1.047-2.013-0.999c-0.866,0.041-2.073,0.479-2.931,0.673c-1.654,0.376-3.246,0.108-4.896,0.371
	c-0.703,2.198,1.958,3.676,3.846,4.054c0.531,0.106,1.106-0.065,1.639,0.026c0.838,0.144,0.367-0.017,0.961,0.583
	c0.778,0.786,1.299,1.653,2.283,2.233c-0.104-0.005-0.213-0.013-0.316-0.005"/>
<path fill="none" stroke="#2BBBAE" stroke-width="0.5688" stroke-miterlimit="10" d="M25.283,53.268
	c0.713,0.716,3.953,0.875,4.371,0"/>
<path fill="none" stroke="#2BBBAE" stroke-width="0.5688" stroke-miterlimit="10" d="M14.043,49.053
	c-0.715,1.815,0.906,4.191-0.937,5.776"/>
</svg>
