<?xml version="1.0" encoding="utf-8"?>
<!-- Generator: Adobe Illustrator 15.0.2, SVG Export Plug-In  -->
<!DOCTYPE svg PUBLIC "-//W3C//DTD SVG 1.1//EN" "http://www.w3.org/Graphics/SVG/1.1/DTD/svg11.dtd" [
	<!ENTITY ns_flows "http://ns.adobe.com/Flows/1.0/">
]>
<svg version="1.1"
	 xmlns="http://www.w3.org/2000/svg" xmlns:xlink="http://www.w3.org/1999/xlink" xmlns:a="http://ns.adobe.com/AdobeSVGViewerExtensions/3.0/"
	 x="0px" y="0px" width="41px" height="111px" viewBox="-0.903 -0.781 41 111"
	 overflow="visible" enable-background="new -0.903 -0.781 41 111" xml:space="preserve">
<defs>
</defs>
<path fill="#99FFE3" stroke="#40ABA4" stroke-width="0.7566" stroke-miterlimit="10" d="M15.1,14.209
	c1.436-2.554,3.815-4.625,6.867-4.728c2.445-0.082,5.585-0.826,5.761,2.466c0.083,1.518-1.363,6.806,1.876,6.122
	c1.071-0.226,0.83-2.144,2.52-1.284c0.729,0.37,0.82,1.268,0.947,1.972c0.297,1.643-0.299,3.458-0.379,5.061
	c-0.077,1.516-0.684,4.784,1.438,3.469c1.114-0.689,1.087-2.927,2.911-1.578c1.878,1.389,0.768,3.462,0.173,5.093
	c-0.773,2.122-1.115,4.414-1.497,6.633c-0.221,1.281-1.357,2.775-1.474,4.015c-0.326,3.489,2.233,6.738,2.588,10.21
	c0.63,6.129-2.507,11.215-2.807,17.184C33.847,72.428,33.74,76.322,33.438,80c-0.578,7.021-1.044,14.05-1.655,21.07
	c-0.381,4.367-0.701,9.192-6.205,8.611c-2.246-0.236-4.448-1.148-6.56-1.899c-2.207-0.784-5.821-1.372-7.127-3.542
	c-1.205-2.002-0.164-4.77,0.26-6.859c1.23-6.073,2.039-12.22,3.041-18.332c0.959-5.846,2.716-11.809,2.178-17.779
	c-0.333-3.711-2.337-5.785-3.925-8.899c-0.736-1.449-0.83-3.59-1.418-5.249c-0.743-2.092-1.338-4.109-1.466-6.323
	c-0.239-4.147-0.829-8.744-0.231-12.819C10.941,23.8,13.028,17.893,15.1,14.209z"/>
<g>
	<path fill="#99FFE3" d="M19.373,44.14c0.979,1.624,3.108,2.152,4.732,1.173l12.993-7.828c1.623-0.979,2.151-3.108,1.173-4.732
		L19.77,2.043c-0.979-1.624-3.108-2.152-4.732-1.173L2.044,8.699C0.42,9.677-0.108,11.807,0.87,13.431L19.373,44.14z"/>
	<path fill="none" stroke="#40ABA4" stroke-width="0.7566" stroke-miterlimit="10" d="M19.373,44.14
		c0.979,1.624,3.108,2.152,4.732,1.173l12.993-7.828c1.623-0.979,2.151-3.108,1.173-4.732L19.77,2.043
		c-0.979-1.624-3.108-2.152-4.732-1.173L2.044,8.699C0.42,9.677-0.108,11.807,0.87,13.431L19.373,44.14z"/>
</g>
<rect x="9.746" y="5.51" transform="matrix(-0.8565 0.5161 -0.5161 -0.8565 48.2514 32.7711)" fill="#FFFFFF" stroke="#40ABA4" stroke-width="0.899" stroke-miterlimit="10" width="19.65" height="35.164"/>
<path fill="#99FFE3" stroke="#40ABA4" stroke-width="0.7566" stroke-miterlimit="10" d="M26.448,50.299
	c-0.937-1.093-1.41-2.731-2.449-3.82c-1.002-1.052-2.557-1.701-3.789-2.375c-1.31-0.717-2.596-1.365-3.833-2.081
	c-1.693-0.979-1.818-1.194-2.213-3.083c-0.37-1.77-1.304-3.344-1.623-5.082c-0.36-1.943-0.713-3.52-1.551-5.355
	c-0.55-1.204-2.271-4.289-4.242-2.985c-1.607,1.062,0.385,6.069,0.223,7.761c-0.151,1.581-0.74,2.625-0.43,4.199
	c0.309,1.562,0.739,2.59,0.804,4.308c0.056,1.519-0.008,3.222,0.525,4.586c0.585,1.495,1.927,2.844,2.833,4.156
	c1.598,2.313,4.12,4.036,5.489,6.437c0.742,1.3,0.793,2.614,0.799,4.114"/>
</svg>
