<?xml version="1.0" encoding="utf-8"?>
<!-- Generator: Adobe Illustrator 15.0.2, SVG Export Plug-In  -->
<!DOCTYPE svg PUBLIC "-//W3C//DTD SVG 1.1//EN" "http://www.w3.org/Graphics/SVG/1.1/DTD/svg11.dtd" [
	<!ENTITY ns_flows "http://ns.adobe.com/Flows/1.0/">
]>
<svg version="1.1"
	 xmlns="http://www.w3.org/2000/svg" xmlns:xlink="http://www.w3.org/1999/xlink" xmlns:a="http://ns.adobe.com/AdobeSVGViewerExtensions/3.0/"
	 x="0px" y="0px" width="13px" height="37px" viewBox="-0.826 -0.58 13 37"
	 overflow="visible" enable-background="new -0.826 -0.58 13 37" xml:space="preserve">
<defs>
</defs>
<path fill="#262262" d="M5.839,3.392C5.691,3.199,5.641,3.09,5.393,3.063c-0.187-0.021-0.378-0.035-0.472,0.14
	c-0.062,0.12-0.07,0.363-0.109,0.501C4.769,3.856,4.708,4.028,4.664,4.191c-0.038,0.151-0.063,0.305-0.14,0.445
	C4.438,4.795,4.302,4.902,4.266,5.083c-0.039,0.19,0.021,0.399,0.021,0.588c0.002,0.185-0.057,0.37-0.11,0.539
	C4.06,6.588,3.761,6.904,3.659,7.269C3.563,7.615,3.603,8.034,3.584,8.397c-0.04,0.791-0.099,1.562,0.064,2.332
	c0.372,1.759-0.185,3.679-0.703,5.317c-0.269,0.852-0.521,1.724-0.702,2.595c-0.266,1.28-0.816,2.596-0.922,3.899
	c-0.043,0.538,0.096,1.05,0.125,1.584c0.044,0.804,0.057,1.673-0.127,2.442c-0.419,1.765-1.733,4.222-1.001,6.042
	c0.58,1.438,2.121,3.877,3.878,2.534c0.361-0.275,0.548-0.832,0.67-1.266c0.423-1.487,0.544-3.251,0.703-4.799
	C5.746,27.364,6.375,25.679,6.559,24c0.19-1.755,0.243-3.52,0.388-5.278c0.134-1.632,0.493-3.228,0.657-4.854
	c0.038-0.383,0.01-0.812,0.145-1.164c0.144-0.376,0.436-0.826,0.677-1.157c0.247-0.337,0.543-0.695,0.892-0.922
	c0.295-0.191,0.655-0.379,0.752-0.723c0.102-0.358,0.014-0.808,0.063-1.18c0.03-0.212,0.117-0.455,0.194-0.652
	c0.082-0.209,0.262-0.255,0.354-0.424c0.174-0.318-0.021-0.679-0.111-0.99c-0.093-0.325-0.006-0.573-0.306-0.81
	c-0.35-0.271-1.045,0.061-1.465,0.084C8.396,5.953,8.003,6.046,7.604,5.953C6.992,5.809,6.295,5.58,5.951,5.043
	C5.793,4.794,5.683,4.669,5.697,4.356C5.716,4.047,5.86,3.821,5.77,3.51"/>
<path fill="none" stroke="#00BAC6" stroke-width="0.201" stroke-miterlimit="10" d="M5.839,3.392
	C5.691,3.199,5.641,3.09,5.393,3.063c-0.187-0.021-0.378-0.035-0.472,0.14c-0.062,0.12-0.07,0.363-0.109,0.501
	C4.769,3.856,4.708,4.028,4.664,4.191c-0.038,0.151-0.063,0.305-0.14,0.445C4.438,4.795,4.302,4.902,4.266,5.083
	c-0.039,0.19,0.021,0.399,0.021,0.588c0.002,0.185-0.057,0.37-0.11,0.539C4.06,6.588,3.761,6.904,3.659,7.269
	C3.563,7.615,3.603,8.034,3.584,8.397c-0.04,0.791-0.099,1.562,0.064,2.332c0.372,1.759-0.185,3.679-0.703,5.317
	c-0.269,0.852-0.521,1.724-0.702,2.595c-0.266,1.28-0.816,2.596-0.922,3.899c-0.043,0.538,0.096,1.05,0.125,1.584
	c0.044,0.804,0.057,1.673-0.127,2.442c-0.419,1.765-1.733,4.222-1.001,6.042c0.58,1.438,2.121,3.877,3.878,2.534
	c0.361-0.275,0.548-0.832,0.67-1.266c0.423-1.487,0.544-3.251,0.703-4.799C5.746,27.364,6.375,25.679,6.559,24
	c0.19-1.755,0.243-3.52,0.388-5.278c0.134-1.632,0.493-3.228,0.657-4.854c0.038-0.383,0.01-0.812,0.145-1.164
	c0.144-0.376,0.436-0.826,0.677-1.157c0.247-0.337,0.543-0.695,0.892-0.922c0.295-0.191,0.655-0.379,0.752-0.723
	c0.102-0.358,0.014-0.808,0.063-1.18c0.03-0.212,0.117-0.455,0.194-0.652c0.082-0.209,0.262-0.255,0.354-0.424
	c0.174-0.318-0.021-0.679-0.111-0.99c-0.093-0.325-0.006-0.573-0.306-0.81c-0.35-0.271-1.045,0.061-1.465,0.084
	C8.396,5.953,8.003,6.046,7.604,5.953C6.992,5.809,6.295,5.58,5.951,5.043C5.793,4.794,5.683,4.669,5.697,4.356
	C5.716,4.047,5.86,3.821,5.77,3.51"/>
<path fill="#262262" d="M11.009,6.33c0.107-0.086,0.29-0.194,0.376-0.304c0.427-0.542,0.042-1.271-0.135-1.84
	c-0.117-0.372-0.438-0.607-0.729-0.893c-0.117-0.115-0.277-0.372-0.422-0.447C9.835,2.709,9.771,3.892,9.818,4.05
	c0.1,0.337,0.406,0.478,0.543,0.781c0.226,0.504,0.471,0.934,0.624,1.474"/>
<path fill="none" stroke="#00BAC6" stroke-width="0.201" stroke-miterlimit="10" d="M11.009,6.33
	c0.107-0.086,0.29-0.194,0.376-0.304c0.427-0.542,0.042-1.271-0.135-1.84c-0.117-0.372-0.438-0.607-0.729-0.893
	c-0.117-0.115-0.277-0.372-0.422-0.447C9.835,2.709,9.771,3.892,9.818,4.05c0.1,0.337,0.406,0.478,0.543,0.781
	c0.226,0.504,0.471,0.934,0.624,1.474"/>
<path fill="#99FFE3" d="M6.081,1.12c0.038-0.36,0.364-0.688,0.725-0.729l2.925-0.34c0.36-0.041,0.626,0.22,0.591,0.58L9.514,9.062
	c-0.035,0.36-0.359,0.665-0.722,0.676l-3.01,0.096C5.421,9.844,5.156,9.56,5.195,9.2L6.081,1.12z"/>
<path fill="none" stroke="#40ABA4" stroke-width="0.094" stroke-miterlimit="10" d="M6.081,1.12c0.038-0.36,0.364-0.688,0.725-0.729
	l2.925-0.34c0.36-0.041,0.626,0.22,0.591,0.58L9.514,9.062c-0.035,0.36-0.359,0.665-0.722,0.676l-3.01,0.096
	C5.421,9.844,5.156,9.56,5.195,9.2L6.081,1.12z"/>
<polygon fill="#FFFFFF" points="6.231,1.253 9.651,0.877 8.915,8.773 5.421,8.984 "/>
<polygon fill="none" stroke="#6BB1CD" stroke-width="0.092" stroke-miterlimit="10" points="6.231,1.253 9.651,0.877 8.915,8.773 
	5.421,8.984 "/>
<path fill="#262262" d="M10.749,7.575c-0.054-0.326,0.295-0.732,0.33-1.057c0.04-0.365-0.278-0.69-0.446-0.987
	c-0.159-0.283-0.365-0.722-0.64-0.888C9.688,4.46,9.268,4.451,8.937,4.314C8.664,4.203,8.503,4.13,8.425,4.473
	c-0.07,0.305,0.188,0.506,0.423,0.682c0.203,0.154,0.508,0.239,0.664,0.418c0.16,0.186,0.174,0.478,0.316,0.661
	c0.007-0.037-0.009-0.057-0.018-0.093"/>
<path fill="none" stroke="#00BAC6" stroke-width="0.201" stroke-miterlimit="10" d="M10.749,7.575
	c-0.054-0.326,0.295-0.732,0.33-1.057c0.04-0.365-0.278-0.69-0.446-0.987c-0.159-0.283-0.365-0.722-0.64-0.888
	C9.688,4.46,9.268,4.451,8.937,4.314C8.664,4.203,8.503,4.13,8.425,4.473c-0.07,0.305,0.188,0.506,0.423,0.682
	c0.203,0.154,0.508,0.239,0.664,0.418c0.16,0.186,0.174,0.478,0.316,0.661c0.007-0.037-0.009-0.057-0.018-0.093"/>
<path fill="#262262" d="M10.114,9.971c-0.187-0.186,0.243-0.905,0.358-1.104c0.221-0.38,0.425-0.539,0.324-1.011
	c-0.095-0.441-0.629-0.642-0.958-0.922c-0.146-0.123-0.2-0.209-0.404-0.2C9.261,6.742,9.019,6.831,8.847,6.869
	C8.514,6.945,8.195,6.891,7.863,6.943C7.722,7.385,8.257,7.681,8.636,7.757c0.105,0.021,0.22-0.014,0.329,0.005
	c0.168,0.029,0.073-0.003,0.192,0.117c0.155,0.158,0.261,0.332,0.457,0.448C9.594,8.325,9.571,8.325,9.553,8.325"/>
<path fill="none" stroke="#00BAC6" stroke-width="0.201" stroke-miterlimit="10" d="M10.114,9.971
	c-0.187-0.186,0.243-0.905,0.358-1.104c0.221-0.38,0.425-0.539,0.324-1.011c-0.095-0.441-0.629-0.642-0.958-0.922
	c-0.146-0.123-0.2-0.209-0.404-0.2C9.261,6.742,9.019,6.831,8.847,6.869C8.514,6.945,8.195,6.891,7.863,6.943
	C7.722,7.385,8.257,7.681,8.636,7.757c0.105,0.021,0.22-0.014,0.329,0.005c0.168,0.029,0.073-0.003,0.192,0.117
	c0.155,0.158,0.261,0.332,0.457,0.448C9.594,8.325,9.571,8.325,9.553,8.325"/>
<path fill="none" stroke="#2BBBAE" stroke-width="0.114" stroke-miterlimit="10" d="M8.356,10.689c0.143,0.145,0.793,0.177,0.877,0"
	/>
<path fill="none" stroke="#2BBBAE" stroke-width="0.114" stroke-miterlimit="10" d="M6.101,9.845
	c-0.143,0.363,0.183,0.841-0.187,1.159"/>
</svg>
