<?xml version="1.0" encoding="utf-8"?>
<!-- Generator: Adobe Illustrator 15.0.2, SVG Export Plug-In  -->
<!DOCTYPE svg PUBLIC "-//W3C//DTD SVG 1.1//EN" "http://www.w3.org/Graphics/SVG/1.1/DTD/svg11.dtd" [
	<!ENTITY ns_flows "http://ns.adobe.com/Flows/1.0/">
]>
<svg version="1.1"
	 xmlns="http://www.w3.org/2000/svg" xmlns:xlink="http://www.w3.org/1999/xlink" xmlns:a="http://ns.adobe.com/AdobeSVGViewerExtensions/3.0/"
	 x="0px" y="0px" width="27px" height="69px" viewBox="-0.608 -0.372 27 69"
	 overflow="visible" enable-background="new -0.608 -0.372 27 69" xml:space="preserve">
<defs>
</defs>
<path fill="#99FFE3" stroke="#40ABA4" stroke-width="0.2964" stroke-miterlimit="10" d="M18.251,10.699
	c0.471-0.608,0.631-0.95,1.407-1.038c0.592-0.067,1.194-0.115,1.486,0.441c0.199,0.379,0.226,1.143,0.347,1.58
	c0.135,0.481,0.328,1.021,0.463,1.538c0.124,0.474,0.204,0.958,0.448,1.402c0.272,0.5,0.696,0.835,0.813,1.412
	c0.123,0.6-0.069,1.257-0.072,1.853c-0.005,0.584,0.183,1.167,0.351,1.704c0.372,1.189,1.313,2.183,1.633,3.335
	c0.301,1.09,0.181,2.41,0.239,3.557c0.125,2.495,0.312,4.926-0.205,7.354c-0.697,3.278,0.402,7.403,0.492,10.757
	c0.164,6.107,0.729,12.365,0.423,18.467c-0.115,2.295-0.565,3.142-2.92,4.006c-1.611,0.592-3.777,0.66-5.491,0.736
	c-1.657,0.074-4.003,0.339-5.576-0.154c-2.268-0.709-1.993-1.754-1.623-3.6c0.6-2.996,0.784-6.12,1.3-9.168
	c0.62-3.666,1.3-7.416,0.924-11.147c-0.121-1.206-0.034-2.562-0.458-3.673c-0.449-1.184-1.374-2.607-2.136-3.646
	c-0.78-1.065-1.708-2.192-2.81-2.909c-0.929-0.604-2.066-1.197-2.371-2.28c-0.319-1.129-0.045-2.548-0.205-3.721
	c-0.09-0.667-0.367-1.431-0.612-2.059c-0.257-0.657-0.824-0.802-1.114-1.334c-0.544-1.003,0.068-2.142,0.351-3.122
	c0.295-1.022,0.02-1.809,0.968-2.552c1.098-0.859,3.297,0.19,4.616,0.265c1.274,0.072,2.509,0.366,3.771,0.07
	c1.928-0.453,4.123-1.173,5.209-2.868c0.502-0.786,0.853-1.177,0.798-2.167c-0.052-0.972-0.514-1.688-0.222-2.668"/>
<path fill="#99FFE3" stroke="#40ABA4" stroke-width="0.2964" stroke-miterlimit="10" d="M1.948,19.961
	c-0.339-0.267-0.916-0.613-1.189-0.959c-1.344-1.706-0.132-4.003,0.432-5.801c0.368-1.171,1.38-1.916,2.295-2.813
	c0.37-0.364,0.876-1.175,1.335-1.412c0.827-0.429,1.028,3.303,0.882,3.798c-0.314,1.062-1.282,1.505-1.711,2.464
	c-0.711,1.589-1.481,2.944-1.969,4.649"/>
<g>
	<path fill="#99FFE3" d="M17.493,3.53c-0.124-1.134-1.153-2.169-2.287-2.301L5.979,0.162C4.844,0.031,4.006,0.854,4.115,1.989
		l2.547,26.594c0.11,1.136,1.133,2.095,2.273,2.131l9.497,0.298c1.141,0.036,1.973-0.863,1.849-1.997L17.493,3.53z"/>
	<path fill="none" stroke="#40ABA4" stroke-width="0.2964" stroke-miterlimit="10" d="M17.493,3.53
		c-0.124-1.134-1.153-2.169-2.287-2.301L5.979,0.162C4.844,0.031,4.006,0.854,4.115,1.989l2.547,26.594
		c0.11,1.136,1.133,2.095,2.273,2.131l9.497,0.298c1.141,0.036,1.973-0.863,1.849-1.997L17.493,3.53z"/>
</g>
<polygon fill="#FFFFFF" stroke="#6BB1CD" stroke-width="0.29" stroke-miterlimit="10" points="17.017,3.955 6.231,2.769 
	8.553,27.668 19.57,28.335 "/>
<path fill="#99FFE3" stroke="#40ABA4" stroke-width="0.2964" stroke-miterlimit="10" d="M2.764,23.889
	c0.171-1.028-0.929-2.309-1.042-3.335c-0.126-1.148,0.887-2.175,1.414-3.112c0.502-0.891,1.148-2.276,2.016-2.798
	c0.958-0.577,2.292-0.607,3.335-1.038c0.856-0.353,1.364-0.578,1.612,0.502c0.219,0.956-0.598,1.591-1.333,2.149
	c-0.641,0.485-1.605,0.751-2.093,1.316c-0.508,0.587-0.55,1.507-1.004,2.085c-0.021-0.116,0.026-0.176,0.059-0.291"/>
<path fill="#99FFE3" stroke="#40ABA4" stroke-width="0.2964" stroke-miterlimit="10" d="M4.765,31.448
	c0.595-0.586-0.764-2.854-1.128-3.483c-0.695-1.197-1.34-1.7-1.021-3.187c0.299-1.396,1.986-2.027,3.023-2.908
	c0.456-0.389,0.627-0.663,1.272-0.632c0.551,0.026,1.312,0.303,1.855,0.426c1.048,0.238,2.056,0.068,3.1,0.234
	c0.445,1.392-1.238,2.327-2.434,2.566c-0.338,0.067-0.7-0.042-1.038,0.016c-0.529,0.091-0.231-0.011-0.607,0.369
	c-0.493,0.498-0.822,1.046-1.445,1.414c0.065-0.004,0.134-0.009,0.2-0.004"/>
<path fill="none" stroke="#2BBBAE" stroke-width="0.36" stroke-miterlimit="10" d="M10.312,33.715c-0.451,0.454-2.503,0.554-2.767,0
	"/>
<path fill="none" stroke="#2BBBAE" stroke-width="0.36" stroke-miterlimit="10" d="M17.426,31.047
	c0.453,1.149-0.575,2.653,0.593,3.656"/>
</svg>
