<?xml version="1.0" encoding="utf-8"?>
<!-- Generator: Adobe Illustrator 15.0.2, SVG Export Plug-In  -->
<!DOCTYPE svg PUBLIC "-//W3C//DTD SVG 1.1//EN" "http://www.w3.org/Graphics/SVG/1.1/DTD/svg11.dtd" [
	<!ENTITY ns_flows "http://ns.adobe.com/Flows/1.0/">
]>
<svg version="1.1"
	 xmlns="http://www.w3.org/2000/svg" xmlns:xlink="http://www.w3.org/1999/xlink" xmlns:a="http://ns.adobe.com/AdobeSVGViewerExtensions/3.0/"
	 x="0px" y="0px" width="228px" height="132px" viewBox="-0.638 -0.903 228 132"
	 overflow="visible" enable-background="new -0.638 -0.903 228 132" xml:space="preserve">
<defs>
</defs>
<path d="M177.614,49.959V0l-64.037,64.037L49.541,0v49.959L0,0.267v130.056h12.057V29.377l37.484,37.662v63.293l12.15-0.018v-51.2
	l51.876,51.772v0.02l0.01-0.009l0.01,0.009v-0.02l51.876-51.772v51.2l12.151,0.018V67.039l37.482-37.662v100.946h12.058V0.267
	L177.614,49.959z M165.463,62.037l-51.886,51.808L61.691,62.037V29.204l51.876,51.875v0.02l0.01-0.01l0.01,0.01v-0.02l51.876-51.875
	V62.037z"/>
</svg>
