<?xml version="1.0" encoding="utf-8"?>
<!-- Generator: Adobe Illustrator 15.0.2, SVG Export Plug-In  -->
<!DOCTYPE svg PUBLIC "-//W3C//DTD SVG 1.1//EN" "http://www.w3.org/Graphics/SVG/1.1/DTD/svg11.dtd" [
	<!ENTITY ns_flows "http://ns.adobe.com/Flows/1.0/">
]>
<svg version="1.1"
	 xmlns="http://www.w3.org/2000/svg" xmlns:xlink="http://www.w3.org/1999/xlink" xmlns:a="http://ns.adobe.com/AdobeSVGViewerExtensions/3.0/"
	 x="0px" y="0px" width="370px" height="52px" viewBox="-0.074 -0.187 370 52"
	 overflow="visible" enable-background="new -0.074 -0.187 370 52" xml:space="preserve">
<defs>
</defs>
<polygon fill="#FFFFFF" points="3.312,50.894 0.808,48.391 15.576,33.618 0,18.037 17.617,0.41 20.122,2.912 5.004,18.037 
	20.58,33.618 "/>
<polygon fill="#FFFFFF" points="46.104,50.913 26.256,50.913 26.256,0.398 29.796,0.398 29.796,47.374 42.564,47.374 42.564,0.398 
	46.104,0.398 "/>
<polygon fill="#FFFFFF" points="164.129,50.913 147.823,50.913 148.006,0.555 164.303,0.555 164.303,4.094 151.531,4.094 
	151.375,47.374 164.129,47.374 "/>
<polygon fill="#FFFFFF" points="195.419,51.401 177.378,33.358 188.673,21.833 173.467,8.223 173.467,50.911 169.927,50.911 
	169.927,0.303 193.791,21.666 182.357,33.333 195.429,46.406 242.233,0 242.233,50.911 238.693,50.911 238.693,8.495 "/>
<polygon fill="#FFFFFF" points="369.344,50.913 365.804,50.913 365.804,8.561 345.868,28.51 324.458,50.536 321.92,48.069 
	343.347,26.025 369.344,0.012 "/>
<polygon fill="#FFFFFF" points="297.479,51.021 269.337,25.843 250.861,8.359 250.861,50.913 247.321,50.913 247.321,0.136 
	271.733,23.239 293.938,43.104 293.938,0.45 297.479,0.45 "/>
<polygon fill="#FFFFFF" points="349.213,50.926 297.688,50.926 322.867,26.463 345.103,4.094 302.537,4.094 302.537,0.555 
	353.613,0.555 325.355,28.979 306.412,47.386 349.213,47.386 "/>
<rect x="149.6" y="24.305" fill="#FFFFFF" width="14.528" height="3.54"/>
<path fill="#FFFFFF" d="M138.691,50.86l0.052-41.744l-16.557,16.511l-0.016,25.235l-3.579-0.003l0.052-21.595L96.899,50.843
	L75.317,29.228l-0.088,21.682l-3.581-0.047l0.051-25.199L55.217,9.08l-0.088,41.831l-3.541-0.051l0.051-50.41L71.612,20.61
	l0.087-20.271l25.2,25.324l25.359-25.288l-0.088,20.199l20.151-20.087l-0.088,50.424L138.691,50.86z M75.229,24.17l21.67,21.662
	l21.729-21.625l0.016-15.157L96.899,30.671L75.229,8.926V24.17z"/>
</svg>
