<?xml version="1.0" encoding="utf-8"?>
<!-- Generator: Adobe Illustrator 15.0.2, SVG Export Plug-In  -->
<!DOCTYPE svg PUBLIC "-//W3C//DTD SVG 1.1//EN" "http://www.w3.org/Graphics/SVG/1.1/DTD/svg11.dtd" [
	<!ENTITY ns_flows "http://ns.adobe.com/Flows/1.0/">
]>
<svg version="1.1"
	 xmlns="http://www.w3.org/2000/svg" xmlns:xlink="http://www.w3.org/1999/xlink" xmlns:a="http://ns.adobe.com/AdobeSVGViewerExtensions/3.0/"
	 x="0px" y="0px" width="108px" height="58px" viewBox="-0.931 -0.653 108 58"
	 overflow="visible" enable-background="new -0.931 -0.653 108 58" xml:space="preserve">
<defs>
</defs>
<path fill="#262262" d="M0.315,56.562h106.101c0,0-44.157-34.676-52.31-53.486C45.173,21.887,0.315,56.562,0.315,56.562"/>
<path fill="none" stroke="#2D8299" stroke-width="0.215" stroke-miterlimit="10" d="M0.315,56.562h106.101
	c0,0-44.157-34.676-52.31-53.486C45.173,21.887,0.315,56.562,0.315,56.562z"/>
<path fill="#DAFAD0" d="M16.932,56.562c0,0,33.497-35.373,37.174-53.486C49.31,19.968,8.481,56.562,8.481,56.562H16.932z"/>
<path fill="#DAFAD0" d="M35.05,56.562c0,0,17.008-37.443,19.057-53.486c-2.049,13.737-27.505,53.486-27.505,53.486H35.05z"/>
<path fill="#DAFAD0" d="M50.507,56.562c0,0,3.6-37.646,3.6-53.486C52.64,17.084,42.058,56.562,42.058,56.562H50.507z"/>
<path fill="#DAFAD0" d="M89.657,56.562c0,0-31.971-35.373-35.649-53.486c4.797,16.892,44.099,53.486,44.099,53.486H89.657z"/>
<path fill="#DAFAD0" d="M71.536,56.562c0,0-15.479-37.443-17.528-53.486c2.05,13.737,25.979,53.486,25.979,53.486H71.536z"/>
<path fill="#DAFAD0" d="M56.083,56.562c0,0-1.668-36.764-2.076-53.486c1.49,13.94,10.525,53.486,10.525,53.486H56.083z"/>
<polyline fill="none" stroke="#2D8299" stroke-width="0.215" stroke-miterlimit="10" points="53.351,3.213 53.351,0.771 
	54.052,0.432 "/>
<line fill="none" stroke="#2D8299" stroke-width="0.215" stroke-miterlimit="10" x1="53.351" y1="1.575" x2="54.052" y2="1.266"/>
<line fill="none" stroke="#2D8299" stroke-width="0.215" stroke-miterlimit="10" x1="53.351" y1="2.33" x2="54.052" y2="2.021"/>
<line fill="none" stroke="#2D8299" stroke-width="0.215" stroke-miterlimit="10" x1="54.052" y1="0.432" x2="54.013" y2="2.843"/>
<polyline fill="none" stroke="#2D8299" stroke-width="0.215" stroke-miterlimit="10" points="54.767,3.213 54.767,0.771 
	54.064,0.432 "/>
<line fill="none" stroke="#2D8299" stroke-width="0.215" stroke-miterlimit="10" x1="54.767" y1="1.575" x2="54.064" y2="1.266"/>
<line fill="none" stroke="#2D8299" stroke-width="0.215" stroke-miterlimit="10" x1="54.767" y1="2.33" x2="54.064" y2="2.021"/>
<line fill="none" stroke="#2D8299" stroke-width="0.215" stroke-miterlimit="10" x1="54.064" y1="0.432" x2="54.103" y2="2.843"/>
<path fill="#262262" d="M55.497,5.586c0-1.646-0.881-2.979-1.43-2.979c-0.548,0-1.427,1.333-1.427,2.979
	c0,0,0.605-0.079,1.427-0.079C54.893,5.507,55.497,5.586,55.497,5.586"/>
<path fill="none" stroke="#2D8299" stroke-width="0.215" stroke-miterlimit="10" d="M55.497,5.586c0-1.646-0.881-2.979-1.43-2.979
	c-0.548,0-1.427,1.333-1.427,2.979c0,0,0.605-0.079,1.427-0.079C54.893,5.507,55.497,5.586,55.497,5.586z"/>
<polygon fill="#2D8299" points="53.351,0.771 53.351,0.432 54.034,0 54.767,0.432 54.767,0.771 54.034,0.432 "/>
</svg>
