<?xml version="1.0" encoding="utf-8"?>
<!-- Generator: Adobe Illustrator 15.0.2, SVG Export Plug-In  -->
<!DOCTYPE svg PUBLIC "-//W3C//DTD SVG 1.1//EN" "http://www.w3.org/Graphics/SVG/1.1/DTD/svg11.dtd" [
	<!ENTITY ns_flows "http://ns.adobe.com/Flows/1.0/">
]>
<svg version="1.1"
	 xmlns="http://www.w3.org/2000/svg" xmlns:xlink="http://www.w3.org/1999/xlink" xmlns:a="http://ns.adobe.com/AdobeSVGViewerExtensions/3.0/"
	 x="0px" y="0px" width="7px" height="69px" viewBox="-0.246 -0.356 7 69"
	 overflow="visible" enable-background="new -0.246 -0.356 7 69" xml:space="preserve">
<defs>
</defs>
<polygon fill="#FDF8D7" points="0.196,21.072 2.491,8.48 4.692,21.248 "/>
<polygon fill="none" stroke="#FF345C" stroke-width="0.124" stroke-miterlimit="10" points="0.196,21.072 2.491,8.48 4.692,21.248 
	"/>
<rect x="0.644" y="21.248" fill="#FDF8D7" width="3.389" height="46.583"/>
<rect x="0.644" y="21.248" fill="none" stroke="#FF345C" stroke-width="0.124" stroke-miterlimit="10" width="3.389" height="46.583"/>
<rect x="2.639" y="0.016" fill="#6BB1CD" width="1.174" height="2.054"/>
<rect x="3.812" y="0.016" fill="#F4F4F4" width="0.837" height="2.054"/>
<rect x="4.649" y="0.345" fill="#FF345C" width="1.146" height="2.054"/>
<line fill="none" stroke="#FF345C" stroke-width="0.136" stroke-miterlimit="10" x1="2.421" y1="0" x2="2.421" y2="9.198"/>
<path fill="#FFBD9E" d="M4.888,21.179c-0.001,0.195-0.112,0.353-0.247,0.351l-4.399-0.033c-0.135,0-0.243-0.16-0.241-0.354
	c0.002-0.195,0.112-0.352,0.247-0.351l4.399,0.033C4.781,20.826,4.889,20.985,4.888,21.179"/>
<line fill="none" stroke="#FCC7AB" stroke-width="0.059" stroke-miterlimit="10" x1="2.438" y1="9.113" x2="1.712" y2="20.874"/>
<line fill="none" stroke="#FCC7AB" stroke-width="0.059" stroke-miterlimit="10" x1="2.438" y1="9.113" x2="3.666" y2="21.029"/>
</svg>
