<?xml version="1.0" encoding="utf-8"?>
<!-- Generator: Adobe Illustrator 15.0.2, SVG Export Plug-In  -->
<!DOCTYPE svg PUBLIC "-//W3C//DTD SVG 1.1//EN" "http://www.w3.org/Graphics/SVG/1.1/DTD/svg11.dtd" [
	<!ENTITY ns_flows "http://ns.adobe.com/Flows/1.0/">
]>
<svg version="1.1"
	 xmlns="http://www.w3.org/2000/svg" xmlns:xlink="http://www.w3.org/1999/xlink" xmlns:a="http://ns.adobe.com/AdobeSVGViewerExtensions/3.0/"
	 x="0px" y="0px" width="28px" height="66px" viewBox="-0.248 -0.717 28 66"
	 overflow="visible" enable-background="new -0.248 -0.717 28 66" xml:space="preserve">
<defs>
</defs>
<polyline fill="#FDF8D7" points="5.581,19.507 5.581,18.514 6.163,14.977 6.753,17.901 6.753,20.402 "/>
<polyline fill="none" stroke="#FF345C" stroke-width="0.101" stroke-miterlimit="10" points="5.581,19.507 5.581,18.514 
	6.163,14.977 6.753,17.901 6.753,20.402 "/>
<path fill="#FDF8D7" d="M13.062,22.345c0,0,0.097-2.012,0-2.206c-0.098-0.194-0.357-0.161-0.389-0.421
	c-0.033-0.261-0.195-0.39-0.195-0.39v-0.876l-0.683-3.827l-0.681,3.924l0.036,1.106c-0.116,0.086-0.252,0.365-0.275,0.502
	c-0.048-0.183-0.277-0.587-0.396-0.598c-0.125-0.011-0.316,0.365-0.345,0.531c-0.048-0.184-0.278-0.588-0.398-0.598
	c-0.115-0.011-0.291,0.317-0.336,0.496c-0.065-0.196-0.274-0.552-0.387-0.562c-0.134-0.013-0.349,0.429-0.348,0.566
	c0,0.064,0.001,0.185,0.003,0.294l-0.181-0.02v-0.649c0-0.259-0.356-0.485-0.356-0.485v-1.071l-0.778-3.795L6.704,18.16v1.103
	L6.51,19.296c-0.292,0-0.292,1.07-0.292,1.07l-0.082,0.005c-0.005-0.109-0.012-0.247-0.016-0.319
	c-0.006-0.133-0.347-0.58-0.506-0.573c-0.146,0.008-0.359,0.398-0.387,0.562c-0.064-0.17-0.35-0.527-0.493-0.521
	c-0.147,0.008-0.36,0.397-0.387,0.562c-0.064-0.17-0.351-0.527-0.493-0.52c-0.137,0.006-0.332,0.349-0.379,0.526
	c-0.084-0.179-0.345-0.492-0.479-0.486C2.837,19.61,2.6,20.068,2.605,20.2c0.004,0.073,0.011,0.22,0.017,0.338
	c-0.076-0.226-0.102-0.983-0.102-0.983v-1.2L1.84,14.527l-0.682,3.957v1.07c-0.098,0.033-0.325,0.357-0.325,0.357
	c-0.064-0.162-0.34-0.065-0.34-0.065v0.94v1.572l-0.356,0.357l0.372,0.374v5.092l-0.438,0.438l0.535,0.536v33.562h12.569v-39.58
	l0.341-0.341L13.062,22.345z"/>
<path fill="none" stroke="#FF345C" stroke-width="0.101" stroke-miterlimit="10" d="M13.062,22.345c0,0,0.097-2.012,0-2.206
	c-0.098-0.194-0.357-0.161-0.389-0.421c-0.033-0.261-0.195-0.39-0.195-0.39v-0.876l-0.683-3.827l-0.681,3.924l0.036,1.106
	c-0.116,0.086-0.252,0.365-0.275,0.502c-0.048-0.183-0.277-0.587-0.396-0.598c-0.125-0.011-0.316,0.365-0.345,0.531
	c-0.048-0.184-0.278-0.588-0.398-0.598c-0.115-0.011-0.291,0.317-0.336,0.496c-0.065-0.196-0.274-0.552-0.387-0.562
	c-0.134-0.013-0.349,0.429-0.348,0.566c0,0.064,0.001,0.185,0.003,0.294l-0.181-0.02v-0.649c0-0.259-0.356-0.485-0.356-0.485v-1.071
	l-0.778-3.795L6.704,18.16v1.103L6.51,19.296c-0.292,0-0.292,1.07-0.292,1.07l-0.082,0.005c-0.005-0.109-0.012-0.247-0.016-0.319
	c-0.006-0.133-0.347-0.58-0.506-0.573c-0.146,0.008-0.359,0.398-0.387,0.562c-0.064-0.17-0.35-0.527-0.493-0.521
	c-0.147,0.008-0.36,0.397-0.387,0.562c-0.064-0.17-0.351-0.527-0.493-0.52c-0.137,0.006-0.332,0.349-0.379,0.526
	c-0.084-0.179-0.345-0.492-0.479-0.486C2.837,19.61,2.6,20.068,2.605,20.2c0.004,0.073,0.011,0.22,0.017,0.338
	c-0.076-0.226-0.102-0.983-0.102-0.983v-1.2L1.84,14.527l-0.682,3.957v1.07c-0.098,0.033-0.325,0.357-0.325,0.357
	c-0.064-0.162-0.34-0.065-0.34-0.065v0.94v1.572l-0.356,0.357l0.372,0.374v5.092l-0.438,0.438l0.535,0.536v33.562h12.569v-39.58
	l0.341-0.341L13.062,22.345z"/>
<path fill="#FFBD9E" d="M3.138,21.368c0-0.01,0-0.02,0-0.03c0-0.193-0.059-0.351-0.132-0.351s-0.132,0.157-0.132,0.351
	c0,0.048,0.005,0.093,0.011,0.134L3.138,21.368z"/>
<path fill="#FFBD9E" d="M3.614,21.352c0-0.011,0.002-0.021,0.002-0.031c0-0.193-0.06-0.351-0.133-0.351
	c-0.072,0-0.132,0.157-0.132,0.351c0,0.048,0.004,0.094,0.011,0.134L3.614,21.352z"/>
<path fill="#FFBD9E" d="M4.091,21.333c0-0.01,0.002-0.02,0.002-0.03c0-0.193-0.06-0.351-0.133-0.351
	c-0.072,0-0.132,0.157-0.132,0.351c0,0.048,0.004,0.092,0.011,0.134L4.091,21.333z"/>
<path fill="#FFBD9E" d="M4.568,21.315c0-0.011,0.001-0.02,0.001-0.031c0-0.193-0.059-0.35-0.132-0.35s-0.132,0.156-0.132,0.35
	c0,0.049,0.005,0.094,0.012,0.136L4.568,21.315z"/>
<path fill="#FFBD9E" d="M5.046,21.299c0-0.011,0.001-0.02,0.001-0.031c0-0.193-0.06-0.351-0.132-0.351
	c-0.074,0-0.132,0.157-0.132,0.351c0,0.048,0.004,0.093,0.011,0.135L5.046,21.299z"/>
<path fill="#FFBD9E" d="M5.522,21.281c0-0.012,0.002-0.02,0.002-0.031c0-0.193-0.06-0.351-0.133-0.351
	c-0.072,0-0.133,0.157-0.133,0.351c0,0.048,0.005,0.092,0.013,0.134L5.522,21.281z"/>
<path fill="#FFBD9E" d="M6,21.264c0-0.012,0.001-0.02,0.001-0.031c0-0.193-0.059-0.351-0.132-0.351s-0.133,0.157-0.133,0.351
	c0,0.048,0.005,0.092,0.013,0.134L6,21.264z"/>
<path fill="none" stroke="#FCC7AB" stroke-width="0.202" stroke-linecap="round" stroke-miterlimit="10" d="M0.411,20.679
	l1.752-0.086l0.434,0.151l4.973-0.26l4.174,0.454c0,0-0.044-0.238,0.021-0.216c0.064,0.021,1.47,0.107,1.47,0.107"/>
<path fill="#FFBD9E" d="M2.617,18.388c0,0.035-0.029,0.064-0.065,0.064H1.158c-0.037,0-0.065-0.029-0.065-0.064
	s0.028-0.065,0.065-0.065h1.394C2.588,18.322,2.617,18.353,2.617,18.388"/>
<path fill="#FFBD9E" d="M8.181,18.128c0,0.035-0.029,0.064-0.065,0.064H6.721c-0.036,0-0.064-0.029-0.064-0.064
	c0-0.036,0.028-0.064,0.064-0.064h1.395C8.151,18.063,8.181,18.092,8.181,18.128"/>
<path fill="#FFBD9E" d="M12.575,18.5c0,0.036-0.028,0.064-0.065,0.064h-1.394c-0.036,0-0.065-0.028-0.065-0.064
	c0-0.035,0.029-0.064,0.065-0.064h1.394C12.547,18.436,12.575,18.465,12.575,18.5"/>
<path fill="none" stroke="#FCC7AB" stroke-width="0.047" stroke-miterlimit="10" d="M5.567,18.395l-0.113-0.021
	c-0.027-0.007-0.039-0.062-0.026-0.123s0.045-0.106,0.072-0.101l0.112,0.022"/>
<path fill="none" stroke="#FCC7AB" stroke-width="0.047" stroke-miterlimit="10" d="M5.653,17.883L5.545,17.86
	c-0.025-0.006-0.037-0.058-0.025-0.117c0.013-0.06,0.044-0.104,0.07-0.098l0.108,0.022"/>
<path fill="none" stroke="#FCC7AB" stroke-width="0.047" stroke-miterlimit="10" d="M5.741,17.37l-0.105-0.021
	c-0.023-0.006-0.035-0.056-0.023-0.112c0.011-0.058,0.042-0.099,0.066-0.095l0.104,0.022"/>
<path fill="none" stroke="#FCC7AB" stroke-width="0.047" stroke-miterlimit="10" d="M5.829,16.858l-0.102-0.021
	c-0.023-0.005-0.035-0.053-0.023-0.108c0.012-0.054,0.04-0.095,0.064-0.089l0.101,0.02"/>
<path fill="none" stroke="#FCC7AB" stroke-width="0.047" stroke-miterlimit="10" d="M5.916,16.347l-0.097-0.02
	c-0.023-0.007-0.034-0.053-0.023-0.105c0.011-0.052,0.038-0.091,0.062-0.086l0.097,0.02"/>
<path fill="none" stroke="#FCC7AB" stroke-width="0.047" stroke-miterlimit="10" d="M6.003,15.835l-0.093-0.02
	c-0.022-0.006-0.033-0.05-0.021-0.101c0.011-0.05,0.037-0.087,0.059-0.082l0.093,0.019"/>
<path fill="#FFBD9E" d="M6.721,18.544H5.595c-0.032,0-0.059-0.026-0.059-0.06c0-0.031,0.026-0.058,0.059-0.058h1.126V18.544z"/>
<polygon fill="#FFBD9E" points="0.218,22.69 2.099,22.604 2.66,22.69 7.677,22.496 13.365,22.798 13.17,22.994 11.743,22.885 
	11.418,23.123 9.126,23.015 9.062,22.777 7.72,22.733 5.861,22.798 5.796,23.166 2.79,23.21 2.206,23.036 0.509,23.091 
	0.136,22.717 "/>
<line fill="none" stroke="#FCC7AB" stroke-width="0.101" stroke-linecap="round" stroke-miterlimit="10" x1="1.061" y1="20.679" x2="1.061" y2="22.452"/>
<line fill="none" stroke="#FCC7AB" stroke-width="0.101" stroke-linecap="round" stroke-miterlimit="10" x1="1.623" y1="20.679" x2="1.623" y2="22.452"/>
<line fill="none" stroke="#FCC7AB" stroke-width="0.094" stroke-linecap="round" stroke-miterlimit="10" x1="6.597" y1="22.351" x2="6.597" y2="20.829"/>
<line fill="none" stroke="#FCC7AB" stroke-width="0.094" stroke-linecap="round" stroke-miterlimit="10" x1="6.985" y1="20.83" x2="6.985" y2="22.351"/>
<line fill="none" stroke="#FCC7AB" stroke-width="0.094" stroke-linecap="round" stroke-miterlimit="10" x1="8.132" y1="20.85" x2="8.132" y2="22.369"/>
<line fill="none" stroke="#FCC7AB" stroke-width="0.094" stroke-linecap="round" stroke-miterlimit="10" x1="8.413" y1="20.867" x2="8.413" y2="22.388"/>
<polygon fill="#FFBD9E" points="1.082,20.83 1.623,20.809 1.644,21.09 1.061,21.134 "/>
<polygon fill="#FFBD9E" points="6.597,20.787 6.985,20.77 6.985,21.003 6.64,21.025 "/>
<polygon fill="#FFBD9E" points="1.353,28.15 1.012,28.15 1.012,23.317 1.624,23.317 1.455,23.485 1.094,23.485 1.094,27.989 "/>
<polygon fill="none" stroke="#FCC7AB" stroke-width="0.052" stroke-miterlimit="10" points="1.353,28.15 1.012,28.15 1.012,23.317 
	1.624,23.317 1.455,23.485 1.094,23.485 1.094,27.989 "/>
<polygon fill="#FFBD9E" points="6.856,27.956 6.516,27.956 6.516,23.123 7.126,23.123 6.959,23.29 6.596,23.29 6.596,27.793 "/>
<polygon fill="none" stroke="#FCC7AB" stroke-width="0.052" stroke-miterlimit="10" points="6.856,27.956 6.516,27.956 
	6.516,23.123 7.126,23.123 6.959,23.29 6.596,23.29 6.596,27.793 "/>
<rect x="3.612" y="28.681" fill="#FFBD9E" width="0.541" height="2.4"/>
<rect x="3.612" y="28.681" fill="none" stroke="#FCC7AB" stroke-width="0.052" stroke-miterlimit="10" width="0.541" height="2.4"/>
<rect x="4.39" y="28.681" fill="#FFBD9E" width="0.541" height="2.4"/>
<rect x="4.39" y="28.681" fill="none" stroke="#FCC7AB" stroke-width="0.052" stroke-miterlimit="10" width="0.541" height="2.4"/>
<path fill="#FFBD9E" d="M4.499,28.355H3.958v-1.384c0,0,0.098-0.205,0.271-0.205s0.271,0.205,0.271,0.205V28.355z"/>
<path fill="none" stroke="#FCC7AB" stroke-width="0.052" stroke-miterlimit="10" d="M4.499,28.355H3.958v-1.384
	c0,0,0.098-0.205,0.271-0.205s0.271,0.205,0.271,0.205V28.355z"/>
<path fill="#FFBD9E" d="M5.32,28.355H4.779v-1.384c0,0,0.098-0.205,0.27-0.205c0.175,0,0.271,0.205,0.271,0.205V28.355z"/>
<path fill="none" stroke="#FCC7AB" stroke-width="0.052" stroke-miterlimit="10" d="M5.32,28.355H4.779v-1.384
	c0,0,0.098-0.205,0.27-0.205c0.175,0,0.271,0.205,0.271,0.205V28.355z"/>
<rect x="5.19" y="28.681" fill="#FFBD9E" width="0.541" height="2.4"/>
<rect x="5.19" y="28.681" fill="none" stroke="#FCC7AB" stroke-width="0.052" stroke-miterlimit="10" width="0.541" height="2.4"/>
<rect x="3.612" y="31.448" fill="#FFBD9E" width="0.541" height="18.909"/>
<rect x="3.612" y="31.448" fill="none" stroke="#FCC7AB" stroke-width="0.052" stroke-miterlimit="10" width="0.541" height="18.909"/>
<rect x="4.39" y="31.448" fill="#FFBD9E" width="0.541" height="18.909"/>
<rect x="4.39" y="31.448" fill="none" stroke="#FCC7AB" stroke-width="0.052" stroke-miterlimit="10" width="0.541" height="18.909"/>
<rect x="5.19" y="31.448" fill="#FFBD9E" width="0.541" height="18.909"/>
<rect x="5.19" y="31.448" fill="none" stroke="#FCC7AB" stroke-width="0.052" stroke-miterlimit="10" width="0.541" height="18.909"/>
<path fill="#FFBD9E" d="M3.741,28.355v-0.94c0,0-0.366,0.605-0.346,0.735C3.418,28.28,3.612,28.398,3.741,28.355"/>
<path fill="none" stroke="#FCC7AB" stroke-width="0.052" stroke-miterlimit="10" d="M3.741,28.355v-0.94
	c0,0-0.366,0.605-0.346,0.735C3.418,28.28,3.612,28.398,3.741,28.355z"/>
<path fill="#FFBD9E" d="M5.515,28.355v-0.94c0,0,0.367,0.605,0.346,0.735C5.838,28.28,5.644,28.398,5.515,28.355"/>
<path fill="none" stroke="#FCC7AB" stroke-width="0.052" stroke-miterlimit="10" d="M5.515,28.355v-0.94
	c0,0,0.367,0.605,0.346,0.735C5.838,28.28,5.644,28.398,5.515,28.355z"/>
<path fill="#FFBD9E" d="M4.229,26.582c0,0,0.378,0.066,0.433,0.26c0,0,0.129-0.27,0.335-0.26c0.206,0.011-0.163-0.323-0.384-0.323
	C4.391,26.259,4.056,26.615,4.229,26.582"/>
<path fill="none" stroke="#FCC7AB" stroke-width="0.052" stroke-miterlimit="10" d="M4.229,26.582c0,0,0.378,0.066,0.433,0.26
	c0,0,0.129-0.27,0.335-0.26c0.206,0.011-0.163-0.323-0.384-0.323C4.391,26.259,4.056,26.615,4.229,26.582z"/>
<path fill="#FFBD9E" d="M3.007,28.15c0,0,0.043-1.708,1.384-2.416c0,0,1.06,0.07,1.47,1.497c0,0-0.662-1.18-1.361-1.168
	C3.799,26.077,3.136,27.687,3.007,28.15"/>
<path fill="none" stroke="#FCC7AB" stroke-width="0.052" stroke-miterlimit="10" d="M3.007,28.15c0,0,0.043-1.708,1.384-2.416
	c0,0,1.06,0.07,1.47,1.497c0,0-0.662-1.18-1.361-1.168C3.799,26.077,3.136,27.687,3.007,28.15z"/>
<polygon fill="#FFBD9E" points="10.183,31.216 10.495,31.227 10.516,28.891 10.198,28.864 "/>
<polygon fill="none" stroke="#FCC7AB" stroke-width="0.052" stroke-miterlimit="10" points="10.183,31.216 10.495,31.227 
	10.516,28.891 10.198,28.864 "/>
<polygon fill="#FFBD9E" points="9.727,31.199 10.045,31.211 10.058,28.854 9.734,28.826 "/>
<polygon fill="none" stroke="#FCC7AB" stroke-width="0.052" stroke-miterlimit="10" points="9.727,31.199 10.045,31.211 
	10.058,28.854 9.734,28.826 "/>
<path fill="#FFBD9E" d="M9.995,28.522l0.321,0.028l0.01-1.392c0,0-0.058-0.215-0.16-0.229c-0.104-0.012-0.164,0.191-0.164,0.191
	L9.995,28.522z"/>
<path fill="none" stroke="#FCC7AB" stroke-width="0.052" stroke-miterlimit="10" d="M9.995,28.522l0.321,0.028l0.01-1.392
	c0,0-0.058-0.215-0.16-0.229c-0.104-0.012-0.164,0.191-0.164,0.191L9.995,28.522z"/>
<path fill="#FFBD9E" d="M9.5,28.479l0.327,0.028l0.006-1.405c0,0-0.059-0.218-0.164-0.23s-0.166,0.192-0.166,0.192L9.5,28.479z"/>
<path fill="none" stroke="#FCC7AB" stroke-width="0.052" stroke-miterlimit="10" d="M9.5,28.479l0.327,0.028l0.006-1.405
	c0,0-0.059-0.218-0.164-0.23s-0.166,0.192-0.166,0.192L9.5,28.479z"/>
<polygon fill="#FFBD9E" points="9.248,31.183 9.572,31.194 9.579,28.812 9.249,28.786 "/>
<polygon fill="none" stroke="#FCC7AB" stroke-width="0.052" stroke-miterlimit="10" points="9.248,31.183 9.572,31.194 
	9.579,28.812 9.249,28.786 "/>
<polygon fill="#FFBD9E" points="10.165,50.351 10.474,50.346 10.492,31.579 10.182,31.57 "/>
<polygon fill="none" stroke="#FCC7AB" stroke-width="0.052" stroke-miterlimit="10" points="10.165,50.351 10.474,50.346 
	10.492,31.579 10.182,31.57 "/>
<polygon fill="#FFBD9E" points="9.717,50.357 10.028,50.354 10.043,31.566 9.725,31.557 "/>
<polygon fill="none" stroke="#FCC7AB" stroke-width="0.052" stroke-miterlimit="10" points="9.717,50.357 10.028,50.354 
	10.043,31.566 9.725,31.557 "/>
<polygon fill="#FFBD9E" points="9.247,50.367 9.565,50.361 9.57,31.553 9.247,31.543 "/>
<polygon fill="none" stroke="#FCC7AB" stroke-width="0.052" stroke-miterlimit="10" points="9.247,50.367 9.565,50.361 9.57,31.553 
	9.247,31.543 "/>
<path fill="#FFBD9E" d="M10.442,28.562l0.008-0.941c0,0,0.21,0.628,0.196,0.756C10.632,28.505,10.519,28.612,10.442,28.562"/>
<path fill="none" stroke="#FCC7AB" stroke-width="0.052" stroke-miterlimit="10" d="M10.442,28.562l0.008-0.941
	c0,0,0.21,0.628,0.196,0.756C10.632,28.505,10.519,28.612,10.442,28.562z"/>
<path fill="#FFBD9E" d="M9.382,28.468l0.002-0.962c0,0-0.228,0.599-0.214,0.733C9.184,28.373,9.304,28.505,9.382,28.468"/>
<path fill="none" stroke="#FCC7AB" stroke-width="0.052" stroke-miterlimit="10" d="M9.382,28.468l0.002-0.962
	c0,0-0.228,0.599-0.214,0.733C9.184,28.373,9.304,28.505,9.382,28.468z"/>
<path fill="#FFBD9E" d="M10.167,26.744c0,0-0.229,0.038-0.262,0.233c0,0-0.077-0.287-0.202-0.293
	c-0.126-0.003,0.101-0.322,0.235-0.304C10.072,26.397,10.271,26.789,10.167,26.744"/>
<path fill="none" stroke="#FCC7AB" stroke-width="0.052" stroke-miterlimit="10" d="M10.167,26.744c0,0-0.229,0.038-0.262,0.233
	c0,0-0.077-0.287-0.202-0.293c-0.126-0.003,0.101-0.322,0.235-0.304C10.072,26.397,10.271,26.789,10.167,26.744z"/>
<path fill="#FFBD9E" d="M10.872,28.398c0,0-0.007-1.71-0.797-2.542c0,0-0.649-0.019-0.906,1.438c0,0,0.412-1.177,0.839-1.105
	C10.428,26.259,10.802,27.93,10.872,28.398"/>
<path fill="none" stroke="#FCC7AB" stroke-width="0.052" stroke-miterlimit="10" d="M10.872,28.398c0,0-0.007-1.71-0.797-2.542
	c0,0-0.649-0.019-0.906,1.438c0,0,0.412-1.177,0.839-1.105C10.428,26.259,10.802,27.93,10.872,28.398z"/>
<path fill="#FFBD9E" d="M4.455,23.599c0.228,0,0.418,0.34,0.472,0.8h0.016c0-0.585-0.219-1.06-0.487-1.06s-0.486,0.475-0.486,1.06
	h0.016C4.038,23.938,4.228,23.599,4.455,23.599"/>
<path fill="none" stroke="#FCC7AB" stroke-width="0.052" stroke-miterlimit="10" d="M4.455,23.599c0.228,0,0.418,0.34,0.472,0.8
	h0.016c0-0.585-0.219-1.06-0.487-1.06s-0.486,0.475-0.486,1.06h0.016C4.038,23.938,4.228,23.599,4.455,23.599z"/>
<polyline fill="#FFBD9E" points="0.362,28.681 2.131,28.681 1.946,28.961 1.946,50.51 1.796,50.51 1.796,29.136 1.102,29.829 
	1.102,50.51 1.012,50.51 1.012,29.265 "/>
<polyline fill="none" stroke="#FCC7AB" stroke-width="0.052" stroke-miterlimit="10" points="0.362,28.681 2.131,28.681 
	1.946,28.961 1.946,50.51 1.796,50.51 1.796,29.136 1.102,29.829 1.102,50.51 1.012,50.51 1.012,29.265 "/>
<polyline fill="none" stroke="#FCC7AB" stroke-width="0.052" stroke-miterlimit="10" points="2.131,22.853 2.131,28.15 2.53,28.551 
	2.082,28.999 2.082,50.51 "/>
<polygon fill="#FFBD9E" points="2.53,28.551 3.223,28.551 3.612,28.681 5.731,28.681 5.797,28.486 7.916,28.486 7.741,28.658 
	7.028,28.658 7.028,29.589 6.499,29.059 6.499,28.724 5.883,28.724 5.537,28.724 3.396,28.724 2.314,28.724 "/>
<path fill="none" stroke="#FCC7AB" stroke-width="0.047" stroke-miterlimit="10" d="M1.236,17.989l-0.112-0.023
	c-0.027-0.006-0.04-0.061-0.026-0.121c0.013-0.062,0.045-0.106,0.071-0.102l0.113,0.024"/>
<path fill="none" stroke="#FCC7AB" stroke-width="0.047" stroke-miterlimit="10" d="M1.323,17.478l-0.108-0.023
	c-0.026-0.005-0.038-0.058-0.025-0.116c0.012-0.061,0.044-0.104,0.069-0.099l0.109,0.023"/>
<path fill="none" stroke="#FCC7AB" stroke-width="0.047" stroke-miterlimit="10" d="M1.411,16.965l-0.104-0.021
	c-0.026-0.006-0.037-0.057-0.025-0.113c0.013-0.058,0.042-0.1,0.067-0.095l0.105,0.022"/>
<path fill="none" stroke="#FCC7AB" stroke-width="0.047" stroke-miterlimit="10" d="M1.498,16.453l-0.101-0.021
	c-0.024-0.006-0.034-0.055-0.024-0.109c0.012-0.055,0.042-0.096,0.065-0.09l0.102,0.021"/>
<path fill="none" stroke="#FCC7AB" stroke-width="0.047" stroke-miterlimit="10" d="M1.585,15.94l-0.096-0.02
	c-0.024-0.005-0.034-0.052-0.024-0.104c0.012-0.052,0.04-0.092,0.063-0.087l0.097,0.021"/>
<path fill="none" stroke="#FCC7AB" stroke-width="0.047" stroke-miterlimit="10" d="M1.673,15.429l-0.093-0.02
	c-0.022-0.004-0.032-0.049-0.022-0.1c0.011-0.05,0.038-0.088,0.06-0.083l0.093,0.019"/>
<path fill="none" stroke="#FCC7AB" stroke-width="0.047" stroke-miterlimit="10" d="M2.464,17.989l0.112-0.023
	c0.027-0.006,0.039-0.061,0.026-0.121c-0.014-0.062-0.045-0.106-0.072-0.102l-0.113,0.024"/>
<path fill="none" stroke="#FCC7AB" stroke-width="0.047" stroke-miterlimit="10" d="M2.376,17.478l0.108-0.023
	c0.027-0.005,0.038-0.058,0.026-0.116c-0.013-0.061-0.043-0.104-0.07-0.099l-0.109,0.023"/>
<path fill="none" stroke="#FCC7AB" stroke-width="0.047" stroke-miterlimit="10" d="M2.289,16.965l0.104-0.021
	c0.026-0.006,0.037-0.057,0.025-0.113c-0.012-0.058-0.042-0.1-0.067-0.095l-0.104,0.022"/>
<path fill="none" stroke="#FCC7AB" stroke-width="0.047" stroke-miterlimit="10" d="M2.202,16.453l0.101-0.021
	c0.024-0.006,0.035-0.055,0.024-0.109c-0.013-0.055-0.041-0.096-0.065-0.09l-0.101,0.021"/>
<path fill="none" stroke="#FCC7AB" stroke-width="0.047" stroke-miterlimit="10" d="M2.114,15.94l0.098-0.02
	c0.022-0.005,0.033-0.052,0.022-0.104c-0.012-0.052-0.039-0.092-0.062-0.087l-0.097,0.021"/>
<path fill="none" stroke="#FCC7AB" stroke-width="0.047" stroke-miterlimit="10" d="M2.027,15.429l0.093-0.02
	c0.022-0.004,0.032-0.049,0.022-0.1c-0.012-0.05-0.037-0.088-0.061-0.083l-0.093,0.019"/>
<path fill="none" stroke="#FCC7AB" stroke-width="0.047" stroke-miterlimit="10" d="M6.8,17.762l-0.113-0.023
	c-0.027-0.006-0.039-0.059-0.026-0.122c0.013-0.061,0.045-0.105,0.072-0.1l0.112,0.023"/>
<path fill="none" stroke="#FCC7AB" stroke-width="0.047" stroke-miterlimit="10" d="M6.887,17.25l-0.109-0.023
	C6.752,17.222,6.74,17.17,6.753,17.11c0.011-0.06,0.043-0.103,0.068-0.098l0.109,0.023"/>
<path fill="none" stroke="#FCC7AB" stroke-width="0.047" stroke-miterlimit="10" d="M6.974,16.738l-0.104-0.022
	c-0.025-0.005-0.037-0.055-0.025-0.112c0.013-0.058,0.042-0.099,0.068-0.095l0.104,0.022"/>
<path fill="none" stroke="#FCC7AB" stroke-width="0.047" stroke-miterlimit="10" d="M7.062,16.226L6.96,16.204
	c-0.023-0.004-0.035-0.053-0.023-0.107s0.04-0.096,0.064-0.091l0.101,0.021"/>
<path fill="none" stroke="#FCC7AB" stroke-width="0.047" stroke-miterlimit="10" d="M7.148,15.714l-0.097-0.021
	c-0.024-0.003-0.033-0.05-0.022-0.103c0.01-0.053,0.038-0.092,0.062-0.088l0.097,0.021"/>
<path fill="none" stroke="#FCC7AB" stroke-width="0.047" stroke-miterlimit="10" d="M7.235,15.202l-0.093-0.02
	c-0.022-0.004-0.032-0.05-0.021-0.1c0.011-0.051,0.037-0.088,0.06-0.084l0.093,0.02"/>
<path fill="none" stroke="#FCC7AB" stroke-width="0.047" stroke-miterlimit="10" d="M8.026,17.762l0.113-0.023
	c0.026-0.006,0.037-0.059,0.025-0.122c-0.013-0.061-0.045-0.105-0.072-0.1L7.981,17.54"/>
<path fill="none" stroke="#FCC7AB" stroke-width="0.047" stroke-miterlimit="10" d="M7.938,17.25l0.109-0.023
	c0.026-0.005,0.037-0.057,0.025-0.116c-0.013-0.06-0.043-0.103-0.069-0.098l-0.108,0.023"/>
<path fill="none" stroke="#FCC7AB" stroke-width="0.047" stroke-miterlimit="10" d="M7.853,16.738l0.104-0.022
	c0.025-0.005,0.037-0.055,0.025-0.112c-0.013-0.058-0.043-0.099-0.067-0.095L7.81,16.531"/>
<path fill="none" stroke="#FCC7AB" stroke-width="0.047" stroke-miterlimit="10" d="M7.765,16.226l0.102-0.021
	C7.89,16.2,7.9,16.151,7.889,16.097s-0.04-0.096-0.063-0.091l-0.102,0.021"/>
<path fill="none" stroke="#FCC7AB" stroke-width="0.047" stroke-miterlimit="10" d="M7.677,15.714l0.098-0.021
	c0.022-0.003,0.033-0.05,0.022-0.103c-0.012-0.053-0.038-0.092-0.062-0.088l-0.098,0.021"/>
<path fill="none" stroke="#FCC7AB" stroke-width="0.047" stroke-miterlimit="10" d="M7.591,15.202l0.093-0.02
	c0.021-0.004,0.032-0.05,0.021-0.1c-0.011-0.051-0.037-0.088-0.06-0.084l-0.094,0.02"/>
<path fill="none" stroke="#FCC7AB" stroke-width="0.047" stroke-miterlimit="10" d="M11.188,18.16l-0.111-0.022
	c-0.028-0.006-0.039-0.061-0.027-0.122c0.013-0.062,0.045-0.105,0.072-0.101l0.113,0.024"/>
<path fill="none" stroke="#FCC7AB" stroke-width="0.047" stroke-miterlimit="10" d="M11.276,17.648l-0.108-0.021
	c-0.026-0.007-0.038-0.06-0.025-0.119c0.011-0.06,0.043-0.102,0.068-0.098l0.109,0.023"/>
<path fill="none" stroke="#FCC7AB" stroke-width="0.047" stroke-miterlimit="10" d="M11.364,17.136l-0.104-0.02
	c-0.026-0.006-0.037-0.058-0.026-0.114c0.013-0.057,0.042-0.099,0.068-0.094l0.104,0.022"/>
<path fill="none" stroke="#FCC7AB" stroke-width="0.047" stroke-miterlimit="10" d="M11.45,16.624l-0.101-0.02
	c-0.024-0.006-0.035-0.055-0.022-0.109c0.011-0.055,0.039-0.095,0.063-0.09l0.101,0.021"/>
<path fill="none" stroke="#FCC7AB" stroke-width="0.047" stroke-miterlimit="10" d="M11.538,16.112l-0.097-0.019
	c-0.023-0.006-0.033-0.054-0.022-0.105c0.01-0.052,0.038-0.091,0.061-0.087l0.098,0.02"/>
<path fill="none" stroke="#FCC7AB" stroke-width="0.047" stroke-miterlimit="10" d="M11.625,15.601l-0.093-0.019
	c-0.022-0.005-0.032-0.051-0.021-0.101c0.01-0.05,0.036-0.088,0.06-0.083l0.093,0.019"/>
<path fill="none" stroke="#FCC7AB" stroke-width="0.047" stroke-miterlimit="10" d="M12.416,18.16l0.112-0.022
	c0.027-0.006,0.04-0.061,0.026-0.122c-0.013-0.062-0.045-0.105-0.071-0.101l-0.113,0.024"/>
<path fill="none" stroke="#FCC7AB" stroke-width="0.047" stroke-miterlimit="10" d="M12.329,17.648l0.107-0.021
	c0.027-0.007,0.038-0.06,0.026-0.119c-0.013-0.06-0.043-0.102-0.069-0.098l-0.109,0.023"/>
<path fill="none" stroke="#FCC7AB" stroke-width="0.047" stroke-miterlimit="10" d="M12.241,17.136l0.104-0.02
	c0.024-0.006,0.037-0.058,0.024-0.114c-0.012-0.057-0.041-0.099-0.066-0.094l-0.105,0.022"/>
<path fill="none" stroke="#FCC7AB" stroke-width="0.047" stroke-miterlimit="10" d="M12.155,16.624l0.101-0.02
	c0.024-0.006,0.034-0.055,0.022-0.109s-0.039-0.095-0.063-0.09l-0.101,0.021"/>
<path fill="none" stroke="#FCC7AB" stroke-width="0.047" stroke-miterlimit="10" d="M12.067,16.112l0.097-0.019
	c0.022-0.006,0.032-0.054,0.021-0.105s-0.037-0.091-0.061-0.087l-0.097,0.02"/>
<path fill="none" stroke="#FCC7AB" stroke-width="0.047" stroke-miterlimit="10" d="M11.979,15.601l0.094-0.019
	c0.021-0.005,0.031-0.051,0.021-0.101c-0.01-0.05-0.036-0.088-0.059-0.083l-0.093,0.019"/>
<path fill="#FF345C" d="M1.958,15.002c0-0.472-0.085-1.046-0.119-1.046S1.72,14.53,1.72,15.002H1.958z"/>
<polygon fill="#FF345C" points="1.86,13.381 1.86,13.771 2.325,13.532 "/>
<path fill="#FF345C" d="M1.752,14.879l-0.07,0.002c-0.017,0-0.032-0.041-0.032-0.041v-0.028c0-0.028,0.014-0.052,0.03-0.053h0.071"
	/>
<path fill="#FF345C" d="M1.786,14.366l-0.071-0.002c-0.018-0.001-0.03-0.043-0.03-0.043l0.002-0.027
	c0.001-0.029,0.016-0.052,0.033-0.051l0.07,0.002"/>
<path fill="#FF345C" d="M1.741,14.625L1.67,14.623c-0.017-0.001-0.028-0.043-0.028-0.043v-0.026
	c0.002-0.029,0.016-0.052,0.033-0.052l0.07,0.002"/>
<path fill="#FF345C" d="M1.918,14.879l0.071,0.002c0.017,0,0.031-0.041,0.031-0.041v-0.028c0.001-0.028-0.013-0.052-0.029-0.053
	H1.92"/>
<path fill="#FF345C" d="M1.885,14.366l0.071-0.002c0.017-0.001,0.029-0.043,0.029-0.043l-0.001-0.027
	c-0.002-0.029-0.016-0.052-0.034-0.051l-0.069,0.002"/>
<path fill="#FF345C" d="M1.93,14.625L2,14.623c0.017-0.001,0.03-0.043,0.03-0.043l-0.001-0.026
	c-0.002-0.029-0.017-0.052-0.034-0.052l-0.069,0.002"/>
<path fill="#FF345C" d="M6.284,15.461c0-0.471-0.084-1.044-0.118-1.044s-0.119,0.573-0.119,1.044H6.284z"/>
<line fill="none" stroke="#FF345C" stroke-width="0.101" stroke-miterlimit="10" x1="6.177" y1="14.533" x2="6.177" y2="13.842"/>
<polygon fill="#FF345C" points="6.188,13.842 6.188,14.231 6.651,13.993 "/>
<path fill="#FF345C" d="M6.079,15.34l-0.071,0.001C5.991,15.342,5.976,15.3,5.976,15.3v-0.025c0-0.03,0.014-0.054,0.03-0.055
	l0.071-0.001"/>
<path fill="#FF345C" d="M6.112,14.826l-0.07-0.002c-0.018,0-0.03-0.042-0.03-0.042l0.002-0.027c0-0.029,0.015-0.053,0.032-0.052
	l0.07,0.002"/>
<path fill="#FF345C" d="M6.067,15.087l-0.07-0.003c-0.018-0.001-0.03-0.042-0.03-0.042l0.002-0.028
	c0.001-0.028,0.017-0.052,0.033-0.051l0.069,0.003"/>
<path fill="#FF345C" d="M6.245,15.34l0.07,0.001C6.333,15.342,6.348,15.3,6.348,15.3v-0.025c0.001-0.03-0.013-0.054-0.03-0.055
	l-0.07-0.001"/>
<path fill="#FF345C" d="M6.212,14.826l0.07-0.002c0.018,0,0.03-0.042,0.03-0.042l-0.001-0.027c-0.001-0.029-0.017-0.053-0.033-0.052
	l-0.071,0.002"/>
<path fill="#FF345C" d="M6.257,15.087l0.07-0.003c0.016-0.001,0.03-0.042,0.03-0.042l-0.002-0.028
	c-0.001-0.028-0.017-0.052-0.032-0.051l-0.071,0.003"/>
<path fill="#FF345C" d="M7.484,14.694c0-0.472-0.084-1.045-0.119-1.045c-0.033,0-0.118,0.573-0.118,1.045H7.484z"/>
<line fill="none" stroke="#FF345C" stroke-width="0.101" stroke-miterlimit="10" x1="7.377" y1="13.766" x2="7.377" y2="13.074"/>
<polygon fill="#FF345C" points="7.388,13.074 7.388,13.464 7.853,13.227 "/>
<path fill="#FF345C" d="M7.28,14.572l-0.071,0.001c-0.018,0-0.032-0.04-0.032-0.04v-0.027c0-0.028,0.013-0.053,0.03-0.054
	l0.07-0.001"/>
<path fill="#FF345C" d="M7.312,14.059l-0.071-0.002c-0.017-0.001-0.029-0.042-0.029-0.042l0.002-0.026
	c0.001-0.03,0.016-0.054,0.032-0.053l0.071,0.002"/>
<path fill="#FF345C" d="M7.268,14.318l-0.071-0.002c-0.016-0.001-0.029-0.042-0.029-0.042l0.002-0.027
	c0.001-0.029,0.016-0.052,0.032-0.052l0.071,0.003"/>
<path fill="#FF345C" d="M7.444,14.572l0.071,0.001c0.017,0,0.032-0.04,0.032-0.04v-0.027c0.001-0.028-0.013-0.053-0.03-0.054
	l-0.071-0.001"/>
<path fill="#FF345C" d="M7.412,14.059l0.071-0.002c0.016-0.001,0.029-0.042,0.029-0.042l-0.002-0.026
	c-0.001-0.03-0.016-0.054-0.033-0.053l-0.07,0.002"/>
<path fill="#FF345C" d="M7.456,14.318l0.071-0.002c0.017-0.001,0.03-0.042,0.03-0.042l-0.002-0.027
	c-0.001-0.029-0.017-0.052-0.033-0.052l-0.071,0.003"/>
<path fill="#FF345C" d="M11.896,15.083c0-0.471-0.085-1.045-0.118-1.045c-0.034,0-0.118,0.574-0.118,1.045H11.896z"/>
<line fill="none" stroke="#FF345C" stroke-width="0.101" stroke-miterlimit="10" x1="11.788" y1="14.155" x2="11.788" y2="13.464"/>
<polygon fill="#FF345C" points="11.799,13.464 11.799,13.853 12.264,13.614 "/>
<path fill="#FF345C" d="M11.69,14.962l-0.07,0.001c-0.018,0-0.032-0.041-0.032-0.041v-0.026c-0.001-0.03,0.013-0.054,0.03-0.055
	h0.071"/>
<path fill="#FF345C" d="M11.724,14.448l-0.071-0.002c-0.016-0.001-0.03-0.043-0.03-0.043l0.002-0.026
	c0.002-0.03,0.017-0.053,0.033-0.052l0.07,0.002"/>
<path fill="#FF345C" d="M11.679,14.708l-0.07-0.003c-0.017,0-0.03-0.041-0.03-0.041l0.002-0.028
	c0.001-0.028,0.017-0.053,0.033-0.052l0.069,0.003"/>
<path fill="#FF345C" d="M11.856,14.962l0.07,0.001c0.018,0,0.032-0.041,0.032-0.041v-0.026c0-0.03-0.013-0.054-0.03-0.055h-0.07"/>
<path fill="#FF345C" d="M11.823,14.448l0.071-0.002c0.017-0.001,0.029-0.043,0.029-0.043l-0.002-0.026
	c-0.001-0.03-0.015-0.053-0.032-0.052l-0.071,0.002"/>
<path fill="#FF345C" d="M11.868,14.708l0.07-0.003c0.018,0,0.029-0.041,0.029-0.041v-0.028c-0.002-0.028-0.018-0.053-0.034-0.052
	l-0.07,0.003"/>
<line fill="none" stroke="#FCC7AB" stroke-width="0.101" stroke-miterlimit="10" x1="9.062" y1="22.777" x2="9.062" y2="28.14"/>
<line fill="none" stroke="#FCC7AB" stroke-width="0.101" stroke-miterlimit="10" x1="11.678" y1="22.777" x2="11.678" y2="28.14"/>
<line fill="none" stroke="#FCC7AB" stroke-width="0.101" stroke-miterlimit="10" x1="11.516" y1="22.939" x2="11.516" y2="28.302"/>
<polyline fill="#FFBD9E" points="7.915,28.486 9.169,28.529 9.256,28.637 9.104,28.702 7.742,28.702 "/>
<polyline fill="#FFBD9E" points="10.813,28.529 11.483,28.529 13.19,28.637 13.451,28.745 13.19,28.788 11.678,28.702 
	11.678,50.531 11.44,50.531 11.44,28.658 10.942,28.658 "/>
<line fill="none" stroke="#FCC7AB" stroke-width="0.047" stroke-miterlimit="10" x1="7.467" y1="18.176" x2="7.467" y2="20.463"/>
<line fill="none" stroke="#FCC7AB" stroke-width="0.047" stroke-miterlimit="10" x1="7.71" y1="20.544" x2="7.71" y2="22.571"/>
<line fill="none" stroke="#FCC7AB" stroke-width="0.047" stroke-miterlimit="10" x1="7.629" y1="22.717" x2="7.629" y2="28.297"/>
<polyline fill="#FDF8D7" points="19.1,18.467 19.1,17.434 19.706,13.755 20.319,16.797 20.319,19.462 "/>
<polyline fill="none" stroke="#FF345C" stroke-width="0.101" stroke-miterlimit="10" points="19.1,18.467 19.1,17.434 
	19.706,13.755 20.319,16.797 20.319,19.462 "/>
<line fill="none" stroke="#FCC7AB" stroke-width="0.047" stroke-miterlimit="10" x1="7.629" y1="28.653" x2="7.629" y2="50.661"/>
<path fill="#FDF8D7" d="M26.88,21.418c0,0,0.103-2.092,0-2.294c-0.101-0.202-0.371-0.169-0.403-0.438
	c-0.034-0.27-0.203-0.404-0.203-0.404v-0.912l-0.708-3.979l-0.709,4.081l0.037,1.149c-0.121,0.09-0.262,0.38-0.285,0.523
	c-0.051-0.19-0.29-0.61-0.415-0.621c-0.128-0.013-0.328,0.379-0.357,0.552c-0.05-0.191-0.288-0.611-0.413-0.622
	c-0.12-0.012-0.304,0.33-0.351,0.517c-0.067-0.204-0.285-0.575-0.402-0.586c-0.14-0.012-0.361,0.449-0.361,0.591
	c0.001,0.066,0.002,0.191,0.003,0.306l-0.188-0.021v-0.675c0-0.27-0.371-0.506-0.371-0.506v-1.113l-0.81-3.947l-0.675,4.049v1.146
	l-0.202,0.033c-0.303,0-0.303,1.114-0.303,1.114l-0.086,0.006c-0.005-0.114-0.013-0.258-0.017-0.333
	c-0.006-0.138-0.359-0.604-0.525-0.594c-0.152,0.005-0.375,0.412-0.402,0.583c-0.067-0.178-0.365-0.549-0.513-0.541
	c-0.153,0.007-0.375,0.412-0.403,0.583c-0.066-0.177-0.364-0.547-0.512-0.541c-0.144,0.007-0.347,0.364-0.396,0.549
	c-0.088-0.186-0.358-0.513-0.497-0.506c-0.166,0.008-0.413,0.484-0.406,0.623c0.004,0.075,0.011,0.228,0.017,0.35
	c-0.08-0.233-0.106-1.021-0.106-1.021v-1.25l-0.709-3.979L14.5,17.404v1.113c-0.101,0.032-0.337,0.37-0.337,0.37
	c-0.067-0.169-0.354-0.067-0.354-0.067v0.979v1.637l-0.372,0.37l0.388,0.388v5.297l-0.455,0.455l0.557,0.557v35.765h13.072V22.244
	l0.354-0.354L26.88,21.418z"/>
<path fill="none" stroke="#FF345C" stroke-width="0.101" stroke-miterlimit="10" d="M26.88,21.418c0,0,0.103-2.092,0-2.294
	c-0.101-0.202-0.371-0.169-0.403-0.438c-0.034-0.27-0.203-0.404-0.203-0.404v-0.912l-0.708-3.979l-0.709,4.081l0.037,1.149
	c-0.121,0.09-0.262,0.38-0.285,0.523c-0.051-0.19-0.29-0.61-0.415-0.621c-0.128-0.013-0.328,0.379-0.357,0.552
	c-0.05-0.191-0.288-0.611-0.413-0.622c-0.12-0.012-0.304,0.33-0.351,0.517c-0.067-0.204-0.285-0.575-0.402-0.586
	c-0.14-0.012-0.361,0.449-0.361,0.591c0.001,0.066,0.002,0.191,0.003,0.306l-0.188-0.021v-0.675c0-0.27-0.371-0.506-0.371-0.506
	v-1.113l-0.81-3.947l-0.675,4.049v1.146l-0.202,0.033c-0.303,0-0.303,1.114-0.303,1.114l-0.086,0.006
	c-0.005-0.114-0.013-0.258-0.017-0.333c-0.006-0.138-0.359-0.604-0.525-0.594c-0.152,0.005-0.375,0.412-0.402,0.583
	c-0.067-0.178-0.365-0.549-0.513-0.541c-0.153,0.007-0.375,0.412-0.403,0.583c-0.066-0.177-0.364-0.547-0.512-0.541
	c-0.144,0.007-0.347,0.364-0.396,0.549c-0.088-0.186-0.358-0.513-0.497-0.506c-0.166,0.008-0.413,0.484-0.406,0.623
	c0.004,0.075,0.011,0.228,0.017,0.35c-0.08-0.233-0.106-1.021-0.106-1.021v-1.25l-0.709-3.979L14.5,17.404v1.113
	c-0.101,0.032-0.337,0.37-0.337,0.37c-0.067-0.169-0.354-0.067-0.354-0.067v0.979v1.637l-0.372,0.37l0.388,0.388v5.297l-0.455,0.455
	l0.557,0.557v35.765h13.072V22.244l0.354-0.354L26.88,21.418z"/>
<polygon fill="#6BB1CD" points="21.981,5.935 20.891,5.935 21.981,6.549 "/>
<polygon fill="#FF345C" points="21.788,6.595 20.645,5.952 20.645,6.074 21.572,6.595 "/>
<polygon fill="#6BB1CD" points="20.646,6.162 20.646,6.595 21.415,6.595 "/>
<polygon fill="#6BB1CD" points="20.952,7.761 21.981,7.761 21.981,7.184 "/>
<polygon fill="#FF345C" points="22.332,7.761 22.332,5.935 22.079,5.935 22.079,6.703 20.646,6.703 20.646,7.03 22.079,7.03 
	22.079,7.761 "/>
<polygon fill="#FF345C" points="21.739,7.137 20.645,7.75 20.645,7.761 20.843,7.761 21.956,7.137 "/>
<polygon fill="#6BB1CD" points="20.646,7.137 20.646,7.569 21.415,7.137 "/>
<polygon fill="#6BB1CD" points="22.332,7.413 22.332,8.026 23.424,8.026 "/>
<polygon fill="#FF345C" points="22.574,6.824 23.668,6.211 23.668,6.2 23.472,6.2 22.358,6.824 "/>
<polygon fill="#6BB1CD" points="23.669,7.366 22.898,7.366 23.669,7.8 "/>
<polygon fill="#FF345C" points="22.525,7.366 23.668,8.009 23.668,7.887 22.742,7.366 "/>
<polygon fill="#6BB1CD" points="22.332,6.2 22.332,6.777 23.362,6.2 "/>
<polygon fill="#6BB1CD" points="23.669,6.824 23.669,6.391 22.898,6.824 "/>
<rect x="22.332" y="6.932" fill="#FF345C" width="1.336" height="0.325"/>
<line fill="none" stroke="#FF345C" stroke-width="0.121" stroke-miterlimit="10" x1="20.421" y1="5.93" x2="20.421" y2="16.366"/>
<path fill="#FFBD9E" d="M16.559,20.402c0-0.011,0.002-0.021,0.002-0.031c0-0.201-0.062-0.364-0.138-0.364
	c-0.075,0-0.138,0.163-0.138,0.364c0,0.052,0.005,0.096,0.012,0.141L16.559,20.402z"/>
<path fill="#FFBD9E" d="M17.056,20.384c0-0.01,0-0.021,0-0.031c0-0.2-0.062-0.365-0.137-0.365s-0.137,0.165-0.137,0.365
	c0,0.051,0.004,0.096,0.011,0.141L17.056,20.384z"/>
<path fill="#FFBD9E" d="M17.552,20.366c0-0.011,0-0.021,0-0.032c0-0.2-0.061-0.364-0.137-0.364s-0.137,0.164-0.137,0.364
	c0,0.051,0.004,0.097,0.011,0.141L17.552,20.366z"/>
<path fill="#FFBD9E" d="M18.047,20.347c0-0.01,0.001-0.02,0.001-0.031c0-0.201-0.061-0.365-0.137-0.365
	c-0.075,0-0.138,0.164-0.138,0.365c0,0.051,0.005,0.096,0.012,0.141L18.047,20.347z"/>
<path fill="#FFBD9E" d="M18.543,20.329c0-0.01,0.001-0.021,0.001-0.031c0-0.201-0.061-0.365-0.136-0.365
	c-0.076,0-0.138,0.164-0.138,0.365c0,0.05,0.004,0.096,0.012,0.141L18.543,20.329z"/>
<path fill="#FFBD9E" d="M19.04,20.312c0-0.01,0-0.021,0-0.032c0-0.2-0.061-0.363-0.137-0.363c-0.075,0-0.137,0.163-0.137,0.363
	c0,0.05,0.004,0.097,0.011,0.141L19.04,20.312z"/>
<path fill="#FFBD9E" d="M19.536,20.293c0-0.01,0-0.021,0-0.032c0-0.2-0.061-0.363-0.137-0.363c-0.075,0-0.137,0.163-0.137,0.363
	c0,0.05,0.005,0.097,0.011,0.141L19.536,20.293z"/>
<path fill="none" stroke="#FCC7AB" stroke-width="0.202" stroke-linecap="round" stroke-miterlimit="10" d="M13.724,19.686
	l1.822-0.089l0.449,0.156l5.173-0.27l4.341,0.474c0,0-0.045-0.248,0.022-0.227c0.067,0.022,1.528,0.113,1.528,0.113"/>
<path fill="#FFBD9E" d="M16.019,17.303c0,0.036-0.03,0.066-0.068,0.066h-1.449c-0.038,0-0.068-0.03-0.068-0.066
	c0-0.038,0.03-0.067,0.068-0.067h1.449C15.988,17.235,16.019,17.265,16.019,17.303"/>
<path fill="#FFBD9E" d="M21.804,17.032c0,0.037-0.03,0.067-0.067,0.067h-1.45c-0.038,0-0.067-0.03-0.067-0.067
	s0.029-0.067,0.067-0.067h1.45C21.773,16.965,21.804,16.995,21.804,17.032"/>
<path fill="#FFBD9E" d="M26.374,17.42c0,0.037-0.029,0.068-0.066,0.068h-1.451c-0.037,0-0.067-0.031-0.067-0.068
	c0-0.036,0.03-0.066,0.067-0.066h1.451C26.345,17.354,26.374,17.384,26.374,17.42"/>
<path fill="none" stroke="#FCC7AB" stroke-width="0.047" stroke-miterlimit="10" d="M19.085,17.31l-0.116-0.024
	c-0.028-0.006-0.041-0.062-0.028-0.125c0.014-0.064,0.047-0.111,0.076-0.105l0.116,0.024"/>
<path fill="none" stroke="#FCC7AB" stroke-width="0.047" stroke-miterlimit="10" d="M19.177,16.777l-0.113-0.023
	c-0.027-0.006-0.039-0.061-0.027-0.121c0.013-0.062,0.045-0.107,0.073-0.102l0.112,0.023"/>
<path fill="none" stroke="#FCC7AB" stroke-width="0.047" stroke-miterlimit="10" d="M19.267,16.245l-0.107-0.023
	c-0.027-0.005-0.039-0.058-0.027-0.116c0.014-0.06,0.044-0.103,0.071-0.098l0.108,0.022"/>
<path fill="none" stroke="#FCC7AB" stroke-width="0.047" stroke-miterlimit="10" d="M19.357,15.712l-0.104-0.021
	c-0.024-0.005-0.037-0.056-0.024-0.112c0.012-0.057,0.042-0.099,0.067-0.095l0.104,0.022"/>
<path fill="none" stroke="#FCC7AB" stroke-width="0.047" stroke-miterlimit="10" d="M19.448,15.18l-0.1-0.021
	c-0.025-0.004-0.035-0.053-0.024-0.107s0.04-0.095,0.065-0.09l0.101,0.021"/>
<path fill="none" stroke="#FCC7AB" stroke-width="0.047" stroke-miterlimit="10" d="M19.539,14.647l-0.096-0.02
	c-0.024-0.005-0.034-0.052-0.023-0.104c0.011-0.052,0.038-0.091,0.062-0.086l0.097,0.02"/>
<path fill="#FFBD9E" d="M20.286,17.465h-1.171c-0.034,0-0.061-0.027-0.061-0.061c0-0.034,0.026-0.062,0.061-0.062h1.171V17.465z"/>
<line fill="none" stroke="#FF345C" stroke-width="0.215" stroke-miterlimit="10" x1="19.436" y1="2.79" x2="19.436" y2="18.606"/>
<polygon fill="#FFBD9E" points="13.521,21.778 15.479,21.688 16.063,21.778 21.28,21.575 27.195,21.89 26.993,22.092 25.509,21.98 
	25.171,22.228 22.787,22.115 22.721,21.868 21.326,21.823 19.393,21.89 19.324,22.273 16.198,22.318 15.591,22.138 13.825,22.193 
	13.438,21.806 "/>
<line fill="none" stroke="#FCC7AB" stroke-width="0.101" stroke-linecap="round" stroke-miterlimit="10" x1="14.399" y1="19.686" x2="14.399" y2="21.53"/>
<line fill="none" stroke="#FCC7AB" stroke-width="0.101" stroke-linecap="round" stroke-miterlimit="10" x1="14.983" y1="19.686" x2="14.983" y2="21.53"/>
<line fill="none" stroke="#FCC7AB" stroke-width="0.094" stroke-linecap="round" stroke-miterlimit="10" x1="20.157" y1="21.424" x2="20.157" y2="19.844"/>
<line fill="none" stroke="#FCC7AB" stroke-width="0.094" stroke-linecap="round" stroke-miterlimit="10" x1="20.562" y1="19.844" x2="20.562" y2="21.424"/>
<line fill="none" stroke="#FCC7AB" stroke-width="0.094" stroke-linecap="round" stroke-miterlimit="10" x1="21.753" y1="19.862" x2="21.753" y2="21.443"/>
<line fill="none" stroke="#FCC7AB" stroke-width="0.094" stroke-linecap="round" stroke-miterlimit="10" x1="22.046" y1="19.882" x2="22.046" y2="21.463"/>
<polygon fill="#FFBD9E" points="14.421,19.844 14.983,19.821 15.005,20.114 14.399,20.159 "/>
<polygon fill="#FFBD9E" points="20.157,19.799 20.561,19.78 20.561,20.022 20.202,20.047 "/>
<polygon fill="#FFBD9E" points="14.702,27.456 14.349,27.456 14.349,22.43 14.983,22.43 14.809,22.604 14.433,22.604 14.433,27.288 
	"/>
<polygon fill="none" stroke="#FCC7AB" stroke-width="0.052" stroke-miterlimit="10" points="14.702,27.456 14.349,27.456 
	14.349,22.43 14.983,22.43 14.809,22.604 14.433,22.604 14.433,27.288 "/>
<polygon fill="#FFBD9E" points="20.427,27.254 20.072,27.254 20.072,22.228 20.707,22.228 20.532,22.401 20.156,22.401 
	20.156,27.085 "/>
<polygon fill="none" stroke="#FCC7AB" stroke-width="0.052" stroke-miterlimit="10" points="20.427,27.254 20.072,27.254 
	20.072,22.228 20.707,22.228 20.532,22.401 20.156,22.401 20.156,27.085 "/>
<rect x="17.053" y="28.007" fill="#FFBD9E" width="0.562" height="2.497"/>
<rect x="17.053" y="28.007" fill="none" stroke="#FCC7AB" stroke-width="0.052" stroke-miterlimit="10" width="0.562" height="2.497"/>
<rect x="17.863" y="28.007" fill="#FFBD9E" width="0.562" height="2.497"/>
<rect x="17.863" y="28.007" fill="none" stroke="#FCC7AB" stroke-width="0.052" stroke-miterlimit="10" width="0.562" height="2.497"/>
<path fill="#FFBD9E" d="M17.975,27.67h-0.562v-1.438c0,0,0.101-0.214,0.28-0.214c0.181,0,0.281,0.214,0.281,0.214V27.67z"/>
<path fill="none" stroke="#FCC7AB" stroke-width="0.052" stroke-miterlimit="10" d="M17.975,27.67h-0.562v-1.438
	c0,0,0.101-0.214,0.28-0.214c0.181,0,0.281,0.214,0.281,0.214V27.67z"/>
<path fill="#FFBD9E" d="M18.829,27.67h-0.562v-1.438c0,0,0.102-0.214,0.281-0.214s0.281,0.214,0.281,0.214V27.67z"/>
<path fill="none" stroke="#FCC7AB" stroke-width="0.052" stroke-miterlimit="10" d="M18.829,27.67h-0.562v-1.438
	c0,0,0.102-0.214,0.281-0.214s0.281,0.214,0.281,0.214V27.67z"/>
<rect x="18.695" y="28.007" fill="#FFBD9E" width="0.562" height="2.497"/>
<rect x="18.695" y="28.007" fill="none" stroke="#FCC7AB" stroke-width="0.052" stroke-miterlimit="10" width="0.562" height="2.497"/>
<rect x="17.053" y="30.886" fill="#FFBD9E" width="0.562" height="19.008"/>
<rect x="17.053" y="30.886" fill="none" stroke="#FCC7AB" stroke-width="0.052" stroke-miterlimit="10" width="0.562" height="19.008"/>
<rect x="17.863" y="30.886" fill="#FFBD9E" width="0.562" height="19.008"/>
<rect x="17.863" y="30.886" fill="none" stroke="#FCC7AB" stroke-width="0.052" stroke-miterlimit="10" width="0.562" height="19.008"/>
<rect x="18.695" y="30.886" fill="#FFBD9E" width="0.562" height="19.008"/>
<rect x="18.695" y="30.886" fill="none" stroke="#FCC7AB" stroke-width="0.052" stroke-miterlimit="10" width="0.562" height="19.008"/>
<path fill="#FFBD9E" d="M17.188,27.67v-0.979c0,0-0.383,0.63-0.36,0.765C16.85,27.592,17.053,27.715,17.188,27.67"/>
<path fill="none" stroke="#FCC7AB" stroke-width="0.052" stroke-miterlimit="10" d="M17.188,27.67v-0.979c0,0-0.383,0.63-0.36,0.765
	C16.85,27.592,17.053,27.715,17.188,27.67z"/>
<path fill="#FFBD9E" d="M19.031,27.67v-0.979c0,0,0.382,0.63,0.358,0.765C19.368,27.592,19.165,27.715,19.031,27.67"/>
<path fill="none" stroke="#FCC7AB" stroke-width="0.052" stroke-miterlimit="10" d="M19.031,27.67v-0.979
	c0,0,0.382,0.63,0.358,0.765C19.368,27.592,19.165,27.715,19.031,27.67z"/>
<path fill="#FFBD9E" d="M17.694,25.825c0,0,0.394,0.068,0.449,0.271c0,0,0.135-0.281,0.349-0.271
	c0.214,0.012-0.169-0.337-0.399-0.337S17.514,25.859,17.694,25.825"/>
<path fill="none" stroke="#FCC7AB" stroke-width="0.052" stroke-miterlimit="10" d="M17.694,25.825c0,0,0.394,0.068,0.449,0.271
	c0,0,0.135-0.281,0.349-0.271c0.214,0.012-0.169-0.337-0.399-0.337S17.514,25.859,17.694,25.825z"/>
<path fill="#FFBD9E" d="M16.423,27.456c0,0,0.045-1.776,1.439-2.513c0,0,1.103,0.073,1.529,1.558c0,0-0.688-1.229-1.417-1.215
	C17.247,25.3,16.558,26.973,16.423,27.456"/>
<path fill="none" stroke="#FCC7AB" stroke-width="0.052" stroke-miterlimit="10" d="M16.423,27.456c0,0,0.045-1.776,1.439-2.513
	c0,0,1.103,0.073,1.529,1.558c0,0-0.688-1.229-1.417-1.215C17.247,25.3,16.558,26.973,16.423,27.456z"/>
<polygon fill="#FFBD9E" points="23.887,30.645 24.212,30.656 24.232,28.226 23.902,28.198 "/>
<polygon fill="none" stroke="#FCC7AB" stroke-width="0.052" stroke-miterlimit="10" points="23.887,30.645 24.212,30.656 
	24.232,28.226 23.902,28.198 "/>
<polygon fill="#FFBD9E" points="23.411,30.628 23.742,30.639 23.757,28.188 23.421,28.158 "/>
<polygon fill="none" stroke="#FCC7AB" stroke-width="0.052" stroke-miterlimit="10" points="23.411,30.628 23.742,30.639 
	23.757,28.188 23.421,28.158 "/>
<path fill="#FFBD9E" d="M23.691,27.844l0.333,0.029l0.011-1.447c0,0-0.059-0.224-0.166-0.237c-0.107-0.013-0.17,0.197-0.17,0.197
	L23.691,27.844z"/>
<path fill="none" stroke="#FCC7AB" stroke-width="0.052" stroke-miterlimit="10" d="M23.691,27.844l0.333,0.029l0.011-1.447
	c0,0-0.059-0.224-0.166-0.237c-0.107-0.013-0.17,0.197-0.17,0.197L23.691,27.844z"/>
<path fill="#FFBD9E" d="M23.177,27.798l0.34,0.03l0.006-1.463c0,0-0.061-0.227-0.17-0.24c-0.109-0.013-0.173,0.2-0.173,0.2
	L23.177,27.798z"/>
<path fill="none" stroke="#FCC7AB" stroke-width="0.052" stroke-miterlimit="10" d="M23.177,27.798l0.34,0.03l0.006-1.463
	c0,0-0.061-0.227-0.17-0.24c-0.109-0.013-0.173,0.2-0.173,0.2L23.177,27.798z"/>
<polygon fill="#FFBD9E" points="22.915,30.609 23.251,30.622 23.258,28.146 22.915,28.116 "/>
<polygon fill="none" stroke="#FCC7AB" stroke-width="0.052" stroke-miterlimit="10" points="22.915,30.609 23.251,30.622 
	23.258,28.146 22.915,28.116 "/>
<polygon fill="#FFBD9E" points="23.868,49.884 24.188,49.879 24.209,31.022 23.885,31.013 "/>
<polygon fill="none" stroke="#FCC7AB" stroke-width="0.052" stroke-miterlimit="10" points="23.868,49.884 24.188,49.879 
	24.209,31.022 23.885,31.013 "/>
<polygon fill="#FFBD9E" points="23.401,49.893 23.727,49.887 23.74,31.008 23.41,30.998 "/>
<polygon fill="none" stroke="#FCC7AB" stroke-width="0.052" stroke-miterlimit="10" points="23.401,49.893 23.727,49.887 
	23.74,31.008 23.41,30.998 "/>
<polygon fill="#FFBD9E" points="22.913,49.9 23.244,49.895 23.251,30.994 22.913,30.984 "/>
<polygon fill="none" stroke="#FCC7AB" stroke-width="0.052" stroke-miterlimit="10" points="22.913,49.9 23.244,49.895 
	23.251,30.994 22.913,30.984 "/>
<path fill="#FFBD9E" d="M24.156,27.885l0.008-0.979c0,0,0.219,0.652,0.204,0.786C24.354,27.824,24.235,27.937,24.156,27.885"/>
<path fill="none" stroke="#FCC7AB" stroke-width="0.052" stroke-miterlimit="10" d="M24.156,27.885l0.008-0.979
	c0,0,0.219,0.652,0.204,0.786C24.354,27.824,24.235,27.937,24.156,27.885z"/>
<path fill="#FFBD9E" d="M23.054,27.786l0.002-1c0,0-0.236,0.623-0.223,0.762C22.847,27.688,22.971,27.824,23.054,27.786"/>
<path fill="none" stroke="#FCC7AB" stroke-width="0.052" stroke-miterlimit="10" d="M23.054,27.786l0.002-1
	c0,0-0.236,0.623-0.223,0.762C22.847,27.688,22.971,27.824,23.054,27.786z"/>
<path fill="#FFBD9E" d="M23.87,25.992c0,0-0.236,0.04-0.271,0.244c0,0-0.081-0.3-0.211-0.304c-0.131-0.005,0.104-0.335,0.244-0.317
	C23.771,25.634,23.978,26.042,23.87,25.992"/>
<path fill="none" stroke="#FCC7AB" stroke-width="0.052" stroke-miterlimit="10" d="M23.87,25.992c0,0-0.236,0.04-0.271,0.244
	c0,0-0.081-0.3-0.211-0.304c-0.131-0.005,0.104-0.335,0.244-0.317C23.771,25.634,23.978,26.042,23.87,25.992z"/>
<path fill="#FFBD9E" d="M24.603,27.713c0,0-0.006-1.776-0.828-2.643c0,0-0.675-0.02-0.941,1.494c0,0,0.427-1.224,0.871-1.148
	C24.141,25.489,24.53,27.227,24.603,27.713"/>
<path fill="none" stroke="#FCC7AB" stroke-width="0.052" stroke-miterlimit="10" d="M24.603,27.713c0,0-0.006-1.776-0.828-2.643
	c0,0-0.675-0.02-0.941,1.494c0,0,0.427-1.224,0.871-1.148C24.141,25.489,24.53,27.227,24.603,27.713z"/>
<path fill="#FFBD9E" d="M17.931,22.723c0.235,0,0.435,0.354,0.488,0.832h0.018c0-0.609-0.228-1.103-0.506-1.103
	c-0.28,0-0.507,0.493-0.507,1.103h0.017C17.495,23.077,17.693,22.723,17.931,22.723"/>
<path fill="none" stroke="#FCC7AB" stroke-width="0.052" stroke-miterlimit="10" d="M17.931,22.723c0.235,0,0.435,0.354,0.488,0.832
	h0.018c0-0.609-0.228-1.103-0.506-1.103c-0.28,0-0.507,0.493-0.507,1.103h0.017C17.495,23.077,17.693,22.723,17.931,22.723z"/>
<polyline fill="#FFBD9E" points="13.674,28.007 15.512,28.007 15.321,28.3 15.321,50.05 15.164,50.05 15.164,28.479 14.441,29.202 
	14.441,50.05 14.349,50.05 14.349,28.614 "/>
<polyline fill="none" stroke="#FCC7AB" stroke-width="0.052" stroke-miterlimit="10" points="13.674,28.007 15.512,28.007 
	15.321,28.3 15.321,50.05 15.164,50.05 15.164,28.479 14.441,29.202 14.441,50.05 14.349,50.05 14.349,28.614 "/>
<polyline fill="none" stroke="#FCC7AB" stroke-width="0.052" stroke-miterlimit="10" points="15.513,21.946 15.513,27.456 
	15.929,27.873 15.462,28.339 15.462,50.05 "/>
<polygon fill="#FFBD9E" points="15.929,27.873 16.647,27.873 17.054,28.007 19.257,28.007 19.325,27.805 21.528,27.805 
	21.349,27.984 20.606,27.984 20.606,28.952 20.055,28.4 20.055,28.052 19.415,28.052 19.054,28.052 16.827,28.052 15.704,28.052 "/>
<path fill="none" stroke="#FCC7AB" stroke-width="0.047" stroke-miterlimit="10" d="M14.582,16.889l-0.117-0.024
	c-0.028-0.005-0.041-0.062-0.028-0.126c0.015-0.064,0.048-0.111,0.076-0.105l0.117,0.024"/>
<path fill="none" stroke="#FCC7AB" stroke-width="0.047" stroke-miterlimit="10" d="M14.673,16.355l-0.113-0.023
	c-0.026-0.005-0.039-0.059-0.026-0.121c0.014-0.062,0.046-0.107,0.072-0.102l0.113,0.023"/>
<path fill="none" stroke="#FCC7AB" stroke-width="0.047" stroke-miterlimit="10" d="M14.763,15.823l-0.108-0.021
	c-0.026-0.006-0.037-0.059-0.025-0.118c0.013-0.06,0.043-0.104,0.07-0.098l0.108,0.022"/>
<path fill="none" stroke="#FCC7AB" stroke-width="0.047" stroke-miterlimit="10" d="M14.854,15.29L14.75,15.27
	c-0.025-0.005-0.037-0.056-0.025-0.113c0.013-0.058,0.042-0.099,0.067-0.094l0.105,0.021"/>
<path fill="none" stroke="#FCC7AB" stroke-width="0.047" stroke-miterlimit="10" d="M14.944,14.758l-0.101-0.021
	c-0.024-0.004-0.034-0.053-0.022-0.107c0.011-0.055,0.039-0.095,0.063-0.09l0.103,0.021"/>
<path fill="none" stroke="#FCC7AB" stroke-width="0.047" stroke-miterlimit="10" d="M15.035,14.225l-0.096-0.021
	c-0.023-0.003-0.033-0.05-0.023-0.103c0.011-0.053,0.039-0.091,0.062-0.086l0.097,0.02"/>
<path fill="none" stroke="#FCC7AB" stroke-width="0.047" stroke-miterlimit="10" d="M15.858,16.889l0.117-0.024
	c0.028-0.005,0.041-0.062,0.027-0.126s-0.047-0.111-0.076-0.105l-0.117,0.024"/>
<path fill="none" stroke="#FCC7AB" stroke-width="0.047" stroke-miterlimit="10" d="M15.767,16.355l0.113-0.023
	c0.028-0.005,0.04-0.059,0.027-0.121c-0.014-0.062-0.045-0.107-0.073-0.102l-0.113,0.023"/>
<path fill="none" stroke="#FCC7AB" stroke-width="0.047" stroke-miterlimit="10" d="M15.677,15.823l0.108-0.021
	c0.027-0.006,0.038-0.059,0.026-0.118c-0.014-0.06-0.043-0.104-0.071-0.098l-0.108,0.022"/>
<path fill="none" stroke="#FCC7AB" stroke-width="0.047" stroke-miterlimit="10" d="M15.586,15.29l0.104-0.021
	c0.025-0.005,0.037-0.056,0.025-0.113s-0.043-0.099-0.068-0.094l-0.104,0.021"/>
<path fill="none" stroke="#FCC7AB" stroke-width="0.047" stroke-miterlimit="10" d="M15.495,14.758l0.101-0.021
	c0.024-0.004,0.035-0.053,0.024-0.107c-0.012-0.055-0.041-0.095-0.065-0.09l-0.101,0.021"/>
<path fill="none" stroke="#FCC7AB" stroke-width="0.047" stroke-miterlimit="10" d="M15.404,14.225l0.097-0.021
	c0.024-0.003,0.034-0.05,0.023-0.103c-0.012-0.053-0.039-0.091-0.062-0.086l-0.097,0.02"/>
<path fill="none" stroke="#FCC7AB" stroke-width="0.047" stroke-miterlimit="10" d="M20.368,16.652l-0.118-0.024
	c-0.028-0.006-0.04-0.062-0.027-0.126s0.047-0.111,0.075-0.105l0.118,0.024"/>
<path fill="none" stroke="#FCC7AB" stroke-width="0.047" stroke-miterlimit="10" d="M20.458,16.119l-0.113-0.023
	c-0.026-0.005-0.039-0.06-0.026-0.121s0.046-0.107,0.072-0.102l0.113,0.023"/>
<path fill="none" stroke="#FCC7AB" stroke-width="0.047" stroke-miterlimit="10" d="M20.549,15.587l-0.109-0.022
	c-0.025-0.005-0.037-0.058-0.024-0.116c0.012-0.06,0.044-0.104,0.068-0.099l0.109,0.022"/>
<path fill="none" stroke="#FCC7AB" stroke-width="0.047" stroke-miterlimit="10" d="M20.64,15.055l-0.104-0.021
	c-0.025-0.005-0.037-0.057-0.025-0.112c0.013-0.058,0.042-0.1,0.067-0.096l0.105,0.022"/>
<path fill="none" stroke="#FCC7AB" stroke-width="0.047" stroke-miterlimit="10" d="M20.729,14.521l-0.1-0.021
	c-0.024-0.004-0.035-0.053-0.023-0.106c0.011-0.055,0.04-0.096,0.064-0.091l0.101,0.021"/>
<path fill="none" stroke="#FCC7AB" stroke-width="0.047" stroke-miterlimit="10" d="M20.82,13.989l-0.096-0.02
	c-0.023-0.005-0.033-0.052-0.022-0.104c0.011-0.053,0.038-0.092,0.062-0.087l0.097,0.02"/>
<path fill="none" stroke="#FCC7AB" stroke-width="0.047" stroke-miterlimit="10" d="M21.644,16.652l0.117-0.024
	c0.029-0.006,0.041-0.062,0.027-0.126s-0.047-0.111-0.074-0.105l-0.118,0.024"/>
<path fill="none" stroke="#FCC7AB" stroke-width="0.047" stroke-miterlimit="10" d="M21.553,16.119l0.113-0.023
	c0.027-0.005,0.04-0.06,0.025-0.121c-0.012-0.062-0.045-0.107-0.071-0.102l-0.113,0.023"/>
<path fill="none" stroke="#FCC7AB" stroke-width="0.047" stroke-miterlimit="10" d="M21.462,15.587l0.109-0.022
	c0.025-0.005,0.037-0.058,0.024-0.116c-0.011-0.06-0.043-0.104-0.069-0.099l-0.108,0.022"/>
<path fill="none" stroke="#FCC7AB" stroke-width="0.047" stroke-miterlimit="10" d="M21.372,15.055l0.104-0.021
	c0.025-0.005,0.038-0.057,0.025-0.112c-0.013-0.058-0.043-0.1-0.067-0.096l-0.105,0.022"/>
<path fill="none" stroke="#FCC7AB" stroke-width="0.047" stroke-miterlimit="10" d="M21.28,14.521l0.102-0.021
	c0.023-0.004,0.035-0.053,0.022-0.106c-0.011-0.055-0.04-0.096-0.063-0.091l-0.102,0.021"/>
<path fill="none" stroke="#FCC7AB" stroke-width="0.047" stroke-miterlimit="10" d="M21.19,13.989l0.097-0.02
	c0.022-0.005,0.032-0.052,0.021-0.104c-0.011-0.053-0.038-0.092-0.062-0.087l-0.096,0.02"/>
<path fill="none" stroke="#FCC7AB" stroke-width="0.047" stroke-miterlimit="10" d="M24.933,17.066l-0.117-0.023
	c-0.029-0.007-0.041-0.062-0.027-0.127c0.014-0.062,0.047-0.11,0.075-0.104l0.117,0.023"/>
<path fill="none" stroke="#FCC7AB" stroke-width="0.047" stroke-miterlimit="10" d="M25.023,16.534l-0.113-0.023
	c-0.026-0.006-0.039-0.06-0.026-0.123c0.014-0.06,0.046-0.105,0.072-0.1l0.113,0.022"/>
<path fill="none" stroke="#FCC7AB" stroke-width="0.047" stroke-miterlimit="10" d="M25.114,16.001l-0.109-0.021
	c-0.025-0.006-0.038-0.058-0.025-0.118c0.012-0.058,0.044-0.103,0.069-0.097l0.109,0.021"/>
<path fill="none" stroke="#FCC7AB" stroke-width="0.047" stroke-miterlimit="10" d="M25.205,15.47L25.1,15.449
	c-0.024-0.007-0.036-0.058-0.023-0.114c0.011-0.057,0.042-0.1,0.067-0.094l0.104,0.021"/>
<path fill="none" stroke="#FCC7AB" stroke-width="0.047" stroke-miterlimit="10" d="M25.296,14.937l-0.102-0.021
	c-0.023-0.006-0.034-0.054-0.023-0.108c0.012-0.054,0.041-0.095,0.064-0.09l0.102,0.021"/>
<path fill="none" stroke="#FCC7AB" stroke-width="0.047" stroke-miterlimit="10" d="M25.387,14.404l-0.097-0.021
	c-0.023-0.005-0.033-0.051-0.023-0.104c0.011-0.052,0.039-0.091,0.062-0.086l0.097,0.02"/>
<path fill="none" stroke="#FCC7AB" stroke-width="0.047" stroke-miterlimit="10" d="M26.209,17.066l0.117-0.023
	c0.027-0.007,0.041-0.062,0.027-0.127c-0.013-0.062-0.047-0.11-0.075-0.104l-0.117,0.023"/>
<path fill="none" stroke="#FCC7AB" stroke-width="0.047" stroke-miterlimit="10" d="M26.118,16.534l0.113-0.023
	c0.026-0.006,0.04-0.06,0.025-0.123c-0.012-0.06-0.045-0.105-0.072-0.1l-0.112,0.022"/>
<path fill="none" stroke="#FCC7AB" stroke-width="0.047" stroke-miterlimit="10" d="M26.027,16.001l0.108-0.021
	c0.026-0.006,0.039-0.058,0.025-0.118c-0.011-0.058-0.043-0.103-0.068-0.097l-0.109,0.021"/>
<path fill="none" stroke="#FCC7AB" stroke-width="0.047" stroke-miterlimit="10" d="M25.937,15.47l0.104-0.021
	c0.026-0.007,0.038-0.058,0.024-0.114c-0.012-0.057-0.041-0.1-0.066-0.094l-0.105,0.021"/>
<path fill="none" stroke="#FCC7AB" stroke-width="0.047" stroke-miterlimit="10" d="M25.847,14.937l0.101-0.021
	c0.024-0.006,0.035-0.054,0.022-0.108c-0.011-0.054-0.039-0.095-0.063-0.09l-0.101,0.021"/>
<path fill="none" stroke="#FCC7AB" stroke-width="0.047" stroke-miterlimit="10" d="M25.755,14.404l0.097-0.021
	c0.023-0.005,0.034-0.051,0.022-0.104c-0.011-0.052-0.038-0.091-0.061-0.086l-0.098,0.02"/>
<path fill="#FF345C" d="M15.333,13.781c0-0.49-0.089-1.088-0.125-1.088c-0.034,0-0.123,0.598-0.123,1.088H15.333z"/>
<line fill="none" stroke="#FF345C" stroke-width="0.101" stroke-miterlimit="10" x1="15.22" y1="12.815" x2="15.22" y2="12.096"/>
<polygon fill="#FF345C" points="15.231,12.096 15.231,12.501 15.715,12.253 "/>
<path fill="#FF345C" d="M15.118,13.653l-0.072,0.001c-0.019,0.001-0.033-0.041-0.033-0.041v-0.028
	c-0.001-0.03,0.013-0.056,0.03-0.056l0.073-0.001"/>
<path fill="#FF345C" d="M15.153,13.12l-0.073-0.003c-0.018,0-0.03-0.043-0.03-0.043v-0.028c0-0.031,0.017-0.055,0.034-0.054
	l0.074,0.002"/>
<path fill="#FF345C" d="M15.106,13.39l-0.074-0.002c-0.017,0-0.029-0.045-0.029-0.045v-0.027c0.002-0.029,0.018-0.054,0.035-0.054
	l0.073,0.002"/>
<path fill="#FF345C" d="M15.29,13.653l0.074,0.001c0.019,0.001,0.033-0.041,0.033-0.041v-0.028c0.001-0.03-0.013-0.056-0.031-0.056
	l-0.074-0.001"/>
<path fill="#FF345C" d="M15.257,13.12l0.073-0.003c0.019,0,0.031-0.043,0.031-0.043l-0.002-0.028
	c-0.001-0.031-0.017-0.055-0.034-0.054l-0.073,0.002"/>
<path fill="#FF345C" d="M15.303,13.39l0.074-0.002c0.017,0,0.03-0.045,0.03-0.045l-0.001-0.027
	c-0.002-0.029-0.017-0.054-0.034-0.054l-0.073,0.002"/>
<path fill="#FF345C" d="M19.832,14.26c0-0.489-0.088-1.086-0.124-1.086c-0.035,0-0.124,0.597-0.124,1.086H19.832z"/>
<line fill="none" stroke="#FF345C" stroke-width="0.101" stroke-miterlimit="10" x1="19.72" y1="13.295" x2="19.72" y2="12.575"/>
<polygon fill="#FF345C" points="19.731,12.575 19.731,12.98 20.214,12.731 "/>
<path fill="#FF345C" d="M19.618,14.134l-0.073,0.001c-0.018,0-0.033-0.043-0.033-0.043v-0.028c0-0.03,0.014-0.055,0.032-0.055
	l0.073-0.001"/>
<path fill="#FF345C" d="M19.653,13.6l-0.073-0.003c-0.019-0.001-0.031-0.044-0.031-0.044l0.001-0.028
	c0.001-0.03,0.017-0.054,0.034-0.054l0.073,0.002"/>
<path fill="#FF345C" d="M19.606,13.869l-0.073-0.002c-0.019,0-0.031-0.045-0.031-0.045l0.001-0.027
	c0.001-0.029,0.017-0.055,0.035-0.054l0.072,0.002"/>
<path fill="#FF345C" d="M19.791,14.134l0.073,0.001c0.018,0,0.033-0.043,0.033-0.043v-0.028c0-0.03-0.014-0.055-0.03-0.055
	l-0.074-0.001"/>
<path fill="#FF345C" d="M19.757,13.6l0.073-0.003c0.019-0.001,0.03-0.044,0.03-0.044l-0.001-0.028c0-0.03-0.017-0.054-0.034-0.054
	l-0.073,0.002"/>
<path fill="#FF345C" d="M19.803,13.869l0.074-0.002c0.017,0,0.029-0.045,0.029-0.045l-0.001-0.027
	c-0.001-0.029-0.016-0.055-0.033-0.054l-0.073,0.002"/>
<path fill="#FF345C" d="M21.08,13.462c0-0.49-0.088-1.087-0.124-1.087c-0.035,0-0.123,0.597-0.123,1.087H21.08z"/>
<line fill="none" stroke="#FF345C" stroke-width="0.101" stroke-miterlimit="10" x1="20.968" y1="12.497" x2="20.968" y2="11.777"/>
<polygon fill="#FF345C" points="20.979,11.777 20.979,12.182 21.462,11.934 "/>
<path fill="#FF345C" d="M20.866,13.334l-0.073,0.003c-0.018,0-0.032-0.043-0.032-0.043v-0.028c-0.001-0.029,0.013-0.055,0.031-0.056
	l0.072-0.001"/>
<path fill="#FF345C" d="M20.901,12.801l-0.074-0.003c-0.018,0-0.029-0.043-0.029-0.043v-0.028c0.002-0.03,0.017-0.055,0.034-0.054
	l0.074,0.003"/>
<path fill="#FF345C" d="M20.854,13.07l-0.072-0.001c-0.019-0.002-0.031-0.045-0.031-0.045l0.001-0.028
	c0.001-0.03,0.016-0.054,0.034-0.054l0.072,0.003"/>
<path fill="#FF345C" d="M21.039,13.334l0.074,0.003c0.018,0,0.032-0.043,0.032-0.043v-0.028c0-0.029-0.013-0.055-0.03-0.056
	l-0.075-0.001"/>
<path fill="#FF345C" d="M21.005,12.801l0.073-0.003c0.018,0,0.03-0.043,0.03-0.043l-0.001-0.028
	c-0.001-0.03-0.017-0.055-0.034-0.054L21,12.676"/>
<path fill="#FF345C" d="M21.051,13.07l0.074-0.001c0.017-0.002,0.03-0.045,0.03-0.045l-0.002-0.028c0-0.03-0.016-0.054-0.033-0.054
	l-0.073,0.003"/>
<path fill="#FF345C" d="M25.668,13.867c0-0.49-0.088-1.088-0.123-1.088c-0.036,0-0.125,0.598-0.125,1.088H25.668z"/>
<line fill="none" stroke="#FF345C" stroke-width="0.101" stroke-miterlimit="10" x1="25.556" y1="12.901" x2="25.556" y2="12.182"/>
<polygon fill="#FF345C" points="25.567,12.182 25.567,12.587 26.05,12.339 "/>
<path fill="#FF345C" d="M25.454,13.739l-0.073,0.001c-0.018,0.001-0.032-0.041-0.032-0.041V13.67
	c-0.001-0.03,0.013-0.056,0.031-0.056h0.072"/>
<path fill="#FF345C" d="M25.489,13.206l-0.074-0.003c-0.017-0.001-0.031-0.044-0.031-0.044l0.002-0.028
	c0-0.03,0.017-0.054,0.034-0.054l0.073,0.003"/>
<path fill="#FF345C" d="M25.442,13.476l-0.073-0.003c-0.018,0-0.03-0.044-0.03-0.044l0.001-0.027
	c0.001-0.029,0.016-0.054,0.034-0.054l0.072,0.002"/>
<path fill="#FF345C" d="M25.627,13.739l0.074,0.001c0.018,0.001,0.032-0.041,0.032-0.041V13.67c0-0.03-0.014-0.056-0.031-0.056
	h-0.073"/>
<path fill="#FF345C" d="M25.593,13.206l0.073-0.003c0.019-0.001,0.031-0.044,0.031-0.044l-0.001-0.028
	c-0.001-0.03-0.018-0.054-0.035-0.054l-0.073,0.003"/>
<path fill="#FF345C" d="M25.639,13.476l0.074-0.003c0.017,0,0.029-0.044,0.029-0.044v-0.027c-0.002-0.029-0.017-0.054-0.034-0.054
	l-0.074,0.002"/>
<line fill="none" stroke="#FCC7AB" stroke-width="0.101" stroke-miterlimit="10" x1="22.72" y1="21.868" x2="22.72" y2="27.445"/>
<line fill="none" stroke="#FCC7AB" stroke-width="0.101" stroke-miterlimit="10" x1="25.441" y1="21.868" x2="25.441" y2="27.445"/>
<line fill="none" stroke="#FCC7AB" stroke-width="0.101" stroke-miterlimit="10" x1="25.272" y1="22.036" x2="25.272" y2="27.613"/>
<polyline fill="#FFBD9E" points="21.528,27.805 22.832,27.85 22.923,27.962 22.766,28.03 21.349,28.03 "/>
<polyline fill="#FFBD9E" points="24.542,27.85 25.239,27.85 27.016,27.962 27.286,28.075 27.016,28.12 25.44,28.03 25.44,50.071 
	25.194,50.071 25.194,27.984 24.677,27.984 "/>
<line fill="none" stroke="#FCC7AB" stroke-width="0.047" stroke-miterlimit="10" x1="21.062" y1="17.083" x2="21.062" y2="19.462"/>
<line fill="none" stroke="#FCC7AB" stroke-width="0.047" stroke-miterlimit="10" x1="21.315" y1="19.546" x2="21.315" y2="21.654"/>
<line fill="none" stroke="#FCC7AB" stroke-width="0.047" stroke-miterlimit="10" x1="21.229" y1="21.806" x2="21.229" y2="27.608"/>
<line fill="none" stroke="#FCC7AB" stroke-width="0.047" stroke-miterlimit="10" x1="21.229" y1="27.979" x2="21.229" y2="50.207"/>
<rect x="19.308" fill="#FF345C" width="2.941" height="3.139"/>
<rect x="22.254" y="0.358" fill="#FF345C" width="1.827" height="3.139"/>
<path fill="#FFFFFF" d="M21.63,1.123c-0.05,0.011-0.098,0.028-0.145,0.054l0.133,0.001L21.63,1.123z"/>
<path fill="#FFFFFF" d="M21.404,1.177c0.072-0.052,0.153-0.086,0.235-0.101l0.02-0.093c-0.13,0.021-0.264,0.086-0.377,0.192
	L21.404,1.177z"/>
<path fill="#FFFFFF" d="M21.728,1.984c-0.032,0.015-0.066,0.027-0.102,0.035l-0.02,0.089c0.041-0.009,0.082-0.02,0.121-0.036V1.984z
	"/>
<path fill="#FFFFFF" d="M21.637,1.971c0.031-0.007,0.062-0.021,0.091-0.034V1.857c-0.023,0.013-0.048,0.023-0.073,0.03L21.637,1.971
	z"/>
<path fill="#FFFFFF" d="M21.499,1.369l-0.082-0.001c-0.067,0.073-0.106,0.161-0.107,0.247c0,0.025,0.003,0.048,0.009,0.07h0.079
	c-0.013-0.026-0.02-0.058-0.02-0.09c0-0.071,0.033-0.143,0.094-0.202C21.48,1.385,21.489,1.378,21.499,1.369"/>
<path fill="#FFFFFF" d="M21.728,1.547l-0.035,0.164c0.014-0.006,0.023-0.017,0.035-0.025V1.547z"/>
<path fill="#FFFFFF" d="M21.358,1.368h-0.08c-0.057,0.083-0.089,0.178-0.09,0.27c0,0.016,0,0.032,0.003,0.047l0.081,0.001
	c-0.005-0.023-0.008-0.046-0.008-0.071c0.001-0.05,0.013-0.1,0.035-0.151C21.315,1.431,21.334,1.398,21.358,1.368"/>
<path fill="#FFFFFF" d="M21.13,1.366c-0.055,0.096-0.085,0.197-0.085,0.298c0,0.007,0,0.012,0,0.019l0.101,0.002
	c-0.002-0.016-0.002-0.032-0.002-0.048c0.001-0.092,0.029-0.186,0.082-0.27L21.13,1.366z"/>
<path fill="#FFFFFF" d="M21.665,1.838c0.021-0.008,0.043-0.02,0.062-0.031V1.742c-0.015,0.01-0.031,0.019-0.047,0.024L21.665,1.838z
	"/>
<path fill="#FFFFFF" d="M21.728,2.12c-0.043,0.015-0.087,0.027-0.13,0.035l-0.013,0.057l0.143,0.002V2.12z"/>
<path fill="#FFFFFF" d="M21.291,1.89c0.044,0.042,0.097,0.071,0.155,0.085l0.018-0.082l0.001-0.001h-0.002L21.291,1.89z"/>
<path fill="#FFFFFF" d="M21.048,1.888l-0.106-0.001l0.043-0.205H21c0-0.006-0.001-0.011,0-0.019
	c0.001-0.101,0.028-0.202,0.079-0.298h-0.025l0.037-0.175c-0.108,0.134-0.176,0.286-0.19,0.436c-0.021,0.183,0.037,0.353,0.16,0.477
	c0.043,0.045,0.094,0.08,0.151,0.106l0.183,0.002l0.012-0.056c-0.104-0.017-0.196-0.064-0.269-0.138
	C21.101,1.979,21.07,1.936,21.048,1.888"/>
<path fill="#FFFFFF" d="M21.229,1.89l-0.132-0.002c0.019,0.036,0.043,0.069,0.071,0.099c0.066,0.067,0.15,0.11,0.247,0.125
	l0.021-0.093c-0.07-0.017-0.134-0.054-0.188-0.107C21.242,1.904,21.235,1.896,21.229,1.89"/>
<path fill="#FFFFFF" d="M21.104,1.173l0.115,0.002c0.006-0.007,0.012-0.014,0.018-0.02c0.124-0.12,0.276-0.197,0.432-0.22
	l0.017-0.07L21.56,0.864c-0.136,0.041-0.269,0.119-0.383,0.231C21.15,1.121,21.126,1.146,21.104,1.173"/>
<path fill="#FFFFFF" d="M21.423,1.596c0,0.034,0.008,0.065,0.026,0.091l0.047,0.001l0.066-0.307
	c-0.021,0.012-0.041,0.027-0.06,0.045C21.451,1.477,21.423,1.537,21.423,1.596"/>
<path fill="#FFFFFF" d="M20.493,1.995l-0.044,0.206l0.125,0.001c-0.019-0.032-0.033-0.064-0.046-0.1
	C20.515,2.068,20.502,2.032,20.493,1.995"/>
<path fill="#FFFFFF" d="M20.738,0.856l-0.05,0.234c0.055-0.081,0.119-0.159,0.193-0.232L20.738,0.856z"/>
<path fill="#FFFFFF" d="M20.668,1.728c0.001-0.132,0.033-0.266,0.093-0.396c0.063-0.136,0.153-0.263,0.27-0.377
	c0.033-0.033,0.07-0.065,0.106-0.095l-0.19-0.001c-0.009,0.007-0.017,0.016-0.024,0.022c-0.106,0.105-0.195,0.22-0.262,0.342
	l-0.143,0.659c0.009,0.071,0.026,0.14,0.052,0.205c0.016,0.04,0.034,0.079,0.056,0.116l0.2,0.003
	c-0.044-0.058-0.079-0.12-0.105-0.187C20.685,1.928,20.667,1.832,20.668,1.728"/>
<path fill="#FFFFFF" d="M20.855,1.622c0.01-0.098,0.04-0.193,0.087-0.287c0.05-0.098,0.118-0.188,0.203-0.271
	c0.08-0.079,0.171-0.143,0.27-0.189c0.008-0.005,0.016-0.008,0.022-0.011L21.21,0.861c-0.052,0.037-0.102,0.078-0.148,0.125
	c-0.112,0.109-0.2,0.231-0.259,0.362c-0.06,0.126-0.089,0.254-0.091,0.38c0,0.097,0.017,0.189,0.05,0.275
	c0.028,0.074,0.068,0.142,0.122,0.202l0.234,0.002c-0.033-0.022-0.062-0.046-0.091-0.074C20.896,1.999,20.834,1.817,20.855,1.622"/>
<path fill="#FFFFFF" d="M22.674,1.433l-0.091-0.002c-0.001,0.012-0.002,0.022-0.003,0.035c-0.012,0.095-0.037,0.19-0.076,0.282
	l0.103,0.001L22.674,1.433z"/>
<path fill="#FFFFFF" d="M22.679,0.988c-0.015-0.039-0.033-0.077-0.054-0.114l-0.21-0.001c0.074,0.092,0.126,0.198,0.151,0.314
	l0.163,0.002C22.721,1.119,22.702,1.052,22.679,0.988"/>
<path fill="#FFFFFF" d="M22.259,1.428c0,0.026-0.004,0.056-0.008,0.082c-0.013,0.08-0.041,0.16-0.083,0.235l0.101,0.001
	c0.044-0.085,0.072-0.176,0.085-0.264c0.002-0.019,0.004-0.036,0.005-0.054L22.259,1.428z"/>
<path fill="#FFFFFF" d="M21.786,1.393c-0.006-0.006-0.013-0.011-0.019-0.016l-0.021,0.09v0.205c0.004-0.001,0.007-0.003,0.01-0.006
	c0.042-0.041,0.067-0.093,0.072-0.146C21.835,1.472,21.818,1.426,21.786,1.393"/>
<path fill="#FFFFFF" d="M22.535,1.461c0.001-0.01,0.002-0.021,0.003-0.031l-0.135-0.001c-0.001,0.021-0.003,0.04-0.006,0.06
	c-0.012,0.087-0.038,0.174-0.08,0.258l0.138,0.001C22.497,1.654,22.524,1.558,22.535,1.461"/>
<path fill="#FFFFFF" d="M22.112,0.869c0.043,0.025,0.08,0.055,0.115,0.09c0.064,0.066,0.112,0.143,0.142,0.227l0.151,0.002
	c-0.027-0.118-0.083-0.226-0.165-0.315L22.112,0.869z"/>
<path fill="#FFFFFF" d="M21.819,1.742c0.08-0.08,0.125-0.172,0.125-0.258c0-0.067-0.023-0.128-0.071-0.177
	c-0.022-0.022-0.05-0.04-0.079-0.052L21.776,1.33c0.017,0.008,0.03,0.02,0.043,0.032c0.04,0.041,0.061,0.1,0.055,0.162
	c-0.005,0.062-0.036,0.125-0.086,0.174c-0.013,0.012-0.026,0.022-0.04,0.032v0.067C21.772,1.782,21.797,1.763,21.819,1.742"/>
<path fill="#FFFFFF" d="M21.878,0.868l-0.017,0.071c0.021,0.005,0.041,0.01,0.062,0.016c0.074,0.024,0.139,0.063,0.19,0.116
	c0.06,0.062,0.103,0.131,0.124,0.209c0.001,0.002,0.001,0.005,0.002,0.007l0.022-0.103h0.06c-0.027-0.071-0.068-0.136-0.126-0.193
	c-0.053-0.056-0.118-0.096-0.188-0.122L21.878,0.868z"/>
<path fill="#FFFFFF" d="M22.071,2.068c-0.066,0.059-0.142,0.108-0.221,0.147l0.189,0.001L22.071,2.068z"/>
<path fill="#FFFFFF" d="M22.72,0.972c0.016,0.041,0.028,0.082,0.038,0.124l0.046-0.219l-0.127-0.002
	C22.692,0.906,22.707,0.939,22.72,0.972"/>
<path fill="#FFFFFF" d="M22.074,2.005c0.005-0.005,0.009-0.01,0.014-0.014l0.039-0.182c-0.032,0.046-0.067,0.09-0.109,0.13
	c-0.078,0.077-0.171,0.135-0.27,0.172V2.21C21.868,2.166,21.981,2.097,22.074,2.005"/>
<path fill="#FFFFFF" d="M21.804,1.212c0.038,0.014,0.073,0.035,0.102,0.064c0.056,0.057,0.085,0.129,0.085,0.207
	c-0.002,0.101-0.052,0.202-0.142,0.29c-0.029,0.03-0.064,0.056-0.101,0.076v0.078c0.051-0.026,0.101-0.062,0.146-0.105
	c0.195-0.191,0.228-0.455,0.074-0.611c-0.039-0.041-0.091-0.07-0.146-0.085L21.804,1.212z"/>
<path fill="#FFFFFF" d="M21.831,1.082c0.064,0.017,0.122,0.049,0.168,0.097c0.173,0.175,0.141,0.466-0.074,0.676
	c-0.054,0.054-0.114,0.094-0.178,0.124v0.086c0.088-0.035,0.17-0.088,0.239-0.156c0.12-0.117,0.198-0.262,0.22-0.404
	c0.004-0.025,0.007-0.052,0.008-0.076V1.409c-0.004-0.116-0.049-0.221-0.133-0.306C22.019,1.04,21.939,1,21.853,0.983L21.831,1.082z
	"/>
</svg>
