<?xml version="1.0" encoding="utf-8"?>
<!-- Generator: Adobe Illustrator 15.0.2, SVG Export Plug-In  -->
<!DOCTYPE svg PUBLIC "-//W3C//DTD SVG 1.1//EN" "http://www.w3.org/Graphics/SVG/1.1/DTD/svg11.dtd" [
	<!ENTITY ns_flows "http://ns.adobe.com/Flows/1.0/">
]>
<svg version="1.1"
	 xmlns="http://www.w3.org/2000/svg" xmlns:xlink="http://www.w3.org/1999/xlink" xmlns:a="http://ns.adobe.com/AdobeSVGViewerExtensions/3.0/"
	 x="0px" y="0px" width="24px" height="143px" viewBox="-0.468 -0.486 24 143"
	 overflow="visible" enable-background="new -0.468 -0.486 24 143" xml:space="preserve">
<defs>
</defs>
<polygon fill="#FFEEAD" stroke="#FF345C" stroke-width="0.4874" stroke-miterlimit="10" points="0.771,82.91 9.803,33.362 
	18.461,83.6 "/>
<rect x="2.532" y="83.6" fill="#FFEEAD" stroke="#FF345C" stroke-width="0.4874" stroke-miterlimit="10" width="13.333" height="58.062"/>
<rect x="10.384" y="0.058" fill="#6BB1CD" width="4.619" height="8.082"/>
<rect x="15.003" y="0.058" fill="#F4F4F4" width="3.289" height="8.082"/>
<rect x="18.292" y="1.353" fill="#FF345C" width="4.513" height="8.082"/>
<line fill="none" stroke="#FF345C" stroke-width="0.5362" stroke-miterlimit="10" x1="9.528" y1="0" x2="9.528" y2="36.185"/>
<path fill="#FFBD9E" d="M19.231,83.328c-0.005,0.766-0.44,1.383-0.971,1.379L0.95,84.575C0.419,84.571-0.006,83.947,0,83.182l0,0
	c0.006-0.766,0.441-1.382,0.972-1.378l17.31,0.131C18.812,81.939,19.238,82.562,19.231,83.328L19.231,83.328z"/>
<line fill="none" stroke="#FCC7AB" stroke-width="0.2309" stroke-miterlimit="10" x1="9.591" y1="35.855" x2="6.739" y2="82.124"/>
<line fill="none" stroke="#FCC7AB" stroke-width="0.2309" stroke-miterlimit="10" x1="9.591" y1="35.855" x2="14.429" y2="82.737"/>
</svg>
