<?xml version="1.0" encoding="utf-8"?>
<!-- Generator: Adobe Illustrator 15.0.2, SVG Export Plug-In  -->
<!DOCTYPE svg PUBLIC "-//W3C//DTD SVG 1.1//EN" "http://www.w3.org/Graphics/SVG/1.1/DTD/svg11.dtd" [
	<!ENTITY ns_flows "http://ns.adobe.com/Flows/1.0/">
]>
<svg version="1.1"
	 xmlns="http://www.w3.org/2000/svg" xmlns:xlink="http://www.w3.org/1999/xlink" xmlns:a="http://ns.adobe.com/AdobeSVGViewerExtensions/3.0/"
	 x="0px" y="0px" width="6px" height="65px" viewBox="-0.901 -0.5 6 65"
	 overflow="visible" enable-background="new -0.901 -0.5 6 65" xml:space="preserve">
<defs>
</defs>
<rect x="0.612" y="16.537" fill="#FDF8D7" width="2.711" height="47.268"/>
<rect x="0.612" y="16.537" fill="none" stroke="#FF345C" stroke-width="0.124" stroke-miterlimit="10" width="2.711" height="47.268"/>
<rect x="2.178" y="0.011" fill="#FF345C" width="0.913" height="1.598"/>
<rect x="3.002" y="0.011" fill="#FF345C" width="0.649" height="1.598"/>
<rect x="3.651" y="0.266" fill="#FF345C" width="0.893" height="1.598"/>
<line fill="none" stroke="#FF345C" stroke-width="0.106" stroke-miterlimit="10" x1="2.008" y1="0" x2="2.008" y2="7.149"/>
<polygon fill="#FDF8D7" points="2.643,0.132 2.718,0.363 2.962,0.363 2.765,0.507 2.84,0.74 2.643,0.596 2.444,0.74 2.52,0.507 
	2.322,0.363 2.567,0.363 "/>
<polygon fill="#FDF8D7" points="3.185,0.087 3.207,0.156 3.278,0.156 3.221,0.197 3.243,0.267 3.185,0.225 3.127,0.267 3.148,0.197 
	3.091,0.156 3.162,0.156 "/>
<polygon fill="#FDF8D7" points="3.297,0.314 3.318,0.384 3.392,0.384 3.332,0.426 3.355,0.494 3.297,0.452 3.238,0.494 3.261,0.426 
	3.202,0.384 3.274,0.384 "/>
<polygon fill="#FDF8D7" points="3.292,0.511 3.314,0.58 3.387,0.58 3.328,0.621 3.351,0.69 3.292,0.648 3.232,0.69 3.256,0.621 
	3.198,0.58 3.27,0.58 "/>
<polygon fill="#FDF8D7" points="3.154,0.717 3.176,0.786 3.248,0.786 3.19,0.828 3.213,0.897 3.154,0.854 3.096,0.897 3.118,0.828 
	3.06,0.786 3.132,0.786 "/>
<polygon fill="#FDF8D7" points="0.156,16.468 1.981,6.454 3.731,16.606 "/>
<polygon fill="none" stroke="#FF345C" stroke-width="0.099" stroke-miterlimit="10" points="0.156,16.468 1.981,6.454 3.731,16.606 
	"/>
<path fill="#FFBD9E" d="M0,16.522c0.001-0.154,0.09-0.279,0.196-0.278l3.499,0.026c0.106,0.001,0.193,0.127,0.191,0.281"/>
<path fill="#FFBD9E" d="M3.887,16.552c-0.001,0.155-0.089,0.28-0.196,0.279l-3.498-0.026C0.085,16.803-0.001,16.677,0,16.522"/>
<line fill="none" stroke="#FCC7AB" stroke-width="0.047" stroke-miterlimit="10" x1="1.938" y1="6.958" x2="1.361" y2="16.309"/>
<line fill="none" stroke="#FCC7AB" stroke-width="0.047" stroke-miterlimit="10" x1="1.938" y1="6.958" x2="2.916" y2="16.433"/>
</svg>
