<?xml version="1.0" encoding="utf-8"?>
<!-- Generator: Adobe Illustrator 15.0.2, SVG Export Plug-In  -->
<!DOCTYPE svg PUBLIC "-//W3C//DTD SVG 1.1//EN" "http://www.w3.org/Graphics/SVG/1.1/DTD/svg11.dtd" [
	<!ENTITY ns_flows "http://ns.adobe.com/Flows/1.0/">
]>
<svg version="1.1"
	 xmlns="http://www.w3.org/2000/svg" xmlns:xlink="http://www.w3.org/1999/xlink" xmlns:a="http://ns.adobe.com/AdobeSVGViewerExtensions/3.0/"
	 x="0px" y="0px" width="109px" height="160px" viewBox="-0.63 -0.724 109 160" enable-background="new -0.63 -0.724 109 160"
	 xml:space="preserve">
<defs>
</defs>
<polyline fill="#FFEEAD" stroke="#FF345C" stroke-width="0.3981" stroke-miterlimit="10" points="21.959,76.75 21.959,72.846 
	24.255,58.925 26.573,70.432 26.573,80.271 "/>
<path fill="#FFEEAD" stroke="#FF345C" stroke-width="0.3981" stroke-miterlimit="10" d="M51.396,87.917c0,0,0.383-7.913,0-8.679
	s-1.405-0.638-1.531-1.659c-0.129-1.021-0.767-1.531-0.767-1.531v-3.446l-2.681-15.06l-2.681,15.443l0.141,4.345
	c-0.457,0.339-0.99,1.442-1.08,1.982c-0.19-0.722-1.095-2.31-1.566-2.352c-0.487-0.045-1.242,1.435-1.353,2.086
	c-0.19-0.722-1.094-2.309-1.566-2.352c-0.455-0.041-1.145,1.251-1.323,1.952c-0.256-0.769-1.079-2.17-1.522-2.21
	c-0.53-0.048-1.371,1.694-1.367,2.234c0.001,0.251,0.008,0.723,0.01,1.154L33.4,79.75v-2.553c0-1.021-1.403-1.914-1.403-1.914
	v-4.212l-3.063-14.932l-2.553,15.315v4.34c0,0,0,0-0.765,0.127c-1.149,0-1.149,4.212-1.149,4.212l-0.323,0.021
	c-0.021-0.43-0.047-0.972-0.06-1.258c-0.024-0.52-1.364-2.282-1.99-2.252c-0.578,0.027-1.418,1.563-1.524,2.21
	c-0.252-0.67-1.378-2.073-1.938-2.047c-0.578,0.027-1.417,1.564-1.524,2.21c-0.25-0.67-1.376-2.073-1.938-2.046
	c-0.541,0.026-1.31,1.373-1.494,2.076c-0.332-0.706-1.356-1.94-1.882-1.916c-0.627,0.03-1.562,1.833-1.539,2.354
	c0.014,0.285,0.042,0.863,0.064,1.328c-0.3-0.887-0.401-3.869-0.401-3.869v-4.723l-2.681-15.06L4.558,72.73v4.212
	c-0.384,0.127-1.277,1.403-1.277,1.403c-0.255-0.638-1.34-0.255-1.34-0.255v3.701v6.189l-1.402,1.404l1.465,1.468v20.037
	l-1.722,1.724l2.106,2.105v37.805h49.455V91.044l1.34-1.341L51.396,87.917z"/>
<g>
	<g>
		<path fill="#FFBD9E" d="M12.346,84.077c0-0.04,0.006-0.078,0.006-0.119c0-0.762-0.233-1.379-0.521-1.379
			c-0.288,0-0.521,0.617-0.521,1.379c0,0.189,0.019,0.364,0.045,0.528L12.346,84.077z"/>
	</g>
	<path fill="#FFBD9E" d="M14.223,84.008c0-0.041,0.006-0.079,0.006-0.12c0-0.762-0.233-1.378-0.52-1.378
		c-0.289,0-0.521,0.616-0.521,1.378c0,0.189,0.018,0.364,0.045,0.528L14.223,84.008z"/>
	<path fill="#FFBD9E" d="M16.1,83.938c0-0.039,0.005-0.078,0.005-0.119c0-0.762-0.233-1.378-0.521-1.378
		c-0.288,0-0.521,0.616-0.521,1.378c0,0.189,0.019,0.364,0.046,0.528L16.1,83.938z"/>
	<path fill="#FFBD9E" d="M17.977,83.87c0.001-0.041,0.006-0.079,0.006-0.121c0-0.761-0.233-1.377-0.521-1.377
		c-0.288,0-0.521,0.616-0.521,1.377c0,0.189,0.019,0.365,0.046,0.529L17.977,83.87z"/>
	<path fill="#FFBD9E" d="M19.854,83.8c0-0.04,0.005-0.078,0.005-0.12c0-0.761-0.233-1.377-0.52-1.377
		c-0.288,0-0.52,0.616-0.52,1.377c0,0.189,0.019,0.365,0.045,0.529L19.854,83.8z"/>
	<path fill="#FFBD9E" d="M21.731,83.732c0.001-0.041,0.005-0.079,0.005-0.121c0-0.761-0.232-1.378-0.52-1.378
		c-0.288,0-0.521,0.617-0.521,1.378c0,0.189,0.019,0.365,0.046,0.529L21.731,83.732z"/>
	<g>
		<path fill="#FFBD9E" d="M23.608,83.663c0.001-0.041,0.005-0.079,0.005-0.121c0-0.761-0.232-1.377-0.52-1.377
			c-0.288,0-0.521,0.616-0.521,1.377c0,0.189,0.019,0.365,0.046,0.529L23.608,83.663z"/>
	</g>
</g>
<path fill="none" stroke="#FCC7AB" stroke-width="0.7962" stroke-linecap="round" stroke-miterlimit="10" d="M1.622,81.366
	l6.892-0.34l1.702,0.596L29.785,80.6l16.421,1.787c0,0-0.171-0.937,0.085-0.851c0.255,0.085,5.785,0.425,5.785,0.425"/>
<path fill="#FFBD9E" d="M10.301,72.346c0,0.142-0.116,0.256-0.256,0.256H4.558c-0.142,0-0.256-0.114-0.256-0.256l0,0
	c0-0.14,0.114-0.254,0.256-0.254h5.487C10.185,72.092,10.301,72.207,10.301,72.346L10.301,72.346z"/>
<path fill="#FFBD9E" d="M32.188,71.326c0,0.142-0.113,0.256-0.255,0.256h-5.487c-0.142,0-0.257-0.114-0.257-0.256l0,0
	c0-0.141,0.115-0.255,0.257-0.255h5.487C32.074,71.071,32.188,71.185,32.188,71.326L32.188,71.326z"/>
<path fill="#FFBD9E" d="M49.481,72.794c0,0.14-0.113,0.255-0.255,0.255h-5.489c-0.14,0-0.254-0.115-0.254-0.255l0,0
	c0-0.141,0.114-0.255,0.254-0.255h5.489C49.368,72.539,49.481,72.653,49.481,72.794L49.481,72.794z"/>
<g>
	<path fill="none" stroke="#FCC7AB" stroke-width="0.1844" stroke-miterlimit="10" d="M21.904,72.376l-0.443-0.091
		c-0.106-0.022-0.153-0.236-0.104-0.478l0,0c0.05-0.242,0.178-0.419,0.285-0.397l0.442,0.092"/>
	<path fill="none" stroke="#FCC7AB" stroke-width="0.1844" stroke-miterlimit="10" d="M22.248,70.362l-0.428-0.088
		c-0.103-0.021-0.148-0.227-0.1-0.461l0,0c0.048-0.234,0.171-0.405,0.275-0.383l0.427,0.088"/>
	<path fill="none" stroke="#FCC7AB" stroke-width="0.1844" stroke-miterlimit="10" d="M22.591,68.347l-0.413-0.084
		c-0.1-0.021-0.143-0.22-0.096-0.444l0,0c0.046-0.225,0.165-0.39,0.265-0.37l0.411,0.085"/>
	<path fill="none" stroke="#FCC7AB" stroke-width="0.1844" stroke-miterlimit="10" d="M22.935,66.332l-0.397-0.082
		c-0.095-0.02-0.138-0.211-0.093-0.427l0,0c0.045-0.217,0.159-0.375,0.254-0.355l0.396,0.082"/>
	<path fill="none" stroke="#FCC7AB" stroke-width="0.1844" stroke-miterlimit="10" d="M23.278,64.317l-0.382-0.078
		c-0.092-0.019-0.133-0.203-0.089-0.41l0,0c0.043-0.208,0.153-0.361,0.245-0.341l0.379,0.079"/>
	<path fill="none" stroke="#FCC7AB" stroke-width="0.1844" stroke-miterlimit="10" d="M23.622,62.302l-0.367-0.075
		c-0.088-0.018-0.127-0.194-0.085-0.393l0,0c0.041-0.199,0.146-0.346,0.234-0.327l0.364,0.075"/>
</g>
<path fill="#FFBD9E" d="M26.445,72.961h-4.43c-0.128,0-0.228-0.104-0.228-0.23l0,0c0-0.127,0.1-0.229,0.228-0.229h4.43V72.961z"/>
<polygon fill="#FFBD9E" points="0.856,89.279 8.259,88.938 10.471,89.279 30.21,88.513 52.587,89.704 51.821,90.47 46.206,90.044 
	44.93,90.981 35.91,90.555 35.655,89.62 30.38,89.449 23.062,89.704 22.809,91.151 10.98,91.321 8.684,90.64 2.003,90.853 
	0.538,89.385 "/>
<line fill="none" stroke="#FCC7AB" stroke-width="0.3981" stroke-linecap="round" stroke-miterlimit="10" x1="4.174" y1="81.366" x2="4.174" y2="88.342"/>
<line fill="none" stroke="#FCC7AB" stroke-width="0.3981" stroke-linecap="round" stroke-miterlimit="10" x1="6.387" y1="81.366" x2="6.387" y2="88.342"/>
<line fill="none" stroke="#FCC7AB" stroke-width="0.3686" stroke-linecap="round" stroke-miterlimit="10" x1="25.956" y1="87.941" x2="25.956" y2="81.961"/>
<line fill="none" stroke="#FCC7AB" stroke-width="0.3686" stroke-linecap="round" stroke-miterlimit="10" x1="27.485" y1="81.961" x2="27.485" y2="87.941"/>
<line fill="none" stroke="#FCC7AB" stroke-width="0.3686" stroke-linecap="round" stroke-miterlimit="10" x1="31.997" y1="82.035" x2="31.997" y2="88.014"/>
<line fill="none" stroke="#FCC7AB" stroke-width="0.3686" stroke-linecap="round" stroke-miterlimit="10" x1="33.104" y1="82.108" x2="33.104" y2="88.087"/>
<polygon fill="#FFBD9E" points="4.259,81.961 6.387,81.876 6.472,82.983 4.174,83.153 "/>
<polygon fill="#FFBD9E" points="25.956,81.792 27.485,81.723 27.485,82.643 26.126,82.727 "/>
<polygon fill="#FFBD9E" stroke="#FCC7AB" stroke-width="0.2049" stroke-miterlimit="10" points="5.323,110.762 3.982,110.762 
	3.982,91.747 6.387,91.747 5.727,92.406 4.302,92.406 4.302,110.125 "/>
<polygon fill="#FFBD9E" stroke="#FCC7AB" stroke-width="0.2049" stroke-miterlimit="10" points="26.977,109.997 25.638,109.997 
	25.638,90.981 28.041,90.981 27.382,91.639 25.956,91.639 25.956,109.359 "/>
<rect x="14.215" y="112.847" fill="#FFBD9E" stroke="#FCC7AB" stroke-width="0.2049" stroke-miterlimit="10" width="2.126" height="9.444"/>
<rect x="17.277" y="112.847" fill="#FFBD9E" stroke="#FCC7AB" stroke-width="0.2049" stroke-miterlimit="10" width="2.127" height="9.444"/>
<path fill="#FFBD9E" stroke="#FCC7AB" stroke-width="0.2049" stroke-miterlimit="10" d="M17.702,111.571h-2.127v-5.445
	c0,0,0.383-0.808,1.063-0.808c0.682,0,1.063,0.808,1.063,0.808V111.571z"/>
<path fill="#FFBD9E" stroke="#FCC7AB" stroke-width="0.2049" stroke-miterlimit="10" d="M20.936,111.571h-2.127v-5.445
	c0,0,0.383-0.808,1.063-0.808c0.68,0,1.063,0.808,1.063,0.808V111.571z"/>
<rect x="20.426" y="112.847" fill="#FFBD9E" stroke="#FCC7AB" stroke-width="0.2049" stroke-miterlimit="10" width="2.126" height="9.444"/>
<rect x="14.215" y="123.737" fill="#FFBD9E" stroke="#FCC7AB" stroke-width="0.2049" stroke-miterlimit="10" width="2.126" height="9.445"/>
<rect x="17.277" y="123.737" fill="#FFBD9E" stroke="#FCC7AB" stroke-width="0.2049" stroke-miterlimit="10" width="2.127" height="9.445"/>
<rect x="20.426" y="123.737" fill="#FFBD9E" stroke="#FCC7AB" stroke-width="0.2049" stroke-miterlimit="10" width="2.126" height="9.445"/>
<path fill="#FFBD9E" stroke="#FCC7AB" stroke-width="0.2049" stroke-miterlimit="10" d="M14.725,111.571v-3.701
	c0,0-1.446,2.383-1.361,2.893C13.448,111.273,14.215,111.741,14.725,111.571z"/>
<path fill="#FFBD9E" stroke="#FCC7AB" stroke-width="0.2049" stroke-miterlimit="10" d="M21.697,111.571v-3.701
	c0,0,1.447,2.383,1.362,2.893C22.974,111.273,22.208,111.741,21.697,111.571z"/>
<path fill="#FFBD9E" stroke="#FCC7AB" stroke-width="0.2049" stroke-miterlimit="10" d="M16.639,104.594
	c0,0,1.489,0.255,1.702,1.021c0,0,0.511-1.063,1.318-1.021c0.809,0.042-0.639-1.276-1.51-1.276
	C17.277,103.318,15.958,104.722,16.639,104.594z"/>
<path fill="#FFBD9E" stroke="#FCC7AB" stroke-width="0.2049" stroke-miterlimit="10" d="M11.832,110.762
	c0,0,0.171-6.722,5.445-9.508c0,0,4.169,0.277,5.785,5.893c0,0-2.606-4.646-5.36-4.595S12.342,108.933,11.832,110.762z"/>
<polygon fill="#FFBD9E" stroke="#FCC7AB" stroke-width="0.2049" stroke-miterlimit="10" points="40.068,122.824 41.297,122.868 
	41.377,113.674 40.129,113.571 "/>
<polygon fill="#FFBD9E" stroke="#FCC7AB" stroke-width="0.2049" stroke-miterlimit="10" points="38.271,122.759 39.522,122.804 
	39.576,113.526 38.306,113.419 "/>
<path fill="#FFBD9E" stroke="#FCC7AB" stroke-width="0.2049" stroke-miterlimit="10" d="M39.33,112.226l1.261,0.112l0.04-5.475
	c0,0-0.222-0.85-0.629-0.897c-0.408-0.05-0.644,0.748-0.644,0.748L39.33,112.226z"/>
<path fill="#FFBD9E" stroke="#FCC7AB" stroke-width="0.2049" stroke-miterlimit="10" d="M37.383,112.052l1.285,0.115l0.023-5.531
	c0,0-0.229-0.858-0.644-0.908c-0.417-0.051-0.653,0.756-0.653,0.756L37.383,112.052z"/>
<polygon fill="#FFBD9E" stroke="#FCC7AB" stroke-width="0.2049" stroke-miterlimit="10" points="36.388,122.692 37.664,122.738 
	37.69,113.369 36.395,113.26 "/>
<polygon fill="#FFBD9E" stroke="#FCC7AB" stroke-width="0.2049" stroke-miterlimit="10" points="40,133.153 41.209,133.132 
	41.286,124.251 40.06,124.216 "/>
<polygon fill="#FFBD9E" stroke="#FCC7AB" stroke-width="0.2049" stroke-miterlimit="10" points="38.234,133.182 39.464,133.163 
	39.515,124.201 38.267,124.165 "/>
<polygon fill="#FFBD9E" stroke="#FCC7AB" stroke-width="0.2049" stroke-miterlimit="10" points="36.384,133.213 37.638,133.192 
	37.66,124.147 36.388,124.111 "/>
<path fill="#FFBD9E" stroke="#FCC7AB" stroke-width="0.2049" stroke-miterlimit="10" d="M41.089,112.383l0.031-3.7
	c0,0,0.826,2.468,0.771,2.97C41.838,112.155,41.387,112.579,41.089,112.383z"/>
<path fill="#FFBD9E" stroke="#FCC7AB" stroke-width="0.2049" stroke-miterlimit="10" d="M36.918,112.01l0.006-3.782
	c0,0-0.894,2.354-0.841,2.882C36.135,111.636,36.604,112.156,36.918,112.01z"/>
<path fill="#FFBD9E" stroke="#FCC7AB" stroke-width="0.2049" stroke-miterlimit="10" d="M40.007,105.227c0,0-0.897,0.149-1.03,0.92
	c0,0-0.306-1.132-0.797-1.149c-0.495-0.019,0.395-1.27,0.924-1.199C39.631,103.868,40.413,105.409,40.007,105.227z"/>
<path fill="#FFBD9E" stroke="#FCC7AB" stroke-width="0.2049" stroke-miterlimit="10" d="M42.778,111.737c0,0-0.027-6.725-3.136-10
	c0,0-2.554-0.075-3.562,5.652c0,0,1.618-4.628,3.299-4.346C41.03,103.321,42.502,109.893,42.778,111.737z"/>
<path fill="#FFBD9E" stroke="#FCC7AB" stroke-width="0.2049" stroke-miterlimit="10" d="M17.532,92.852
	c0.896,0,1.645,1.34,1.854,3.148h0.06c0-2.303-0.857-4.17-1.914-4.17c-1.058,0-1.914,1.867-1.914,4.17h0.06
	C15.888,94.192,16.636,92.852,17.532,92.852z"/>
<polyline fill="#FFBD9E" stroke="#FCC7AB" stroke-width="0.2049" stroke-miterlimit="10" points="1.43,112.847 8.387,112.847 
	7.663,113.954 7.663,133.778 7.066,133.778 7.066,114.634 4.334,117.367 4.334,133.778 3.982,133.778 3.982,115.144 "/>
<polyline fill="none" stroke="#FCC7AB" stroke-width="0.2049" stroke-miterlimit="10" points="8.387,89.917 8.387,110.762 
	9.959,112.336 8.193,114.103 8.193,133.778 "/>
<polygon fill="#FFBD9E" points="9.959,112.336 12.683,112.336 14.215,112.847 22.552,112.847 22.809,112.082 31.146,112.082 
	30.466,112.762 27.655,112.762 27.655,116.42 25.571,114.336 25.571,113.017 23.148,113.017 21.788,113.017 13.363,113.017 
	9.108,113.017 "/>
<g>
	<path fill="none" stroke="#FCC7AB" stroke-width="0.1844" stroke-miterlimit="10" d="M4.866,70.781l-0.443-0.091
		c-0.106-0.022-0.154-0.236-0.104-0.477l0,0c0.05-0.242,0.178-0.42,0.284-0.397l0.443,0.091"/>
	<path fill="none" stroke="#FCC7AB" stroke-width="0.1844" stroke-miterlimit="10" d="M5.209,68.766l-0.428-0.088
		c-0.103-0.021-0.148-0.228-0.1-0.461l0,0c0.048-0.233,0.171-0.405,0.274-0.383l0.428,0.087"/>
	<path fill="none" stroke="#FCC7AB" stroke-width="0.1844" stroke-miterlimit="10" d="M5.553,66.751l-0.412-0.085
		c-0.099-0.021-0.144-0.219-0.096-0.443l0,0c0.046-0.225,0.165-0.39,0.264-0.369l0.412,0.084"/>
	<path fill="none" stroke="#FCC7AB" stroke-width="0.1844" stroke-miterlimit="10" d="M5.896,64.737L5.5,64.655
		c-0.096-0.02-0.138-0.211-0.092-0.427l0,0c0.044-0.216,0.158-0.375,0.253-0.355l0.396,0.082"/>
	<path fill="none" stroke="#FCC7AB" stroke-width="0.1844" stroke-miterlimit="10" d="M6.239,62.722l-0.38-0.079
		c-0.092-0.019-0.132-0.202-0.089-0.41l0,0c0.043-0.207,0.152-0.36,0.244-0.341l0.381,0.078"/>
	<path fill="none" stroke="#FCC7AB" stroke-width="0.1844" stroke-miterlimit="10" d="M6.582,60.708l-0.364-0.076
		c-0.089-0.018-0.127-0.194-0.086-0.393l0,0c0.041-0.199,0.146-0.345,0.233-0.327l0.365,0.075"/>
</g>
<g>
	<path fill="none" stroke="#FCC7AB" stroke-width="0.1844" stroke-miterlimit="10" d="M9.694,70.781l0.443-0.091
		c0.107-0.022,0.153-0.236,0.104-0.477l0,0c-0.051-0.242-0.178-0.42-0.286-0.397l-0.442,0.091"/>
	<path fill="none" stroke="#FCC7AB" stroke-width="0.1844" stroke-miterlimit="10" d="M9.352,68.766l0.427-0.088
		c0.104-0.021,0.148-0.228,0.101-0.461l0,0c-0.049-0.233-0.172-0.405-0.276-0.383l-0.427,0.087"/>
	<path fill="none" stroke="#FCC7AB" stroke-width="0.1844" stroke-miterlimit="10" d="M9.009,66.751l0.411-0.085
		c0.1-0.021,0.143-0.219,0.098-0.443l0,0c-0.048-0.225-0.166-0.39-0.266-0.369L8.84,65.938"/>
	<path fill="none" stroke="#FCC7AB" stroke-width="0.1844" stroke-miterlimit="10" d="M8.666,64.737l0.396-0.082
		c0.096-0.02,0.137-0.211,0.093-0.427l0,0c-0.045-0.216-0.159-0.375-0.255-0.355l-0.396,0.082"/>
	<path fill="none" stroke="#FCC7AB" stroke-width="0.1844" stroke-miterlimit="10" d="M8.323,62.722l0.379-0.079
		c0.092-0.019,0.132-0.202,0.09-0.41l0,0c-0.044-0.207-0.152-0.36-0.245-0.341l-0.38,0.078"/>
	<path fill="none" stroke="#FCC7AB" stroke-width="0.1844" stroke-miterlimit="10" d="M7.98,60.708l0.363-0.076
		c0.088-0.018,0.126-0.194,0.086-0.393l0,0c-0.042-0.199-0.146-0.345-0.234-0.327L7.83,59.987"/>
</g>
<g>
	<path fill="none" stroke="#FCC7AB" stroke-width="0.1844" stroke-miterlimit="10" d="M26.755,69.888l-0.444-0.092
		c-0.106-0.022-0.153-0.235-0.103-0.477l0,0c0.05-0.242,0.176-0.42,0.284-0.397l0.442,0.091"/>
	<path fill="none" stroke="#FCC7AB" stroke-width="0.1844" stroke-miterlimit="10" d="M27.098,67.873l-0.429-0.088
		c-0.103-0.021-0.147-0.227-0.099-0.461l0,0c0.048-0.233,0.17-0.405,0.274-0.383l0.427,0.088"/>
	<path fill="none" stroke="#FCC7AB" stroke-width="0.1844" stroke-miterlimit="10" d="M27.44,65.858l-0.413-0.085
		c-0.099-0.021-0.142-0.218-0.095-0.443l0,0c0.046-0.225,0.164-0.39,0.264-0.369l0.412,0.085"/>
	<path fill="none" stroke="#FCC7AB" stroke-width="0.1844" stroke-miterlimit="10" d="M27.784,63.843l-0.397-0.082
		c-0.095-0.02-0.137-0.21-0.092-0.427l0,0c0.045-0.215,0.158-0.375,0.254-0.355l0.396,0.083"/>
	<path fill="none" stroke="#FCC7AB" stroke-width="0.1844" stroke-miterlimit="10" d="M28.127,61.829l-0.381-0.078
		c-0.092-0.02-0.131-0.203-0.088-0.411l0,0c0.042-0.207,0.152-0.36,0.244-0.341l0.381,0.079"/>
	<path fill="none" stroke="#FCC7AB" stroke-width="0.1844" stroke-miterlimit="10" d="M28.47,59.814l-0.365-0.075
		c-0.088-0.019-0.126-0.194-0.085-0.394l0,0c0.041-0.198,0.146-0.345,0.233-0.327l0.366,0.076"/>
</g>
<g>
	<path fill="none" stroke="#FCC7AB" stroke-width="0.1844" stroke-miterlimit="10" d="M31.582,69.888l0.443-0.092
		c0.107-0.022,0.153-0.235,0.104-0.477l0,0c-0.051-0.242-0.178-0.42-0.284-0.397l-0.444,0.091"/>
	<path fill="none" stroke="#FCC7AB" stroke-width="0.1844" stroke-miterlimit="10" d="M31.239,67.873l0.427-0.088
		c0.104-0.021,0.148-0.227,0.102-0.461l0,0c-0.05-0.233-0.172-0.405-0.274-0.383l-0.429,0.088"/>
	<path fill="none" stroke="#FCC7AB" stroke-width="0.1844" stroke-miterlimit="10" d="M30.896,65.858l0.412-0.085
		c0.1-0.021,0.143-0.218,0.097-0.443l0,0c-0.047-0.225-0.165-0.39-0.264-0.369l-0.412,0.085"/>
	<path fill="none" stroke="#FCC7AB" stroke-width="0.1844" stroke-miterlimit="10" d="M30.553,63.843l0.396-0.082
		c0.096-0.02,0.137-0.21,0.094-0.427l0,0c-0.046-0.215-0.159-0.375-0.254-0.355l-0.396,0.083"/>
	<path fill="none" stroke="#FCC7AB" stroke-width="0.1844" stroke-miterlimit="10" d="M30.21,61.829l0.38-0.078
		c0.092-0.02,0.132-0.203,0.09-0.411l0,0c-0.044-0.207-0.152-0.36-0.244-0.341l-0.38,0.079"/>
	<path fill="none" stroke="#FCC7AB" stroke-width="0.1844" stroke-miterlimit="10" d="M29.867,59.814l0.364-0.075
		c0.088-0.019,0.126-0.194,0.086-0.394l0,0c-0.042-0.198-0.146-0.345-0.234-0.327l-0.364,0.076"/>
</g>
<g>
	<path fill="none" stroke="#FCC7AB" stroke-width="0.1844" stroke-miterlimit="10" d="M44.025,71.457l-0.442-0.092
		c-0.107-0.022-0.153-0.236-0.104-0.478l0,0c0.05-0.241,0.176-0.419,0.283-0.396l0.443,0.091"/>
	<path fill="none" stroke="#FCC7AB" stroke-width="0.1844" stroke-miterlimit="10" d="M44.369,69.441l-0.427-0.088
		c-0.104-0.021-0.148-0.228-0.1-0.46l0,0c0.048-0.233,0.17-0.404,0.273-0.383l0.427,0.088"/>
	<path fill="none" stroke="#FCC7AB" stroke-width="0.1844" stroke-miterlimit="10" d="M44.712,67.427l-0.411-0.085
		c-0.1-0.021-0.143-0.219-0.097-0.444l0,0c0.047-0.224,0.164-0.39,0.264-0.369l0.412,0.085"/>
	<path fill="none" stroke="#FCC7AB" stroke-width="0.1844" stroke-miterlimit="10" d="M45.056,65.412l-0.396-0.082
		c-0.096-0.019-0.138-0.21-0.093-0.427l0,0c0.045-0.216,0.157-0.375,0.254-0.354l0.396,0.082"/>
	<path fill="none" stroke="#FCC7AB" stroke-width="0.1844" stroke-miterlimit="10" d="M45.399,63.397l-0.38-0.078
		c-0.093-0.019-0.132-0.203-0.09-0.41l0,0c0.044-0.207,0.151-0.36,0.244-0.341l0.38,0.079"/>
	<path fill="none" stroke="#FCC7AB" stroke-width="0.1844" stroke-miterlimit="10" d="M45.742,61.382l-0.365-0.075
		c-0.089-0.018-0.127-0.194-0.086-0.393l0,0c0.042-0.199,0.146-0.345,0.234-0.327l0.364,0.075"/>
</g>
<g>
	<path fill="none" stroke="#FCC7AB" stroke-width="0.1844" stroke-miterlimit="10" d="M48.853,71.457l0.444-0.092
		c0.107-0.022,0.154-0.236,0.104-0.478l0,0c-0.05-0.241-0.177-0.419-0.284-0.396l-0.443,0.091"/>
	<path fill="none" stroke="#FCC7AB" stroke-width="0.1844" stroke-miterlimit="10" d="M48.51,69.441l0.428-0.088
		c0.104-0.021,0.149-0.228,0.1-0.46l0,0c-0.047-0.233-0.17-0.404-0.273-0.383l-0.428,0.088"/>
	<path fill="none" stroke="#FCC7AB" stroke-width="0.1844" stroke-miterlimit="10" d="M48.167,67.427l0.412-0.085
		c0.1-0.021,0.144-0.219,0.096-0.444l0,0c-0.045-0.224-0.164-0.39-0.263-0.369L48,66.614"/>
	<path fill="none" stroke="#FCC7AB" stroke-width="0.1844" stroke-miterlimit="10" d="M47.824,65.412l0.396-0.082
		c0.096-0.019,0.137-0.21,0.092-0.427l0,0c-0.043-0.216-0.157-0.375-0.253-0.354l-0.396,0.082"/>
	<path fill="none" stroke="#FCC7AB" stroke-width="0.1844" stroke-miterlimit="10" d="M47.481,63.397l0.38-0.078
		c0.092-0.019,0.131-0.203,0.088-0.41l0,0c-0.042-0.207-0.15-0.36-0.243-0.341l-0.381,0.079"/>
	<path fill="none" stroke="#FCC7AB" stroke-width="0.1844" stroke-miterlimit="10" d="M47.139,61.382l0.364-0.075
		c0.088-0.018,0.126-0.194,0.084-0.393l0,0c-0.039-0.199-0.144-0.345-0.232-0.327l-0.365,0.075"/>
</g>
<path fill="#FF345C" d="M7.706,59.024c0-1.854-0.334-4.112-0.469-4.112c-0.134,0-0.469,2.258-0.469,4.112H7.706z"/>
<polygon fill="#FF345C" points="7.321,52.65 7.321,54.181 9.152,53.246 "/>
<path fill="#FF345C" d="M6.896,58.543l-0.278,0.005c-0.067,0.001-0.126-0.159-0.126-0.159v-0.107
	c-0.001-0.114,0.052-0.208,0.119-0.209l0.279-0.005"/>
<path fill="#FF345C" d="M7.027,56.524l-0.278-0.009c-0.067-0.002-0.117-0.165-0.117-0.165l0.006-0.108
	c0.004-0.114,0.062-0.205,0.129-0.202l0.278,0.009"/>
<path fill="#FF345C" d="M6.852,57.545l-0.278-0.009c-0.066-0.003-0.117-0.167-0.117-0.167l0.007-0.107
	c0.003-0.114,0.06-0.205,0.128-0.202l0.278,0.009"/>
<path fill="#FF345C" d="M7.549,58.543l0.277,0.005c0.067,0.001,0.127-0.159,0.127-0.159v-0.107c0.001-0.114-0.052-0.208-0.119-0.209
	l-0.278-0.005"/>
<path fill="#FF345C" d="M7.418,56.524l0.279-0.009c0.066-0.002,0.117-0.165,0.117-0.165l-0.006-0.108
	c-0.006-0.114-0.062-0.205-0.129-0.202l-0.278,0.009"/>
<path fill="#FF345C" d="M7.594,57.545l0.278-0.009c0.066-0.003,0.117-0.167,0.117-0.167l-0.005-0.107
	c-0.004-0.114-0.062-0.205-0.13-0.202L7.576,57.07"/>
<path fill="#FF345C" d="M24.729,60.836c0-1.854-0.334-4.111-0.468-4.111c-0.135,0-0.469,2.257-0.469,4.111H24.729z"/>
<line fill="none" stroke="#FF345C" stroke-width="0.3981" stroke-miterlimit="10" x1="24.304" y1="57.186" x2="24.304" y2="54.463"/>
<polygon fill="#FF345C" points="24.347,54.463 24.347,55.995 26.176,55.059 "/>
<path fill="#FF345C" d="M23.921,60.357l-0.278,0.005c-0.067,0.001-0.125-0.159-0.125-0.159v-0.107
	c-0.002-0.115,0.05-0.208,0.118-0.209l0.278-0.005"/>
<path fill="#FF345C" d="M24.051,58.338l-0.278-0.01c-0.066-0.003-0.117-0.166-0.117-0.166l0.008-0.107
	c0.003-0.115,0.061-0.206,0.128-0.203l0.278,0.009"/>
<path fill="#FF345C" d="M23.876,59.36l-0.278-0.011c-0.067-0.002-0.117-0.165-0.117-0.165l0.005-0.107
	c0.004-0.115,0.062-0.206,0.13-0.203l0.278,0.01"/>
<path fill="#FF345C" d="M24.571,60.357l0.28,0.005c0.066,0.001,0.125-0.159,0.125-0.159v-0.107c0.002-0.115-0.051-0.208-0.117-0.209
	l-0.279-0.005"/>
<path fill="#FF345C" d="M24.443,58.338l0.276-0.01c0.068-0.003,0.118-0.166,0.118-0.166l-0.006-0.107
	c-0.004-0.115-0.063-0.206-0.129-0.203l-0.279,0.009"/>
<path fill="#FF345C" d="M24.618,59.36l0.278-0.011c0.067-0.002,0.117-0.165,0.117-0.165l-0.006-0.107
	c-0.005-0.115-0.062-0.206-0.128-0.203l-0.279,0.01"/>
<path fill="#FF345C" d="M29.451,57.817c0-1.854-0.334-4.112-0.468-4.112s-0.468,2.258-0.468,4.112H29.451z"/>
<line fill="none" stroke="#FF345C" stroke-width="0.3981" stroke-miterlimit="10" x1="29.027" y1="54.166" x2="29.027" y2="51.443"/>
<polygon fill="#FF345C" points="29.068,51.443 29.068,52.974 30.897,52.039 "/>
<path fill="#FF345C" d="M28.644,57.336l-0.278,0.005c-0.067,0.001-0.126-0.159-0.126-0.159v-0.107
	c-0.002-0.114,0.051-0.208,0.119-0.209l0.277-0.005"/>
<path fill="#FF345C" d="M28.772,55.318l-0.277-0.01c-0.067-0.003-0.117-0.165-0.117-0.165l0.006-0.108
	c0.004-0.115,0.062-0.206,0.129-0.203l0.278,0.009"/>
<path fill="#FF345C" d="M28.598,56.338l-0.277-0.009c-0.067-0.002-0.118-0.166-0.118-0.166l0.006-0.107
	c0.005-0.114,0.062-0.205,0.13-0.203l0.278,0.01"/>
<path fill="#FF345C" d="M29.295,57.336l0.279,0.005c0.067,0.001,0.125-0.159,0.125-0.159v-0.107
	c0.003-0.114-0.051-0.208-0.118-0.209l-0.279-0.005"/>
<path fill="#FF345C" d="M29.165,55.318l0.278-0.01c0.066-0.003,0.117-0.165,0.117-0.165l-0.006-0.108
	c-0.004-0.115-0.062-0.206-0.129-0.203l-0.279,0.009"/>
<path fill="#FF345C" d="M29.339,56.338l0.279-0.009c0.066-0.002,0.118-0.166,0.118-0.166l-0.006-0.107
	c-0.005-0.114-0.062-0.205-0.13-0.203l-0.279,0.01"/>
<path fill="#FF345C" d="M46.809,59.348c0-1.854-0.334-4.111-0.468-4.111c-0.135,0-0.469,2.257-0.469,4.111H46.809z"/>
<line fill="none" stroke="#FF345C" stroke-width="0.3981" stroke-miterlimit="10" x1="46.383" y1="55.697" x2="46.383" y2="52.974"/>
<polygon fill="#FF345C" points="46.426,52.974 46.426,54.506 48.255,53.57 "/>
<path fill="#FF345C" d="M46.001,58.869l-0.279,0.004c-0.066,0.001-0.125-0.158-0.125-0.158v-0.107
	c-0.002-0.114,0.05-0.209,0.118-0.21l0.279-0.005"/>
<path fill="#FF345C" d="M46.131,56.849l-0.278-0.009c-0.067-0.003-0.118-0.166-0.118-0.166l0.007-0.107
	c0.006-0.115,0.062-0.206,0.129-0.203l0.278,0.01"/>
<path fill="#FF345C" d="M45.956,57.871l-0.279-0.01c-0.066-0.002-0.117-0.166-0.117-0.166l0.006-0.107
	c0.004-0.114,0.062-0.205,0.129-0.203l0.277,0.009"/>
<path fill="#FF345C" d="M46.652,58.869l0.278,0.004c0.067,0.001,0.125-0.158,0.125-0.158v-0.107c0.003-0.114-0.051-0.209-0.119-0.21
	l-0.277-0.005"/>
<path fill="#FF345C" d="M46.521,56.849l0.28-0.009c0.066-0.003,0.117-0.166,0.117-0.166l-0.005-0.107
	c-0.006-0.115-0.062-0.206-0.13-0.203l-0.28,0.01"/>
<path fill="#FF345C" d="M46.697,57.871l0.278-0.01c0.067-0.002,0.116-0.166,0.116-0.166l-0.005-0.107
	c-0.004-0.114-0.062-0.205-0.129-0.203l-0.278,0.009"/>
<line fill="none" stroke="#FCC7AB" stroke-width="0.3981" stroke-miterlimit="10" x1="35.655" y1="89.62" x2="35.655" y2="110.72"/>
<line fill="none" stroke="#FCC7AB" stroke-width="0.3981" stroke-miterlimit="10" x1="45.95" y1="89.62" x2="45.95" y2="110.72"/>
<line fill="none" stroke="#FCC7AB" stroke-width="0.3981" stroke-miterlimit="10" x1="45.312" y1="90.257" x2="45.312" y2="111.358"/>
<polyline fill="#FFBD9E" points="31.146,112.082 36.08,112.251 36.419,112.677 35.826,112.933 30.466,112.933 "/>
<polyline fill="#FFBD9E" points="42.547,112.251 45.185,112.251 51.905,112.677 52.927,113.103 51.905,113.272 45.95,112.933 
	45.95,133.863 45.016,133.863 45.016,112.762 43.059,112.762 "/>
<line fill="none" stroke="#FCC7AB" stroke-width="0.1844" stroke-miterlimit="10" x1="29.38" y1="71.517" x2="29.38" y2="80.514"/>
<line fill="none" stroke="#FCC7AB" stroke-width="0.1844" stroke-miterlimit="10" x1="30.338" y1="80.834" x2="30.338" y2="88.811"/>
<line fill="none" stroke="#FCC7AB" stroke-width="0.1844" stroke-miterlimit="10" x1="30.019" y1="89.385" x2="30.019" y2="111.336"/>
<polyline fill="#FFEEAD" stroke="#FF345C" stroke-width="0.3981" stroke-miterlimit="10" points="75.152,72.658 75.152,68.597 
	77.541,54.12 79.951,66.087 79.951,76.573 "/>
<line fill="none" stroke="#FCC7AB" stroke-width="0.1844" stroke-miterlimit="10" x1="30.019" y1="112.741" x2="30.019" y2="134.374"/>
<path fill="#FFEEAD" stroke="#FF345C" stroke-width="0.3981" stroke-miterlimit="10" d="M105.768,84.271c0,0,0.398-8.229,0-9.025
	c-0.397-0.797-1.46-0.664-1.593-1.726c-0.132-1.062-0.797-1.592-0.797-1.592v-3.584l-2.787-15.663l-2.787,16.062l0.146,4.519
	c-0.478,0.353-1.028,1.5-1.123,2.062c-0.198-0.75-1.139-2.401-1.63-2.446c-0.508-0.045-1.291,1.493-1.406,2.171
	c-0.197-0.751-1.138-2.401-1.629-2.446c-0.474-0.043-1.191,1.302-1.376,2.031c-0.267-0.8-1.122-2.257-1.584-2.299
	c-0.549-0.05-1.426,1.762-1.422,2.322c0.003,0.263,0.007,0.753,0.012,1.202l-0.739-0.08v-2.654c0-1.062-1.459-1.991-1.459-1.991
	v-4.38l-3.188-15.53L79.751,67.15v4.512c0,0,0,0-0.795,0.133c-1.194,0-1.194,4.381-1.194,4.381l-0.337,0.021
	c-0.021-0.447-0.048-1.011-0.062-1.308c-0.024-0.542-1.418-2.373-2.069-2.342c-0.601,0.028-1.476,1.626-1.585,2.298
	c-0.261-0.696-1.433-2.155-2.015-2.128c-0.602,0.028-1.475,1.626-1.586,2.298c-0.261-0.696-1.433-2.156-2.015-2.128
	c-0.562,0.026-1.363,1.428-1.555,2.158c-0.345-0.733-1.411-2.018-1.958-1.992c-0.651,0.03-1.624,1.906-1.598,2.447
	c0.015,0.297,0.042,0.898,0.064,1.381c-0.311-0.922-0.417-4.024-0.417-4.024v-4.911l-2.788-15.663l-2.787,16.194v4.38
	c-0.399,0.132-1.327,1.46-1.327,1.46c-0.267-0.664-1.394-0.266-1.394-0.266v3.85v6.438l-1.462,1.46l1.528,1.526v20.839l-1.792,1.792
	l2.19,2.189v46.465h51.434V87.524l1.395-1.394L105.768,84.271z"/>
<polygon fill="#6BB1CD" points="86.492,23.35 82.196,23.35 86.492,25.766 "/>
<polygon fill="#FF345C" points="85.731,25.948 81.233,23.419 81.233,23.898 84.88,25.948 "/>
<polygon fill="#6BB1CD" points="81.233,24.241 81.233,25.948 84.261,25.948 "/>
<polygon fill="#6BB1CD" points="82.438,30.536 86.492,30.536 86.492,28.265 "/>
<polygon fill="#FF345C" points="87.87,30.536 87.87,23.35 86.872,23.35 86.872,26.375 81.233,26.375 81.233,27.655 86.872,27.655 
	86.872,30.536 "/>
<polygon fill="#FF345C" points="85.54,28.083 81.233,30.494 81.233,30.536 82.011,30.536 86.392,28.083 "/>
<polygon fill="#6BB1CD" points="81.233,28.083 81.233,29.786 84.261,28.083 "/>
<polygon fill="#6BB1CD" points="87.87,29.166 87.87,31.581 92.167,31.581 "/>
<polygon fill="#FF345C" points="88.823,26.849 93.129,24.437 93.129,24.395 92.352,24.395 87.972,26.849 "/>
<polygon fill="#6BB1CD" points="93.129,28.984 90.101,28.984 93.129,30.69 "/>
<polygon fill="#FF345C" points="88.631,28.984 93.129,31.511 93.129,31.034 89.483,28.984 "/>
<polygon fill="#6BB1CD" points="87.87,24.395 87.87,26.667 91.923,24.395 "/>
<polygon fill="#6BB1CD" points="93.129,26.849 93.129,25.145 90.101,26.849 "/>
<rect x="87.87" y="27.276" fill="#FF345C" width="5.259" height="1.28"/>
<line fill="none" stroke="#FF345C" stroke-width="0.4767" stroke-miterlimit="10" x1="80.351" y1="23.33" x2="80.351" y2="64.394"/>
<g>
	<g>
		<path fill="#FFBD9E" d="M65.153,80.278c0.002-0.042,0.008-0.082,0.008-0.125c0-0.792-0.243-1.434-0.539-1.434
			c-0.301,0-0.543,0.642-0.543,1.434c0,0.198,0.021,0.379,0.046,0.55L65.153,80.278z"/>
	</g>
	<path fill="#FFBD9E" d="M67.105,80.206c0.003-0.042,0.008-0.082,0.008-0.125c0-0.792-0.242-1.434-0.539-1.434
		c-0.301,0-0.543,0.642-0.543,1.434c0,0.198,0.021,0.379,0.046,0.549L67.105,80.206z"/>
	<path fill="#FFBD9E" d="M69.059,80.134c0.001-0.042,0.007-0.082,0.007-0.125c0-0.792-0.242-1.434-0.54-1.434
		c-0.3,0-0.542,0.642-0.542,1.434c0,0.198,0.021,0.379,0.047,0.55L69.059,80.134z"/>
	<path fill="#FFBD9E" d="M71.011,80.062c0.001-0.042,0.006-0.082,0.006-0.125c0-0.792-0.242-1.434-0.539-1.434
		c-0.3,0-0.542,0.642-0.542,1.434c0,0.197,0.02,0.379,0.046,0.55L71.011,80.062z"/>
	<path fill="#FFBD9E" d="M72.963,79.99c0.002-0.042,0.007-0.081,0.007-0.125c0-0.792-0.242-1.433-0.54-1.433
		c-0.299,0-0.542,0.642-0.542,1.433c0,0.198,0.02,0.379,0.047,0.549L72.963,79.99z"/>
	<path fill="#FFBD9E" d="M74.916,79.918c0.001-0.042,0.006-0.082,0.006-0.125c0-0.791-0.241-1.433-0.541-1.433
		c-0.298,0-0.54,0.642-0.54,1.433c0,0.198,0.019,0.38,0.046,0.55L74.916,79.918z"/>
	<g>
		<path fill="#FFBD9E" d="M76.868,79.846c0.001-0.042,0.006-0.082,0.006-0.125c0-0.792-0.241-1.433-0.541-1.433
			c-0.298,0-0.54,0.642-0.54,1.433c0,0.197,0.019,0.38,0.046,0.55L76.868,79.846z"/>
	</g>
</g>
<path fill="none" stroke="#FCC7AB" stroke-width="0.7962" stroke-linecap="round" stroke-miterlimit="10" d="M54.002,77.458
	l7.167-0.353l1.77,0.618l20.354-1.062l17.078,1.858c0,0-0.177-0.974,0.089-0.885c0.266,0.088,6.017,0.442,6.017,0.442"/>
<path fill="#FFBD9E" d="M63.028,68.079c0,0.146-0.119,0.266-0.267,0.266h-5.707c-0.146,0-0.267-0.119-0.267-0.266l0,0
	c0-0.147,0.12-0.266,0.267-0.266h5.707C62.909,67.813,63.028,67.932,63.028,68.079L63.028,68.079z"/>
<path fill="#FFBD9E" d="M85.792,67.016c0,0.147-0.121,0.266-0.267,0.266h-5.708c-0.146,0-0.266-0.119-0.266-0.266l0,0
	c0-0.146,0.119-0.265,0.266-0.265h5.708C85.671,66.751,85.792,66.87,85.792,67.016L85.792,67.016z"/>
<path fill="#FFBD9E" d="M103.777,68.543c0,0.146-0.119,0.265-0.266,0.265h-5.708c-0.146,0-0.266-0.118-0.266-0.265l0,0
	c0-0.147,0.119-0.266,0.266-0.266h5.708C103.658,68.278,103.777,68.396,103.777,68.543L103.777,68.543z"/>
<g>
	<path fill="none" stroke="#FCC7AB" stroke-width="0.1844" stroke-miterlimit="10" d="M75.097,68.109l-0.461-0.095
		c-0.111-0.023-0.16-0.245-0.108-0.497l0,0c0.053-0.251,0.185-0.437,0.297-0.414l0.46,0.095"/>
	<path fill="none" stroke="#FCC7AB" stroke-width="0.1844" stroke-miterlimit="10" d="M75.453,66.014l-0.444-0.092
		c-0.107-0.022-0.154-0.236-0.104-0.479l0,0c0.051-0.242,0.178-0.421,0.286-0.399l0.444,0.091"/>
	<path fill="none" stroke="#FCC7AB" stroke-width="0.1844" stroke-miterlimit="10" d="M75.811,63.918l-0.429-0.087
		c-0.104-0.022-0.148-0.229-0.101-0.462l0,0c0.05-0.233,0.172-0.405,0.275-0.384l0.428,0.088"/>
	<path fill="none" stroke="#FCC7AB" stroke-width="0.1844" stroke-miterlimit="10" d="M76.167,61.823l-0.411-0.084
		c-0.1-0.021-0.145-0.219-0.097-0.444l0,0c0.047-0.226,0.164-0.39,0.264-0.37l0.412,0.085"/>
	<path fill="none" stroke="#FCC7AB" stroke-width="0.1844" stroke-miterlimit="10" d="M76.524,59.727l-0.396-0.081
		c-0.096-0.02-0.139-0.211-0.093-0.427l0,0c0.045-0.216,0.158-0.374,0.253-0.354l0.396,0.082"/>
	<path fill="none" stroke="#FCC7AB" stroke-width="0.1844" stroke-miterlimit="10" d="M76.881,57.632l-0.379-0.078
		c-0.092-0.02-0.133-0.203-0.089-0.409l0,0c0.043-0.207,0.151-0.358,0.242-0.34l0.38,0.078"/>
</g>
<path fill="#FFBD9E" d="M79.817,68.716h-4.605c-0.132,0-0.24-0.106-0.24-0.239l0,0c0-0.131,0.108-0.239,0.24-0.239h4.605V68.716z"/>
<line fill="none" stroke="#FF345C" stroke-width="0.8462" stroke-miterlimit="10" x1="76.474" y1="10.979" x2="76.474" y2="73.21"/>
<polygon fill="#FFBD9E" points="53.206,85.688 60.904,85.333 63.204,85.688 83.733,84.891 107.007,86.13 106.211,86.926 
	100.37,86.484 99.043,87.458 89.663,87.014 89.397,86.042 83.913,85.864 76.302,86.13 76.035,87.634 63.736,87.811 61.347,87.104 
	54.4,87.325 52.872,85.798 "/>
<line fill="none" stroke="#FCC7AB" stroke-width="0.3981" stroke-linecap="round" stroke-miterlimit="10" x1="56.655" y1="77.458" x2="56.655" y2="84.714"/>
<line fill="none" stroke="#FCC7AB" stroke-width="0.3981" stroke-linecap="round" stroke-miterlimit="10" x1="58.956" y1="77.458" x2="58.956" y2="84.714"/>
<line fill="none" stroke="#FCC7AB" stroke-width="0.3686" stroke-linecap="round" stroke-miterlimit="10" x1="79.311" y1="84.296" x2="79.311" y2="78.078"/>
<line fill="none" stroke="#FCC7AB" stroke-width="0.3686" stroke-linecap="round" stroke-miterlimit="10" x1="80.901" y1="78.078" x2="80.901" y2="84.296"/>
<line fill="none" stroke="#FCC7AB" stroke-width="0.3686" stroke-linecap="round" stroke-miterlimit="10" x1="85.593" y1="78.154" x2="85.593" y2="84.373"/>
<line fill="none" stroke="#FCC7AB" stroke-width="0.3686" stroke-linecap="round" stroke-miterlimit="10" x1="86.743" y1="78.229" x2="86.743" y2="84.449"/>
<polygon fill="#FFBD9E" points="56.745,78.078 58.956,77.989 59.045,79.14 56.655,79.316 "/>
<polygon fill="#FFBD9E" points="79.311,77.901 80.901,77.831 80.901,78.785 79.487,78.874 "/>
<polygon fill="#FFBD9E" stroke="#FCC7AB" stroke-width="0.2049" stroke-miterlimit="10" points="57.852,108.031 56.456,108.031 
	56.456,88.253 58.956,88.253 58.271,88.939 56.788,88.939 56.788,107.368 "/>
<polygon fill="#FFBD9E" stroke="#FCC7AB" stroke-width="0.2049" stroke-miterlimit="10" points="80.372,107.235 78.978,107.235 
	78.978,87.458 81.479,87.458 80.792,88.143 79.311,88.143 79.311,106.571 "/>
<rect x="67.099" y="110.2" fill="#FFBD9E" stroke="#FCC7AB" stroke-width="0.2049" stroke-miterlimit="10" width="2.212" height="9.821"/>
<rect x="70.283" y="110.2" fill="#FFBD9E" stroke="#FCC7AB" stroke-width="0.2049" stroke-miterlimit="10" width="2.214" height="9.821"/>
<path fill="#FFBD9E" stroke="#FCC7AB" stroke-width="0.2049" stroke-miterlimit="10" d="M70.727,108.872h-2.213v-5.663
	c0,0,0.399-0.841,1.106-0.841c0.708,0,1.106,0.841,1.106,0.841V108.872z"/>
<path fill="#FFBD9E" stroke="#FCC7AB" stroke-width="0.2049" stroke-miterlimit="10" d="M74.087,108.872h-2.21v-5.663
	c0,0,0.398-0.841,1.105-0.841c0.708,0,1.104,0.841,1.104,0.841V108.872z"/>
<rect x="73.558" y="110.2" fill="#FFBD9E" stroke="#FCC7AB" stroke-width="0.2049" stroke-miterlimit="10" width="2.213" height="9.821"/>
<rect x="67.099" y="121.526" fill="#FFBD9E" stroke="#FCC7AB" stroke-width="0.2049" stroke-miterlimit="10" width="2.212" height="9.822"/>
<rect x="70.283" y="121.526" fill="#FFBD9E" stroke="#FCC7AB" stroke-width="0.2049" stroke-miterlimit="10" width="2.214" height="9.822"/>
<rect x="73.558" y="121.526" fill="#FFBD9E" stroke="#FCC7AB" stroke-width="0.2049" stroke-miterlimit="10" width="2.213" height="9.822"/>
<path fill="#FFBD9E" stroke="#FCC7AB" stroke-width="0.2049" stroke-miterlimit="10" d="M67.63,108.872v-3.85
	c0,0-1.505,2.479-1.416,3.009C66.302,108.562,67.099,109.048,67.63,108.872z"/>
<path fill="#FFBD9E" stroke="#FCC7AB" stroke-width="0.2049" stroke-miterlimit="10" d="M74.882,108.872v-3.85
	c0,0,1.505,2.479,1.416,3.009C76.209,108.562,75.413,109.048,74.882,108.872z"/>
<path fill="#FFBD9E" stroke="#FCC7AB" stroke-width="0.2049" stroke-miterlimit="10" d="M69.62,101.616c0,0,1.55,0.266,1.77,1.062
	c0,0,0.531-1.106,1.372-1.062s-0.664-1.328-1.57-1.328C70.283,100.288,68.913,101.749,69.62,101.616z"/>
<path fill="#FFBD9E" stroke="#FCC7AB" stroke-width="0.2049" stroke-miterlimit="10" d="M64.622,108.031c0,0,0.176-6.99,5.661-9.888
	c0,0,4.337,0.287,6.019,6.127c0,0-2.711-4.832-5.575-4.778C67.861,99.545,65.151,106.128,64.622,108.031z"/>
<polygon fill="#FFBD9E" stroke="#FCC7AB" stroke-width="0.2049" stroke-miterlimit="10" points="93.987,120.576 95.266,120.621 
	95.349,111.059 94.051,110.952 "/>
<polygon fill="#FFBD9E" stroke="#FCC7AB" stroke-width="0.2049" stroke-miterlimit="10" points="92.118,120.508 93.419,120.555 
	93.475,110.905 92.153,110.793 "/>
<path fill="#FFBD9E" stroke="#FCC7AB" stroke-width="0.2049" stroke-miterlimit="10" d="M93.22,109.552l1.31,0.118l0.042-5.694
	c0,0-0.23-0.883-0.652-0.934c-0.425-0.052-0.669,0.778-0.669,0.778L93.22,109.552z"/>
<path fill="#FFBD9E" stroke="#FCC7AB" stroke-width="0.2049" stroke-miterlimit="10" d="M91.194,109.373l1.337,0.119l0.023-5.752
	c0,0-0.237-0.893-0.671-0.945c-0.431-0.053-0.678,0.787-0.678,0.787L91.194,109.373z"/>
<polygon fill="#FFBD9E" stroke="#FCC7AB" stroke-width="0.2049" stroke-miterlimit="10" points="90.161,120.438 91.487,120.486 
	91.514,110.741 90.166,110.629 "/>
<polygon fill="#FFBD9E" stroke="#FCC7AB" stroke-width="0.2049" stroke-miterlimit="10" points="93.917,131.318 95.173,131.295 
	95.253,122.059 93.979,122.023 "/>
<polygon fill="#FFBD9E" stroke="#FCC7AB" stroke-width="0.2049" stroke-miterlimit="10" points="92.078,131.348 93.358,131.327 
	93.411,122.007 92.112,121.969 "/>
<polygon fill="#FFBD9E" stroke="#FCC7AB" stroke-width="0.2049" stroke-miterlimit="10" points="90.153,131.38 91.458,131.358 
	91.484,121.952 90.16,121.914 "/>
<path fill="#FFBD9E" stroke="#FCC7AB" stroke-width="0.2049" stroke-miterlimit="10" d="M95.049,109.717l0.032-3.85
	c0,0,0.857,2.567,0.802,3.09C95.827,109.479,95.358,109.92,95.049,109.717z"/>
<path fill="#FFBD9E" stroke="#FCC7AB" stroke-width="0.2049" stroke-miterlimit="10" d="M90.711,109.329l0.006-3.934
	c0,0-0.929,2.449-0.875,2.998C89.896,108.94,90.386,109.48,90.711,109.329z"/>
<path fill="#FFBD9E" stroke="#FCC7AB" stroke-width="0.2049" stroke-miterlimit="10" d="M93.923,102.274
	c0,0-0.934,0.155-1.071,0.956c0,0-0.316-1.177-0.829-1.194c-0.514-0.019,0.411-1.321,0.962-1.248
	C93.532,100.86,94.346,102.462,93.923,102.274z"/>
<path fill="#FFBD9E" stroke="#FCC7AB" stroke-width="0.2049" stroke-miterlimit="10" d="M96.806,109.043c0,0-0.027-6.993-3.26-10.4
	c0,0-2.658-0.076-3.707,5.879c0,0,1.682-4.812,3.432-4.519C94.988,100.292,96.519,107.127,96.806,109.043z"/>
<path fill="#FFBD9E" stroke="#FCC7AB" stroke-width="0.2049" stroke-miterlimit="10" d="M70.55,89.404
	c0.931,0,1.71,1.394,1.927,3.274h0.064c0-2.395-0.893-4.336-1.991-4.336c-1.1,0-1.991,1.941-1.991,4.336h0.063
	C68.839,90.797,69.618,89.404,70.55,89.404z"/>
<polyline fill="#FFBD9E" stroke="#FCC7AB" stroke-width="0.2049" stroke-miterlimit="10" points="53.803,110.2 61.038,110.2 
	60.285,111.349 60.285,131.967 59.666,131.967 59.666,112.057 56.823,114.9 56.823,131.967 56.456,131.967 56.456,112.588 "/>
<polyline fill="none" stroke="#FCC7AB" stroke-width="0.2049" stroke-miterlimit="10" points="61.038,86.351 61.038,108.031 
	62.674,109.668 60.838,111.504 60.838,131.967 "/>
<polygon fill="#FFBD9E" points="62.674,109.668 65.505,109.668 67.099,110.2 75.771,110.2 76.035,109.403 84.708,109.403 84,110.11 
	81.08,110.11 81.08,113.916 78.911,111.748 78.911,110.375 76.39,110.375 74.972,110.375 66.214,110.375 61.788,110.375 "/>
<g>
	<path fill="none" stroke="#FCC7AB" stroke-width="0.1844" stroke-miterlimit="10" d="M57.377,66.45l-0.462-0.096
		c-0.111-0.022-0.16-0.245-0.106-0.496l0,0c0.051-0.251,0.184-0.437,0.295-0.413l0.462,0.095"/>
	<path fill="none" stroke="#FCC7AB" stroke-width="0.1844" stroke-miterlimit="10" d="M57.733,64.354l-0.445-0.092
		c-0.107-0.021-0.154-0.236-0.103-0.478l0,0c0.049-0.243,0.177-0.422,0.284-0.398l0.445,0.091"/>
	<path fill="none" stroke="#FCC7AB" stroke-width="0.1844" stroke-miterlimit="10" d="M58.091,62.259l-0.43-0.088
		c-0.104-0.021-0.148-0.228-0.1-0.461l0,0c0.049-0.234,0.172-0.406,0.275-0.383l0.429,0.088"/>
	<path fill="none" stroke="#FCC7AB" stroke-width="0.1844" stroke-miterlimit="10" d="M58.446,60.164l-0.412-0.085
		c-0.1-0.021-0.142-0.22-0.096-0.444l0,0c0.047-0.225,0.165-0.391,0.264-0.37l0.414,0.085"/>
	<path fill="none" stroke="#FCC7AB" stroke-width="0.1844" stroke-miterlimit="10" d="M58.804,58.068l-0.396-0.082
		c-0.097-0.021-0.137-0.211-0.093-0.427l0,0c0.045-0.216,0.158-0.375,0.254-0.354l0.396,0.082"/>
	<path fill="none" stroke="#FCC7AB" stroke-width="0.1844" stroke-miterlimit="10" d="M59.16,55.973l-0.379-0.078
		c-0.093-0.02-0.131-0.203-0.089-0.409l0,0c0.043-0.207,0.152-0.359,0.243-0.34l0.381,0.078"/>
</g>
<g>
	<path fill="none" stroke="#FCC7AB" stroke-width="0.1844" stroke-miterlimit="10" d="M62.398,66.45l0.461-0.096
		c0.11-0.022,0.16-0.245,0.107-0.496l0,0c-0.052-0.251-0.184-0.437-0.296-0.413L62.21,65.54"/>
	<path fill="none" stroke="#FCC7AB" stroke-width="0.1844" stroke-miterlimit="10" d="M62.042,64.354l0.444-0.092
		c0.106-0.021,0.154-0.236,0.104-0.478l0,0c-0.05-0.243-0.177-0.422-0.286-0.398l-0.444,0.091"/>
	<path fill="none" stroke="#FCC7AB" stroke-width="0.1844" stroke-miterlimit="10" d="M61.685,62.259l0.428-0.088
		c0.104-0.021,0.149-0.228,0.101-0.461l0,0c-0.049-0.234-0.171-0.406-0.275-0.383l-0.428,0.088"/>
	<path fill="none" stroke="#FCC7AB" stroke-width="0.1844" stroke-miterlimit="10" d="M61.327,60.164l0.412-0.085
		c0.1-0.021,0.144-0.22,0.097-0.444l0,0c-0.047-0.225-0.164-0.391-0.265-0.37l-0.412,0.085"/>
	<path fill="none" stroke="#FCC7AB" stroke-width="0.1844" stroke-miterlimit="10" d="M60.971,58.068l0.396-0.082
		c0.097-0.021,0.138-0.211,0.093-0.427l0,0c-0.046-0.216-0.157-0.375-0.255-0.354l-0.395,0.082"/>
	<path fill="none" stroke="#FCC7AB" stroke-width="0.1844" stroke-miterlimit="10" d="M60.613,55.973l0.379-0.078
		c0.094-0.02,0.133-0.203,0.09-0.409l0,0c-0.044-0.207-0.151-0.359-0.244-0.34l-0.379,0.078"/>
</g>
<g>
	<path fill="none" stroke="#FCC7AB" stroke-width="0.1844" stroke-miterlimit="10" d="M80.141,65.521l-0.461-0.096
		c-0.111-0.022-0.16-0.245-0.108-0.496l0,0c0.051-0.252,0.184-0.437,0.296-0.414l0.461,0.095"/>
	<path fill="none" stroke="#FCC7AB" stroke-width="0.1844" stroke-miterlimit="10" d="M80.497,63.425l-0.444-0.092
		c-0.107-0.022-0.154-0.237-0.104-0.479l0,0c0.05-0.243,0.177-0.421,0.285-0.399l0.445,0.092"/>
	<path fill="none" stroke="#FCC7AB" stroke-width="0.1844" stroke-miterlimit="10" d="M80.854,61.33l-0.428-0.088
		c-0.103-0.021-0.148-0.229-0.101-0.461l0,0c0.049-0.234,0.171-0.405,0.275-0.384l0.428,0.088"/>
	<path fill="none" stroke="#FCC7AB" stroke-width="0.1844" stroke-miterlimit="10" d="M81.21,59.234l-0.411-0.085
		c-0.099-0.02-0.143-0.219-0.097-0.443l0,0c0.047-0.225,0.164-0.39,0.265-0.37l0.412,0.085"/>
	<path fill="none" stroke="#FCC7AB" stroke-width="0.1844" stroke-miterlimit="10" d="M81.566,57.139l-0.395-0.082
		c-0.095-0.02-0.137-0.21-0.093-0.426l0,0c0.046-0.216,0.158-0.375,0.255-0.355l0.395,0.082"/>
	<path fill="none" stroke="#FCC7AB" stroke-width="0.1844" stroke-miterlimit="10" d="M81.923,55.043l-0.378-0.078
		c-0.091-0.019-0.131-0.202-0.089-0.409l0,0c0.044-0.207,0.152-0.359,0.244-0.34l0.379,0.078"/>
</g>
<g>
	<path fill="none" stroke="#FCC7AB" stroke-width="0.1844" stroke-miterlimit="10" d="M85.163,65.521l0.459-0.096
		c0.112-0.022,0.161-0.245,0.108-0.496l0,0c-0.053-0.252-0.184-0.437-0.295-0.414l-0.461,0.095"/>
	<path fill="none" stroke="#FCC7AB" stroke-width="0.1844" stroke-miterlimit="10" d="M84.806,63.425l0.443-0.092
		c0.108-0.022,0.155-0.237,0.104-0.479l0,0c-0.051-0.243-0.177-0.421-0.285-0.399l-0.444,0.092"/>
	<path fill="none" stroke="#FCC7AB" stroke-width="0.1844" stroke-miterlimit="10" d="M84.448,61.33l0.428-0.088
		c0.104-0.021,0.148-0.229,0.101-0.461l0,0c-0.049-0.234-0.171-0.405-0.275-0.384l-0.428,0.088"/>
	<path fill="none" stroke="#FCC7AB" stroke-width="0.1844" stroke-miterlimit="10" d="M84.092,59.234l0.411-0.085
		c0.1-0.02,0.143-0.219,0.097-0.443l0,0c-0.047-0.225-0.164-0.39-0.265-0.37l-0.412,0.085"/>
	<path fill="none" stroke="#FCC7AB" stroke-width="0.1844" stroke-miterlimit="10" d="M83.734,57.139l0.396-0.082
		c0.096-0.02,0.137-0.21,0.093-0.426l0,0c-0.045-0.216-0.157-0.375-0.255-0.355l-0.396,0.082"/>
	<path fill="none" stroke="#FCC7AB" stroke-width="0.1844" stroke-miterlimit="10" d="M83.377,55.043l0.38-0.078
		c0.092-0.019,0.131-0.202,0.089-0.409l0,0c-0.043-0.207-0.151-0.359-0.245-0.34l-0.379,0.078"/>
</g>
<g>
	<path fill="none" stroke="#FCC7AB" stroke-width="0.1844" stroke-miterlimit="10" d="M98.104,67.152l-0.461-0.095
		c-0.111-0.022-0.16-0.246-0.108-0.496l0,0c0.052-0.252,0.185-0.437,0.296-0.414l0.461,0.095"/>
	<path fill="none" stroke="#FCC7AB" stroke-width="0.1844" stroke-miterlimit="10" d="M98.46,65.057l-0.444-0.092
		c-0.107-0.021-0.154-0.237-0.104-0.479l0,0c0.05-0.243,0.178-0.421,0.285-0.399l0.445,0.091"/>
	<path fill="none" stroke="#FCC7AB" stroke-width="0.1844" stroke-miterlimit="10" d="M98.817,62.961l-0.429-0.088
		c-0.104-0.021-0.148-0.229-0.101-0.462l0,0c0.048-0.233,0.172-0.406,0.275-0.384l0.428,0.088"/>
	<path fill="none" stroke="#FCC7AB" stroke-width="0.1844" stroke-miterlimit="10" d="M99.174,60.866l-0.411-0.085
		c-0.1-0.021-0.144-0.22-0.098-0.444l0,0c0.046-0.225,0.165-0.39,0.265-0.37l0.412,0.085"/>
	<path fill="none" stroke="#FCC7AB" stroke-width="0.1844" stroke-miterlimit="10" d="M99.531,58.771l-0.396-0.082
		c-0.096-0.02-0.138-0.21-0.094-0.427l0,0c0.044-0.215,0.159-0.374,0.255-0.354l0.396,0.082"/>
	<path fill="none" stroke="#FCC7AB" stroke-width="0.1844" stroke-miterlimit="10" d="M99.888,56.675l-0.379-0.078
		c-0.092-0.019-0.132-0.202-0.09-0.409l0,0c0.042-0.206,0.152-0.359,0.244-0.34l0.379,0.078"/>
</g>
<g>
	<path fill="none" stroke="#FCC7AB" stroke-width="0.1844" stroke-miterlimit="10" d="M103.125,67.152l0.461-0.095
		c0.11-0.022,0.161-0.246,0.107-0.496l0,0c-0.052-0.252-0.184-0.437-0.296-0.414l-0.461,0.095"/>
	<path fill="none" stroke="#FCC7AB" stroke-width="0.1844" stroke-miterlimit="10" d="M102.769,65.057l0.444-0.092
		c0.106-0.021,0.154-0.237,0.104-0.479l0,0c-0.05-0.243-0.178-0.421-0.286-0.399l-0.444,0.091"/>
	<path fill="none" stroke="#FCC7AB" stroke-width="0.1844" stroke-miterlimit="10" d="M102.411,62.961l0.428-0.088
		c0.104-0.021,0.149-0.229,0.101-0.462l0,0c-0.048-0.233-0.171-0.406-0.274-0.384l-0.43,0.088"/>
	<path fill="none" stroke="#FCC7AB" stroke-width="0.1844" stroke-miterlimit="10" d="M102.055,60.866l0.411-0.085
		c0.1-0.021,0.144-0.22,0.097-0.444l0,0c-0.046-0.225-0.165-0.39-0.265-0.37l-0.412,0.085"/>
	<path fill="none" stroke="#FCC7AB" stroke-width="0.1844" stroke-miterlimit="10" d="M101.698,58.771l0.395-0.082
		c0.096-0.02,0.137-0.21,0.093-0.427l0,0c-0.045-0.215-0.158-0.374-0.254-0.354l-0.396,0.082"/>
	<path fill="none" stroke="#FCC7AB" stroke-width="0.1844" stroke-miterlimit="10" d="M101.341,56.675l0.379-0.078
		c0.092-0.019,0.131-0.202,0.089-0.409l0,0c-0.043-0.206-0.151-0.359-0.243-0.34l-0.381,0.078"/>
</g>
<path fill="#FF345C" d="M60.329,54.221c0-1.928-0.348-4.275-0.487-4.275c-0.139,0-0.486,2.348-0.486,4.275H60.329z"/>
<line fill="none" stroke="#FF345C" stroke-width="0.3981" stroke-miterlimit="10" x1="59.887" y1="50.425" x2="59.887" y2="47.593"/>
<polygon fill="#FF345C" points="59.93,47.593 59.93,49.186 61.834,48.212 "/>
<path fill="#FF345C" d="M59.488,53.723l-0.289,0.004c-0.07,0.001-0.131-0.166-0.131-0.166v-0.111
	c-0.002-0.119,0.054-0.217,0.123-0.217l0.289-0.006"/>
<path fill="#FF345C" d="M59.624,51.623l-0.289-0.01c-0.07-0.003-0.122-0.172-0.122-0.172l0.006-0.112
	c0.003-0.119,0.064-0.213,0.134-0.21l0.29,0.009"/>
<path fill="#FF345C" d="M59.441,52.685l-0.29-0.01c-0.069-0.002-0.121-0.172-0.121-0.172l0.005-0.111
	c0.006-0.119,0.064-0.214,0.135-0.211l0.29,0.01"/>
<path fill="#FF345C" d="M60.166,53.723l0.29,0.004c0.069,0.001,0.13-0.166,0.13-0.166v-0.111c0.003-0.119-0.053-0.217-0.122-0.217
	l-0.29-0.006"/>
<path fill="#FF345C" d="M60.03,51.623l0.29-0.01c0.07-0.003,0.123-0.172,0.123-0.172l-0.008-0.112
	c-0.004-0.119-0.063-0.213-0.134-0.21l-0.29,0.009"/>
<path fill="#FF345C" d="M60.213,52.685l0.29-0.01c0.07-0.002,0.122-0.172,0.122-0.172l-0.006-0.111
	c-0.005-0.119-0.065-0.214-0.135-0.211l-0.289,0.01"/>
<path fill="#FF345C" d="M78.034,56.107c0-1.928-0.348-4.275-0.486-4.275c-0.138,0-0.487,2.347-0.487,4.275H78.034z"/>
<line fill="none" stroke="#FF345C" stroke-width="0.3981" stroke-miterlimit="10" x1="77.592" y1="52.311" x2="77.592" y2="49.479"/>
<polygon fill="#FF345C" points="77.636,49.479 77.636,51.072 79.538,50.098 "/>
<path fill="#FF345C" d="M77.193,55.609l-0.289,0.005c-0.069,0.001-0.132-0.166-0.132-0.166v-0.111
	c-0.001-0.119,0.054-0.217,0.125-0.218l0.289-0.005"/>
<path fill="#FF345C" d="M77.33,53.509l-0.29-0.01c-0.069-0.002-0.122-0.172-0.122-0.172l0.007-0.111
	c0.004-0.12,0.063-0.214,0.134-0.212l0.289,0.01"/>
<path fill="#FF345C" d="M77.146,54.571l-0.289-0.01c-0.069-0.003-0.122-0.172-0.122-0.172l0.006-0.112
	c0.004-0.118,0.064-0.213,0.136-0.211l0.288,0.01"/>
<path fill="#FF345C" d="M77.872,55.609l0.291,0.005c0.068,0.001,0.13-0.166,0.13-0.166v-0.111c0.001-0.119-0.054-0.217-0.124-0.218
	l-0.289-0.005"/>
<path fill="#FF345C" d="M77.736,53.509l0.289-0.01c0.07-0.002,0.121-0.172,0.121-0.172l-0.005-0.111
	c-0.004-0.12-0.064-0.214-0.134-0.212l-0.29,0.01"/>
<path fill="#FF345C" d="M77.919,54.571l0.289-0.01c0.069-0.003,0.122-0.172,0.122-0.172l-0.007-0.112
	c-0.004-0.118-0.063-0.213-0.135-0.211l-0.288,0.01"/>
<path fill="#FF345C" d="M82.945,52.966c0-1.928-0.347-4.275-0.486-4.275c-0.139,0-0.487,2.348-0.487,4.275H82.945z"/>
<line fill="none" stroke="#FF345C" stroke-width="0.3981" stroke-miterlimit="10" x1="82.503" y1="49.169" x2="82.503" y2="46.338"/>
<polygon fill="#FF345C" points="82.548,46.338 82.548,47.931 84.45,46.957 "/>
<path fill="#FF345C" d="M82.104,52.467l-0.289,0.005c-0.068,0.002-0.131-0.165-0.131-0.165v-0.112
	c-0.002-0.119,0.053-0.217,0.124-0.218l0.289-0.005"/>
<path fill="#FF345C" d="M82.239,50.368l-0.288-0.01c-0.07-0.003-0.122-0.172-0.122-0.172l0.006-0.112
	c0.004-0.119,0.064-0.213,0.133-0.21l0.292,0.009"/>
<path fill="#FF345C" d="M82.058,51.43l-0.289-0.01c-0.07-0.003-0.121-0.172-0.121-0.172l0.005-0.111
	c0.005-0.119,0.065-0.214,0.136-0.211l0.288,0.009"/>
<path fill="#FF345C" d="M82.782,52.467l0.289,0.005c0.071,0.002,0.132-0.165,0.132-0.165v-0.112
	c0.003-0.119-0.053-0.217-0.123-0.218l-0.29-0.005"/>
<path fill="#FF345C" d="M82.647,50.368l0.289-0.01c0.068-0.003,0.122-0.172,0.122-0.172l-0.007-0.112
	c-0.003-0.119-0.063-0.213-0.134-0.21l-0.289,0.009"/>
<path fill="#FF345C" d="M82.83,51.43l0.289-0.01c0.069-0.003,0.122-0.172,0.122-0.172l-0.006-0.111
	c-0.004-0.119-0.064-0.214-0.135-0.211l-0.289,0.009"/>
<path fill="#FF345C" d="M100.997,54.56c0-1.929-0.347-4.276-0.486-4.276c-0.139,0-0.488,2.347-0.488,4.276H100.997z"/>
<line fill="none" stroke="#FF345C" stroke-width="0.3981" stroke-miterlimit="10" x1="100.555" y1="50.762" x2="100.555" y2="47.931"/>
<polygon fill="#FF345C" points="100.599,47.931 100.599,49.523 102.502,48.55 "/>
<path fill="#FF345C" d="M100.155,54.06l-0.288,0.005c-0.07,0.002-0.131-0.165-0.131-0.165v-0.112
	c-0.002-0.119,0.052-0.217,0.123-0.218l0.289-0.005"/>
<path fill="#FF345C" d="M100.293,51.96l-0.291-0.009c-0.068-0.003-0.121-0.173-0.121-0.173l0.006-0.111
	c0.004-0.119,0.064-0.213,0.134-0.211l0.29,0.01"/>
<path fill="#FF345C" d="M100.11,53.022l-0.29-0.01c-0.07-0.003-0.121-0.172-0.121-0.172l0.007-0.111
	c0.003-0.119,0.062-0.213,0.133-0.211l0.289,0.011"/>
<path fill="#FF345C" d="M100.835,54.06l0.289,0.005c0.071,0.002,0.131-0.165,0.131-0.165v-0.112
	c0.002-0.119-0.053-0.217-0.123-0.218l-0.29-0.005"/>
<path fill="#FF345C" d="M100.699,51.96l0.289-0.009c0.07-0.003,0.122-0.173,0.122-0.173l-0.006-0.111
	c-0.005-0.119-0.063-0.213-0.135-0.211l-0.289,0.01"/>
<path fill="#FF345C" d="M100.881,53.022l0.29-0.01c0.07-0.003,0.122-0.172,0.122-0.172l-0.005-0.111
	c-0.007-0.119-0.066-0.213-0.135-0.211l-0.29,0.011"/>
<line fill="none" stroke="#FCC7AB" stroke-width="0.3981" stroke-miterlimit="10" x1="89.397" y1="86.042" x2="89.397" y2="107.987"/>
<line fill="none" stroke="#FCC7AB" stroke-width="0.3981" stroke-miterlimit="10" x1="100.104" y1="86.042" x2="100.104" y2="107.987"/>
<line fill="none" stroke="#FCC7AB" stroke-width="0.3981" stroke-miterlimit="10" x1="99.441" y1="86.706" x2="99.441" y2="108.651"/>
<polyline fill="#FFBD9E" points="84.708,109.403 89.839,109.58 90.194,110.022 89.575,110.288 84,110.288 "/>
<polyline fill="#FFBD9E" points="96.564,109.58 99.309,109.58 106.299,110.022 107.361,110.464 106.299,110.641 100.104,110.288 
	100.104,132.055 99.132,132.055 99.132,110.11 97.097,110.11 "/>
<line fill="none" stroke="#FCC7AB" stroke-width="0.1844" stroke-miterlimit="10" x1="82.872" y1="67.216" x2="82.872" y2="76.573"/>
<line fill="none" stroke="#FCC7AB" stroke-width="0.1844" stroke-miterlimit="10" x1="83.867" y1="76.905" x2="83.867" y2="85.201"/>
<line fill="none" stroke="#FCC7AB" stroke-width="0.1844" stroke-miterlimit="10" x1="83.535" y1="85.798" x2="83.535" y2="108.628"/>
<line fill="none" stroke="#FCC7AB" stroke-width="0.1844" stroke-miterlimit="10" x1="83.535" y1="110.088" x2="83.535" y2="132.586"/>
<rect x="75.972" fill="#FF345C" width="11.571" height="12.352"/>
<rect x="87.56" y="1.407" fill="#FF345C" width="7.191" height="12.352"/>
<path fill="#FFFFFF" d="M85.106,4.42c-0.193,0.041-0.383,0.112-0.562,0.21l0.517,0.004L85.106,4.42z"/>
<path fill="#FFFFFF" d="M84.22,4.628c0.285-0.203,0.602-0.338,0.926-0.393l0.079-0.368c-0.515,0.085-1.04,0.339-1.485,0.756
	L84.22,4.628z"/>
<path fill="#FFFFFF" d="M85.493,7.811c-0.131,0.057-0.265,0.105-0.398,0.133l-0.076,0.35c0.16-0.03,0.318-0.081,0.475-0.142V7.811z"
	/>
<path fill="#FFFFFF" d="M85.134,7.754c0.121-0.031,0.242-0.079,0.359-0.135V7.312C85.399,7.36,85.304,7.4,85.204,7.429L85.134,7.754
	z"/>
<path fill="#FFFFFF" d="M84.595,5.389l-0.324-0.002c-0.268,0.285-0.421,0.633-0.424,0.967c-0.001,0.097,0.011,0.19,0.035,0.279
	l0.312,0.003c-0.052-0.108-0.079-0.231-0.079-0.358c0.003-0.281,0.135-0.562,0.371-0.794C84.52,5.449,84.556,5.418,84.595,5.389z"/>
<path fill="#FFFFFF" d="M85.493,6.086l-0.139,0.649c0.05-0.028,0.092-0.068,0.139-0.105V6.086z"/>
<path fill="#FFFFFF" d="M84.04,5.383l-0.316-0.003c-0.225,0.331-0.35,0.703-0.354,1.064c-0.001,0.062,0.002,0.124,0.01,0.184
	l0.32,0.002c-0.02-0.088-0.029-0.182-0.029-0.278c0.002-0.198,0.048-0.398,0.138-0.593C83.868,5.626,83.945,5.501,84.04,5.383z"/>
<path fill="#FFFFFF" d="M83.141,5.375c-0.216,0.377-0.333,0.776-0.337,1.172c0,0.025,0,0.05,0.002,0.076l0.396,0.004
	c-0.006-0.06-0.009-0.123-0.008-0.184c0.004-0.362,0.116-0.731,0.321-1.064L83.141,5.375z"/>
<path fill="#FFFFFF" d="M85.247,7.23c0.084-0.03,0.166-0.075,0.246-0.121V6.854c-0.061,0.038-0.123,0.073-0.186,0.1L85.247,7.23z"/>
<path fill="#FFFFFF" d="M85.493,8.34c-0.17,0.062-0.342,0.111-0.514,0.139l-0.049,0.227l0.562,0.006V8.34z"/>
<path fill="#FFFFFF" d="M83.775,7.436c0.175,0.166,0.382,0.278,0.61,0.333l0.07-0.325l0.002-0.002h-0.006L83.775,7.436z"/>
<path fill="#FFFFFF" d="M82.815,7.427l-0.416-0.004l0.168-0.804L82.63,6.62c-0.001-0.025-0.002-0.05-0.001-0.075
	c0.004-0.397,0.11-0.796,0.312-1.173l-0.102-0.001l0.146-0.688c-0.426,0.528-0.689,1.126-0.75,1.717
	c-0.076,0.717,0.148,1.383,0.629,1.873c0.171,0.175,0.373,0.314,0.602,0.419l0.717,0.006l0.047-0.217
	c-0.412-0.067-0.773-0.252-1.059-0.544C83.024,7.788,82.904,7.615,82.815,7.427z"/>
<path fill="#FFFFFF" d="M83.532,7.434l-0.52-0.005c0.076,0.142,0.171,0.272,0.284,0.388c0.259,0.265,0.591,0.434,0.97,0.493
	l0.081-0.368c-0.278-0.066-0.53-0.209-0.738-0.421C83.582,7.493,83.556,7.462,83.532,7.434z"/>
<path fill="#FFFFFF" d="M83.04,4.615l0.452,0.005c0.024-0.024,0.05-0.049,0.073-0.074c0.486-0.475,1.085-0.779,1.699-0.862
	l0.059-0.278L84.83,3.4c-0.532,0.162-1.058,0.468-1.507,0.911C83.222,4.409,83.128,4.511,83.04,4.615z"/>
<path fill="#FFFFFF" d="M84.291,6.279c-0.003,0.134,0.034,0.258,0.106,0.359l0.188,0.002l0.254-1.205
	c-0.081,0.045-0.159,0.104-0.23,0.175C84.405,5.808,84.292,6.046,84.291,6.279z"/>
<path fill="#FFFFFF" d="M80.636,7.85l-0.174,0.812l0.49,0.004c-0.068-0.126-0.129-0.255-0.181-0.391
	C80.717,8.136,80.671,7.995,80.636,7.85z"/>
<path fill="#FFFFFF" d="M81.601,3.369l-0.199,0.924c0.218-0.322,0.473-0.628,0.765-0.919L81.601,3.369z"/>
<path fill="#FFFFFF" d="M81.323,6.799c0.006-0.52,0.129-1.046,0.365-1.563c0.247-0.533,0.604-1.033,1.061-1.481
	c0.134-0.132,0.275-0.255,0.42-0.37l-0.754-0.007c-0.031,0.028-0.061,0.058-0.091,0.087C81.901,3.878,81.554,4.33,81.29,4.81
	l-0.559,2.594c0.035,0.28,0.104,0.55,0.203,0.808c0.062,0.159,0.135,0.311,0.219,0.457l0.787,0.008
	c-0.174-0.222-0.312-0.467-0.414-0.73C81.388,7.588,81.319,7.203,81.323,6.799z"/>
<path fill="#FFFFFF" d="M82.06,6.382c0.04-0.38,0.156-0.761,0.346-1.13c0.193-0.382,0.462-0.741,0.795-1.067
	c0.316-0.312,0.676-0.563,1.064-0.749c0.028-0.015,0.059-0.027,0.087-0.041l-0.896-0.008c-0.203,0.147-0.398,0.311-0.584,0.492
	c-0.442,0.434-0.787,0.915-1.022,1.43c-0.228,0.495-0.347,0.997-0.352,1.492c-0.003,0.381,0.062,0.745,0.19,1.082
	c0.113,0.292,0.275,0.559,0.48,0.796l0.925,0.009c-0.128-0.084-0.247-0.182-0.354-0.292C82.222,7.868,81.979,7.152,82.06,6.382z"/>
<path fill="#FFFFFF" d="M89.215,5.634l-0.357-0.003c-0.003,0.046-0.007,0.092-0.013,0.139c-0.044,0.374-0.145,0.748-0.299,1.109
	l0.404,0.004L89.215,5.634z"/>
<path fill="#FFFFFF" d="M89.233,3.887c-0.059-0.154-0.13-0.303-0.211-0.445l-0.827-0.008c0.296,0.361,0.497,0.781,0.599,1.238
	l0.641,0.007C89.397,4.404,89.33,4.14,89.233,3.887z"/>
<path fill="#FFFFFF" d="M87.579,5.619c-0.001,0.106-0.01,0.215-0.027,0.326c-0.049,0.312-0.16,0.625-0.326,0.921l0.393,0.005
	c0.174-0.337,0.289-0.688,0.336-1.039c0.009-0.071,0.014-0.14,0.02-0.209L87.579,5.619z"/>
<path fill="#FFFFFF" d="M85.724,5.48c-0.023-0.024-0.049-0.045-0.074-0.063l-0.078,0.355V6.58c0.011-0.009,0.023-0.014,0.033-0.024
	c0.168-0.164,0.271-0.367,0.289-0.571C85.911,5.789,85.851,5.61,85.724,5.48z"/>
<path fill="#FFFFFF" d="M88.67,5.75c0.005-0.04,0.009-0.08,0.012-0.12l-0.532-0.005c-0.004,0.077-0.012,0.153-0.021,0.23
	c-0.046,0.343-0.152,0.687-0.314,1.017l0.542,0.006C88.52,6.509,88.627,6.129,88.67,5.75z"/>
<path fill="#FFFFFF" d="M87.003,3.421c0.168,0.098,0.32,0.217,0.457,0.356c0.252,0.258,0.44,0.556,0.555,0.887l0.599,0.005
	c-0.11-0.463-0.329-0.885-0.651-1.239L87.003,3.421z"/>
<path fill="#FFFFFF" d="M85.851,6.853c0.316-0.312,0.494-0.671,0.496-1.015c0.004-0.263-0.094-0.502-0.281-0.693
	c-0.09-0.091-0.195-0.159-0.314-0.206l-0.064,0.295c0.062,0.034,0.115,0.075,0.162,0.123c0.164,0.167,0.242,0.396,0.22,0.643
	c-0.022,0.246-0.142,0.487-0.34,0.681c-0.048,0.047-0.103,0.088-0.157,0.126v0.267C85.669,7.012,85.763,6.939,85.851,6.853z"/>
<path fill="#FFFFFF" d="M86.081,3.413l-0.062,0.285c0.082,0.015,0.164,0.036,0.244,0.062c0.289,0.093,0.541,0.247,0.748,0.458
	c0.234,0.239,0.398,0.514,0.488,0.819c0.003,0.009,0.006,0.018,0.008,0.027l0.087-0.404l0.233,0.002
	C87.72,4.38,87.556,4.124,87.335,3.9c-0.213-0.217-0.466-0.377-0.742-0.482L86.081,3.413z"/>
<path fill="#FFFFFF" d="M86.845,8.139c-0.261,0.232-0.557,0.427-0.867,0.577l0.742,0.006L86.845,8.139z"/>
<path fill="#FFFFFF" d="M89.397,3.825c0.061,0.158,0.109,0.32,0.148,0.487l0.185-0.863l-0.505-0.005
	C89.288,3.566,89.347,3.694,89.397,3.825z"/>
<path fill="#FFFFFF" d="M86.855,7.89c0.019-0.019,0.036-0.038,0.056-0.056l0.153-0.711c-0.124,0.18-0.269,0.352-0.432,0.511
	c-0.308,0.302-0.675,0.528-1.062,0.678v0.383C86.045,8.523,86.489,8.25,86.855,7.89z"/>
<path fill="#FFFFFF" d="M85.788,4.767c0.154,0.054,0.291,0.142,0.402,0.255c0.221,0.225,0.336,0.508,0.334,0.819
	c-0.006,0.39-0.201,0.794-0.551,1.138c-0.123,0.12-0.258,0.218-0.402,0.299v0.308c0.203-0.105,0.398-0.241,0.574-0.414
	c0.771-0.756,0.896-1.793,0.293-2.41C86.28,4.601,86.083,4.488,85.86,4.43L85.788,4.767z"/>
<path fill="#FFFFFF" d="M85.897,4.258c0.256,0.066,0.483,0.195,0.666,0.381c0.676,0.688,0.549,1.831-0.295,2.657
	c-0.213,0.207-0.449,0.367-0.697,0.483v0.344c0.342-0.142,0.665-0.347,0.939-0.615c0.473-0.464,0.781-1.029,0.867-1.591
	c0.017-0.102,0.023-0.203,0.025-0.301c0-0.023,0-0.046,0-0.07c-0.012-0.458-0.188-0.868-0.518-1.206
	c-0.246-0.251-0.56-0.406-0.904-0.471L85.897,4.258z"/>
</svg>
