<?xml version="1.0" encoding="utf-8"?>
<!-- Generator: Adobe Illustrator 15.0.2, SVG Export Plug-In  -->
<!DOCTYPE svg PUBLIC "-//W3C//DTD SVG 1.1//EN" "http://www.w3.org/Graphics/SVG/1.1/DTD/svg11.dtd" [
	<!ENTITY ns_flows "http://ns.adobe.com/Flows/1.0/">
]>
<svg version="1.1"
	 xmlns="http://www.w3.org/2000/svg" xmlns:xlink="http://www.w3.org/1999/xlink" xmlns:a="http://ns.adobe.com/AdobeSVGViewerExtensions/3.0/"
	 x="0px" y="0px" width="15px" height="81px" viewBox="-0.744 -0.028 15 81"
	 overflow="visible" enable-background="new -0.744 -0.028 15 81" xml:space="preserve">
<defs>
</defs>
<polygon fill="#FDF8D7" points="0.558,27.283 7.01,12.069 13.346,27.781 "/>
<polygon fill="none" stroke="#FF345C" stroke-width="0.124" stroke-miterlimit="10" points="0.558,27.283 7.01,12.069 
	13.346,27.781 "/>
<rect x="7.334" y="0.001" fill="#6BB1CD" width="3.142" height="3.196"/>
<rect x="9.112" y="0.001" fill="#FFEEAC" width="0.592" height="3.196"/>
<rect x="7.334" y="1.302" fill="#FFEEAC" width="3.142" height="0.593"/>
<rect x="10.465" y="0.441" fill="#6BB1CD" width="1.723" height="3.198"/>
<rect x="10.465" y="1.743" fill="#FFEEAC" width="1.723" height="0.594"/>
<line fill="none" stroke="#FF345C" stroke-width="0.212" stroke-miterlimit="10" x1="6.974" y1="0" x2="6.974" y2="12.486"/>
<rect x="0.558" y="27.781" fill="#FDF8D7" width="12.428" height="52.883"/>
<rect x="0.558" y="27.781" fill="none" stroke="#FF345C" stroke-width="0.124" stroke-miterlimit="10" width="12.428" height="52.883"/>
<path fill="#FFBD9E" d="M13.903,27.585c-0.004,0.553-0.318,1-0.702,0.997L0.687,28.486C0.303,28.484-0.004,28.033,0,27.479
	c0.004-0.553,0.318-0.999,0.702-0.997l12.514,0.096C13.601,26.581,13.907,27.032,13.903,27.585"/>
<line fill="none" stroke="#FCC7AB" stroke-width="0.072" stroke-miterlimit="10" x1="6.944" y1="12.842" x2="4.872" y2="26.715"/>
<line fill="none" stroke="#FCC7AB" stroke-width="0.072" stroke-miterlimit="10" x1="6.944" y1="12.842" x2="10.431" y2="27.158"/>
</svg>
