<?xml version="1.0" encoding="utf-8"?>
<!-- Generator: Adobe Illustrator 15.0.2, SVG Export Plug-In  -->
<!DOCTYPE svg PUBLIC "-//W3C//DTD SVG 1.1//EN" "http://www.w3.org/Graphics/SVG/1.1/DTD/svg11.dtd" [
	<!ENTITY ns_flows "http://ns.adobe.com/Flows/1.0/">
]>
<svg version="1.1"
	 xmlns="http://www.w3.org/2000/svg" xmlns:xlink="http://www.w3.org/1999/xlink" xmlns:a="http://ns.adobe.com/AdobeSVGViewerExtensions/3.0/"
	 x="0px" y="0px" width="184px" height="49px" viewBox="0 -0.793 184 49"
	 overflow="visible" enable-background="new 0 -0.793 184 49" xml:space="preserve">
<defs>
</defs>
<path fill="#FF345C" d="M183.477,1.949c-17.756-6.179-23.968,4.6-35.009,1.372c-4.476-1.308-9.148-1.952-13.811-1.93
	c-2.834,0.014-6.1-0.021-8.579,1.422c-1.697,0.988-2.688,1.93-3.598,3.669c-0.739,1.411-1.713,3.523-1.132,5.185
	c0.261,0.743,1.536,1.825,2.166,2.232c3.045,1.97,7.246,1.985,10.728,2.521c1.522,0.235,3.121,0.303,4.669,0.475
	c3.396,0.378,6.881,0.083,10.316,0.083c3.662,0,7.324,0,10.986,0c6.854,0,13.707,0,20.56,0c0.901,0,1.802,0,2.703,0V1.949z"/>
<path fill="#6FC6B6" d="M183.477,4.008l-2.285-1.206c-18.502-6.915-24.727,4.322-35.965,1.038
	c-4.803-1.404-9.836-2.048-14.837-1.915c-3.765,0.1-7.575,0.152-10.385,3.005c-1.706,1.732-3.342,5.108-1.263,7.146
	c1.732,1.697,4.02,2.286,6.191,3.157c1.941,0.779,3.907,1.389,5.964,1.702c6.726,1.025,13.844,0.562,20.643,0.562
	c7.329,0,14.657,0,21.985,0c0.549,0,9.951,0,9.951,0C183.477,17.496,183.477,4.008,183.477,4.008z"/>
<path fill="#262262" d="M182.477,5.46l-3.713-1.959c-18.5-6.915-24.725,4.323-35.963,1.038c-7.823-2.286-18.305-3.505-25.754,0.536
	c-1.759,0.954-3.22,2.775-2.1,4.85c0.918,1.699,2.897,2.61,4.598,3.354c3.016,1.32,6.524,1.878,9.703,2.627
	c1.354,0.319,2.862,0.569,4.097,1.165c1.783,0.86,3.207,1.127,5.12,1.127c1.128,0,2.256,0,3.384,0c3.219,0,6.438,0,9.655,0
	c7.327,0,14.654,0,21.98,0c2.998,0,5.995,0,8.992,0V5.46z"/>
<path fill="#B6F484" d="M182.968,8.341c-1.445-2.054-4.67-3.436-6.965-4.293c-18.501-6.916-25.724,5.322-36.964,2.037
	c-6.833-1.997-13.739-3.408-20.785-2.337c-3.618,0.55-7.435,1.872-9.588,5.019c-0.752,1.099-1.475,3.22-1.061,4.568
	c0.347,1.128,1.404,1.717,2.33,2.351c1.63,1.116,3.469,2.205,5.469,2.447c5.086,0.619,10.403,0.504,15.538,0.407
	c2.48-0.047,5.021,0.204,7.522,0.204c2.96,0,5.92,0,8.88,0c7.289,0,14.577,0,21.866,0c2.703,0,5.419-0.009,8.102,0.118
	c2.047,0.097,4.229-0.396,5.628-1.985c1.383-1.571,1.04-3.662,0.904-5.579C183.753,10.001,183.49,9.083,182.968,8.341z"/>
<path fill="#00C6AB" d="M136.41,7.028c-4.306-1.258-8.793-1.901-13.278-1.93c-2.041-0.013-4.108-0.044-6.127,0.308
	c-3.822,0.667-8.339,2.846-10.131,6.475c-0.926,1.876-1.12,4.15,0.624,5.681c1.173,1.03,2.806,1.49,4.294,1.812
	c2.505,0.542,5.048,0.801,7.632,1.081c2.502,0.271,4.962,0.262,7.493,0.167c5.781-0.216,11.688,0.066,17.498,0.066
	c7.418,0,14.836,0,22.254,0c2.452,0,4.904,0,7.356,0c1.942,0,3.962,0.399,5.893,0.018c1.03-0.204,1.525-1.132,2.001-2.022
	c0.539-1.008,1.082-1.91,1.09-3.117c0.04-6.103-6.297-7.287-10.636-9.574C153.871-0.923,147.646,10.312,136.41,7.028"/>
<path fill="#B6F484" d="M34.801,7.113c-2.191,0.467-4.345,0.945-6.442,1.419c-6.482,1.456-12.709,2.036-19.34,2.046
	C6.025,10.582,3.012,10.513,0,10.379v14.167c5.267-0.627,10.237-0.478,15.518-0.369c7.098,0.145,14.673-1.248,21.587-2.723
	c5.709-1.218,11.554-1.65,17.216-3.089c8.305-2.11,16.301-3.512,24.756-4.487c0.985-0.115,17.272-0.119,17.272-0.101v-1.381
	l0.332-0.487c0,0-4.669-4.355-20.402-7.467C63.14,1.845,48.229,4.248,34.801,7.113"/>
<path fill="#00C6AB" d="M93.363,10.501c-4.313-2.05-9.007-3.363-13.625-4.504C71.872,4.057,63.05,5.19,55.122,6.133
	c-13.473,1.608-28.197,7.928-41.751,6.111c-4.563-0.611-8.952-2.175-13.37-3.601v28.233c12.672,1.221,25.535,2.148,38.239,1.428
	c9.514-0.543,19.489-1.671,28.775-3.852c5.214-1.223,12.199-3.387,16.322-6.958c2.343-2.028,3.766-4.816,6.035-6.882
	c1.672-1.521,3.714-2.529,5.356-4.055C98.135,13.401,96.66,12.074,93.363,10.501"/>
<path fill="#262262" d="M38.504,12.21C25.647,14.841,12.64,14.683,0,11.396v34.919c3.463,0.268,6.938,0.574,10.479,0.752
	c2.973,0.146,6.038,0.392,9.128,0.617h20.758c8.966-1.054,17.925-3.428,26.348-6.586c5.354-2.008,10.385-4.658,15.152-7.819
	c5.26-3.486,10.772-6.909,13.555-12.73c0.898-1.879,0.93-4.246,0.93-6.284l0.332-1.867c-0.806-0.361-1.643-0.653-2.477-0.94
	c-2.642-0.91-5.152-2.137-7.835-2.957c-2.857-0.873-5.792-1.456-8.766-1.748c-6.138-0.604-12.391-0.129-18.46,0.882
	c-3.489,0.582-6.953,1.35-10.387,2.194C45.35,10.667,41.943,11.507,38.504,12.21"/>
<path fill="#FF345C" d="M50.832,12.021c-6.123,1.836-12.061,4.268-18.258,5.802c-4.324,1.071-8.776,1.605-13.232,1.421
	c-3.876-0.16-7.731-0.724-11.54-1.433C5.315,17.35,2.681,16.764,0,16.269v31.417h11.387c2.945-0.308,5.878-0.719,8.794-1.229
	c17.735-3.113,36.516-8.822,51.374-19.252c4.37-3.067,8.984-7.33,13.723-9.718c3.319-1.671,8.102-0.767,11.75-0.767v-3.286
	c0,0-6.569-3.803-19.019-4.841c-7.874-0.656-15.812,0.52-23.45,2.405C53.307,11.307,52.064,11.652,50.832,12.021"/>
<path fill="#28C9D8" d="M4.22,25.353c-1.502-0.047-2.927,0.252-4.219,0.815v21.479c0.018,0.013,0.036,0.024,0.055,0.037
	c1.724,0,3.448,0,5.172,0c3.8,0,7.599,0,11.399,0c1.449,0,2.899,0,4.348,0c0.787,0,1.641,0.092,2.396-0.17
	c1.18-0.409,2.012-1.479,3.047-2.125c1.543-0.964,3.589-2.93,4.31-4.597c1.764-4.079,1.577-8.949-0.324-12.936
	c-0.667-1.398-1.621-3.43-3.229-3.883c-1.976-0.557-3.485,0.357-5.361,0.808c-1.875,0.451-3.791,0.701-5.714,0.811
	C12.141,25.82,8.177,25.477,4.22,25.353"/>
</svg>
