<?xml version="1.0" encoding="utf-8"?>
<!-- Generator: Adobe Illustrator 15.0.2, SVG Export Plug-In  -->
<!DOCTYPE svg PUBLIC "-//W3C//DTD SVG 1.1//EN" "http://www.w3.org/Graphics/SVG/1.1/DTD/svg11.dtd" [
	<!ENTITY ns_flows "http://ns.adobe.com/Flows/1.0/">
]>
<svg version="1.1"
	 xmlns="http://www.w3.org/2000/svg" xmlns:xlink="http://www.w3.org/1999/xlink" xmlns:a="http://ns.adobe.com/AdobeSVGViewerExtensions/3.0/"
	 x="0px" y="0px" width="172px" height="36px" viewBox="-0.146 -0.286 172 36"
	 overflow="visible" enable-background="new -0.146 -0.286 172 36" xml:space="preserve">
<defs>
</defs>
<path fill="#8A75B5" d="M170.858,1.809c-5.308-0.857-13.465-1.475-14.277-1.532c-9.008-0.645-18.135-0.223-26.932,1.911
	c-8.385,2.033-15.963,6.032-24.017,8.989c-7.176,2.639-14.487,3.762-22.113,2.996C71.829,13.002,60.825,8.6,49.564,5.557
	C44.559,4.204,38.998,2.63,33.79,2.429C22.795,2.007,7.138,1.562,1.364,13.287c-1.849,3.753-1.568,9.729-0.629,13.817
	c0.627,2.738,1.573,5.279,2.783,7.619h167.34V1.809z"/>
<path fill="#262262" d="M170.858,2.632c-8.899-1.943-26.281-4.625-40.631-0.087c-14.354,4.54-27.086,14.098-42.564,14.654
	c-5.141,0.185-9.999-0.959-14.746-2.839c-5.078-2.015-10.324-3.54-15.436-5.462c-10.837-4.07-22.876-7.909-34.571-7.65
	C15.398,1.411,9.321,3.917,5.617,10.559c-4.529,8.12-0.571,17.178,5.566,24.165h159.675V2.632z"/>
<path fill="#FF345C" d="M170.694,3.557c-0.029-0.007-0.061-0.015-0.091-0.021c-11.68-2.696-23.026-4.177-34.765-1.04
	c-10.803,2.888-20.659,8.265-30.738,12.972c-3.471,1.622-6.992,3.125-10.636,4.32c-6.243,2.048-12.438,2.519-18.892,1.285
	c-2.975-0.569-23.525-8.249-23.151-1.366c0.235,4.318,5.66,7.336,8.94,9.13c5.43,2.97,11.418,4.684,17.472,5.937h45.883
	c7.33-1.484,14.625-3.18,22.056-4.074c6.003-0.723,11.893-0.956,17.672,1.162c1.168,0.428,2.479,1.574,3.426,2.912h2.824V3.557z"/>
<path fill="#262262" d="M170.858,4.969c-1.701-0.44-3.41-0.852-5.134-1.199c-13.528-2.73-29.05-2.377-41.239,4.365
	C102.874,20.088,89.734,27.33,80.649,26.292c-0.56-0.064-4.408-0.441-4.728,0.211c-0.383,0.783,2.619,1.544,3.12,1.71
	c6.867,2.257,14.27,3.357,21.488,3.206c8.798-0.182,17.188-1.947,25.654-4.23c13.809-3.725,28.673-5.437,42.94-3.947
	c0.221,0.023,0.858,0.094,1.733,0.193V4.969z"/>
<path fill="#F7A8A9" d="M170.858,5.479c-9.887-2.581-27.959-5.542-42.015,2.081c-4.214,2.285-8.187,4.974-12.173,7.627
	c-4.995,3.323-1.799,2.438-10.741,6.776c-1.94,0.941-3.932,1.771-5.939,2.56c-1.458,0.572-4.294,1.018-5.386,2.189
	c0.922,1.275,6.271,0.201,7.637,0c1.503-0.222,3.075-0.448,4.612-0.777c3.713-0.798,6.983-1.773,10.519-3.128
	c5.045-1.934,9.919-4.293,15.009-6.112c2.903-1.038,5.877-1.9,8.923-2.405c9.816-1.627,19.775-1.629,29.555-0.079V5.479z"/>
<path fill="#3F98DF" d="M83.258,20.084c-7.567-0.501-14.718-2.872-21.854-5.27c-3.443-1.155-6.929-2.232-10.572-2.526
	c-2.793-0.228-5.802,0.162-8.472,0.984c-6.718,2.066-7.896,7.334-3.239,12.472c4.111,4.535,10.262,6.948,15.895,8.961
	c0.017,0.007,0.035,0.013,0.054,0.019h13.269c-4.318-1.184-8.57-2.626-12.708-4.322c-4.918-2.016-9.63-5.445-10.932-10.918
	c-2.028-8.522,10.816-5.915,15.175-4.531c10.914,3.468,21.225,6.909,32.448,4.529C89.353,20.09,86.355,20.289,83.258,20.084"/>
<path fill="#B6F484" d="M42.524,30.44c-10.896-5.445-16.343-15.302,0-18.415c16.339-3.112,23.601,4.411,37.089,7.003
	c13.487,2.594,31.903-7.779,31.903-7.779c-6.722,3.359-14.816,6.5-22.3,7.438c-13.103,1.64-26.048-5.88-37.81-10.508
	C35.585,1.954,16.325,3.726,9.582,13.322c-3.522,5.013,0.321,14.335,8.227,21.401h34.873C48.366,33.164,44.901,31.629,42.524,30.44"
	/>
<path fill="#B6F484" d="M163.491,34.724c-0.061-0.246-0.176-0.467-0.358-0.65c-2.318-2.315-6.925-6.275-32.056,0.65H163.491z"/>
</svg>
