<?xml version="1.0" encoding="utf-8"?>
<!-- Generator: Adobe Illustrator 15.0.2, SVG Export Plug-In  -->
<!DOCTYPE svg PUBLIC "-//W3C//DTD SVG 1.1//EN" "http://www.w3.org/Graphics/SVG/1.1/DTD/svg11.dtd" [
	<!ENTITY ns_flows "http://ns.adobe.com/Flows/1.0/">
]>
<svg version="1.1"
	 xmlns="http://www.w3.org/2000/svg" xmlns:xlink="http://www.w3.org/1999/xlink" xmlns:a="http://ns.adobe.com/AdobeSVGViewerExtensions/3.0/"
	 x="0px" y="0px" width="185px" height="49px" viewBox="-0.527 -0.531 185 49"
	 overflow="visible" enable-background="new -0.527 -0.531 185 49" xml:space="preserve">
<defs>
</defs>
<path fill="#DD1C45" d="M183.477,1.949c-17.757-6.179-23.968,4.6-35.009,1.372c-11.237-3.284-20.4-1.383-20.4-1.383l13.658,15.041
	h41.751V1.949z"/>
<path fill="#6FC6B6" d="M183.477,4.008l-2.285-1.206c-18.502-6.915-24.727,4.322-35.966,1.038c-11.237-3.286-20.4-1.384-20.4-1.384
	l13.659,15.041h44.992V4.008z"/>
<path fill="#262262" d="M183.477,5.409l-3.713-1.959c-18.5-6.915-24.725,4.323-35.963,1.038c-11.24-3.285-20.401-1.383-20.401-1.383
	l13.657,15.041h46.42V5.409z"/>
<path fill="#B6F484" d="M183.477,7.78l-7.474-3.939c-18.501-6.916-24.724,4.322-35.964,1.037c-11.237-3.285-20.4-1.382-20.4-1.382
	l13.657,15.041h50.181V7.78z"/>
<path fill="#00C6AB" d="M136.41,6.822c-11.238-3.285-20.404-1.383-20.404-1.383l13.662,15.042h51.351l0.863-9.682l-9.509-5.014
	C153.871-1.13,147.647,10.106,136.41,6.822"/>
<path fill="#B6F484" d="M34.801,6.906c-2.191,0.467-4.345,0.945-6.442,1.419c-6.482,1.456-12.709,2.036-19.34,2.046
	C6.025,10.375,3.012,10.306,0,10.173V24.34c5.267-0.627,10.237-0.478,15.518-0.369c7.098,0.145,14.673-1.248,21.587-2.723
	c5.709-1.218,11.554-1.65,17.216-3.089c8.305-2.11,16.301-3.512,24.756-4.487c0.985-0.115,17.273-0.119,17.273-0.101V12.19
	l0.332-0.487c0,0-4.67-4.355-20.402-7.467C63.14,1.638,48.229,4.041,34.801,6.906"/>
<path fill="#00C6AB" d="M93.363,10.295c-4.313-2.05-9.007-3.363-13.625-4.504C71.872,3.85,63.05,4.984,55.122,5.927
	c-13.473,1.608-28.197,7.928-41.751,6.111c-4.563-0.611-8.952-2.175-13.37-3.601v28.233c12.672,1.22,25.535,2.149,38.239,1.427
	c9.514-0.543,19.489-1.67,28.775-3.851c5.214-1.223,12.199-3.386,16.322-6.958c2.343-2.028,3.766-4.816,6.035-6.882
	c1.672-1.521,3.714-2.529,5.356-4.055C98.135,13.195,96.66,11.867,93.363,10.295"/>
<path fill="#262262" d="M38.504,12.004C25.647,14.635,12.64,14.476,0,11.19v34.919c3.463,0.268,6.938,0.575,10.479,0.752
	c2.973,0.147,6.038,0.392,9.128,0.618h20.758c8.966-1.054,17.925-3.428,26.348-6.587c5.354-2.007,10.385-4.657,15.152-7.819
	c5.26-3.486,10.772-6.909,13.555-12.73c0.899-1.879,0.93-4.246,0.93-6.284l0.332-1.867c0,0-3.63-1.731-16.943-5.017
	C65.802,3.738,52.014,9.241,38.504,12.004"/>
<path fill="#FF345C" d="M50.832,11.815c-6.123,1.836-12.061,4.268-18.258,5.802c-4.324,1.071-8.776,1.605-13.232,1.421
	c-3.876-0.16-7.731-0.724-11.54-1.433C5.315,17.143,2.681,16.557,0,16.062v31.417h11.387c2.945-0.308,5.878-0.719,8.794-1.23
	c17.735-3.113,36.516-8.822,51.374-19.252c4.37-3.067,8.984-7.33,13.723-9.718c3.319-1.671,8.102-0.767,11.749-0.767v-3.286
	c0,0-6.569-3.803-19.018-4.841c-7.874-0.656-15.812,0.52-23.45,2.405C53.307,11.1,52.064,11.446,50.832,11.815"/>
<path fill="#28C9D8" d="M4.22,25.147c-1.502-0.047-2.927,0.252-4.219,0.815v21.479c0.018,0.013,0.036,0.025,0.055,0.038H22.46
	c0.215-0.371,0.375-0.756,0.446-1.154l2.721-22.963C18.35,26.273,11.755,25.383,4.22,25.147"/>
</svg>
