<?xml version="1.0" encoding="utf-8"?>
<!-- Generator: Adobe Illustrator 15.0.2, SVG Export Plug-In  -->
<!DOCTYPE svg PUBLIC "-//W3C//DTD SVG 1.1//EN" "http://www.w3.org/Graphics/SVG/1.1/DTD/svg11.dtd" [
	<!ENTITY ns_flows "http://ns.adobe.com/Flows/1.0/">
]>
<svg version="1.1"
	 xmlns="http://www.w3.org/2000/svg" xmlns:xlink="http://www.w3.org/1999/xlink" xmlns:a="http://ns.adobe.com/AdobeSVGViewerExtensions/3.0/"
	 x="0px" y="0px" width="375px" height="96px" viewBox="-0.978 -0.228 375 96"
	 overflow="visible" enable-background="new -0.978 -0.228 375 96" xml:space="preserve">
<defs>
</defs>
<path fill="#DD1C45" d="M55.531,8.974c0,0,42.199-8.758,93.951,6.37c51.754,15.128,80.416-36.625,165.61-4.777
	c5.47,2.045,10.649,5.726,15.813,8.416c7.377,3.842,16.548,5.309,23.145,10.581c5.533,4.426,12.633,10.024,15.512,16.666
	c2.373,5.474,5.627,16.97,3.352,22.665c-6.818,17.066-32.517,9.347-45.781,9.35c-13.668,0.003-27.336,0-41.004,0
	c-32.887,0-65.774,0-98.662,0c-16.457,0-32.916,0-49.373,0c-2.543,0-17.85,1.995-19.661,0C118.426,78.235,55.531,8.974,55.531,8.974
	z"/>
<path fill="#6FC6B6" d="M40.604,11.362c0,0,42.199-8.758,93.952,6.369c51.753,15.128,80.417-36.625,165.61-4.776
	c18.184,9.588,53.086,20.9,57.066,43.925c1.65,9.543-4.918,16.792-12.641,21.253c-9.291,5.366-14.893,3.979-24.634,2.737
	c-13.495-1.72-28.078-0.238-41.67-0.238c-33.474,0-66.945,0-100.419,0c-24.789,0-49.576,0-74.365,0L40.604,11.362z"/>
<path fill="#EBF2E3" d="M34.035,14.348c0,0,42.199-8.758,93.952,6.369c51.753,15.128,80.417-36.625,165.61-4.777
	c20.16,10.629,49.656,18.692,53.154,44.762c3.045,22.686-12.32,28.625-31.672,24.243c-14.488-3.281-31.05-1.328-45.854-1.328
	c-34.409,0-68.819,0-103.229,0c-23.021,0-46.042,0-69.062,0L34.035,14.348z"/>
<path fill="#B6F484" d="M16.719,16.14c0,0,42.199-8.758,93.951,6.369c51.754,15.128,80.416-36.625,165.611-4.776
	c23.088,12.173,63.34,25.043,59.77,58.364c-2.153,20.079-29.725,13.757-42.059,10.697c-14.953-3.71-32.693-1.385-48.031-1.385
	c-35.147,0-70.295,0-105.443,0c-20.301,0-40.6,0-60.9,0L16.719,16.14z"/>
<path fill="#00C6AB" d="M0,25.096c0,0,42.198-8.758,93.951,6.37c51.754,15.128,80.416-36.625,165.61-4.776
	c22.804,12.023,53.749,21.534,59.133,50.118c4.292,22.788-40.769,17.559-55.618,17.559c-28.9,0-57.801,0-86.701,0
	c-37.824,0-75.65,0-113.477,0L0,25.096z"/>
</svg>
