<?xml version="1.0" encoding="utf-8"?>
<!-- Generator: Adobe Illustrator 15.0.2, SVG Export Plug-In  -->
<!DOCTYPE svg PUBLIC "-//W3C//DTD SVG 1.1//EN" "http://www.w3.org/Graphics/SVG/1.1/DTD/svg11.dtd" [
	<!ENTITY ns_flows "http://ns.adobe.com/Flows/1.0/">
]>
<svg version="1.1"
	 xmlns="http://www.w3.org/2000/svg" xmlns:xlink="http://www.w3.org/1999/xlink" xmlns:a="http://ns.adobe.com/AdobeSVGViewerExtensions/3.0/"
	 x="0px" y="0px" width="133px" height="44px" viewBox="-0.299 -0.859 133 44"
	 overflow="visible" enable-background="new -0.299 -0.859 133 44" xml:space="preserve">
<defs>
</defs>
<path fill="#91D3CD" d="M131.705,9.208c-3.212,0.553-6.315,1.709-9.3,3.079c-4.412,2.026-8.66,4.844-13.522,5.574
	C95.051,19.935,85.368,2.646,62.893,0.225C40.416-2.196,17.375,15.713,17.375,15.713l114.33,14.893V9.208z"/>
<path fill="#4D7E9D" d="M118.082,15.918c-4.412,2.026-8.659,4.845-13.521,5.574C90.729,23.565,81.047,6.277,58.57,3.855
	c-18.301-1.97-35.449,7.518-41.195,11.114l114.331,18.299V12.366C126.995,12.673,122.434,13.919,118.082,15.918"/>
<path fill="#F15B60" d="M131.705,15.19c-6.984,0.565-14.563,1.659-17.901,3.192c-4.412,2.026-8.66,4.845-13.522,5.573
	C86.448,26.031,76.767,8.74,54.291,6.319c-22.479-2.42-43.226,12.449-43.226,12.449l120.64,17.51V15.19z"/>
<path fill="#262262" d="M131.705,16.516c-7.737,0.458-17.314,1.645-21.187,3.423c-4.411,2.026-8.661,4.843-13.522,5.572
	C83.162,27.586,73.48,10.296,51.005,7.875C28.528,5.456,7.779,20.325,7.779,20.325l123.926,17.984V16.516z"/>
<path fill="#B6F484" d="M131.705,18.745c-8.014,0.165-21.148,1.453-25.854,3.615c-4.413,2.025-8.66,4.843-13.522,5.572
	c-13.833,2.074-23.515-15.215-45.99-17.636C23.859,7.875,3.112,22.746,3.112,22.746l128.593,18.663V18.745z"/>
<path fill="#00C6AB" d="M131.705,20.126c-7.154-0.187-23.582,1.143-28.968,3.615c-4.412,2.025-8.659,4.844-13.522,5.573
	c-13.831,2.075-23.514-15.214-45.99-17.636C20.748,9.258,0,24.127,0,24.127l129.657,18.818c0-3.553,0.27-6.456,1.646-9.726
	c0.15-0.357,0.274-0.722,0.401-1.085V20.126z"/>
</svg>
