<?xml version="1.0" encoding="utf-8"?>
<!-- Generator: Adobe Illustrator 15.0.2, SVG Export Plug-In . SVG Version: 6.00 Build 0)  -->
<!DOCTYPE svg PUBLIC "-//W3C//DTD SVG 1.1//EN" "http://www.w3.org/Graphics/SVG/1.1/DTD/svg11.dtd">
<svg version="1.1" id="Layer_1" xmlns="http://www.w3.org/2000/svg" xmlns:xlink="http://www.w3.org/1999/xlink" x="0px" y="0px"
	 width="929.048px" height="595.584px" viewBox="0 0 929.048 595.584" enable-background="new 0 0 929.048 595.584"
	 xml:space="preserve">
<g>
	<g>
		<defs>
			<rect id="SVGID_1_" x="-0.323" width="929.048" height="595.584"/>
		</defs>
		<clipPath id="SVGID_2_">
			<use xlink:href="#SVGID_1_"  overflow="visible"/>
		</clipPath>
		<g clip-path="url(#SVGID_2_)">
			<path fill="#C3DB74" d="M256.367,608.215c-18.709,12.844-47.375,14.262-68.821,18.993c-18.097,3.992-35.704,8.675-54.152,10.901
				c-29.529,3.562-58.883,5.783-88.338,8.54c-30.319,2.839-71.753,11.935-91.742-16.567c-8.871-12.647-21.929-28.545-21.172-44.6
				c0.813-17.288,14.321-33.027,24.919-45.592c17.471-20.714,40.826-34.071,67.781-40.632c26.758-6.512,52.609-2.935,79.181,0.422
				c22.191,2.804,43.843-0.55,65.78-1.732c19.379-1.042,39.244,5.223,58.566,7.731c24.891,3.234,50.362,4.331,75.443,4.291
				c23.68-0.038,45.921-2.105,69.069-7.313c7.494-1.685,15.179-3.397,23.003-5.066c47.972-10.231,101.198-18.816,148.132-9.533
				c56.188,11.115,72.857,26.671,72.857,26.671l-1.183,1.732v4.941c0-0.062-58.169-0.052-61.69,0.354
				c-30.188,3.485-58.748,8.493-88.405,16.026c-20.223,5.138-41.094,6.687-61.473,11.029c-24.704,5.265-51.746,10.241-77.098,9.724
				c-20.825-0.424-40.285-1.069-61.324,2.085c-17.851,2.678-35.698,5.196-53.606,7.613c-31.16,4.202-61.553,8.104-93.101,6.228
				c-22.34-1.326-47.902-6.482-68.753-14.863c-19.329-7.77-7.458-18.443,4.291-28.296c11.683-9.798,24.339-18.946,37.975-25.955"/>
			<path fill="#2DBBAD" d="M214.49,628.378c-22.376,12.297-47.596,7.8-70.619,15.565c-24.325,8.208-46.122,6.528-71.728,8.046
				c-26.854,1.589-104.44,2.036-89.459-42.253c12.84-37.955,50.819-63.349,84.994-80.25
				c55.854-27.618,114.371-46.974,177.774-33.712c24.942,5.218,48.682,16.773,73.907,20.154
				c48.399,6.483,100.987-16.087,149.099-21.824c28.312-3.377,59.82-7.419,87.908-0.489c16.494,4.071,33.255,8.767,48.652,16.088
				c11.784,5.604,17.051,10.349,4.887,21.631c-5.87,5.443-13.157,9.049-19.129,14.48c-8.105,7.374-13.188,17.326-21.555,24.574
				c-14.721,12.753-39.669,20.476-58.287,24.848c-33.16,7.787-68.789,11.816-102.764,13.752
				c-50.163,2.855-101.034-1.497-150.885-6.498c-39.065-3.918-78.751-8.304-117.555-14.002
				c-22.446-3.297-45.688-8.202-67.129-15.645c-8.232-2.856-21.616-7.144-26.278-15.189c9.467-8.827,19.919-16.828,31.029-24.036"/>
			<path fill="#EAF1E3" d="M615.691,523.134c0,7.283-0.108,15.733-3.316,22.442c-9.942,20.788-29.626,33.011-48.409,45.466
				c-17.023,11.291-34.993,20.757-54.108,27.924c-34.409,12.903-71.312,22.14-107.891,24.846
				c-30.103,2.229-62.813-2.032-92.936-3.532c-29.898-1.488-58.423-5.646-88.337-4.146c-10.583,0.533-20.45,1.586-31.02,1.551
				c-21.007-0.071-42.234,1.218-62.045-4.313c-21.249-5.931-36.098-13.307-35.663-37.562
				c1.456-80.958,105.915-105.185,167.633-86.286c48.881,14.968,99.52,16.508,149.51,6.28
				c48.247-9.868,97.491-29.525,147.257-17.247c47.543,11.73,60.508,17.905,60.508,17.905L615.691,523.134z"/>
			<path fill="#EF5880" d="M618.11,531.897c-13.029,0-30.105-3.226-41.963,2.745c-16.92,8.521-33.399,23.747-49.002,34.699
				c-53.062,37.249-120.136,57.635-183.468,68.752c-23.541,4.133-47.412,6.539-71.323,6.585
				c-11.928,0.022-23.836-0.571-35.706-1.733c-8.086-0.791-17.517,0.617-25.2-1.674c-31.028-9.247-43.782-53.201-33.089-80.592
				c6.542-16.756,22.962-27.461,39.887-31.684c25.729-6.419,55.654,2.053,81.223,6.808c41.585,7.738,77.036,8.784,116.419-9.375
				c12.559-5.79,24.028-7.245,37.47-10.507c31.665-7.686,63.977-15.782,96.833-13.044c44.457,3.704,67.92,17.289,67.92,17.289
				V531.897z"/>
			<path fill="#79C9B1" d="M759.375,555.874c-22.887,4.502-43.341,3.533-62.043-0.383l-17.478,3.575c0,0-45.691-7.41-55.569-8.646
				c-9.88-1.233-8.026-0.617-8.026-8.026c0-6.101-0.418-15.963-0.567-19.26c-31.595-15.005-51.064-22.297-118.452-5.236
				c-73.175,18.524-76.88,13.894-76.88,13.894l-22.23,47.239h543.722v-85.217C852.928,475.288,815.878,544.76,759.375,555.874z"/>
			<path fill="#90D2CD" d="M526.728,497.938c0,0,74.094-53.101,154.362-44.457c80.271,8.645,114.847,70.39,164.245,62.98
				c17.363-2.603,32.534-12.667,48.29-19.903c16.26-7.468,33.507-13.256,51.641-12.11c2.57,0.162,1.33,39.128,1.33,43.8v36.891"/>
			<path fill="#4C7E9C" d="M517.466,505.964c0,0,74.094-53.1,154.361-44.457c80.271,8.645,114.849,70.39,164.244,62.979
				c17.366-2.604,32.536-12.667,48.291-19.901c16.262-7.47,33.508-13.258,51.642-12.112c2.569,0.163,1.33,39.128,1.33,43.8v36.89"/>
			<path fill="#F05B60" d="M511.292,510.905c0,0,74.093-53.102,154.361-44.458c80.27,8.645,114.848,70.39,164.246,62.98
				c17.363-2.604,32.533-12.667,48.29-19.902c20.409-9.373,42.09-14.153,64.606-12.729c1.003,15.737,0.421,31.908-5.755,46.574
				c-4.916,11.679-5.881,22.048-5.881,34.733"/>
			<path fill="#EAF1E3" d="M496.009,519.703c0,0,74.096-53.101,154.363-44.457c80.271,8.645,114.849,70.392,164.245,62.98
				c17.363-2.604,32.533-12.671,48.289-19.906c20.411-9.371,85.252-14.15,107.771-12.727c1,15.737,0.419,31.909-5.757,46.574
				c-4.919,11.679-5.882,22.048-5.882,34.735"/>
			<path fill="#90D2CD" d="M484.277,525.259c0,0,74.095-53.099,154.366-44.456c80.268,8.645,114.845,70.391,164.242,62.98
				c17.363-2.604,32.535-12.668,48.289-19.904c20.411-9.371,85.252-14.15,107.771-12.728c1.001,15.738,0.419,31.91-5.757,46.574
				c-4.918,11.681-5.885,22.05-5.885,34.732"/>
			<path fill="#C3DB74" d="M467.606,533.904c0,0,74.095-53.102,154.365-44.457c80.267,8.645,114.845,70.39,164.241,62.979
				c17.365-2.604,32.535-12.667,48.29-19.903c20.411-9.372,85.254-14.153,107.771-12.727c0.999,15.736,0.418,31.909-5.755,46.574
				c-4.92,11.68-5.884,22.048-5.884,34.733"/>
			<path fill="#2DBBAD" d="M456.493,538.846c0,0,74.093-53.102,154.364-44.459c80.269,8.646,114.846,70.391,164.243,62.981
				c17.364-2.606,32.535-12.67,48.29-19.905c20.41-9.373,85.254-14.151,107.771-12.729c1,15.738,0.419,31.91-5.758,46.573
				c-4.917,11.681-5.881,22.049-5.881,34.736"/>
			<path fill="#79C9B1" d="M363.124,556.364c-25.984,10.393-49.536,7.217-76.446,6.374c-21.19-0.664-38.184,17.797-37.92,38.724
				c0.508,40.104,43.642,56.308,77.625,55.247c9.212-0.288,25.219-8.343,27.029-18.347"/>
			<path fill="#8974B4" stroke="#EF7A7A" stroke-width="0.3981" stroke-miterlimit="10" d="M943.085,529.937
				c-0.261-5.411-62.904-10.156-67.237-10.468c-32.164-2.303-64.757-0.794-96.176,6.827c-29.941,7.263-57.007,21.537-85.765,32.104
				c-25.632,9.421-51.736,13.434-78.977,10.702c-41.745-4.187-81.039-19.908-121.258-30.773
				c-17.868-4.826-37.734-10.455-56.333-11.171c-39.26-1.51-95.173-3.095-115.796,38.778c-6.6,13.399-5.599,34.747-2.251,49.34
				c9.598,41.824,39.17,71.349,80.619,82.731c29.208,8.021,62.741,4.218,92.812,4.218c32.525,0,65.049,0,97.576,0
				c67.854,0,135.709,0,203.563,0c46.542,0,93.082,0,139.621,0c5.98,0,11.96,0,17.938,0
				C951.423,702.225,943.085,529.948,943.085,529.937z"/>
			<path fill="#EAF1E3" d="M947.83,533.134c0,0-93.853-28.404-166.096-5.559c-51.262,16.212-96.727,50.343-152.004,52.328
				c-18.357,0.66-35.712-3.422-52.661-10.142c-18.134-7.189-36.869-12.644-55.121-19.497
				c-38.703-14.538-81.699-28.245-123.465-27.331c-26.823,0.591-48.522,9.536-61.752,33.254
				c-25.093,44.996,22.746,98.096,59.509,119.044c14.695,8.372,31.436,15.641,47.609,20.584c11.389,3.481,23.005,6.204,34.716,8.351
				c117.934,21.612,499.521,16.054,499.521,16.054"/>
			<path fill="#EF5880" d="M978.902,708.709c-5.63-0.078-11.26-0.159-16.891-0.239c-38.798-0.545-77.595-1.092-116.393-1.639
				c-9.271-0.132-19.438,0.877-28.568-0.834c-5.775-1.082-12.143-2.835-6.288-8.057c4.354-3.88,15.528-1.527,20.866-2.096
				c22.969-2.448,48.815-6.341,69.24-17.647c8.343-4.62,19.659-12.266,20.496-22.828c0.677-8.532-9.025-20.415-16.848-23.283
				c-20.642-7.567-41.672-6.727-63.106-4.146c-43.049,5.182-84.808,17.895-127.918,22.702c-31.426,3.505-63.181,1.022-94.25-4.316
				c-28.402-4.882-57.344-11.092-82.854-25.038c-11.713-6.404-31.086-17.179-31.926-32.602c-1.336-24.581,72.056,2.846,82.681,4.877
				c23.047,4.406,45.169,2.728,67.463-4.59c13.017-4.271,25.583-9.638,37.985-15.43c35.997-16.805,71.186-36.009,109.769-46.325
				c41.918-11.202,82.442-5.913,124.15,3.716c6.421,1.482,12.94,2.956,19.044,5.488"/>
			<path fill="#90D2CD" d="M948.983,543.117c-0.104-0.156-0.225-0.302-0.36-0.44c-2.329-2.373-10.114-3.277-13.175-4.16
				c-8.887-2.561-17.884-4.741-26.947-6.569c-48.312-9.751-103.738-8.491-147.274,15.589
				c-77.152,42.679-124.12,68.545-156.539,64.839c-2.001-0.228-15.746-1.572-16.884,0.756c-1.369,2.797,9.349,5.515,11.143,6.105
				c24.52,8.062,50.955,11.987,76.737,11.454c31.417-0.649,61.384-6.954,91.613-15.111c49.313-13.302,102.402-19.418,153.347-14.098
				c4.029,0.42,46.051,5.118,46.092,6.73c-0.337-13.247-7.688-24.607-11.81-36.785c-2.577-7.609-3.599-15.606-4.862-23.509
				C949.78,546.15,949.824,544.361,948.983,543.117z"/>
			<path fill="#F6A6A7" d="M952.771,546.1c0,0-103.113-40.135-175.975-0.616c-15.046,8.157-29.235,17.76-43.47,27.236
				c-8.438,5.618-16.715,11.485-25.251,16.957c-8.56,5.485-17.112,8.868-26.226,13.228c-3.098,1.482-11.714,4.038-5.696,7.303
				c9.527,5.168,27.602-0.152,37.284-2.805c36.973-10.131,69.562-31.538,107.855-37.889c44.819-7.429,90.486-5.414,134.565,5.605"/>
			<path fill="#C3DB74" d="M714.914,558.652c0,0-65.767,37.051-113.933,27.789s-74.101-36.126-132.456-25.012
				c-58.355,11.116-38.905,46.317,0,65.766c38.903,19.453,159.319,64.841,280.66,25.937
				c121.343-38.905,140.796-22.23,150.059-12.968c9.261,9.263-25.013,42.61-120.419,43.535
				c-95.405,0.927-207.484-27.787-293.627-10.19c-86.144,17.601-158.393-73.174-134.31-107.446
				c24.083-34.272,92.865-40.598,149.367-18.367c42.001,16.524,88.234,43.383,135.027,37.524
				C662.005,581.874,690.911,570.652,714.914,558.652z"/>
			<path fill="#2C8298" d="M658.212,585.012c-44.756,14.035-84.933,0.463-127.717-13.125c-15.566-4.947-61.432-14.259-54.195,16.176
				c4.65,19.546,21.477,31.79,39.039,38.991c22.492,9.221,45.909,16.385,69.713,21.29c15.344,3.159,30.963,5.55,46.56,7.051
				c17.901,1.723,35.909,2.325,53.888,1.874c13.269-0.336,34.278-3.306,47.459-4.968c-5.446,0.687-21.281,4.033-26.551,5.559
				c-27.274,7.891-46.928,8.644-81.505,7.408c-35.659-1.273-78.255-10.87-111.759-22.845c-20.108-7.189-42.078-15.81-56.756-32.002
				c-16.628-18.347-12.429-37.153,11.563-44.54c9.54-2.937,20.283-4.321,30.26-3.514c13.001,1.05,25.454,4.895,37.751,9.024
				c25.48,8.56,51.016,17.025,78.045,18.816C629.188,591.214,643.712,589.534,658.212,585.012z"/>
		</g>
	</g>
</g>
</svg>
