<?xml version="1.0" encoding="utf-8"?>
<!-- Generator: Adobe Illustrator 15.0.2, SVG Export Plug-In  -->
<!DOCTYPE svg PUBLIC "-//W3C//DTD SVG 1.1//EN" "http://www.w3.org/Graphics/SVG/1.1/DTD/svg11.dtd" [
	<!ENTITY ns_flows "http://ns.adobe.com/Flows/1.0/">
]>
<svg version="1.1"
	 xmlns="http://www.w3.org/2000/svg" xmlns:xlink="http://www.w3.org/1999/xlink" xmlns:a="http://ns.adobe.com/AdobeSVGViewerExtensions/3.0/"
	 x="0px" y="0px" width="888px" height="268px" viewBox="-0.915 -0.328 888 268"
	 overflow="visible" enable-background="new -0.915 -0.328 888 268" xml:space="preserve">
<defs>
</defs>
<path fill="#B6F484" d="M800.903,48.571c-44.347,5.117-91.263,9.171-131.778,28.833c-15.657,7.599-30.016,13.863-45.725,20.824
	c-39.901,17.68-80.606,32.618-122.336,45.97c-86.887,27.799-175.373,50.513-265.74,63.206c-31.73,4.457-63.264,9.668-95.346,9.749
	c-24.055,0.061-51.672-0.897-75.602-4.101c-21.82-2.921-42.497-12.075-54.197-31.588c-9.812-16.363-11.953-33.771-8.875-52.376
	C6.59,97.134,17.783,75.285,43.617,55.296c27.636-21.382,63.062-35.703,98.018-38.186c45.758-3.25,91.418,5.108,137.02,7.795
	c66.119,3.895,133.402,8.575,199.633,8.467c30.535-0.049,59.215-2.715,89.064-9.429c9.663-2.173,19.571-4.381,29.661-6.534
	C658.871,4.217,727.505-6.853,788.027,5.117c72.455,14.332,93.951,34.392,93.951,34.392l-1.526,2.234v6.37
	C880.452,48.036,805.443,48.046,800.903,48.571z"/>
<path fill="#00C6AB" d="M886.105,57.156c3.271,46.769-25.209,60.906-61.816,78.264c-14.188,6.728-26.728,16.645-41.305,22.629
	c-17.92,7.356-35.568,13.909-53.849,20.303c-44.444,15.544-88.553,32.258-134.164,44.158
	c-48.174,12.569-97.442,20.347-146.806,26.462c-96.376,11.939-195.512,24.683-292.697,14.748
	c-32.912-3.364-92.999-17.54-97.363-58.567c-2.281-21.445,1.777-46.467,11.926-65.123C107.375,71.374,183.398,34.509,256.496,16.338
	C292.304,7.437,329.289,2.181,366.243,4.27c35.937,2.031,69.117,15.25,103.513,24.541c76.305,20.61,145.869-12.958,220.84-21.899
	c36.507-4.354,77.137-9.565,113.355-0.629C831.345,13.042,883.603,21.39,886.105,57.156z"/>
<path fill="#EBF2E3" d="M875.143,46.506c1.591,4.289,1.528,8.323,1.964,13.631c2.772,33.856-40.002,56.291-63.355,71.777
	c-49.557,32.864-108.689,53.408-166.311,66.968c-32.373,7.618-64.56,16.233-96.98,23.595
	c-41.355,9.389-82.803,17.204-125.404,19.895c-22.984,1.452-45.865,4.783-68.951,4.781c-41.148-0.003-85.656-1.521-123-20.197
	c-18.389-9.197-31.896-24.787-36.035-45.145C178.799,91.944,266.072,23.914,346.545,19.123c24.073-1.433,51.54,0.57,74.728,7.672
	c63.033,19.301,128.332,21.285,192.793,8.1c62.215-12.727,125.713-38.075,189.885-22.241c21.848,5.392,55.992,8.444,69.126,29.671
	C873.974,43.775,874.64,45.154,875.143,46.506z"/>
<path fill="#FF345C" d="M884.333,55.722c-0.387,4.805-1.833,9.687-3.425,13.431c-9.982,23.48-47.525,42.509-68.729,53.777
	C757.21,152.145,693.406,176.582,633.1,192.16c-56.832,14.682-113.522,24.608-172.006,30.768
	c-32.062,3.376-64.007,4.065-94.771-6.925c-34.098-12.182-67.918-38.232-70.219-76.627c-2.018-33.663,18.34-63.87,48.229-77.357
	c39.697-17.914,87.27-8.975,128.352-1.332c32.357,6.019,65.626,9.522,98.322,4.044c34.348-5.755,66.32-21.481,100.115-29.684
	c40.832-9.91,82.498-20.351,124.865-16.82c16.812,1.401,33.563,4.054,49.889,8.343c10.857,2.853,31.73,7.456,36.951,18.536
	C884.285,48.2,884.638,51.937,884.333,55.722z"/>
<path fill="#28C9D8" d="M524.125,215.153c31.549-1.356,70.42-13.099,81.977-46.699c6.359-18.488,9.083-41.278,3.254-60.301
	c-7.154-23.341-25.238-27.895-46.989-22.071c-27.292,7.307-52.338,12.113-80.896,8.29c-13.464-1.803-28.324-2.677-41.539,0.758
	c-36.512,9.49-42.558,48.321-26.24,77.493C437.126,214.516,481.068,217.003,524.125,215.153z"/>
</svg>
