<?xml version="1.0" encoding="utf-8"?>
<!-- Generator: Adobe Illustrator 15.0.2, SVG Export Plug-In  -->
<!DOCTYPE svg PUBLIC "-//W3C//DTD SVG 1.1//EN" "http://www.w3.org/Graphics/SVG/1.1/DTD/svg11.dtd" [
	<!ENTITY ns_flows "http://ns.adobe.com/Flows/1.0/">
]>
<svg version="1.1"
	 xmlns="http://www.w3.org/2000/svg" xmlns:xlink="http://www.w3.org/1999/xlink" xmlns:a="http://ns.adobe.com/AdobeSVGViewerExtensions/3.0/"
	 x="0px" y="0px" width="771px" height="265px" viewBox="-0.75 -0.059 771 265"
	 overflow="visible" enable-background="new -0.75 -0.059 771 265" xml:space="preserve">
<defs>
</defs>
<path fill="#28C9D8" d="M477.362,143.473c-2.139,6.024-0.029,11.061,5.572,13.727c17.637,8.398,40.156,5.921,59.027,5.921
	c25.377,0,50.752,0,76.129,0c11.977,0,23.955,0,35.932,0c13.949,0,29.304,1.919,41.477-6.164c8.959-5.948,16.516-15.878,21.5-25.095
	c9.557-17.674,4.996-39.631-4.989-56.232c-4.163-6.921-9.702-15.143-16.888-19.181c-4.828-2.712-12.42-3.13-17.795-4.563
	c-5.723-1.527-12.182-1.798-18.072-2.226c-11.229-0.815-22.537-0.538-33.698,0.968c-19.854,2.68-38.854,9.34-56.669,18.391
	c-18.86,9.582-39.547,21.581-55.811,35.17c-6.145,5.133-11.991,10.953-18.059,16.284
	C487.864,126.759,480.608,134.322,477.362,143.473z"/>
<path fill="#6EEBDC" d="M348.176,1.224c103.506,11.147,148.093,90.768,211.79,81.213c22.391-3.359,41.953-16.336,62.27-25.666
	c25.574-11.745,50.246-16.74,78.068-14.811c11.822,0.819,24.895,8.423,34.264,15.562c8.918,6.793,19.061,13.546,23.318,24.331
	c4.971,12.588,5.682,28.518,4.498,41.895c-3.186,36.018-27.752,70.644-56.941,90.566c-27.597,18.835-63.424,22.802-95.527,26.595
	c-21.602,2.553-42.893,3.396-64.655,3.437c-26.259,0.05-50.847-6.454-76.646-10.572c-27.423-4.377-54.604-10.415-81.729-16.314
	c-34.709-7.549-69.591-14.194-102.523-28.002c-24.67-10.343-49.016-23.282-71.877-37.111c-15.246-9.223-31.252-19.588-44.504-31.515
	c-12.016-10.814-31.512-24.634-29.482-42.983c0.496-4.491,2.4-8.751,5.049-12.56c6.012-8.647,17.432-14.618,26.465-19.784
	c10.219-5.846,20.717-11.21,31.43-16.092c29.021-13.225,59.84-23.06,91.516-27.252C311.247-0.261,329.819-0.753,348.176,1.224z"/>
<path fill="#4D7E9D" d="M336.231,11.574c103.506,11.147,148.095,90.768,211.791,81.213c22.393-3.358,41.953-16.336,62.27-25.666
	c12.027-5.523,24.469-10.355,37.429-13.18c12.954-2.823,24.866-1.985,37.776-1.595c7.062,0.214,13.65,2.64,20.433,4.634
	c8.73,2.565,16.417,7.975,23.154,13.84c16.54,14.402,29.09,30.899,31.3,53.639c1.586,16.314-0.355,31.95-11.105,45.254
	c-13.133,16.25-35.357,25.868-54.181,33.56c-36.353,14.854-77.8,14.465-116.42,16.696c-46.934,2.711-93.234,0.04-140.062-3.512
	c-66.389-5.035-132.039-11.496-194.381-36.667c-18.902-7.632-37.574-15.016-56.875-21.571
	c-17.268-5.866-31.742-16.533-46.863-26.366c-9.154-5.952-16.483-11.755-17.609-22.905c-0.602-5.956-0.802-11.814,1.012-17.516
	c7.04-22.125,25.346-31.106,44.594-41.322c25.312-13.434,52.154-24.246,79.953-31.287C277.028,11.583,306.835,8.409,336.231,11.574z
	"/>
<path fill="#FF345C" d="M328.271,17.944c103.506,11.147,148.093,90.767,211.791,81.213c22.391-3.359,41.951-16.336,62.27-25.666
	c18.535-8.512,38.383-14.244,58.73-16.079c10.248-0.924,18.776-0.1,28.742,1.66c9.758,1.723,19.919,2.002,29.08,6.165
	c10.572,4.803,22.84,12.864,30.136,22.134c11.407,14.491,12.679,33.754,13.002,51.493c0.422,23.159-13.096,50.659-28.635,67.08
	c-17.006,17.97-42.581,26.573-65.993,32.051c-26.414,6.181-53.939,7.979-81.021,6.765c-66.077-2.962-131.936-14.774-196.354-29.395
	c-36.76-8.344-72.913-19.416-108.885-30.632c-21-6.547-41.863-14.564-62.352-22.542c-12.158-4.734-24.241-9.496-35.542-16.065
	c-22.398-13.019-42.89-27.856-54.188-52.163c-1.415-3.042-2.92-6.74-2.555-10.117c1.101-10.165,12.514-15.142,20.281-19.695
	c9.559-5.604,19.374-10.771,29.385-15.52c27.953-13.26,57.607-23.381,88.175-28.45C285.433,16.683,306.987,15.652,328.271,17.944z"
	/>
<path fill="#EBF2E3" d="M308.563,29.29c56.031,6.034,98.453,36.62,145.82,63.662c31.002,17.699,67.246,22.543,101.832,13.792
	c33.42-8.456,57.763-32.961,91.344-40.139c36.11-7.718,83.051-12.005,108.326,21.216c19.799,26.022,18.965,68.674-5.748,91.78
	c-26.131,24.432-65.484,36.65-99.391,44.38c-55.273,12.599-108.486,10.331-164.343,3.854
	c-85.635-9.929-169.106-29.549-250.319-58.218c-41.328-14.59-91.591-23.031-124.274-55.168c-8.987-8.836-9.579-22.318,0.611-29.831
	c5.308-3.912,11.263-7.181,16.964-10.466c22.155-12.768,45.633-23.394,69.934-31.368C234.364,31.284,271.711,25.321,308.563,29.29z"
	/>
<path fill="#91D3CD" d="M293.438,36.455c103.506,11.147,148.093,90.768,211.792,81.213c22.389-3.359,41.951-16.336,62.268-25.666
	c20.959-9.624,46.836-11.265,69.451-13.526c25.842-2.583,54.695-6.802,79.723,1.47c11.352,3.752,20.017,10.918,27.938,19.764
	c12.362,13.805,21.514,33.288,19.312,52.322c-1.974,17.062-17.969,31.739-30.084,42.528
	c-28.747,25.599-64.139,35.844-101.012,43.819c-37.556,8.124-76.166,5.646-113.927-0.143
	c-77.062-11.814-154.707-20.165-230.376-39.502c-42.576-10.88-82.23-26.82-122.665-43.801
	c-20.396-8.565-43.495-14.418-62.358-26.102c-6.695-4.146-12.228-6.692-14.365-13.958c-6.078-20.676,21.391-31.792,35.881-39.52
	c24.734-13.192,50.938-23.87,78.07-30.989C232.456,36.658,263.157,33.194,293.438,36.455z"/>
<path fill="#B6F484" d="M271.939,47.602c103.505,11.147,148.093,90.767,211.792,81.212c22.391-3.359,41.951-16.336,62.268-25.665
	c20.432-9.382,45.566-11.074,67.613-13.34c13.416-1.379,26.877-2.381,40.352-2.951c25.928-1.098,56.898,0.799,80.225,13.255
	c27.924,14.912,23.625,48.104,17.309,74.302c-4.218,17.495-21.837,29.52-35.562,39.497c-20.539,14.93-42.23,20.183-67.146,24.972
	c-87.061,16.735-179.345,3.338-265.266-12.535c-64.014-11.826-127.211-25.295-189.324-44.842
	c-17.371-5.467-34.285-11.667-51.838-16.551c-15.088-4.197-28.582-10.001-42.486-17.109c-11.357-5.806-28.08-13.396-30.863-27.46
	c-3.818-19.309,30.074-31.836,43.934-38.748c26.904-13.417,55.439-23.92,84.933-29.927C222.188,46.761,247.23,44.941,271.939,47.602
	z"/>
<path fill="#00C6AB" d="M257.608,53.972c103.506,11.147,148.092,90.767,211.791,81.212c23.537-3.53,43.07-18.01,64.99-26.149
	c22.238-8.257,45.861-12.206,69.434-14.14c21.594-1.771,43.688-2.712,65.311-0.948c8.021,0.654,17.164,3.223,24.482,6.389
	c12.663,5.478,28.346,19.277,35.406,31.451c5.219,8.997,5.072,20.604,5.449,30.561c0.354,9.365,0.384,17.503-2.613,26.526
	c-5.045,15.187-11.617,28.209-23.332,38.931c-7.82,7.158-15.085,14.142-24.521,19.017c-11.801,6.099-24.256,8.938-37.381,11.027
	c-53.015,8.438-108.137,6.729-161.662,5.11c-55.863-1.69-111.264-4.875-166.727-11.774c-42.387-5.273-86.27-9.296-127.768-19.937
	c-27.344-7.011-54.674-16.852-81.383-26.046c-19.029-6.55-40.638-10.424-56.486-23.466c-13.748-11.313-25.506-34.909-14.59-51.275
	c2.365-3.547,5.115-8.08,8.377-10.75c36.019-29.488,84.821-49.624,129.564-59.975C202.638,53.561,230.312,51.032,257.608,53.972z"/>
<path fill="#EBF2E3" d="M70.505,107.73c9.5,1.373,19.268,4.418,27.666,5.362c26.229,2.946,52.933,4.023,79.219,1.192
	c45.562-4.906,91.668-3.318,136.811,4.537c16.914,2.943,34.527,5.66,51.069,10.304c9.887,2.775,26.765,7.855,25.728,21.222
	c-0.479,6.176-5.137,8.648-10.538,11c-16.085,7.003-37.078,9.022-54.462,7.032c-6.164-0.706-11.588-3.514-17.846-4.023
	c-5.687-0.464-11.441-0.506-17.142-0.758c-26.912-1.19-53.824-2.38-80.736-3.57c-22.909-1.013-45.817-2.025-68.726-3.039
	c-30.272-1.339-67.353,4.072-91.285-20.088c-8.131-8.209-14.252-21.858-0.387-27.679C56.103,106.609,63.226,106.679,70.505,107.73z"
	/>
<path fill="#F05659" d="M48.7,118.256c12.027-4.196,30.452,1.334,41.265,2.208c21.507,1.739,43.251,2.104,64.73-0.208
	c44.646-4.808,89.821-3.402,134.099,4.063c18.685,3.15,37.994,6.333,56.262,11.479c9.111,2.565,30.47,8.916,25.367,22.533
	c-2.428,6.48-14.242,8.636-19.9,10.015c-18.771,4.574-36.818-1.011-55.3,1.211c-11.538,1.387-23.313,0.171-34.966-0.344
	c-26.932-1.191-53.864-2.382-80.797-3.573c-34.038-1.506-68.293-2.609-102.131-6.865c-12.471-1.568-25.471-5.663-32.867-16.563
	c-4.029-5.937-7.865-14.759-1.889-20.354C44.312,120.229,46.389,119.063,48.7,118.256z"/>
<path fill="#6EEBDC" d="M33.124,116.685c1.151-0.195,2.461-0.194,3.943,0.042c8.682,1.386,17.148,3.983,26.152,4.954
	c25.556,2.756,51.545,3.721,77.143,0.964c54.981-5.922,108.697-2.489,162.682,9.715c15.476,3.498,29.791,7.222,43.922,14.341
	c6.115,3.08,24.502,12.043,16.057,21.144c-2.832,3.053-7.299,3.856-11.088,4.964c-11.018,3.22-22.236,4.611-33.627,5.637
	c-35.87,3.231-69.93-0.942-105.488-5.509c-6.6-0.848-12.896-3.734-19.562-4.116c-7.222-0.413-14.671-0.195-21.971-0.518
	c-29.725-1.314-59.652-1.533-89.188-4.527c-20.318-2.06-44.908-5.566-54.208-26.617C24.749,130.052,24.698,118.112,33.124,116.685z"
	/>
<path fill="#00C6AB" d="M8.908,124.98c9.673-2.48,24.677,1.019,31.683,1.737c24.758,2.539,49.904,3.375,74.688,0.706
	c55.104-5.934,108.93-2.465,163.025,9.793c20.977,4.753,43.271,10.597,61.522,22.571c8.558,5.614,14.655,13.487,3.794,19.058
	c-4.895,2.511-10.965,2.586-16.373,2.889c-42.241,2.37-84.039-4.034-126.108-6.364c-12.382-0.686-24.781-0.956-37.169-1.504
	c-14.005-0.619-28.01-1.238-42.016-1.857c-13.395-0.593-28.555,0.679-41.648-2.221c-20.487-4.537-43.969,0.763-62.876-10.753
	c-7.789-4.744-15.937-11.329-17.247-20.853C-0.909,130.23,3.007,126.493,8.908,124.98z"/>
</svg>
