<?xml version="1.0" encoding="utf-8"?>
<!-- Generator: Adobe Illustrator 15.0.2, SVG Export Plug-In  -->
<!DOCTYPE svg PUBLIC "-//W3C//DTD SVG 1.1//EN" "http://www.w3.org/Graphics/SVG/1.1/DTD/svg11.dtd" [
	<!ENTITY ns_flows "http://ns.adobe.com/Flows/1.0/">
]>
<svg version="1.1"
	 xmlns="http://www.w3.org/2000/svg" xmlns:xlink="http://www.w3.org/1999/xlink" xmlns:a="http://ns.adobe.com/AdobeSVGViewerExtensions/3.0/"
	 x="0px" y="0px" width="917px" height="263px" viewBox="-0.788 -0.437 917 263"
	 overflow="visible" enable-background="new -0.788 -0.437 917 263" xml:space="preserve">
<defs>
</defs>
<path fill="#8A75B5" d="M808.963,21.407C784.083,9.687,756.411,3.33,729.118,1.156c-23.282-1.855-46.636-1.3-69.906,0.417
	c-19.642,1.449-39.143,4.654-58.276,9.296c-38.609,9.366-73.512,27.771-110.596,41.399c-33.053,12.147-66.712,17.321-101.836,13.798
	c-53.832-5.397-104.501-25.67-156.363-39.682C209.1,20.159,183.483,12.903,159.5,11.98c-35.764-1.375-74.486-2.99-108.01,11.698
	C30.236,32.991,9.371,56.328,3.189,78.501c-14.609,52.403,23.346,106.126,65.687,133.007c12.541,7.963,27.968,16.828,42.361,20.781
	c37.661,10.342,80.903,5.438,119.68,5.438c41.941,0,83.882,0,125.821,0c87.5,0,174.999,0,262.496,0c15.945,0,31.889,0,47.834,0
	c27.488,0,54.994-0.277,82.48-0.001c17.623,0.177,31.59,7.077,48.443,9.819c38.658,6.293,71.688-18.262,86.702-52.695
	c4.154-9.527,7.267-19.967,9.003-30.215c1.551-9.15-1.227-15.939-2.74-24.793c-8.538-49.938-30.755-92.669-77.526-116.257
	C811.951,22.839,810.462,22.113,808.963,21.407z"/>
<path fill="#EBF2E3" d="M212.659,240.233c41.999,7.697,85.021,10.424,127.578,12.986c105.378,6.348,211.077,7.799,316.624,8.375
	c43.318,0.236,86.64,0.221,129.96-0.024c27.476-0.155,57.64,2.081,83.308-9.64c30.437-13.898,46.521-50.459,45.06-82.562
	c-1.294-28.381-19.008-63.379-35.052-86.77c-16.026-23.365-33.852-48.319-60.069-60.859c-14.112-6.75-30.388-9.278-45.794-12.144
	C718.705-0.739,658.199-4.748,603.595,12.519c-45.223,14.3-86.174,39.13-130.973,54.522
	c-71.295,24.496-136.928-0.069-204.021-25.268C218.693,23.029,163.25,5.354,109.396,6.535C63.751,7.536,18.57,36.103,21.98,86.315
	c3.422,50.373,42.18,92.478,84.522,116.605c18.948,10.797,40.536,20.168,61.391,26.542
	C182.58,233.952,197.556,237.465,212.659,240.233z"/>
<path fill="#FF345C" d="M685.972,243.668c-11.955-0.17-25.064,1.131-36.838-1.077c-7.449-1.396-15.66-3.656-8.109-10.387
	c5.613-5.005,20.023-1.969,26.908-2.702c29.615-3.16,62.948-8.178,89.281-22.758c10.76-5.957,25.352-15.816,26.432-29.438
	c0.873-11.004-11.638-26.326-21.725-30.023c-26.617-9.76-53.736-8.674-81.376-5.346c-55.511,6.683-109.36,23.076-164.947,29.274
	c-40.523,4.519-81.472,1.319-121.534-5.565c-36.625-6.296-73.947-14.304-106.84-32.287c-15.105-8.258-40.086-22.154-41.17-42.042
	c-1.721-31.696,92.916,3.669,106.617,6.29c29.719,5.684,58.245,3.516,86.992-5.919c16.784-5.508,32.99-12.428,48.983-19.895
	c46.416-21.67,91.792-46.434,141.546-59.734C684.246-2.388,736.5,4.433,790.287,16.85c29.676,6.852,56.529,25.026,77.702,46.545
	c15.694,15.952,32.57,38.246,39.925,60.184c15.338,45.747-7.236,96.354-52.887,112.045c-26.818,9.217-55.486,7.654-83.396,7.554
	C743.078,243.073,714.528,244.071,685.972,243.668z"/>
<path fill="#6EEBDC" d="M819.926,30.352c-17.604-5.333-35.913-8.775-52.868-12.197C704.761,5.581,633.289,7.206,577.15,38.259
	c-99.489,55.033-160.051,88.388-201.856,83.609c-2.582-0.295-20.306-2.028-21.772,0.973c-1.766,3.607,12.056,7.112,14.367,7.873
	c31.617,10.395,65.708,15.457,98.953,14.771c40.512-0.837,79.153-8.97,118.137-19.485c63.589-17.153,132.045-25.037,197.744-18.177
	c16.512,1.724,33.051,3.679,49.447,6.289c15.392,2.45,40.492,12.342,54.793,2.582c13.113-8.951,7.621-33.348,0.193-43.647
	C870.873,50.468,846.184,38.307,819.926,30.352z"/>
<path fill="#F7A7A9" d="M597.224,35.609c-19.4,10.523-37.697,22.901-56.051,35.12c-10.883,7.247-21.555,14.812-32.564,21.869
	c-11.037,7.072-22.066,11.437-33.818,17.058c-3.991,1.909-15.103,5.207-7.343,9.416c12.284,6.665,35.593-0.198,48.077-3.619
	c47.678-13.062,89.697-40.667,139.079-48.854c45.329-7.515,91.815-7.533,137.174-0.23c16.841,2.711,32.301,10.667,49.106,13.518
	c9.195,1.56,29.737,3.801,30.271-10.286c0.83-21.938-31.629-31.353-48.25-35.499c-19.299-4.815-38.84-10.242-58.498-14.055
	C709.406,9.379,647.784,8.188,597.224,35.609z"/>
<path fill="#B6F484" d="M517.429,52.592c0,0-84.805,47.776-146.914,35.833c-62.11-11.944-95.554-46.583-170.803-32.25
	c-75.248,14.333-50.166,59.722,0,84.804c50.166,25.083,205.44,83.609,361.91,33.443c156.47-50.165,181.551-28.666,193.496-16.721
	c11.944,11.943-32.25,54.943-155.275,56.137c-123.025,1.195-267.55-35.832-378.633-13.139
	c-48.468,9.902-96.109-6.541-132.715-38.266c-35.699-30.938-69.669-86.517-18.879-122c45.192-31.572,122.761-20.953,171.012-1.969
	c54.16,21.309,113.777,55.939,174.116,48.386C449.205,82.537,486.477,68.067,517.429,52.592z"/>
<path fill="#B6F484" d="M114.751,29.366l10.691-2.027c0,0,7.001,3.48,13.466-0.478c8.194,1.039,12.53,3.326,12.53,3.326
	S131.08,41.06,114.751,29.366z"/>
<path fill="#3F98DF" d="M444.311,86.582C386.6,104.68,334.792,87.178,279.625,69.655c-23.899-7.591-88.355-16.599-67.258,28.727
	c10.733,23.061,32.901,36.8,55.77,45.82c26.411,10.414,54.052,18.322,81.836,24.047c19.786,4.074,39.926,7.157,60.039,9.092
	c23.084,2.221,46.304,2.998,69.487,2.414c17.11-0.431,44.201-4.26,61.196-6.402c-7.02,0.885-27.439,5.199-34.236,7.166
	c-35.168,10.174-60.512,11.146-105.099,9.555c-45.983-1.643-100.909-14.019-144.111-29.459
	c-25.931-9.269-54.261-20.385-73.187-41.266c-21.441-23.658-16.027-47.912,14.91-57.434c12.301-3.786,26.154-5.573,39.02-4.533
	c16.766,1.356,32.824,6.312,48.68,11.638c32.857,11.039,65.783,21.953,100.639,24.264C406.886,94.58,425.614,92.415,444.311,86.582z
	"/>
<path fill="#00C6AB" d="M499.513,195.924c0,0,160.052-47.777,199.468-45.389c39.416,2.39,31.054,21.5,19.111,29.861
	c-11.944,8.361-71.421,22.872-149.304,19.111c0,0,115.505-13.553,98.783-30.275C650.849,152.511,542.773,188.938,499.513,195.924z"
	/>
<path fill="#344256" d="M536.802,197.895c0,0,98.524-35.23,108.676-22.691c3.583,5.375-9.555,9.555-9.555,9.555
	S619.802,174.01,536.802,197.895z"/>
</svg>
